%
M48
M72
T01C0.02400
T02C0.03200
T03C0.03250
T04C0.03600
T05C0.04000
T06C0.04400
T07C0.05000
T08C0.05118
T09C0.05500
T10C0.10500
T11C0.12500
T12C0.13000
T13C0.16000
%
T01
X185050Y88800
X220050Y72550
X257550Y95050
X271300Y65050
X242550Y51300
X191300Y35050
X303800Y96300
X341300Y77550
X323800Y118800
X355050Y128800
X367550Y117550
X335050Y137550
X376300Y175050
X437550Y190050
X487550Y220050
X518800Y218800
X501300Y245050
X510050Y247550
X461300Y238800
X377550Y232550
X365050Y228800
X356300Y240050
X375050Y240050
X337550Y263800
X306300Y266300
X297550Y278800
X280050Y293800
X302550Y310050
X322550Y302550
X360050Y296300
X335050Y326300
X340050Y352550
X340050Y357550
X332550Y362550
X310050Y352550
X301300Y357550
X301300Y362550
X366300Y356300
X372550Y368800
X382550Y373800
X386300Y378800
X356300Y395050
X410050Y403800
X326300Y436300
X280050Y426300
X275050Y426300
X277550Y415050
X230050Y422550
X197550Y407550
X230050Y360050
X242550Y321300
X240050Y307550
X170050Y223800
X161300Y210050
X187550Y156300
X183800Y141300
X178800Y141300
X167550Y140050
X146300Y133800
X136300Y128800
X276300Y206300
X302550Y197550
X317550Y202550
X436300Y125050
X413800Y121300
X485050Y127550
X527550Y170050
X535050Y172550
X527550Y178800
X565050Y178800
X596300Y185050
X600050Y205050
X626300Y207550
X632550Y202550
X646300Y222550
X638800Y240050
X633800Y240050
X655050Y251300
X632550Y268800
X620050Y261300
X590050Y268800
X586300Y245050
X641300Y285050
X652550Y288800
X692550Y307550
X697550Y303800
X705050Y313800
X687550Y318800
X710050Y326300
X725050Y330050
X721300Y313800
X721300Y297550
X745050Y297550
X757550Y297550
X761300Y306300
X767550Y326300
X780050Y352550
X767550Y360050
X761300Y358800
X780050Y363800
X742550Y352550
X727550Y352550
X702550Y360050
X671300Y342550
X661300Y347550
X655050Y362550
X666300Y370050
X637550Y378800
X625050Y380050
X617550Y383800
X610050Y395050
X585050Y398800
X572550Y391300
X563800Y387550
X600050Y357550
X615050Y355050
X648800Y333800
X661300Y322550
X727550Y266300
X702550Y258800
X745050Y230050
X702550Y222550
X692550Y207550
X683800Y193800
X680050Y188800
X711300Y191300
X731300Y181300
X755050Y198800
X791300Y181300
X802550Y181300
X787550Y155050
X801300Y127550
X840050Y123800
X843800Y112550
X886300Y115050
X900050Y145050
X925050Y145050
X936300Y145050
X978800Y142550
X983800Y152550
X987550Y163800
X997550Y187550
X1017550Y211300
X996300Y255050
X997550Y272550
X1091300Y295050
X1092550Y310050
X1153800Y302550
X1161300Y311300
X1212550Y341300
X1162550Y347550
X1162550Y365050
X1140050Y371300
X1152550Y391300
X1157550Y405050
X1031300Y492550
X1093800Y527550
X983800Y582550
X975050Y586300
X976300Y552550
X881300Y568800
X877550Y572550
X835050Y560050
X815050Y556300
X797550Y563800
X801300Y571300
X811300Y587550
X820050Y593800
X801300Y600050
X832550Y585050
X738800Y585050
X731300Y581300
X735050Y603800
X720050Y610050
X712550Y607550
X680050Y580050
X662550Y572550
X676300Y555050
X702550Y551300
X706300Y555050
X708800Y547550
X715050Y522550
X723800Y518800
X697550Y510050
X691300Y506300
X685050Y515050
X695050Y517550
X631300Y491300
X611300Y506300
X576300Y496300
X558800Y508800
X581300Y542550
X587550Y565050
X638800Y607550
X835050Y523800
X852550Y496300
X857550Y496300
X801300Y471300
X811300Y456300
X791300Y447550
X781300Y448800
X775050Y448800
X730050Y432550
X730050Y421300
X730050Y411300
X705050Y418800
X701300Y400050
X715050Y382550
X741300Y377550
X761300Y400050
X765050Y416300
X705050Y441300
X670050Y448800
X613800Y436300
X596300Y426300
X585050Y448800
X560050Y467550
X490050Y485050
X411300Y508800
X398800Y535050
X261300Y575050
X490050Y415050
X431300Y345050
X420050Y345050
X406300Y331300
X410050Y326300
X511300Y297550
X676300Y391300
X636300Y403800
X823800Y316300
X823800Y311300
X868800Y308800
X881300Y316300
X866300Y280050
X858800Y261300
X866300Y247550
X850050Y247550
X840050Y227550
X816300Y230050
X816300Y240050
X816300Y248800
X816300Y258800
X797550Y243800
X816300Y218800
X775050Y266300
X771300Y270050
X921300Y348800
X915050Y352550
X911300Y360050
X937550Y345050
X907550Y392550
X891300Y408800
X881300Y396300
X835050Y400050
X862550Y432550
X877550Y428800
X983800Y402550
X1182550Y262550
X1102550Y237550
X1125050Y210050
X1100050Y196300
X1173800Y185050
X1180050Y175050
X1180050Y142550
X1171300Y96300
X1158800Y80050
X1078800Y120050
X1038800Y146300
X995050Y138800
X890050Y166300
X780050Y97550
X711300Y85050
X633800Y137550
X610050Y120050
X582550Y131300
X706300Y146300
X420050Y28800
T02
X431300Y76300
X461300Y76300
X486300Y101300
X486300Y111300
X461300Y106300
X431300Y106300
X406300Y106300
X406300Y96300
X381300Y106300
X351300Y106300
X326300Y106300
X326300Y96300
X296300Y106300
X286300Y106300
X276300Y106300
X266300Y106300
X256300Y106300
X246300Y106300
X236300Y106300
X226300Y106300
X226300Y96300
X201300Y106300
X191300Y106300
X181300Y106300
X171300Y106300
X161300Y106300
X151300Y106300
X141300Y106300
X131300Y106300
X131300Y96300
X141300Y76300
X151300Y76300
X161300Y76300
X171300Y76300
X181300Y76300
X191300Y76300
X201300Y76300
X231300Y61300
X231300Y46300
X261300Y46300
X261300Y61300
X256300Y76300
X246300Y76300
X236300Y76300
X266300Y76300
X276300Y76300
X286300Y76300
X296300Y76300
X351300Y76300
X381300Y76300
X296300Y126300
X286300Y126300
X276300Y126300
X266300Y126300
X256300Y126300
X246300Y126300
X236300Y126300
X226300Y146300
X226300Y156300
X236300Y156300
X246300Y156300
X256300Y156300
X266300Y156300
X276300Y156300
X286300Y156300
X296300Y156300
X301300Y186300
X311300Y186300
X321300Y186300
X331300Y186300
X341300Y186300
X351300Y186300
X361300Y186300
X371300Y186300
X381300Y186300
X391300Y186300
X446300Y201300
X456300Y201300
X466300Y201300
X476300Y201300
X486300Y201300
X496300Y201300
X506300Y201300
X506300Y231300
X496300Y231300
X486300Y231300
X476300Y231300
X466300Y231300
X456300Y231300
X446300Y231300
X436300Y231300
X436300Y221300
X391300Y216300
X381300Y216300
X371300Y216300
X361300Y216300
X351300Y216300
X341300Y216300
X331300Y216300
X321300Y216300
X311300Y216300
X301300Y216300
X291300Y216300
X291300Y206300
X271300Y216300
X261300Y216300
X251300Y216300
X241300Y216300
X231300Y216300
X221300Y216300
X211300Y216300
X201300Y216300
X201300Y206300
X211300Y186300
X221300Y186300
X231300Y186300
X241300Y186300
X251300Y186300
X261300Y186300
X271300Y186300
X221300Y231300
X191300Y231300
X286300Y276300
X286300Y286300
X301300Y286300
X311300Y286300
X321300Y286300
X331300Y286300
X341300Y286300
X351300Y286300
X361300Y286300
X371300Y286300
X381300Y286300
X391300Y286300
X426300Y281300
X426300Y291300
X436300Y291300
X446300Y291300
X456300Y291300
X466300Y291300
X476300Y291300
X486300Y291300
X496300Y291300
X506300Y291300
X516300Y306300
X486300Y306300
X541300Y281300
X551300Y281300
X561300Y281300
X571300Y281300
X581300Y281300
X591300Y281300
X601300Y281300
X611300Y281300
X656300Y281300
X666300Y281300
X676300Y281300
X686300Y281300
X696300Y281300
X706300Y281300
X716300Y281300
X726300Y281300
X736300Y281300
X746300Y281300
X756300Y281300
X766300Y281300
X776300Y281300
X776300Y251300
X766300Y251300
X756300Y251300
X746300Y251300
X736300Y251300
X726300Y251300
X716300Y251300
X706300Y251300
X696300Y251300
X686300Y251300
X676300Y251300
X666300Y251300
X656300Y271300
X611300Y251300
X601300Y251300
X591300Y251300
X581300Y251300
X571300Y251300
X561300Y251300
X551300Y251300
X541300Y271300
X516300Y246300
X506300Y261300
X496300Y261300
X486300Y261300
X476300Y261300
X466300Y261300
X456300Y261300
X446300Y261300
X436300Y261300
X391300Y256300
X381300Y256300
X371300Y256300
X361300Y256300
X351300Y256300
X341300Y256300
X331300Y256300
X321300Y256300
X311300Y256300
X301300Y256300
X221300Y301300
X206300Y306300
X206300Y321300
X206300Y331300
X206300Y341300
X221300Y331300
X206300Y351300
X206300Y361300
X206300Y371300
X206300Y381300
X221300Y371300
X221300Y391300
X206300Y391300
X206300Y401300
X176300Y401300
X176300Y391300
X176300Y381300
X176300Y371300
X176300Y361300
X176300Y351300
X176300Y341300
X176300Y331300
X176300Y321300
X176300Y306300
X176300Y291300
X206300Y291300
X301300Y341300
X311300Y341300
X321300Y341300
X331300Y341300
X341300Y341300
X351300Y341300
X361300Y341300
X361300Y321300
X331300Y321300
X291300Y361300
X291300Y371300
X301300Y371300
X311300Y371300
X321300Y371300
X331300Y371300
X341300Y371300
X351300Y371300
X361300Y371300
X206300Y416300
X196300Y416300
X141300Y416300
X121300Y416300
X121300Y386300
X141300Y386300
X116300Y451300
X166300Y451300
X291300Y501300
X301300Y501300
X311300Y501300
X321300Y501300
X331300Y501300
X341300Y501300
X351300Y501300
X361300Y501300
X371300Y501300
X381300Y501300
X421300Y496300
X431300Y496300
X441300Y496300
X451300Y496300
X461300Y496300
X381300Y531300
X371300Y531300
X361300Y531300
X351300Y531300
X341300Y531300
X331300Y531300
X321300Y531300
X311300Y531300
X301300Y531300
X291300Y531300
X281300Y531300
X281300Y521300
X256300Y546300
X246300Y546300
X291300Y551300
X301300Y551300
X311300Y551300
X321300Y551300
X331300Y551300
X341300Y551300
X351300Y551300
X361300Y551300
X371300Y551300
X366300Y571300
X356300Y571300
X346300Y571300
X336300Y571300
X326300Y571300
X316300Y571300
X306300Y571300
X296300Y571300
X296300Y601300
X306300Y601300
X316300Y601300
X326300Y601300
X336300Y601300
X346300Y601300
X356300Y601300
X366300Y601300
X401300Y546300
X411300Y546300
X441300Y546300
X451300Y546300
X481300Y546300
X491300Y546300
X566300Y536300
X576300Y536300
X586300Y536300
X596300Y536300
X606300Y536300
X616300Y536300
X626300Y536300
X636300Y536300
X646300Y536300
X656300Y536300
X666300Y536300
X676300Y536300
X686300Y536300
X696300Y536300
X706300Y536300
X716300Y536300
X816300Y496300
X846300Y496300
X1031300Y506300
X1051300Y506300
X1071300Y506300
X1091300Y506300
X1116300Y506300
X1116300Y516300
X1116300Y526300
X1116300Y536300
X1136300Y546300
X1146300Y546300
X1146300Y536300
X1146300Y526300
X1146300Y516300
X1146300Y506300
X1146300Y496300
X1146300Y486300
X1146300Y476300
X1146300Y466300
X1146300Y456300
X1146300Y446300
X1146300Y426300
X1146300Y416300
X1136300Y426300
X1116300Y416300
X1116300Y406300
X1116300Y396300
X1116300Y386300
X1116300Y376300
X1116300Y366300
X1116300Y356300
X1116300Y346300
X1116300Y336300
X1116300Y326300
X1136300Y306300
X1146300Y306300
X1146300Y296300
X1146300Y286300
X1161300Y281300
X1161300Y291300
X1146300Y276300
X1146300Y266300
X1161300Y261300
X1161300Y271300
X1146300Y256300
X1146300Y246300
X1161300Y241300
X1161300Y251300
X1146300Y236300
X1161300Y231300
X1161300Y221300
X1146300Y216300
X1146300Y226300
X1161300Y211300
X1146300Y206300
X1146300Y191300
X1136300Y191300
X1146300Y181300
X1146300Y171300
X1161300Y171300
X1161300Y161300
X1161300Y151300
X1146300Y151300
X1146300Y161300
X1146300Y141300
X1146300Y131300
X1161300Y131300
X1161300Y141300
X1161300Y121300
X1161300Y111300
X1146300Y111300
X1146300Y121300
X1146300Y101300
X1146300Y91300
X1161300Y91300
X1161300Y101300
X1116300Y101300
X1116300Y91300
X1116300Y111300
X1116300Y121300
X1116300Y131300
X1116300Y141300
X1116300Y151300
X1116300Y161300
X1116300Y171300
X1116300Y181300
X1116300Y206300
X1116300Y216300
X1116300Y226300
X1116300Y236300
X1116300Y246300
X1116300Y256300
X1116300Y266300
X1116300Y276300
X1116300Y286300
X1116300Y296300
X1146300Y326300
X1146300Y336300
X1146300Y346300
X1146300Y356300
X1146300Y366300
X1146300Y376300
X1146300Y386300
X1146300Y396300
X1146300Y406300
X1116300Y446300
X1116300Y456300
X1116300Y466300
X1116300Y476300
X1116300Y486300
X1116300Y496300
X1091300Y481300
X1071300Y481300
X1046300Y476300
X1036300Y476300
X1076300Y451300
X1086300Y451300
X796300Y371300
X786300Y371300
X776300Y371300
X766300Y371300
X756300Y371300
X746300Y371300
X736300Y371300
X726300Y371300
X716300Y371300
X706300Y371300
X696300Y371300
X686300Y371300
X676300Y371300
X676300Y361300
X686300Y341300
X696300Y341300
X706300Y341300
X716300Y341300
X726300Y341300
X736300Y341300
X746300Y341300
X756300Y341300
X766300Y341300
X776300Y341300
X786300Y341300
X796300Y341300
X871300Y261300
X871300Y231300
X871300Y216300
X881300Y216300
X891300Y216300
X901300Y216300
X911300Y216300
X921300Y216300
X931300Y216300
X941300Y216300
X951300Y216300
X951300Y186300
X941300Y186300
X931300Y186300
X921300Y186300
X911300Y186300
X901300Y186300
X891300Y186300
X881300Y186300
X871300Y186300
X861300Y186300
X851300Y206300
X841300Y201300
X851300Y216300
X861300Y216300
X811300Y201300
X796300Y166300
X786300Y166300
X776300Y166300
X766300Y166300
X756300Y166300
X746300Y166300
X736300Y166300
X726300Y166300
X716300Y166300
X706300Y166300
X696300Y166300
X686300Y166300
X676300Y166300
X666300Y166300
X656300Y166300
X646300Y166300
X636300Y166300
X626300Y166300
X616300Y166300
X606300Y166300
X596300Y166300
X586300Y166300
X596300Y156300
X586300Y146300
X576300Y146300
X566300Y131300
X576300Y116300
X566300Y106300
X566300Y96300
X586800Y81300
X605800Y81300
X606300Y106300
X616300Y106300
X626300Y106300
X636300Y106300
X646300Y106300
X656300Y106300
X666300Y106300
X676300Y106300
X686300Y106300
X696300Y106300
X706300Y106300
X716300Y106300
X726300Y106300
X736300Y106300
X746300Y106300
X756300Y106300
X766300Y106300
X776300Y106300
X786300Y106300
X796300Y106300
X851300Y106300
X861300Y106300
X871300Y106300
X881300Y106300
X891300Y106300
X901300Y106300
X911300Y106300
X921300Y106300
X931300Y106300
X951300Y106300
X931300Y126300
X921300Y126300
X911300Y126300
X901300Y126300
X891300Y126300
X881300Y126300
X871300Y126300
X861300Y126300
X851300Y146300
X851300Y156300
X861300Y156300
X871300Y156300
X881300Y156300
X891300Y156300
X901300Y156300
X911300Y156300
X921300Y156300
X931300Y156300
X951300Y136300
X971300Y156300
X971300Y186300
X1041300Y216300
X1051300Y216300
X726300Y91300
X716300Y91300
X706300Y91300
X696300Y91300
X686300Y91300
X676300Y91300
X666300Y91300
X656300Y91300
X646300Y91300
X541300Y76300
X511300Y76300
X511300Y106300
X541300Y106300
X516300Y136300
X506300Y136300
X496300Y136300
X486300Y136300
X476300Y136300
X466300Y136300
X456300Y136300
X446300Y156300
X446300Y166300
X456300Y166300
X466300Y166300
X476300Y166300
X486300Y166300
X496300Y166300
X506300Y166300
X516300Y166300
X566300Y161300
X611300Y191300
X621300Y191300
X631300Y191300
X646300Y181300
X656300Y181300
X666300Y181300
X676300Y181300
X686300Y181300
X696300Y181300
X651300Y211300
X621300Y211300
X486300Y246300
X576300Y321300
X606300Y321300
X601300Y341300
X591300Y341300
X581300Y341300
X571300Y341300
X561300Y341300
X551300Y341300
X541300Y361300
X541300Y371300
X551300Y371300
X561300Y371300
X571300Y371300
X581300Y371300
X591300Y371300
X601300Y371300
X611300Y371300
X621300Y371300
X631300Y371300
X641300Y371300
X641300Y341300
X631300Y341300
X621300Y341300
X611300Y341300
X556300Y586300
X556300Y596300
X566300Y596300
X576300Y596300
X586300Y596300
X596300Y596300
X606300Y596300
X616300Y596300
X626300Y596300
X636300Y596300
X646300Y596300
X656300Y596300
X666300Y596300
X676300Y596300
X686300Y596300
X696300Y596300
X706300Y596300
X716300Y596300
X786300Y591300
X786300Y601300
X491300Y591300
X481300Y591300
X121300Y151300
X121300Y121300
T03
X1191300Y116300
X1191300Y106300
X1191300Y96300
X1191300Y86300
X1191300Y76300
X1221300Y76300
X1221300Y86300
X1221300Y96300
X1221300Y106300
X1221300Y116300
X1221300Y126300
X1221300Y136300
X1221300Y146300
X1221300Y156300
X1221300Y166300
X1221300Y176300
X1221300Y186300
X1221300Y196300
X1221300Y206300
X1221300Y216300
X1221300Y226300
X1221300Y236300
X1221300Y246300
X1221300Y256300
X1221300Y266300
X1221300Y276300
X1221300Y286300
X1221300Y296300
X1221300Y306300
X1221300Y316300
X1221300Y336300
X1221300Y346300
X1221300Y356300
X1221300Y366300
X1221300Y376300
X1221300Y386300
X1221300Y396300
X1221300Y406300
X1221300Y416300
X1221300Y426300
X1221300Y436300
X1221300Y446300
X1221300Y456300
X1221300Y466300
X1221300Y476300
X1221300Y486300
X1221300Y496300
X1221300Y506300
X1221300Y516300
X1221300Y526300
X1221300Y536300
X1221300Y546300
X1221300Y556300
X1221300Y566300
X1221300Y576300
X1191300Y576300
X1191300Y566300
X1191300Y556300
X1191300Y546300
X1191300Y536300
X1191300Y526300
X1191300Y516300
X1191300Y506300
X1191300Y496300
X1191300Y486300
X1191300Y476300
X1191300Y466300
X1191300Y456300
X1191300Y446300
X1191300Y436300
X1191300Y426300
X1191300Y416300
X1191300Y406300
X1191300Y396300
X1191300Y386300
X1191300Y376300
X1191300Y366300
X1191300Y356300
X1191300Y346300
X1191300Y336300
X1191300Y316300
X1191300Y306300
X1191300Y296300
X1191300Y286300
X1191300Y276300
X1191300Y266300
X1191300Y256300
X1191300Y246300
X1191300Y236300
X1191300Y226300
X1191300Y216300
X1191300Y206300
X1191300Y196300
X1191300Y186300
X1191300Y176300
X1191300Y166300
X1191300Y156300
X1191300Y146300
X1191300Y136300
X1191300Y126300
T04
X116300Y41300
X126300Y41300
X136300Y41300
X156300Y41300
X166300Y41300
X176300Y41300
X196300Y41300
X206300Y41300
X216300Y41300
X281300Y36300
X291300Y36300
X301300Y36300
X301300Y56300
X291300Y56300
X281300Y56300
X336300Y146300
X346300Y146300
X356300Y146300
X381300Y146300
X391300Y146300
X401300Y146300
X546300Y236300
X556300Y236300
X566300Y236300
X566300Y301300
X556300Y301300
X576300Y301300
X596300Y301300
X606300Y301300
X616300Y301300
X541300Y321300
X531300Y321300
X521300Y321300
X401300Y321300
X391300Y321300
X381300Y321300
X161300Y171300
X151300Y171300
X141300Y171300
X726300Y386300
X726300Y396300
X786300Y391300
X796300Y391300
X806300Y391300
X1056300Y311300
X1056300Y301300
X1056300Y291300
X1091300Y286300
X1091300Y276300
X1091300Y266300
X1056300Y256300
X1056300Y246300
X1091300Y216300
X1091300Y206300
X1091300Y196300
X991300Y131300
X981300Y131300
X971300Y131300
X971300Y106300
X981300Y106300
X826300Y136300
X826300Y146300
X826300Y156300
X826300Y171300
X826300Y181300
X1091300Y316300
X1091300Y326300
X1091300Y336300
X526300Y516300
X526300Y526300
X526300Y536300
X526300Y576300
X526300Y586300
X526300Y596300
X231300Y511300
X231300Y501300
T05
X236300Y601300
X246300Y601300
X256300Y601300
X266300Y601300
X391300Y596300
X401300Y596300
X411300Y596300
X437450Y596200
X455150Y596200
X766300Y596300
X766300Y586300
X766300Y576300
X766300Y566300
X766300Y556300
X746300Y386300
X736300Y386300
X971300Y206300
X981300Y206300
X991300Y206300
X1001300Y206300
X1011300Y206300
X1081300Y276300
X1206300Y276300
X1206300Y266300
X1206300Y256300
X1206300Y246300
X1206300Y236300
X1206300Y226300
X1206300Y216300
X1206300Y206300
X1206300Y196300
X1206300Y186300
X1206300Y176300
X1206300Y166300
X1206300Y156300
X1206300Y146300
X1206300Y136300
X1206300Y126300
X1206300Y116300
X1206300Y106300
X1206300Y96300
X1206300Y86300
X1206300Y76300
X1206300Y286300
X1206300Y296300
X1206300Y306300
X1206300Y316300
X1206300Y336300
X1206300Y346300
X1206300Y356300
X1206300Y366300
X1206300Y376300
X1206300Y386300
X1206300Y396300
X1206300Y406300
X1206300Y416300
X1206300Y426300
X1206300Y436300
X1206300Y446300
X1206300Y456300
X1206300Y466300
X1206300Y476300
X1206300Y486300
X1206300Y496300
X1206300Y506300
X1206300Y516300
X1206300Y526300
X1206300Y536300
X1206300Y546300
X1206300Y556300
X1206300Y566300
X1206300Y576300
X351300Y301300
X351300Y171300
X346300Y156300
X311300Y171300
X346300Y136300
T06
X231300Y436300
X216300Y436300
X166300Y436300
X231300Y486300
X1041300Y531300
X1051300Y531300
X1061300Y531300
T07
X971300Y536300
X961300Y536300
X951300Y536300
X941300Y536300
X931300Y536300
X921300Y536300
X911300Y536300
X901300Y536300
X891300Y536300
X881300Y536300
X871300Y536300
X861300Y536300
X851300Y536300
X841300Y536300
X841300Y596300
X851300Y596300
X861300Y596300
X871300Y596300
X881300Y596300
X891300Y596300
X901300Y596300
X911300Y596300
X921300Y596300
X931300Y596300
X941300Y596300
X951300Y596300
X961300Y596300
X971300Y596300
T08
X202954Y511300
X124213Y511300
T09
X432500Y586400
X460100Y586400
T10
X1092402Y576300
X1111300Y588111
T11
X1111300Y564095
T12
X1051300Y590300
T13
X51300Y521300
X51300Y421300
X51300Y321300
X51300Y221300
X51300Y121300
M30
