%
M48
M72
T01C0.02400
T02C0.03200
T03C0.03250
T04C0.03600
T05C0.04000
T06C0.04400
T07C0.04724
T08C0.05118
T09C0.12500
T10C0.13000
%
T01
X101991Y220800
X193991Y234800
X200991Y191800
X230491Y183800
X248491Y195800
X253991Y191300
X233491Y226300
X282991Y176300
X287491Y131800
X300991Y86300
X320491Y78300
X319491Y60300
X303991Y39800
X244991Y35800
X242491Y26800
X228491Y35800
X233991Y46800
X236991Y71300
X233491Y76800
X244491Y85300
X244491Y110300
X242491Y136800
X214991Y104800
X172991Y64800
X334491Y238800
X356491Y218300
X343491Y196300
X348491Y170300
X341991Y124800
X387991Y149800
X384491Y207800
X332991Y315300
X270991Y338300
X221991Y355300
X216991Y357300
X237991Y415300
X162991Y377300
X155991Y432300
T02
X146991Y431300
X146991Y441300
X136991Y441300
X136991Y431300
X136991Y421300
X136991Y411300
X126991Y396300
X116991Y396300
X106991Y411300
X106991Y421300
X106991Y431300
X106991Y441300
X96991Y431300
X96991Y421300
X96991Y411300
X81991Y401300
X66991Y396300
X66991Y406300
X81991Y431300
X71991Y436300
X71991Y466300
X86991Y476300
X86991Y486300
X96991Y461300
X121991Y451300
X136991Y456300
X136991Y466300
X136991Y481300
X136991Y491300
X136991Y506300
X146991Y506300
X156991Y506300
X156991Y516300
X146991Y516300
X166991Y516300
X176991Y516300
X176991Y506300
X166991Y506300
X186991Y506300
X196991Y506300
X196991Y516300
X186991Y516300
X206991Y516300
X216991Y516300
X216991Y506300
X206991Y506300
X206991Y546300
X216991Y546300
X196991Y546300
X186991Y546300
X176991Y546300
X166991Y546300
X156991Y546300
X146991Y546300
X121991Y481300
X126991Y376300
X116991Y376300
X106991Y361300
X106991Y351300
X106991Y341300
X106991Y331300
X116991Y316300
X126991Y316300
X136991Y331300
X136991Y341300
X136991Y351300
X136991Y361300
X146991Y356300
X146991Y346300
X156991Y291300
X156991Y281300
X156991Y261300
X156991Y251300
X171991Y271300
X181991Y271300
X191991Y271300
X201991Y271300
X211991Y271300
X221991Y271300
X221991Y281300
X231991Y281300
X231991Y271300
X241991Y271300
X251991Y271300
X261991Y271300
X271991Y271300
X281991Y271300
X291991Y271300
X301991Y271300
X271991Y321300
X276991Y331300
X266991Y331300
X256991Y331300
X246991Y331300
X241991Y321300
X236991Y331300
X221991Y316300
X211991Y316300
X211991Y291300
X241991Y291300
X286991Y331300
X296991Y331300
X306991Y331300
X316991Y331300
X326991Y331300
X326991Y361300
X316991Y361300
X306991Y361300
X296991Y361300
X286991Y361300
X276991Y361300
X266991Y361300
X256991Y361300
X246991Y361300
X236991Y361300
X226991Y361300
X226991Y351300
X226991Y411300
X226991Y421300
X231991Y446300
X256991Y461300
X271991Y446300
X276991Y461300
X271991Y421300
X261991Y421300
X321991Y431300
X331991Y431300
X326991Y461300
X346991Y461300
X301991Y211300
X291991Y211300
X281991Y211300
X271991Y211300
X261991Y211300
X251991Y211300
X241991Y211300
X246991Y201300
X236991Y201300
X231991Y211300
X221991Y211300
X211991Y211300
X201991Y211300
X191991Y211300
X181991Y211300
X171991Y211300
X151991Y206300
X139491Y191300
X131991Y186300
X131991Y196300
X116991Y206300
X106991Y206300
X106991Y176300
X106991Y166300
X116991Y166300
X116991Y176300
X131991Y156300
X139491Y151300
X131991Y146300
X116991Y136300
X106991Y136300
X106991Y121300
X106991Y111300
X106991Y101300
X106991Y91300
X106991Y81300
X106991Y71300
X106991Y61300
X106991Y51300
X106991Y41300
X106991Y31300
X106991Y21300
X116991Y66300
X116991Y76300
X121991Y91300
X122991Y111300
X130991Y111300
X151991Y91300
X151991Y136300
X151991Y166300
X151991Y176300
X136991Y261800
X136991Y280800
X86991Y311300
X81991Y336300
X81991Y346300
X56991Y326300
X56991Y311300
X46991Y326300
X31991Y206300
X31991Y176300
X31991Y156300
X46991Y146300
X56991Y146300
X66991Y121300
X66991Y111300
X66991Y101300
X66991Y91300
X66991Y81300
X66991Y71300
X66991Y61300
X66991Y51300
X66991Y41300
X66991Y31300
X66991Y21300
X56991Y66300
X56991Y76300
X46991Y86300
X26991Y86400
X16991Y96300
X26991Y106200
X31991Y126300
X46991Y116300
X216991Y196300
X226991Y196300
X246991Y151300
X256991Y151300
X256991Y141300
X256991Y131300
X256991Y121300
X256991Y111300
X256991Y101300
X256991Y91300
X256991Y81300
X256991Y71300
X256991Y61300
X256991Y51300
X276991Y51300
X276991Y61300
X276991Y71300
X276991Y81300
X276991Y91300
X276991Y101300
X276991Y111300
X276991Y121300
X276991Y131300
X276991Y141300
X296991Y151300
X306991Y151300
X306991Y141300
X306991Y131300
X306991Y121300
X306991Y111300
X306991Y101300
X306991Y91300
X306991Y81300
X306991Y71300
X306991Y61300
X306991Y51300
X226991Y51300
X226991Y61300
X226991Y71300
X226991Y81300
X226991Y91300
X226991Y101300
X226991Y111300
X226991Y121300
X226991Y131300
X226991Y141300
X41891Y536300
X31991Y546300
X22091Y536300
T03
X361991Y533800
X361991Y523800
X361991Y513800
X361991Y503800
X361991Y493800
X361991Y483800
X361991Y473800
X361991Y463800
X361991Y453800
X361991Y443800
X361991Y433800
X361991Y423800
X361991Y413800
X361991Y403800
X361991Y393800
X361991Y383800
X361991Y373800
X361991Y363800
X361991Y353800
X361991Y343800
X361991Y333800
X361991Y323800
X361991Y313800
X361991Y303800
X361991Y293800
X361991Y273800
X361991Y263800
X361991Y253800
X361991Y243800
X361991Y233800
X361991Y223800
X361991Y213800
X361991Y203800
X361991Y193800
X361991Y183800
X361991Y173800
X361991Y163800
X361991Y153800
X361991Y143800
X361991Y133800
X361991Y123800
X361991Y113800
X361991Y103800
X361991Y93800
X361991Y83800
X361991Y73800
X361991Y63800
X361991Y53800
X361991Y43800
X361991Y33800
X391991Y33800
X391991Y43800
X391991Y53800
X391991Y63800
X391991Y73800
X391991Y83800
X391991Y93800
X391991Y103800
X391991Y113800
X391991Y123800
X391991Y133800
X391991Y143800
X391991Y153800
X391991Y163800
X391991Y173800
X391991Y183800
X391991Y193800
X391991Y203800
X391991Y213800
X391991Y223800
X391991Y233800
X391991Y243800
X391991Y253800
X391991Y263800
X391991Y273800
X391991Y293800
X391991Y303800
X391991Y313800
X391991Y323800
X391991Y333800
X391991Y343800
X391991Y353800
X391991Y363800
X391991Y373800
X391991Y383800
X391991Y393800
X391991Y403800
X391991Y413800
X391991Y423800
X391991Y433800
X391991Y443800
X391991Y453800
X391991Y463800
X391991Y473800
X391991Y483800
X391991Y493800
X391991Y503800
X391991Y513800
X391991Y523800
X391991Y533800
T04
X126991Y531300
X116991Y531300
X21991Y511300
X21991Y501300
X326991Y121300
X336991Y121300
X336991Y111300
X336991Y101300
X336991Y91300
X336991Y81300
X336991Y71300
X336991Y61300
X326991Y61300
X326991Y71300
X326991Y81300
X326991Y91300
X326991Y101300
X326991Y111300
T05
X376991Y113800
X376991Y123800
X376991Y133800
X376991Y143800
X376991Y153800
X376991Y163800
X376991Y173800
X376991Y183800
X376991Y193800
X376991Y203800
X376991Y213800
X376991Y223800
X376991Y233800
X376991Y243800
X376991Y253800
X376991Y263800
X376991Y273800
X376991Y293800
X376991Y303800
X376991Y313800
X376991Y323800
X376991Y333800
X376991Y343800
X376991Y353800
X376991Y363800
X376991Y373800
X376991Y383800
X376991Y393800
X376991Y403800
X376991Y413800
X376991Y423800
X376991Y433800
X376991Y443800
X376991Y453800
X376991Y463800
X376991Y473800
X376991Y483800
X376991Y493800
X376991Y503800
X376991Y513800
X376991Y523800
X376991Y533800
X136991Y376300
X206991Y196300
X66991Y146300
X376991Y103800
X376991Y93800
X376991Y83800
X376991Y73800
X376991Y63800
X376991Y53800
X376991Y43800
X376991Y33800
T06
X296991Y411300
X296991Y461300
X306991Y481300
X316991Y481300
X326991Y481300
X271991Y481300
X261991Y481300
X251991Y481300
X81991Y216300
X31991Y216300
T07
X26991Y381615
X17148Y381615
X17148Y420985
X26991Y420985
X26991Y441615
X17148Y441615
X17148Y480985
X26991Y480985
X57306Y536300
X57306Y546143
X96676Y546143
X96676Y536300
T08
X96676Y516615
X86833Y516615
X76833Y516615
X67148Y516615
X57306Y516615
X76991Y536300
X46676Y480985
X46676Y471143
X46676Y461143
X46676Y451457
X46676Y441615
X46676Y420985
X46676Y411143
X46676Y401143
X46676Y391457
X46676Y381615
X26991Y401300
X26991Y461300
T09
X21991Y16300
X21991Y251300
X21991Y351300
X201991Y16300
X331991Y16300
T10
X316991Y540300
X261991Y540300
M30
