G75*
%MOIN*%
%OFA0B0*%
%FSLAX25Y25*%
%IPPOS*%
%LPD*%
%AMOC8*
5,1,8,0,0,1.08239X$1,22.5*
%
%ADD10C,0.13300*%
%ADD11OC8,0.06000*%
%ADD12C,0.06000*%
%ADD13C,0.08200*%
%ADD14C,0.06000*%
%ADD15OC8,0.07100*%
%ADD16C,0.07100*%
%ADD17C,0.06400*%
%ADD18C,0.09400*%
%ADD19C,0.05524*%
%ADD20OC8,0.06800*%
%ADD21C,0.07400*%
%ADD22C,0.06800*%
%ADD23R,0.05400X0.07100*%
%ADD24R,0.00600X0.07200*%
%ADD25C,0.13800*%
%ADD26OC8,0.06050*%
%ADD27OC8,0.06400*%
%ADD28R,0.07100X0.05400*%
%ADD29R,0.07200X0.00600*%
D10*
X0021991Y0016300D03*
X0021991Y0251300D03*
X0021991Y0351300D03*
X0201991Y0016300D03*
X0331991Y0016300D03*
D11*
X0306991Y0151300D03*
X0296991Y0151300D03*
X0256991Y0151300D03*
X0246991Y0151300D03*
X0226991Y0196300D03*
X0236991Y0201300D03*
X0246991Y0201300D03*
X0216991Y0196300D03*
X0156991Y0251300D03*
X0156991Y0261300D03*
X0156991Y0281300D03*
X0156991Y0291300D03*
X0126991Y0316300D03*
X0116991Y0316300D03*
X0146991Y0346300D03*
X0146991Y0356300D03*
X0126991Y0376300D03*
X0116991Y0376300D03*
X0116991Y0396300D03*
X0126991Y0396300D03*
X0146991Y0431300D03*
X0146991Y0441300D03*
X0136991Y0456300D03*
X0136991Y0466300D03*
X0136991Y0481300D03*
X0136991Y0491300D03*
X0121991Y0481300D03*
X0121991Y0451300D03*
X0096991Y0461300D03*
X0096991Y0431300D03*
X0096991Y0421300D03*
X0096991Y0411300D03*
X0081991Y0401300D03*
X0066991Y0396300D03*
X0066991Y0406300D03*
X0081991Y0431300D03*
X0071991Y0436300D03*
X0071991Y0466300D03*
X0041891Y0536300D03*
X0031991Y0546300D03*
X0022091Y0536300D03*
X0046991Y0326300D03*
X0056991Y0326300D03*
X0056991Y0311300D03*
X0086991Y0311300D03*
X0106991Y0206300D03*
X0116991Y0206300D03*
X0116991Y0176300D03*
X0116991Y0166300D03*
X0106991Y0166300D03*
X0106991Y0176300D03*
X0106991Y0136300D03*
X0116991Y0136300D03*
X0130991Y0111300D03*
X0121991Y0091300D03*
X0116991Y0076300D03*
X0116991Y0066300D03*
X0151991Y0091300D03*
X0151991Y0136300D03*
X0151991Y0166300D03*
X0151991Y0176300D03*
X0151991Y0206300D03*
X0211991Y0291300D03*
X0221991Y0281300D03*
X0231991Y0281300D03*
X0241991Y0291300D03*
X0241991Y0321300D03*
X0226991Y0351300D03*
X0226991Y0361300D03*
X0271991Y0321300D03*
X0276991Y0461300D03*
X0256991Y0461300D03*
X0326991Y0461300D03*
X0346991Y0461300D03*
X0056991Y0146300D03*
X0046991Y0146300D03*
X0031991Y0156300D03*
X0031991Y0176300D03*
X0031991Y0206300D03*
X0031991Y0126300D03*
X0046991Y0116300D03*
X0026991Y0106200D03*
X0016991Y0096300D03*
X0026991Y0086400D03*
X0046991Y0086300D03*
X0056991Y0076300D03*
X0056991Y0066300D03*
D12*
X0064391Y0061300D02*
X0069591Y0061300D01*
X0069591Y0051300D02*
X0064391Y0051300D01*
X0064391Y0041300D02*
X0069591Y0041300D01*
X0069591Y0031300D02*
X0064391Y0031300D01*
X0064391Y0021300D02*
X0069591Y0021300D01*
X0104391Y0021300D02*
X0109591Y0021300D01*
X0109591Y0031300D02*
X0104391Y0031300D01*
X0104391Y0041300D02*
X0109591Y0041300D01*
X0109591Y0051300D02*
X0104391Y0051300D01*
X0104391Y0061300D02*
X0109591Y0061300D01*
X0109591Y0071300D02*
X0104391Y0071300D01*
X0104391Y0081300D02*
X0109591Y0081300D01*
X0109591Y0091300D02*
X0104391Y0091300D01*
X0104391Y0101300D02*
X0109591Y0101300D01*
X0109591Y0111300D02*
X0104391Y0111300D01*
X0104391Y0121300D02*
X0109591Y0121300D01*
X0069591Y0121300D02*
X0064391Y0121300D01*
X0064391Y0111300D02*
X0069591Y0111300D01*
X0069591Y0101300D02*
X0064391Y0101300D01*
X0064391Y0091300D02*
X0069591Y0091300D01*
X0069591Y0081300D02*
X0064391Y0081300D01*
X0064391Y0071300D02*
X0069591Y0071300D01*
X0171991Y0208700D02*
X0171991Y0213900D01*
X0181991Y0213900D02*
X0181991Y0208700D01*
X0191991Y0208700D02*
X0191991Y0213900D01*
X0201991Y0213900D02*
X0201991Y0208700D01*
X0211991Y0208700D02*
X0211991Y0213900D01*
X0221991Y0213900D02*
X0221991Y0208700D01*
X0231991Y0208700D02*
X0231991Y0213900D01*
X0241991Y0213900D02*
X0241991Y0208700D01*
X0251991Y0208700D02*
X0251991Y0213900D01*
X0261991Y0213900D02*
X0261991Y0208700D01*
X0271991Y0208700D02*
X0271991Y0213900D01*
X0281991Y0213900D02*
X0281991Y0208700D01*
X0291991Y0208700D02*
X0291991Y0213900D01*
X0301991Y0213900D02*
X0301991Y0208700D01*
X0301991Y0268700D02*
X0301991Y0273900D01*
X0291991Y0273900D02*
X0291991Y0268700D01*
X0281991Y0268700D02*
X0281991Y0273900D01*
X0271991Y0273900D02*
X0271991Y0268700D01*
X0261991Y0268700D02*
X0261991Y0273900D01*
X0251991Y0273900D02*
X0251991Y0268700D01*
X0241991Y0268700D02*
X0241991Y0273900D01*
X0231991Y0273900D02*
X0231991Y0268700D01*
X0221991Y0268700D02*
X0221991Y0273900D01*
X0211991Y0273900D02*
X0211991Y0268700D01*
X0201991Y0268700D02*
X0201991Y0273900D01*
X0191991Y0273900D02*
X0191991Y0268700D01*
X0181991Y0268700D02*
X0181991Y0273900D01*
X0171991Y0273900D02*
X0171991Y0268700D01*
X0236991Y0328700D02*
X0236991Y0333900D01*
X0246991Y0333900D02*
X0246991Y0328700D01*
X0256991Y0328700D02*
X0256991Y0333900D01*
X0266991Y0333900D02*
X0266991Y0328700D01*
X0276991Y0328700D02*
X0276991Y0333900D01*
X0286991Y0333900D02*
X0286991Y0328700D01*
X0296991Y0328700D02*
X0296991Y0333900D01*
X0306991Y0333900D02*
X0306991Y0328700D01*
X0316991Y0328700D02*
X0316991Y0333900D01*
X0326991Y0333900D02*
X0326991Y0328700D01*
X0326991Y0358700D02*
X0326991Y0363900D01*
X0316991Y0363900D02*
X0316991Y0358700D01*
X0306991Y0358700D02*
X0306991Y0363900D01*
X0296991Y0363900D02*
X0296991Y0358700D01*
X0286991Y0358700D02*
X0286991Y0363900D01*
X0276991Y0363900D02*
X0276991Y0358700D01*
X0266991Y0358700D02*
X0266991Y0363900D01*
X0256991Y0363900D02*
X0256991Y0358700D01*
X0246991Y0358700D02*
X0246991Y0363900D01*
X0236991Y0363900D02*
X0236991Y0358700D01*
X0231991Y0443700D02*
X0231991Y0448900D01*
X0271991Y0448900D02*
X0271991Y0443700D01*
X0216991Y0503700D02*
X0216991Y0508900D01*
X0216991Y0513700D02*
X0216991Y0518900D01*
X0206991Y0518900D02*
X0206991Y0513700D01*
X0206991Y0508900D02*
X0206991Y0503700D01*
X0196991Y0503700D02*
X0196991Y0508900D01*
X0196991Y0513700D02*
X0196991Y0518900D01*
X0186991Y0518900D02*
X0186991Y0513700D01*
X0186991Y0508900D02*
X0186991Y0503700D01*
X0176991Y0503700D02*
X0176991Y0508900D01*
X0176991Y0513700D02*
X0176991Y0518900D01*
X0166991Y0518900D02*
X0166991Y0513700D01*
X0166991Y0508900D02*
X0166991Y0503700D01*
X0156991Y0503700D02*
X0156991Y0508900D01*
X0156991Y0513700D02*
X0156991Y0518900D01*
X0146991Y0518900D02*
X0146991Y0513700D01*
X0146991Y0508900D02*
X0146991Y0503700D01*
X0136991Y0503700D02*
X0136991Y0508900D01*
X0146991Y0543700D02*
X0146991Y0548900D01*
X0156991Y0548900D02*
X0156991Y0543700D01*
X0166991Y0543700D02*
X0166991Y0548900D01*
X0176991Y0548900D02*
X0176991Y0543700D01*
X0186991Y0543700D02*
X0186991Y0548900D01*
X0196991Y0548900D02*
X0196991Y0543700D01*
X0206991Y0543700D02*
X0206991Y0548900D01*
X0216991Y0548900D02*
X0216991Y0543700D01*
X0224391Y0141300D02*
X0229591Y0141300D01*
X0229591Y0131300D02*
X0224391Y0131300D01*
X0224391Y0121300D02*
X0229591Y0121300D01*
X0229591Y0111300D02*
X0224391Y0111300D01*
X0224391Y0101300D02*
X0229591Y0101300D01*
X0229591Y0091300D02*
X0224391Y0091300D01*
X0224391Y0081300D02*
X0229591Y0081300D01*
X0229591Y0071300D02*
X0224391Y0071300D01*
X0224391Y0061300D02*
X0229591Y0061300D01*
X0229591Y0051300D02*
X0224391Y0051300D01*
X0254391Y0051300D02*
X0259591Y0051300D01*
X0259591Y0061300D02*
X0254391Y0061300D01*
X0254391Y0071300D02*
X0259591Y0071300D01*
X0259591Y0081300D02*
X0254391Y0081300D01*
X0254391Y0091300D02*
X0259591Y0091300D01*
X0259591Y0101300D02*
X0254391Y0101300D01*
X0254391Y0111300D02*
X0259591Y0111300D01*
X0259591Y0121300D02*
X0254391Y0121300D01*
X0254391Y0131300D02*
X0259591Y0131300D01*
X0259591Y0141300D02*
X0254391Y0141300D01*
X0274391Y0141300D02*
X0279591Y0141300D01*
X0279591Y0131300D02*
X0274391Y0131300D01*
X0274391Y0121300D02*
X0279591Y0121300D01*
X0279591Y0111300D02*
X0274391Y0111300D01*
X0274391Y0101300D02*
X0279591Y0101300D01*
X0279591Y0091300D02*
X0274391Y0091300D01*
X0274391Y0081300D02*
X0279591Y0081300D01*
X0279591Y0071300D02*
X0274391Y0071300D01*
X0274391Y0061300D02*
X0279591Y0061300D01*
X0279591Y0051300D02*
X0274391Y0051300D01*
X0304391Y0051300D02*
X0309591Y0051300D01*
X0309591Y0061300D02*
X0304391Y0061300D01*
X0304391Y0071300D02*
X0309591Y0071300D01*
X0309591Y0081300D02*
X0304391Y0081300D01*
X0304391Y0091300D02*
X0309591Y0091300D01*
X0309591Y0101300D02*
X0304391Y0101300D01*
X0304391Y0111300D02*
X0309591Y0111300D01*
X0309591Y0121300D02*
X0304391Y0121300D01*
X0304391Y0131300D02*
X0309591Y0131300D01*
X0309591Y0141300D02*
X0304391Y0141300D01*
D13*
X0139491Y0151300D03*
X0131991Y0146300D03*
X0131991Y0156300D03*
X0131991Y0186300D03*
X0131991Y0196300D03*
X0139491Y0191300D03*
D14*
X0136991Y0261800D03*
X0136991Y0280800D03*
X0136991Y0331300D03*
X0136991Y0341300D03*
X0136991Y0351300D03*
X0136991Y0361300D03*
X0106991Y0361300D03*
X0106991Y0351300D03*
X0106991Y0341300D03*
X0106991Y0331300D03*
X0106991Y0411300D03*
X0106991Y0421300D03*
X0106991Y0431300D03*
X0106991Y0441300D03*
X0136991Y0441300D03*
X0136991Y0431300D03*
X0136991Y0421300D03*
X0136991Y0411300D03*
X0122991Y0111300D03*
D15*
X0221991Y0316300D03*
X0226991Y0411300D03*
X0271991Y0421300D03*
X0331991Y0431300D03*
X0086991Y0486300D03*
X0081991Y0336300D03*
D16*
X0081991Y0346300D03*
X0086991Y0476300D03*
X0211991Y0316300D03*
X0226991Y0421300D03*
X0261991Y0421300D03*
X0321991Y0431300D03*
D17*
X0126991Y0528500D02*
X0126991Y0534100D01*
X0116991Y0534100D02*
X0116991Y0528500D01*
X0024791Y0511300D02*
X0019191Y0511300D01*
X0019191Y0501300D02*
X0024791Y0501300D01*
D18*
X0046676Y0480985D03*
X0046676Y0471143D03*
X0046676Y0461143D03*
X0046676Y0451457D03*
X0046676Y0441615D03*
X0046676Y0420985D03*
X0046676Y0411143D03*
X0046676Y0401143D03*
X0046676Y0391457D03*
X0046676Y0381615D03*
X0026991Y0401300D03*
X0026991Y0461300D03*
X0057306Y0516615D03*
X0067148Y0516615D03*
X0076833Y0516615D03*
X0086833Y0516615D03*
X0096676Y0516615D03*
X0076991Y0536300D03*
D19*
X0096676Y0536300D03*
X0096676Y0546143D03*
X0057306Y0546143D03*
X0057306Y0536300D03*
X0026991Y0480985D03*
X0017148Y0480985D03*
X0017148Y0441615D03*
X0026991Y0441615D03*
X0026991Y0420985D03*
X0017148Y0420985D03*
X0017148Y0381615D03*
X0026991Y0381615D03*
D20*
X0136991Y0376300D03*
X0206991Y0196300D03*
X0066991Y0146300D03*
D21*
X0078691Y0216300D02*
X0085291Y0216300D01*
X0035291Y0216300D02*
X0028691Y0216300D01*
X0251991Y0478000D02*
X0251991Y0484600D01*
X0261991Y0484600D02*
X0261991Y0478000D01*
X0271991Y0478000D02*
X0271991Y0484600D01*
X0296991Y0464600D02*
X0296991Y0458000D01*
X0306991Y0478000D02*
X0306991Y0484600D01*
X0316991Y0484600D02*
X0316991Y0478000D01*
X0326991Y0478000D02*
X0326991Y0484600D01*
X0296991Y0414600D02*
X0296991Y0408000D01*
D22*
X0373991Y0403800D02*
X0379991Y0403800D01*
X0379991Y0393800D02*
X0373991Y0393800D01*
X0373991Y0383800D02*
X0379991Y0383800D01*
X0379991Y0373800D02*
X0373991Y0373800D01*
X0373991Y0363800D02*
X0379991Y0363800D01*
X0379991Y0353800D02*
X0373991Y0353800D01*
X0373991Y0343800D02*
X0379991Y0343800D01*
X0379991Y0333800D02*
X0373991Y0333800D01*
X0373991Y0323800D02*
X0379991Y0323800D01*
X0379991Y0313800D02*
X0373991Y0313800D01*
X0373991Y0303800D02*
X0379991Y0303800D01*
X0379991Y0293800D02*
X0373991Y0293800D01*
X0373991Y0273800D02*
X0379991Y0273800D01*
X0379991Y0263800D02*
X0373991Y0263800D01*
X0373991Y0253800D02*
X0379991Y0253800D01*
X0379991Y0243800D02*
X0373991Y0243800D01*
X0373991Y0233800D02*
X0379991Y0233800D01*
X0379991Y0223800D02*
X0373991Y0223800D01*
X0373991Y0213800D02*
X0379991Y0213800D01*
X0379991Y0203800D02*
X0373991Y0203800D01*
X0373991Y0193800D02*
X0379991Y0193800D01*
X0379991Y0183800D02*
X0373991Y0183800D01*
X0373991Y0173800D02*
X0379991Y0173800D01*
X0379991Y0163800D02*
X0373991Y0163800D01*
X0373991Y0153800D02*
X0379991Y0153800D01*
X0379991Y0143800D02*
X0373991Y0143800D01*
X0373991Y0133800D02*
X0379991Y0133800D01*
X0379991Y0123800D02*
X0373991Y0123800D01*
X0373991Y0113800D02*
X0379991Y0113800D01*
X0379991Y0103800D02*
X0373991Y0103800D01*
X0373991Y0093800D02*
X0379991Y0093800D01*
X0379991Y0083800D02*
X0373991Y0083800D01*
X0373991Y0073800D02*
X0379991Y0073800D01*
X0379991Y0063800D02*
X0373991Y0063800D01*
X0373991Y0053800D02*
X0379991Y0053800D01*
X0379991Y0043800D02*
X0373991Y0043800D01*
X0373991Y0033800D02*
X0379991Y0033800D01*
X0379991Y0413800D02*
X0373991Y0413800D01*
X0373991Y0423800D02*
X0379991Y0423800D01*
X0379991Y0433800D02*
X0373991Y0433800D01*
X0373991Y0443800D02*
X0379991Y0443800D01*
X0379991Y0453800D02*
X0373991Y0453800D01*
X0373991Y0463800D02*
X0379991Y0463800D01*
X0379991Y0473800D02*
X0373991Y0473800D01*
X0373991Y0483800D02*
X0379991Y0483800D01*
X0379991Y0493800D02*
X0373991Y0493800D01*
X0373991Y0503800D02*
X0379991Y0503800D01*
X0379991Y0513800D02*
X0373991Y0513800D01*
X0373991Y0523800D02*
X0379991Y0523800D01*
X0379991Y0533800D02*
X0373991Y0533800D01*
D23*
X0344991Y0276300D03*
X0338991Y0276300D03*
X0338991Y0211300D03*
X0344991Y0211300D03*
D24*
X0341991Y0211300D03*
X0341991Y0276300D03*
D25*
X0316991Y0540300D03*
X0261991Y0540300D03*
D26*
X0361991Y0533800D03*
X0361991Y0523800D03*
X0361991Y0513800D03*
X0361991Y0503800D03*
X0361991Y0493800D03*
X0361991Y0483800D03*
X0361991Y0473800D03*
X0361991Y0463800D03*
X0361991Y0453800D03*
X0361991Y0443800D03*
X0361991Y0433800D03*
X0361991Y0423800D03*
X0361991Y0413800D03*
X0361991Y0403800D03*
X0361991Y0393800D03*
X0361991Y0383800D03*
X0361991Y0373800D03*
X0361991Y0363800D03*
X0361991Y0353800D03*
X0361991Y0343800D03*
X0361991Y0333800D03*
X0361991Y0323800D03*
X0361991Y0313800D03*
X0361991Y0303800D03*
X0361991Y0293800D03*
X0361991Y0273800D03*
X0361991Y0263800D03*
X0361991Y0253800D03*
X0361991Y0243800D03*
X0361991Y0233800D03*
X0361991Y0223800D03*
X0361991Y0213800D03*
X0361991Y0203800D03*
X0361991Y0193800D03*
X0361991Y0183800D03*
X0361991Y0173800D03*
X0361991Y0163800D03*
X0361991Y0153800D03*
X0361991Y0143800D03*
X0361991Y0133800D03*
X0361991Y0123800D03*
X0361991Y0113800D03*
X0361991Y0103800D03*
X0361991Y0093800D03*
X0361991Y0083800D03*
X0361991Y0073800D03*
X0361991Y0063800D03*
X0361991Y0053800D03*
X0361991Y0043800D03*
X0361991Y0033800D03*
X0391991Y0033800D03*
X0391991Y0043800D03*
X0391991Y0053800D03*
X0391991Y0063800D03*
X0391991Y0073800D03*
X0391991Y0083800D03*
X0391991Y0093800D03*
X0391991Y0103800D03*
X0391991Y0113800D03*
X0391991Y0123800D03*
X0391991Y0133800D03*
X0391991Y0143800D03*
X0391991Y0153800D03*
X0391991Y0163800D03*
X0391991Y0173800D03*
X0391991Y0183800D03*
X0391991Y0193800D03*
X0391991Y0203800D03*
X0391991Y0213800D03*
X0391991Y0223800D03*
X0391991Y0233800D03*
X0391991Y0243800D03*
X0391991Y0253800D03*
X0391991Y0263800D03*
X0391991Y0273800D03*
X0391991Y0293800D03*
X0391991Y0303800D03*
X0391991Y0313800D03*
X0391991Y0323800D03*
X0391991Y0333800D03*
X0391991Y0343800D03*
X0391991Y0353800D03*
X0391991Y0363800D03*
X0391991Y0373800D03*
X0391991Y0383800D03*
X0391991Y0393800D03*
X0391991Y0403800D03*
X0391991Y0413800D03*
X0391991Y0423800D03*
X0391991Y0433800D03*
X0391991Y0443800D03*
X0391991Y0453800D03*
X0391991Y0463800D03*
X0391991Y0473800D03*
X0391991Y0483800D03*
X0391991Y0493800D03*
X0391991Y0503800D03*
X0391991Y0513800D03*
X0391991Y0523800D03*
X0391991Y0533800D03*
D27*
X0336991Y0121300D03*
X0336991Y0111300D03*
X0336991Y0101300D03*
X0336991Y0091300D03*
X0336991Y0081300D03*
X0336991Y0071300D03*
X0336991Y0061300D03*
X0326991Y0061300D03*
X0326991Y0071300D03*
X0326991Y0081300D03*
X0326991Y0091300D03*
X0326991Y0101300D03*
X0326991Y0111300D03*
X0326991Y0121300D03*
D28*
X0101991Y0298300D03*
X0101991Y0304300D03*
D29*
X0101991Y0301300D03*
M02*
