G75*
%MOIN*%
%OFA0B0*%
%FSLAX25Y25*%
%IPPOS*%
%LPD*%
%AMOC8*
5,1,8,0,0,1.08239X$1,22.5*
%
%ADD10C,0.00000*%
D10*
X0011991Y0006300D02*
X0396991Y0006300D01*
X0396991Y0554300D01*
X0011991Y0554300D01*
X0011991Y0006300D01*
X0015741Y0016300D02*
X0015743Y0016458D01*
X0015749Y0016615D01*
X0015759Y0016773D01*
X0015773Y0016930D01*
X0015791Y0017086D01*
X0015812Y0017243D01*
X0015838Y0017398D01*
X0015868Y0017553D01*
X0015901Y0017707D01*
X0015939Y0017860D01*
X0015980Y0018013D01*
X0016025Y0018164D01*
X0016074Y0018314D01*
X0016127Y0018462D01*
X0016183Y0018610D01*
X0016244Y0018755D01*
X0016307Y0018900D01*
X0016375Y0019042D01*
X0016446Y0019183D01*
X0016520Y0019322D01*
X0016598Y0019459D01*
X0016680Y0019594D01*
X0016764Y0019727D01*
X0016853Y0019858D01*
X0016944Y0019986D01*
X0017039Y0020113D01*
X0017136Y0020236D01*
X0017237Y0020358D01*
X0017341Y0020476D01*
X0017448Y0020592D01*
X0017558Y0020705D01*
X0017670Y0020816D01*
X0017786Y0020923D01*
X0017904Y0021028D01*
X0018024Y0021130D01*
X0018147Y0021228D01*
X0018273Y0021324D01*
X0018401Y0021416D01*
X0018531Y0021505D01*
X0018663Y0021591D01*
X0018798Y0021673D01*
X0018935Y0021752D01*
X0019073Y0021827D01*
X0019213Y0021899D01*
X0019356Y0021967D01*
X0019499Y0022032D01*
X0019645Y0022093D01*
X0019792Y0022150D01*
X0019940Y0022204D01*
X0020090Y0022254D01*
X0020240Y0022300D01*
X0020392Y0022342D01*
X0020545Y0022381D01*
X0020699Y0022415D01*
X0020854Y0022446D01*
X0021009Y0022472D01*
X0021165Y0022495D01*
X0021322Y0022514D01*
X0021479Y0022529D01*
X0021636Y0022540D01*
X0021794Y0022547D01*
X0021952Y0022550D01*
X0022109Y0022549D01*
X0022267Y0022544D01*
X0022424Y0022535D01*
X0022582Y0022522D01*
X0022738Y0022505D01*
X0022895Y0022484D01*
X0023050Y0022460D01*
X0023205Y0022431D01*
X0023360Y0022398D01*
X0023513Y0022362D01*
X0023666Y0022321D01*
X0023817Y0022277D01*
X0023967Y0022229D01*
X0024116Y0022178D01*
X0024264Y0022122D01*
X0024410Y0022063D01*
X0024555Y0022000D01*
X0024698Y0021933D01*
X0024839Y0021863D01*
X0024978Y0021790D01*
X0025116Y0021713D01*
X0025252Y0021632D01*
X0025385Y0021548D01*
X0025516Y0021461D01*
X0025645Y0021370D01*
X0025772Y0021276D01*
X0025897Y0021179D01*
X0026018Y0021079D01*
X0026138Y0020976D01*
X0026254Y0020870D01*
X0026368Y0020761D01*
X0026480Y0020649D01*
X0026588Y0020535D01*
X0026693Y0020417D01*
X0026796Y0020297D01*
X0026895Y0020175D01*
X0026991Y0020050D01*
X0027084Y0019922D01*
X0027174Y0019793D01*
X0027260Y0019661D01*
X0027344Y0019527D01*
X0027423Y0019391D01*
X0027500Y0019253D01*
X0027572Y0019113D01*
X0027641Y0018971D01*
X0027707Y0018828D01*
X0027769Y0018683D01*
X0027827Y0018536D01*
X0027882Y0018388D01*
X0027933Y0018239D01*
X0027980Y0018088D01*
X0028023Y0017937D01*
X0028062Y0017784D01*
X0028098Y0017630D01*
X0028129Y0017476D01*
X0028157Y0017321D01*
X0028181Y0017165D01*
X0028201Y0017008D01*
X0028217Y0016851D01*
X0028229Y0016694D01*
X0028237Y0016537D01*
X0028241Y0016379D01*
X0028241Y0016221D01*
X0028237Y0016063D01*
X0028229Y0015906D01*
X0028217Y0015749D01*
X0028201Y0015592D01*
X0028181Y0015435D01*
X0028157Y0015279D01*
X0028129Y0015124D01*
X0028098Y0014970D01*
X0028062Y0014816D01*
X0028023Y0014663D01*
X0027980Y0014512D01*
X0027933Y0014361D01*
X0027882Y0014212D01*
X0027827Y0014064D01*
X0027769Y0013917D01*
X0027707Y0013772D01*
X0027641Y0013629D01*
X0027572Y0013487D01*
X0027500Y0013347D01*
X0027423Y0013209D01*
X0027344Y0013073D01*
X0027260Y0012939D01*
X0027174Y0012807D01*
X0027084Y0012678D01*
X0026991Y0012550D01*
X0026895Y0012425D01*
X0026796Y0012303D01*
X0026693Y0012183D01*
X0026588Y0012065D01*
X0026480Y0011951D01*
X0026368Y0011839D01*
X0026254Y0011730D01*
X0026138Y0011624D01*
X0026018Y0011521D01*
X0025897Y0011421D01*
X0025772Y0011324D01*
X0025645Y0011230D01*
X0025516Y0011139D01*
X0025385Y0011052D01*
X0025252Y0010968D01*
X0025116Y0010887D01*
X0024978Y0010810D01*
X0024839Y0010737D01*
X0024698Y0010667D01*
X0024555Y0010600D01*
X0024410Y0010537D01*
X0024264Y0010478D01*
X0024116Y0010422D01*
X0023967Y0010371D01*
X0023817Y0010323D01*
X0023666Y0010279D01*
X0023513Y0010238D01*
X0023360Y0010202D01*
X0023205Y0010169D01*
X0023050Y0010140D01*
X0022895Y0010116D01*
X0022738Y0010095D01*
X0022582Y0010078D01*
X0022424Y0010065D01*
X0022267Y0010056D01*
X0022109Y0010051D01*
X0021952Y0010050D01*
X0021794Y0010053D01*
X0021636Y0010060D01*
X0021479Y0010071D01*
X0021322Y0010086D01*
X0021165Y0010105D01*
X0021009Y0010128D01*
X0020854Y0010154D01*
X0020699Y0010185D01*
X0020545Y0010219D01*
X0020392Y0010258D01*
X0020240Y0010300D01*
X0020090Y0010346D01*
X0019940Y0010396D01*
X0019792Y0010450D01*
X0019645Y0010507D01*
X0019499Y0010568D01*
X0019356Y0010633D01*
X0019213Y0010701D01*
X0019073Y0010773D01*
X0018935Y0010848D01*
X0018798Y0010927D01*
X0018663Y0011009D01*
X0018531Y0011095D01*
X0018401Y0011184D01*
X0018273Y0011276D01*
X0018147Y0011372D01*
X0018024Y0011470D01*
X0017904Y0011572D01*
X0017786Y0011677D01*
X0017670Y0011784D01*
X0017558Y0011895D01*
X0017448Y0012008D01*
X0017341Y0012124D01*
X0017237Y0012242D01*
X0017136Y0012364D01*
X0017039Y0012487D01*
X0016944Y0012614D01*
X0016853Y0012742D01*
X0016764Y0012873D01*
X0016680Y0013006D01*
X0016598Y0013141D01*
X0016520Y0013278D01*
X0016446Y0013417D01*
X0016375Y0013558D01*
X0016307Y0013700D01*
X0016244Y0013845D01*
X0016183Y0013990D01*
X0016127Y0014138D01*
X0016074Y0014286D01*
X0016025Y0014436D01*
X0015980Y0014587D01*
X0015939Y0014740D01*
X0015901Y0014893D01*
X0015868Y0015047D01*
X0015838Y0015202D01*
X0015812Y0015357D01*
X0015791Y0015514D01*
X0015773Y0015670D01*
X0015759Y0015827D01*
X0015749Y0015985D01*
X0015743Y0016142D01*
X0015741Y0016300D01*
X0015741Y0251300D02*
X0015743Y0251458D01*
X0015749Y0251615D01*
X0015759Y0251773D01*
X0015773Y0251930D01*
X0015791Y0252086D01*
X0015812Y0252243D01*
X0015838Y0252398D01*
X0015868Y0252553D01*
X0015901Y0252707D01*
X0015939Y0252860D01*
X0015980Y0253013D01*
X0016025Y0253164D01*
X0016074Y0253314D01*
X0016127Y0253462D01*
X0016183Y0253610D01*
X0016244Y0253755D01*
X0016307Y0253900D01*
X0016375Y0254042D01*
X0016446Y0254183D01*
X0016520Y0254322D01*
X0016598Y0254459D01*
X0016680Y0254594D01*
X0016764Y0254727D01*
X0016853Y0254858D01*
X0016944Y0254986D01*
X0017039Y0255113D01*
X0017136Y0255236D01*
X0017237Y0255358D01*
X0017341Y0255476D01*
X0017448Y0255592D01*
X0017558Y0255705D01*
X0017670Y0255816D01*
X0017786Y0255923D01*
X0017904Y0256028D01*
X0018024Y0256130D01*
X0018147Y0256228D01*
X0018273Y0256324D01*
X0018401Y0256416D01*
X0018531Y0256505D01*
X0018663Y0256591D01*
X0018798Y0256673D01*
X0018935Y0256752D01*
X0019073Y0256827D01*
X0019213Y0256899D01*
X0019356Y0256967D01*
X0019499Y0257032D01*
X0019645Y0257093D01*
X0019792Y0257150D01*
X0019940Y0257204D01*
X0020090Y0257254D01*
X0020240Y0257300D01*
X0020392Y0257342D01*
X0020545Y0257381D01*
X0020699Y0257415D01*
X0020854Y0257446D01*
X0021009Y0257472D01*
X0021165Y0257495D01*
X0021322Y0257514D01*
X0021479Y0257529D01*
X0021636Y0257540D01*
X0021794Y0257547D01*
X0021952Y0257550D01*
X0022109Y0257549D01*
X0022267Y0257544D01*
X0022424Y0257535D01*
X0022582Y0257522D01*
X0022738Y0257505D01*
X0022895Y0257484D01*
X0023050Y0257460D01*
X0023205Y0257431D01*
X0023360Y0257398D01*
X0023513Y0257362D01*
X0023666Y0257321D01*
X0023817Y0257277D01*
X0023967Y0257229D01*
X0024116Y0257178D01*
X0024264Y0257122D01*
X0024410Y0257063D01*
X0024555Y0257000D01*
X0024698Y0256933D01*
X0024839Y0256863D01*
X0024978Y0256790D01*
X0025116Y0256713D01*
X0025252Y0256632D01*
X0025385Y0256548D01*
X0025516Y0256461D01*
X0025645Y0256370D01*
X0025772Y0256276D01*
X0025897Y0256179D01*
X0026018Y0256079D01*
X0026138Y0255976D01*
X0026254Y0255870D01*
X0026368Y0255761D01*
X0026480Y0255649D01*
X0026588Y0255535D01*
X0026693Y0255417D01*
X0026796Y0255297D01*
X0026895Y0255175D01*
X0026991Y0255050D01*
X0027084Y0254922D01*
X0027174Y0254793D01*
X0027260Y0254661D01*
X0027344Y0254527D01*
X0027423Y0254391D01*
X0027500Y0254253D01*
X0027572Y0254113D01*
X0027641Y0253971D01*
X0027707Y0253828D01*
X0027769Y0253683D01*
X0027827Y0253536D01*
X0027882Y0253388D01*
X0027933Y0253239D01*
X0027980Y0253088D01*
X0028023Y0252937D01*
X0028062Y0252784D01*
X0028098Y0252630D01*
X0028129Y0252476D01*
X0028157Y0252321D01*
X0028181Y0252165D01*
X0028201Y0252008D01*
X0028217Y0251851D01*
X0028229Y0251694D01*
X0028237Y0251537D01*
X0028241Y0251379D01*
X0028241Y0251221D01*
X0028237Y0251063D01*
X0028229Y0250906D01*
X0028217Y0250749D01*
X0028201Y0250592D01*
X0028181Y0250435D01*
X0028157Y0250279D01*
X0028129Y0250124D01*
X0028098Y0249970D01*
X0028062Y0249816D01*
X0028023Y0249663D01*
X0027980Y0249512D01*
X0027933Y0249361D01*
X0027882Y0249212D01*
X0027827Y0249064D01*
X0027769Y0248917D01*
X0027707Y0248772D01*
X0027641Y0248629D01*
X0027572Y0248487D01*
X0027500Y0248347D01*
X0027423Y0248209D01*
X0027344Y0248073D01*
X0027260Y0247939D01*
X0027174Y0247807D01*
X0027084Y0247678D01*
X0026991Y0247550D01*
X0026895Y0247425D01*
X0026796Y0247303D01*
X0026693Y0247183D01*
X0026588Y0247065D01*
X0026480Y0246951D01*
X0026368Y0246839D01*
X0026254Y0246730D01*
X0026138Y0246624D01*
X0026018Y0246521D01*
X0025897Y0246421D01*
X0025772Y0246324D01*
X0025645Y0246230D01*
X0025516Y0246139D01*
X0025385Y0246052D01*
X0025252Y0245968D01*
X0025116Y0245887D01*
X0024978Y0245810D01*
X0024839Y0245737D01*
X0024698Y0245667D01*
X0024555Y0245600D01*
X0024410Y0245537D01*
X0024264Y0245478D01*
X0024116Y0245422D01*
X0023967Y0245371D01*
X0023817Y0245323D01*
X0023666Y0245279D01*
X0023513Y0245238D01*
X0023360Y0245202D01*
X0023205Y0245169D01*
X0023050Y0245140D01*
X0022895Y0245116D01*
X0022738Y0245095D01*
X0022582Y0245078D01*
X0022424Y0245065D01*
X0022267Y0245056D01*
X0022109Y0245051D01*
X0021952Y0245050D01*
X0021794Y0245053D01*
X0021636Y0245060D01*
X0021479Y0245071D01*
X0021322Y0245086D01*
X0021165Y0245105D01*
X0021009Y0245128D01*
X0020854Y0245154D01*
X0020699Y0245185D01*
X0020545Y0245219D01*
X0020392Y0245258D01*
X0020240Y0245300D01*
X0020090Y0245346D01*
X0019940Y0245396D01*
X0019792Y0245450D01*
X0019645Y0245507D01*
X0019499Y0245568D01*
X0019356Y0245633D01*
X0019213Y0245701D01*
X0019073Y0245773D01*
X0018935Y0245848D01*
X0018798Y0245927D01*
X0018663Y0246009D01*
X0018531Y0246095D01*
X0018401Y0246184D01*
X0018273Y0246276D01*
X0018147Y0246372D01*
X0018024Y0246470D01*
X0017904Y0246572D01*
X0017786Y0246677D01*
X0017670Y0246784D01*
X0017558Y0246895D01*
X0017448Y0247008D01*
X0017341Y0247124D01*
X0017237Y0247242D01*
X0017136Y0247364D01*
X0017039Y0247487D01*
X0016944Y0247614D01*
X0016853Y0247742D01*
X0016764Y0247873D01*
X0016680Y0248006D01*
X0016598Y0248141D01*
X0016520Y0248278D01*
X0016446Y0248417D01*
X0016375Y0248558D01*
X0016307Y0248700D01*
X0016244Y0248845D01*
X0016183Y0248990D01*
X0016127Y0249138D01*
X0016074Y0249286D01*
X0016025Y0249436D01*
X0015980Y0249587D01*
X0015939Y0249740D01*
X0015901Y0249893D01*
X0015868Y0250047D01*
X0015838Y0250202D01*
X0015812Y0250357D01*
X0015791Y0250514D01*
X0015773Y0250670D01*
X0015759Y0250827D01*
X0015749Y0250985D01*
X0015743Y0251142D01*
X0015741Y0251300D01*
X0015741Y0351300D02*
X0015743Y0351458D01*
X0015749Y0351615D01*
X0015759Y0351773D01*
X0015773Y0351930D01*
X0015791Y0352086D01*
X0015812Y0352243D01*
X0015838Y0352398D01*
X0015868Y0352553D01*
X0015901Y0352707D01*
X0015939Y0352860D01*
X0015980Y0353013D01*
X0016025Y0353164D01*
X0016074Y0353314D01*
X0016127Y0353462D01*
X0016183Y0353610D01*
X0016244Y0353755D01*
X0016307Y0353900D01*
X0016375Y0354042D01*
X0016446Y0354183D01*
X0016520Y0354322D01*
X0016598Y0354459D01*
X0016680Y0354594D01*
X0016764Y0354727D01*
X0016853Y0354858D01*
X0016944Y0354986D01*
X0017039Y0355113D01*
X0017136Y0355236D01*
X0017237Y0355358D01*
X0017341Y0355476D01*
X0017448Y0355592D01*
X0017558Y0355705D01*
X0017670Y0355816D01*
X0017786Y0355923D01*
X0017904Y0356028D01*
X0018024Y0356130D01*
X0018147Y0356228D01*
X0018273Y0356324D01*
X0018401Y0356416D01*
X0018531Y0356505D01*
X0018663Y0356591D01*
X0018798Y0356673D01*
X0018935Y0356752D01*
X0019073Y0356827D01*
X0019213Y0356899D01*
X0019356Y0356967D01*
X0019499Y0357032D01*
X0019645Y0357093D01*
X0019792Y0357150D01*
X0019940Y0357204D01*
X0020090Y0357254D01*
X0020240Y0357300D01*
X0020392Y0357342D01*
X0020545Y0357381D01*
X0020699Y0357415D01*
X0020854Y0357446D01*
X0021009Y0357472D01*
X0021165Y0357495D01*
X0021322Y0357514D01*
X0021479Y0357529D01*
X0021636Y0357540D01*
X0021794Y0357547D01*
X0021952Y0357550D01*
X0022109Y0357549D01*
X0022267Y0357544D01*
X0022424Y0357535D01*
X0022582Y0357522D01*
X0022738Y0357505D01*
X0022895Y0357484D01*
X0023050Y0357460D01*
X0023205Y0357431D01*
X0023360Y0357398D01*
X0023513Y0357362D01*
X0023666Y0357321D01*
X0023817Y0357277D01*
X0023967Y0357229D01*
X0024116Y0357178D01*
X0024264Y0357122D01*
X0024410Y0357063D01*
X0024555Y0357000D01*
X0024698Y0356933D01*
X0024839Y0356863D01*
X0024978Y0356790D01*
X0025116Y0356713D01*
X0025252Y0356632D01*
X0025385Y0356548D01*
X0025516Y0356461D01*
X0025645Y0356370D01*
X0025772Y0356276D01*
X0025897Y0356179D01*
X0026018Y0356079D01*
X0026138Y0355976D01*
X0026254Y0355870D01*
X0026368Y0355761D01*
X0026480Y0355649D01*
X0026588Y0355535D01*
X0026693Y0355417D01*
X0026796Y0355297D01*
X0026895Y0355175D01*
X0026991Y0355050D01*
X0027084Y0354922D01*
X0027174Y0354793D01*
X0027260Y0354661D01*
X0027344Y0354527D01*
X0027423Y0354391D01*
X0027500Y0354253D01*
X0027572Y0354113D01*
X0027641Y0353971D01*
X0027707Y0353828D01*
X0027769Y0353683D01*
X0027827Y0353536D01*
X0027882Y0353388D01*
X0027933Y0353239D01*
X0027980Y0353088D01*
X0028023Y0352937D01*
X0028062Y0352784D01*
X0028098Y0352630D01*
X0028129Y0352476D01*
X0028157Y0352321D01*
X0028181Y0352165D01*
X0028201Y0352008D01*
X0028217Y0351851D01*
X0028229Y0351694D01*
X0028237Y0351537D01*
X0028241Y0351379D01*
X0028241Y0351221D01*
X0028237Y0351063D01*
X0028229Y0350906D01*
X0028217Y0350749D01*
X0028201Y0350592D01*
X0028181Y0350435D01*
X0028157Y0350279D01*
X0028129Y0350124D01*
X0028098Y0349970D01*
X0028062Y0349816D01*
X0028023Y0349663D01*
X0027980Y0349512D01*
X0027933Y0349361D01*
X0027882Y0349212D01*
X0027827Y0349064D01*
X0027769Y0348917D01*
X0027707Y0348772D01*
X0027641Y0348629D01*
X0027572Y0348487D01*
X0027500Y0348347D01*
X0027423Y0348209D01*
X0027344Y0348073D01*
X0027260Y0347939D01*
X0027174Y0347807D01*
X0027084Y0347678D01*
X0026991Y0347550D01*
X0026895Y0347425D01*
X0026796Y0347303D01*
X0026693Y0347183D01*
X0026588Y0347065D01*
X0026480Y0346951D01*
X0026368Y0346839D01*
X0026254Y0346730D01*
X0026138Y0346624D01*
X0026018Y0346521D01*
X0025897Y0346421D01*
X0025772Y0346324D01*
X0025645Y0346230D01*
X0025516Y0346139D01*
X0025385Y0346052D01*
X0025252Y0345968D01*
X0025116Y0345887D01*
X0024978Y0345810D01*
X0024839Y0345737D01*
X0024698Y0345667D01*
X0024555Y0345600D01*
X0024410Y0345537D01*
X0024264Y0345478D01*
X0024116Y0345422D01*
X0023967Y0345371D01*
X0023817Y0345323D01*
X0023666Y0345279D01*
X0023513Y0345238D01*
X0023360Y0345202D01*
X0023205Y0345169D01*
X0023050Y0345140D01*
X0022895Y0345116D01*
X0022738Y0345095D01*
X0022582Y0345078D01*
X0022424Y0345065D01*
X0022267Y0345056D01*
X0022109Y0345051D01*
X0021952Y0345050D01*
X0021794Y0345053D01*
X0021636Y0345060D01*
X0021479Y0345071D01*
X0021322Y0345086D01*
X0021165Y0345105D01*
X0021009Y0345128D01*
X0020854Y0345154D01*
X0020699Y0345185D01*
X0020545Y0345219D01*
X0020392Y0345258D01*
X0020240Y0345300D01*
X0020090Y0345346D01*
X0019940Y0345396D01*
X0019792Y0345450D01*
X0019645Y0345507D01*
X0019499Y0345568D01*
X0019356Y0345633D01*
X0019213Y0345701D01*
X0019073Y0345773D01*
X0018935Y0345848D01*
X0018798Y0345927D01*
X0018663Y0346009D01*
X0018531Y0346095D01*
X0018401Y0346184D01*
X0018273Y0346276D01*
X0018147Y0346372D01*
X0018024Y0346470D01*
X0017904Y0346572D01*
X0017786Y0346677D01*
X0017670Y0346784D01*
X0017558Y0346895D01*
X0017448Y0347008D01*
X0017341Y0347124D01*
X0017237Y0347242D01*
X0017136Y0347364D01*
X0017039Y0347487D01*
X0016944Y0347614D01*
X0016853Y0347742D01*
X0016764Y0347873D01*
X0016680Y0348006D01*
X0016598Y0348141D01*
X0016520Y0348278D01*
X0016446Y0348417D01*
X0016375Y0348558D01*
X0016307Y0348700D01*
X0016244Y0348845D01*
X0016183Y0348990D01*
X0016127Y0349138D01*
X0016074Y0349286D01*
X0016025Y0349436D01*
X0015980Y0349587D01*
X0015939Y0349740D01*
X0015901Y0349893D01*
X0015868Y0350047D01*
X0015838Y0350202D01*
X0015812Y0350357D01*
X0015791Y0350514D01*
X0015773Y0350670D01*
X0015759Y0350827D01*
X0015749Y0350985D01*
X0015743Y0351142D01*
X0015741Y0351300D01*
X0014786Y0381615D02*
X0014788Y0381712D01*
X0014794Y0381809D01*
X0014804Y0381905D01*
X0014818Y0382001D01*
X0014836Y0382097D01*
X0014857Y0382191D01*
X0014883Y0382285D01*
X0014912Y0382377D01*
X0014946Y0382468D01*
X0014982Y0382558D01*
X0015023Y0382646D01*
X0015067Y0382732D01*
X0015115Y0382817D01*
X0015166Y0382899D01*
X0015220Y0382980D01*
X0015278Y0383058D01*
X0015339Y0383133D01*
X0015402Y0383206D01*
X0015469Y0383277D01*
X0015539Y0383344D01*
X0015611Y0383409D01*
X0015686Y0383470D01*
X0015764Y0383529D01*
X0015843Y0383584D01*
X0015925Y0383636D01*
X0016009Y0383684D01*
X0016095Y0383729D01*
X0016183Y0383771D01*
X0016272Y0383809D01*
X0016363Y0383843D01*
X0016455Y0383873D01*
X0016548Y0383900D01*
X0016643Y0383922D01*
X0016738Y0383941D01*
X0016834Y0383956D01*
X0016930Y0383967D01*
X0017027Y0383974D01*
X0017124Y0383977D01*
X0017221Y0383976D01*
X0017318Y0383971D01*
X0017414Y0383962D01*
X0017510Y0383949D01*
X0017606Y0383932D01*
X0017701Y0383911D01*
X0017794Y0383887D01*
X0017887Y0383858D01*
X0017979Y0383826D01*
X0018069Y0383790D01*
X0018157Y0383751D01*
X0018244Y0383707D01*
X0018329Y0383661D01*
X0018412Y0383610D01*
X0018493Y0383557D01*
X0018571Y0383500D01*
X0018648Y0383440D01*
X0018721Y0383377D01*
X0018792Y0383311D01*
X0018860Y0383242D01*
X0018926Y0383170D01*
X0018988Y0383096D01*
X0019047Y0383019D01*
X0019103Y0382940D01*
X0019156Y0382858D01*
X0019206Y0382775D01*
X0019251Y0382689D01*
X0019294Y0382602D01*
X0019333Y0382513D01*
X0019368Y0382423D01*
X0019399Y0382331D01*
X0019426Y0382238D01*
X0019450Y0382144D01*
X0019470Y0382049D01*
X0019486Y0381953D01*
X0019498Y0381857D01*
X0019506Y0381760D01*
X0019510Y0381663D01*
X0019510Y0381567D01*
X0019506Y0381470D01*
X0019498Y0381373D01*
X0019486Y0381277D01*
X0019470Y0381181D01*
X0019450Y0381086D01*
X0019426Y0380992D01*
X0019399Y0380899D01*
X0019368Y0380807D01*
X0019333Y0380717D01*
X0019294Y0380628D01*
X0019251Y0380541D01*
X0019206Y0380455D01*
X0019156Y0380372D01*
X0019103Y0380290D01*
X0019047Y0380211D01*
X0018988Y0380134D01*
X0018926Y0380060D01*
X0018860Y0379988D01*
X0018792Y0379919D01*
X0018721Y0379853D01*
X0018648Y0379790D01*
X0018571Y0379730D01*
X0018493Y0379673D01*
X0018412Y0379620D01*
X0018329Y0379569D01*
X0018244Y0379523D01*
X0018157Y0379479D01*
X0018069Y0379440D01*
X0017979Y0379404D01*
X0017887Y0379372D01*
X0017794Y0379343D01*
X0017701Y0379319D01*
X0017606Y0379298D01*
X0017510Y0379281D01*
X0017414Y0379268D01*
X0017318Y0379259D01*
X0017221Y0379254D01*
X0017124Y0379253D01*
X0017027Y0379256D01*
X0016930Y0379263D01*
X0016834Y0379274D01*
X0016738Y0379289D01*
X0016643Y0379308D01*
X0016548Y0379330D01*
X0016455Y0379357D01*
X0016363Y0379387D01*
X0016272Y0379421D01*
X0016183Y0379459D01*
X0016095Y0379501D01*
X0016009Y0379546D01*
X0015925Y0379594D01*
X0015843Y0379646D01*
X0015764Y0379701D01*
X0015686Y0379760D01*
X0015611Y0379821D01*
X0015539Y0379886D01*
X0015469Y0379953D01*
X0015402Y0380024D01*
X0015339Y0380097D01*
X0015278Y0380172D01*
X0015220Y0380250D01*
X0015166Y0380331D01*
X0015115Y0380413D01*
X0015067Y0380498D01*
X0015023Y0380584D01*
X0014982Y0380672D01*
X0014946Y0380762D01*
X0014912Y0380853D01*
X0014883Y0380945D01*
X0014857Y0381039D01*
X0014836Y0381133D01*
X0014818Y0381229D01*
X0014804Y0381325D01*
X0014794Y0381421D01*
X0014788Y0381518D01*
X0014786Y0381615D01*
X0024629Y0381615D02*
X0024631Y0381712D01*
X0024637Y0381809D01*
X0024647Y0381905D01*
X0024661Y0382001D01*
X0024679Y0382097D01*
X0024700Y0382191D01*
X0024726Y0382285D01*
X0024755Y0382377D01*
X0024789Y0382468D01*
X0024825Y0382558D01*
X0024866Y0382646D01*
X0024910Y0382732D01*
X0024958Y0382817D01*
X0025009Y0382899D01*
X0025063Y0382980D01*
X0025121Y0383058D01*
X0025182Y0383133D01*
X0025245Y0383206D01*
X0025312Y0383277D01*
X0025382Y0383344D01*
X0025454Y0383409D01*
X0025529Y0383470D01*
X0025607Y0383529D01*
X0025686Y0383584D01*
X0025768Y0383636D01*
X0025852Y0383684D01*
X0025938Y0383729D01*
X0026026Y0383771D01*
X0026115Y0383809D01*
X0026206Y0383843D01*
X0026298Y0383873D01*
X0026391Y0383900D01*
X0026486Y0383922D01*
X0026581Y0383941D01*
X0026677Y0383956D01*
X0026773Y0383967D01*
X0026870Y0383974D01*
X0026967Y0383977D01*
X0027064Y0383976D01*
X0027161Y0383971D01*
X0027257Y0383962D01*
X0027353Y0383949D01*
X0027449Y0383932D01*
X0027544Y0383911D01*
X0027637Y0383887D01*
X0027730Y0383858D01*
X0027822Y0383826D01*
X0027912Y0383790D01*
X0028000Y0383751D01*
X0028087Y0383707D01*
X0028172Y0383661D01*
X0028255Y0383610D01*
X0028336Y0383557D01*
X0028414Y0383500D01*
X0028491Y0383440D01*
X0028564Y0383377D01*
X0028635Y0383311D01*
X0028703Y0383242D01*
X0028769Y0383170D01*
X0028831Y0383096D01*
X0028890Y0383019D01*
X0028946Y0382940D01*
X0028999Y0382858D01*
X0029049Y0382775D01*
X0029094Y0382689D01*
X0029137Y0382602D01*
X0029176Y0382513D01*
X0029211Y0382423D01*
X0029242Y0382331D01*
X0029269Y0382238D01*
X0029293Y0382144D01*
X0029313Y0382049D01*
X0029329Y0381953D01*
X0029341Y0381857D01*
X0029349Y0381760D01*
X0029353Y0381663D01*
X0029353Y0381567D01*
X0029349Y0381470D01*
X0029341Y0381373D01*
X0029329Y0381277D01*
X0029313Y0381181D01*
X0029293Y0381086D01*
X0029269Y0380992D01*
X0029242Y0380899D01*
X0029211Y0380807D01*
X0029176Y0380717D01*
X0029137Y0380628D01*
X0029094Y0380541D01*
X0029049Y0380455D01*
X0028999Y0380372D01*
X0028946Y0380290D01*
X0028890Y0380211D01*
X0028831Y0380134D01*
X0028769Y0380060D01*
X0028703Y0379988D01*
X0028635Y0379919D01*
X0028564Y0379853D01*
X0028491Y0379790D01*
X0028414Y0379730D01*
X0028336Y0379673D01*
X0028255Y0379620D01*
X0028172Y0379569D01*
X0028087Y0379523D01*
X0028000Y0379479D01*
X0027912Y0379440D01*
X0027822Y0379404D01*
X0027730Y0379372D01*
X0027637Y0379343D01*
X0027544Y0379319D01*
X0027449Y0379298D01*
X0027353Y0379281D01*
X0027257Y0379268D01*
X0027161Y0379259D01*
X0027064Y0379254D01*
X0026967Y0379253D01*
X0026870Y0379256D01*
X0026773Y0379263D01*
X0026677Y0379274D01*
X0026581Y0379289D01*
X0026486Y0379308D01*
X0026391Y0379330D01*
X0026298Y0379357D01*
X0026206Y0379387D01*
X0026115Y0379421D01*
X0026026Y0379459D01*
X0025938Y0379501D01*
X0025852Y0379546D01*
X0025768Y0379594D01*
X0025686Y0379646D01*
X0025607Y0379701D01*
X0025529Y0379760D01*
X0025454Y0379821D01*
X0025382Y0379886D01*
X0025312Y0379953D01*
X0025245Y0380024D01*
X0025182Y0380097D01*
X0025121Y0380172D01*
X0025063Y0380250D01*
X0025009Y0380331D01*
X0024958Y0380413D01*
X0024910Y0380498D01*
X0024866Y0380584D01*
X0024825Y0380672D01*
X0024789Y0380762D01*
X0024755Y0380853D01*
X0024726Y0380945D01*
X0024700Y0381039D01*
X0024679Y0381133D01*
X0024661Y0381229D01*
X0024647Y0381325D01*
X0024637Y0381421D01*
X0024631Y0381518D01*
X0024629Y0381615D01*
X0024629Y0420985D02*
X0024631Y0421082D01*
X0024637Y0421179D01*
X0024647Y0421275D01*
X0024661Y0421371D01*
X0024679Y0421467D01*
X0024700Y0421561D01*
X0024726Y0421655D01*
X0024755Y0421747D01*
X0024789Y0421838D01*
X0024825Y0421928D01*
X0024866Y0422016D01*
X0024910Y0422102D01*
X0024958Y0422187D01*
X0025009Y0422269D01*
X0025063Y0422350D01*
X0025121Y0422428D01*
X0025182Y0422503D01*
X0025245Y0422576D01*
X0025312Y0422647D01*
X0025382Y0422714D01*
X0025454Y0422779D01*
X0025529Y0422840D01*
X0025607Y0422899D01*
X0025686Y0422954D01*
X0025768Y0423006D01*
X0025852Y0423054D01*
X0025938Y0423099D01*
X0026026Y0423141D01*
X0026115Y0423179D01*
X0026206Y0423213D01*
X0026298Y0423243D01*
X0026391Y0423270D01*
X0026486Y0423292D01*
X0026581Y0423311D01*
X0026677Y0423326D01*
X0026773Y0423337D01*
X0026870Y0423344D01*
X0026967Y0423347D01*
X0027064Y0423346D01*
X0027161Y0423341D01*
X0027257Y0423332D01*
X0027353Y0423319D01*
X0027449Y0423302D01*
X0027544Y0423281D01*
X0027637Y0423257D01*
X0027730Y0423228D01*
X0027822Y0423196D01*
X0027912Y0423160D01*
X0028000Y0423121D01*
X0028087Y0423077D01*
X0028172Y0423031D01*
X0028255Y0422980D01*
X0028336Y0422927D01*
X0028414Y0422870D01*
X0028491Y0422810D01*
X0028564Y0422747D01*
X0028635Y0422681D01*
X0028703Y0422612D01*
X0028769Y0422540D01*
X0028831Y0422466D01*
X0028890Y0422389D01*
X0028946Y0422310D01*
X0028999Y0422228D01*
X0029049Y0422145D01*
X0029094Y0422059D01*
X0029137Y0421972D01*
X0029176Y0421883D01*
X0029211Y0421793D01*
X0029242Y0421701D01*
X0029269Y0421608D01*
X0029293Y0421514D01*
X0029313Y0421419D01*
X0029329Y0421323D01*
X0029341Y0421227D01*
X0029349Y0421130D01*
X0029353Y0421033D01*
X0029353Y0420937D01*
X0029349Y0420840D01*
X0029341Y0420743D01*
X0029329Y0420647D01*
X0029313Y0420551D01*
X0029293Y0420456D01*
X0029269Y0420362D01*
X0029242Y0420269D01*
X0029211Y0420177D01*
X0029176Y0420087D01*
X0029137Y0419998D01*
X0029094Y0419911D01*
X0029049Y0419825D01*
X0028999Y0419742D01*
X0028946Y0419660D01*
X0028890Y0419581D01*
X0028831Y0419504D01*
X0028769Y0419430D01*
X0028703Y0419358D01*
X0028635Y0419289D01*
X0028564Y0419223D01*
X0028491Y0419160D01*
X0028414Y0419100D01*
X0028336Y0419043D01*
X0028255Y0418990D01*
X0028172Y0418939D01*
X0028087Y0418893D01*
X0028000Y0418849D01*
X0027912Y0418810D01*
X0027822Y0418774D01*
X0027730Y0418742D01*
X0027637Y0418713D01*
X0027544Y0418689D01*
X0027449Y0418668D01*
X0027353Y0418651D01*
X0027257Y0418638D01*
X0027161Y0418629D01*
X0027064Y0418624D01*
X0026967Y0418623D01*
X0026870Y0418626D01*
X0026773Y0418633D01*
X0026677Y0418644D01*
X0026581Y0418659D01*
X0026486Y0418678D01*
X0026391Y0418700D01*
X0026298Y0418727D01*
X0026206Y0418757D01*
X0026115Y0418791D01*
X0026026Y0418829D01*
X0025938Y0418871D01*
X0025852Y0418916D01*
X0025768Y0418964D01*
X0025686Y0419016D01*
X0025607Y0419071D01*
X0025529Y0419130D01*
X0025454Y0419191D01*
X0025382Y0419256D01*
X0025312Y0419323D01*
X0025245Y0419394D01*
X0025182Y0419467D01*
X0025121Y0419542D01*
X0025063Y0419620D01*
X0025009Y0419701D01*
X0024958Y0419783D01*
X0024910Y0419868D01*
X0024866Y0419954D01*
X0024825Y0420042D01*
X0024789Y0420132D01*
X0024755Y0420223D01*
X0024726Y0420315D01*
X0024700Y0420409D01*
X0024679Y0420503D01*
X0024661Y0420599D01*
X0024647Y0420695D01*
X0024637Y0420791D01*
X0024631Y0420888D01*
X0024629Y0420985D01*
X0014786Y0420985D02*
X0014788Y0421082D01*
X0014794Y0421179D01*
X0014804Y0421275D01*
X0014818Y0421371D01*
X0014836Y0421467D01*
X0014857Y0421561D01*
X0014883Y0421655D01*
X0014912Y0421747D01*
X0014946Y0421838D01*
X0014982Y0421928D01*
X0015023Y0422016D01*
X0015067Y0422102D01*
X0015115Y0422187D01*
X0015166Y0422269D01*
X0015220Y0422350D01*
X0015278Y0422428D01*
X0015339Y0422503D01*
X0015402Y0422576D01*
X0015469Y0422647D01*
X0015539Y0422714D01*
X0015611Y0422779D01*
X0015686Y0422840D01*
X0015764Y0422899D01*
X0015843Y0422954D01*
X0015925Y0423006D01*
X0016009Y0423054D01*
X0016095Y0423099D01*
X0016183Y0423141D01*
X0016272Y0423179D01*
X0016363Y0423213D01*
X0016455Y0423243D01*
X0016548Y0423270D01*
X0016643Y0423292D01*
X0016738Y0423311D01*
X0016834Y0423326D01*
X0016930Y0423337D01*
X0017027Y0423344D01*
X0017124Y0423347D01*
X0017221Y0423346D01*
X0017318Y0423341D01*
X0017414Y0423332D01*
X0017510Y0423319D01*
X0017606Y0423302D01*
X0017701Y0423281D01*
X0017794Y0423257D01*
X0017887Y0423228D01*
X0017979Y0423196D01*
X0018069Y0423160D01*
X0018157Y0423121D01*
X0018244Y0423077D01*
X0018329Y0423031D01*
X0018412Y0422980D01*
X0018493Y0422927D01*
X0018571Y0422870D01*
X0018648Y0422810D01*
X0018721Y0422747D01*
X0018792Y0422681D01*
X0018860Y0422612D01*
X0018926Y0422540D01*
X0018988Y0422466D01*
X0019047Y0422389D01*
X0019103Y0422310D01*
X0019156Y0422228D01*
X0019206Y0422145D01*
X0019251Y0422059D01*
X0019294Y0421972D01*
X0019333Y0421883D01*
X0019368Y0421793D01*
X0019399Y0421701D01*
X0019426Y0421608D01*
X0019450Y0421514D01*
X0019470Y0421419D01*
X0019486Y0421323D01*
X0019498Y0421227D01*
X0019506Y0421130D01*
X0019510Y0421033D01*
X0019510Y0420937D01*
X0019506Y0420840D01*
X0019498Y0420743D01*
X0019486Y0420647D01*
X0019470Y0420551D01*
X0019450Y0420456D01*
X0019426Y0420362D01*
X0019399Y0420269D01*
X0019368Y0420177D01*
X0019333Y0420087D01*
X0019294Y0419998D01*
X0019251Y0419911D01*
X0019206Y0419825D01*
X0019156Y0419742D01*
X0019103Y0419660D01*
X0019047Y0419581D01*
X0018988Y0419504D01*
X0018926Y0419430D01*
X0018860Y0419358D01*
X0018792Y0419289D01*
X0018721Y0419223D01*
X0018648Y0419160D01*
X0018571Y0419100D01*
X0018493Y0419043D01*
X0018412Y0418990D01*
X0018329Y0418939D01*
X0018244Y0418893D01*
X0018157Y0418849D01*
X0018069Y0418810D01*
X0017979Y0418774D01*
X0017887Y0418742D01*
X0017794Y0418713D01*
X0017701Y0418689D01*
X0017606Y0418668D01*
X0017510Y0418651D01*
X0017414Y0418638D01*
X0017318Y0418629D01*
X0017221Y0418624D01*
X0017124Y0418623D01*
X0017027Y0418626D01*
X0016930Y0418633D01*
X0016834Y0418644D01*
X0016738Y0418659D01*
X0016643Y0418678D01*
X0016548Y0418700D01*
X0016455Y0418727D01*
X0016363Y0418757D01*
X0016272Y0418791D01*
X0016183Y0418829D01*
X0016095Y0418871D01*
X0016009Y0418916D01*
X0015925Y0418964D01*
X0015843Y0419016D01*
X0015764Y0419071D01*
X0015686Y0419130D01*
X0015611Y0419191D01*
X0015539Y0419256D01*
X0015469Y0419323D01*
X0015402Y0419394D01*
X0015339Y0419467D01*
X0015278Y0419542D01*
X0015220Y0419620D01*
X0015166Y0419701D01*
X0015115Y0419783D01*
X0015067Y0419868D01*
X0015023Y0419954D01*
X0014982Y0420042D01*
X0014946Y0420132D01*
X0014912Y0420223D01*
X0014883Y0420315D01*
X0014857Y0420409D01*
X0014836Y0420503D01*
X0014818Y0420599D01*
X0014804Y0420695D01*
X0014794Y0420791D01*
X0014788Y0420888D01*
X0014786Y0420985D01*
X0014786Y0441615D02*
X0014788Y0441712D01*
X0014794Y0441809D01*
X0014804Y0441905D01*
X0014818Y0442001D01*
X0014836Y0442097D01*
X0014857Y0442191D01*
X0014883Y0442285D01*
X0014912Y0442377D01*
X0014946Y0442468D01*
X0014982Y0442558D01*
X0015023Y0442646D01*
X0015067Y0442732D01*
X0015115Y0442817D01*
X0015166Y0442899D01*
X0015220Y0442980D01*
X0015278Y0443058D01*
X0015339Y0443133D01*
X0015402Y0443206D01*
X0015469Y0443277D01*
X0015539Y0443344D01*
X0015611Y0443409D01*
X0015686Y0443470D01*
X0015764Y0443529D01*
X0015843Y0443584D01*
X0015925Y0443636D01*
X0016009Y0443684D01*
X0016095Y0443729D01*
X0016183Y0443771D01*
X0016272Y0443809D01*
X0016363Y0443843D01*
X0016455Y0443873D01*
X0016548Y0443900D01*
X0016643Y0443922D01*
X0016738Y0443941D01*
X0016834Y0443956D01*
X0016930Y0443967D01*
X0017027Y0443974D01*
X0017124Y0443977D01*
X0017221Y0443976D01*
X0017318Y0443971D01*
X0017414Y0443962D01*
X0017510Y0443949D01*
X0017606Y0443932D01*
X0017701Y0443911D01*
X0017794Y0443887D01*
X0017887Y0443858D01*
X0017979Y0443826D01*
X0018069Y0443790D01*
X0018157Y0443751D01*
X0018244Y0443707D01*
X0018329Y0443661D01*
X0018412Y0443610D01*
X0018493Y0443557D01*
X0018571Y0443500D01*
X0018648Y0443440D01*
X0018721Y0443377D01*
X0018792Y0443311D01*
X0018860Y0443242D01*
X0018926Y0443170D01*
X0018988Y0443096D01*
X0019047Y0443019D01*
X0019103Y0442940D01*
X0019156Y0442858D01*
X0019206Y0442775D01*
X0019251Y0442689D01*
X0019294Y0442602D01*
X0019333Y0442513D01*
X0019368Y0442423D01*
X0019399Y0442331D01*
X0019426Y0442238D01*
X0019450Y0442144D01*
X0019470Y0442049D01*
X0019486Y0441953D01*
X0019498Y0441857D01*
X0019506Y0441760D01*
X0019510Y0441663D01*
X0019510Y0441567D01*
X0019506Y0441470D01*
X0019498Y0441373D01*
X0019486Y0441277D01*
X0019470Y0441181D01*
X0019450Y0441086D01*
X0019426Y0440992D01*
X0019399Y0440899D01*
X0019368Y0440807D01*
X0019333Y0440717D01*
X0019294Y0440628D01*
X0019251Y0440541D01*
X0019206Y0440455D01*
X0019156Y0440372D01*
X0019103Y0440290D01*
X0019047Y0440211D01*
X0018988Y0440134D01*
X0018926Y0440060D01*
X0018860Y0439988D01*
X0018792Y0439919D01*
X0018721Y0439853D01*
X0018648Y0439790D01*
X0018571Y0439730D01*
X0018493Y0439673D01*
X0018412Y0439620D01*
X0018329Y0439569D01*
X0018244Y0439523D01*
X0018157Y0439479D01*
X0018069Y0439440D01*
X0017979Y0439404D01*
X0017887Y0439372D01*
X0017794Y0439343D01*
X0017701Y0439319D01*
X0017606Y0439298D01*
X0017510Y0439281D01*
X0017414Y0439268D01*
X0017318Y0439259D01*
X0017221Y0439254D01*
X0017124Y0439253D01*
X0017027Y0439256D01*
X0016930Y0439263D01*
X0016834Y0439274D01*
X0016738Y0439289D01*
X0016643Y0439308D01*
X0016548Y0439330D01*
X0016455Y0439357D01*
X0016363Y0439387D01*
X0016272Y0439421D01*
X0016183Y0439459D01*
X0016095Y0439501D01*
X0016009Y0439546D01*
X0015925Y0439594D01*
X0015843Y0439646D01*
X0015764Y0439701D01*
X0015686Y0439760D01*
X0015611Y0439821D01*
X0015539Y0439886D01*
X0015469Y0439953D01*
X0015402Y0440024D01*
X0015339Y0440097D01*
X0015278Y0440172D01*
X0015220Y0440250D01*
X0015166Y0440331D01*
X0015115Y0440413D01*
X0015067Y0440498D01*
X0015023Y0440584D01*
X0014982Y0440672D01*
X0014946Y0440762D01*
X0014912Y0440853D01*
X0014883Y0440945D01*
X0014857Y0441039D01*
X0014836Y0441133D01*
X0014818Y0441229D01*
X0014804Y0441325D01*
X0014794Y0441421D01*
X0014788Y0441518D01*
X0014786Y0441615D01*
X0024629Y0441615D02*
X0024631Y0441712D01*
X0024637Y0441809D01*
X0024647Y0441905D01*
X0024661Y0442001D01*
X0024679Y0442097D01*
X0024700Y0442191D01*
X0024726Y0442285D01*
X0024755Y0442377D01*
X0024789Y0442468D01*
X0024825Y0442558D01*
X0024866Y0442646D01*
X0024910Y0442732D01*
X0024958Y0442817D01*
X0025009Y0442899D01*
X0025063Y0442980D01*
X0025121Y0443058D01*
X0025182Y0443133D01*
X0025245Y0443206D01*
X0025312Y0443277D01*
X0025382Y0443344D01*
X0025454Y0443409D01*
X0025529Y0443470D01*
X0025607Y0443529D01*
X0025686Y0443584D01*
X0025768Y0443636D01*
X0025852Y0443684D01*
X0025938Y0443729D01*
X0026026Y0443771D01*
X0026115Y0443809D01*
X0026206Y0443843D01*
X0026298Y0443873D01*
X0026391Y0443900D01*
X0026486Y0443922D01*
X0026581Y0443941D01*
X0026677Y0443956D01*
X0026773Y0443967D01*
X0026870Y0443974D01*
X0026967Y0443977D01*
X0027064Y0443976D01*
X0027161Y0443971D01*
X0027257Y0443962D01*
X0027353Y0443949D01*
X0027449Y0443932D01*
X0027544Y0443911D01*
X0027637Y0443887D01*
X0027730Y0443858D01*
X0027822Y0443826D01*
X0027912Y0443790D01*
X0028000Y0443751D01*
X0028087Y0443707D01*
X0028172Y0443661D01*
X0028255Y0443610D01*
X0028336Y0443557D01*
X0028414Y0443500D01*
X0028491Y0443440D01*
X0028564Y0443377D01*
X0028635Y0443311D01*
X0028703Y0443242D01*
X0028769Y0443170D01*
X0028831Y0443096D01*
X0028890Y0443019D01*
X0028946Y0442940D01*
X0028999Y0442858D01*
X0029049Y0442775D01*
X0029094Y0442689D01*
X0029137Y0442602D01*
X0029176Y0442513D01*
X0029211Y0442423D01*
X0029242Y0442331D01*
X0029269Y0442238D01*
X0029293Y0442144D01*
X0029313Y0442049D01*
X0029329Y0441953D01*
X0029341Y0441857D01*
X0029349Y0441760D01*
X0029353Y0441663D01*
X0029353Y0441567D01*
X0029349Y0441470D01*
X0029341Y0441373D01*
X0029329Y0441277D01*
X0029313Y0441181D01*
X0029293Y0441086D01*
X0029269Y0440992D01*
X0029242Y0440899D01*
X0029211Y0440807D01*
X0029176Y0440717D01*
X0029137Y0440628D01*
X0029094Y0440541D01*
X0029049Y0440455D01*
X0028999Y0440372D01*
X0028946Y0440290D01*
X0028890Y0440211D01*
X0028831Y0440134D01*
X0028769Y0440060D01*
X0028703Y0439988D01*
X0028635Y0439919D01*
X0028564Y0439853D01*
X0028491Y0439790D01*
X0028414Y0439730D01*
X0028336Y0439673D01*
X0028255Y0439620D01*
X0028172Y0439569D01*
X0028087Y0439523D01*
X0028000Y0439479D01*
X0027912Y0439440D01*
X0027822Y0439404D01*
X0027730Y0439372D01*
X0027637Y0439343D01*
X0027544Y0439319D01*
X0027449Y0439298D01*
X0027353Y0439281D01*
X0027257Y0439268D01*
X0027161Y0439259D01*
X0027064Y0439254D01*
X0026967Y0439253D01*
X0026870Y0439256D01*
X0026773Y0439263D01*
X0026677Y0439274D01*
X0026581Y0439289D01*
X0026486Y0439308D01*
X0026391Y0439330D01*
X0026298Y0439357D01*
X0026206Y0439387D01*
X0026115Y0439421D01*
X0026026Y0439459D01*
X0025938Y0439501D01*
X0025852Y0439546D01*
X0025768Y0439594D01*
X0025686Y0439646D01*
X0025607Y0439701D01*
X0025529Y0439760D01*
X0025454Y0439821D01*
X0025382Y0439886D01*
X0025312Y0439953D01*
X0025245Y0440024D01*
X0025182Y0440097D01*
X0025121Y0440172D01*
X0025063Y0440250D01*
X0025009Y0440331D01*
X0024958Y0440413D01*
X0024910Y0440498D01*
X0024866Y0440584D01*
X0024825Y0440672D01*
X0024789Y0440762D01*
X0024755Y0440853D01*
X0024726Y0440945D01*
X0024700Y0441039D01*
X0024679Y0441133D01*
X0024661Y0441229D01*
X0024647Y0441325D01*
X0024637Y0441421D01*
X0024631Y0441518D01*
X0024629Y0441615D01*
X0024629Y0480985D02*
X0024631Y0481082D01*
X0024637Y0481179D01*
X0024647Y0481275D01*
X0024661Y0481371D01*
X0024679Y0481467D01*
X0024700Y0481561D01*
X0024726Y0481655D01*
X0024755Y0481747D01*
X0024789Y0481838D01*
X0024825Y0481928D01*
X0024866Y0482016D01*
X0024910Y0482102D01*
X0024958Y0482187D01*
X0025009Y0482269D01*
X0025063Y0482350D01*
X0025121Y0482428D01*
X0025182Y0482503D01*
X0025245Y0482576D01*
X0025312Y0482647D01*
X0025382Y0482714D01*
X0025454Y0482779D01*
X0025529Y0482840D01*
X0025607Y0482899D01*
X0025686Y0482954D01*
X0025768Y0483006D01*
X0025852Y0483054D01*
X0025938Y0483099D01*
X0026026Y0483141D01*
X0026115Y0483179D01*
X0026206Y0483213D01*
X0026298Y0483243D01*
X0026391Y0483270D01*
X0026486Y0483292D01*
X0026581Y0483311D01*
X0026677Y0483326D01*
X0026773Y0483337D01*
X0026870Y0483344D01*
X0026967Y0483347D01*
X0027064Y0483346D01*
X0027161Y0483341D01*
X0027257Y0483332D01*
X0027353Y0483319D01*
X0027449Y0483302D01*
X0027544Y0483281D01*
X0027637Y0483257D01*
X0027730Y0483228D01*
X0027822Y0483196D01*
X0027912Y0483160D01*
X0028000Y0483121D01*
X0028087Y0483077D01*
X0028172Y0483031D01*
X0028255Y0482980D01*
X0028336Y0482927D01*
X0028414Y0482870D01*
X0028491Y0482810D01*
X0028564Y0482747D01*
X0028635Y0482681D01*
X0028703Y0482612D01*
X0028769Y0482540D01*
X0028831Y0482466D01*
X0028890Y0482389D01*
X0028946Y0482310D01*
X0028999Y0482228D01*
X0029049Y0482145D01*
X0029094Y0482059D01*
X0029137Y0481972D01*
X0029176Y0481883D01*
X0029211Y0481793D01*
X0029242Y0481701D01*
X0029269Y0481608D01*
X0029293Y0481514D01*
X0029313Y0481419D01*
X0029329Y0481323D01*
X0029341Y0481227D01*
X0029349Y0481130D01*
X0029353Y0481033D01*
X0029353Y0480937D01*
X0029349Y0480840D01*
X0029341Y0480743D01*
X0029329Y0480647D01*
X0029313Y0480551D01*
X0029293Y0480456D01*
X0029269Y0480362D01*
X0029242Y0480269D01*
X0029211Y0480177D01*
X0029176Y0480087D01*
X0029137Y0479998D01*
X0029094Y0479911D01*
X0029049Y0479825D01*
X0028999Y0479742D01*
X0028946Y0479660D01*
X0028890Y0479581D01*
X0028831Y0479504D01*
X0028769Y0479430D01*
X0028703Y0479358D01*
X0028635Y0479289D01*
X0028564Y0479223D01*
X0028491Y0479160D01*
X0028414Y0479100D01*
X0028336Y0479043D01*
X0028255Y0478990D01*
X0028172Y0478939D01*
X0028087Y0478893D01*
X0028000Y0478849D01*
X0027912Y0478810D01*
X0027822Y0478774D01*
X0027730Y0478742D01*
X0027637Y0478713D01*
X0027544Y0478689D01*
X0027449Y0478668D01*
X0027353Y0478651D01*
X0027257Y0478638D01*
X0027161Y0478629D01*
X0027064Y0478624D01*
X0026967Y0478623D01*
X0026870Y0478626D01*
X0026773Y0478633D01*
X0026677Y0478644D01*
X0026581Y0478659D01*
X0026486Y0478678D01*
X0026391Y0478700D01*
X0026298Y0478727D01*
X0026206Y0478757D01*
X0026115Y0478791D01*
X0026026Y0478829D01*
X0025938Y0478871D01*
X0025852Y0478916D01*
X0025768Y0478964D01*
X0025686Y0479016D01*
X0025607Y0479071D01*
X0025529Y0479130D01*
X0025454Y0479191D01*
X0025382Y0479256D01*
X0025312Y0479323D01*
X0025245Y0479394D01*
X0025182Y0479467D01*
X0025121Y0479542D01*
X0025063Y0479620D01*
X0025009Y0479701D01*
X0024958Y0479783D01*
X0024910Y0479868D01*
X0024866Y0479954D01*
X0024825Y0480042D01*
X0024789Y0480132D01*
X0024755Y0480223D01*
X0024726Y0480315D01*
X0024700Y0480409D01*
X0024679Y0480503D01*
X0024661Y0480599D01*
X0024647Y0480695D01*
X0024637Y0480791D01*
X0024631Y0480888D01*
X0024629Y0480985D01*
X0014786Y0480985D02*
X0014788Y0481082D01*
X0014794Y0481179D01*
X0014804Y0481275D01*
X0014818Y0481371D01*
X0014836Y0481467D01*
X0014857Y0481561D01*
X0014883Y0481655D01*
X0014912Y0481747D01*
X0014946Y0481838D01*
X0014982Y0481928D01*
X0015023Y0482016D01*
X0015067Y0482102D01*
X0015115Y0482187D01*
X0015166Y0482269D01*
X0015220Y0482350D01*
X0015278Y0482428D01*
X0015339Y0482503D01*
X0015402Y0482576D01*
X0015469Y0482647D01*
X0015539Y0482714D01*
X0015611Y0482779D01*
X0015686Y0482840D01*
X0015764Y0482899D01*
X0015843Y0482954D01*
X0015925Y0483006D01*
X0016009Y0483054D01*
X0016095Y0483099D01*
X0016183Y0483141D01*
X0016272Y0483179D01*
X0016363Y0483213D01*
X0016455Y0483243D01*
X0016548Y0483270D01*
X0016643Y0483292D01*
X0016738Y0483311D01*
X0016834Y0483326D01*
X0016930Y0483337D01*
X0017027Y0483344D01*
X0017124Y0483347D01*
X0017221Y0483346D01*
X0017318Y0483341D01*
X0017414Y0483332D01*
X0017510Y0483319D01*
X0017606Y0483302D01*
X0017701Y0483281D01*
X0017794Y0483257D01*
X0017887Y0483228D01*
X0017979Y0483196D01*
X0018069Y0483160D01*
X0018157Y0483121D01*
X0018244Y0483077D01*
X0018329Y0483031D01*
X0018412Y0482980D01*
X0018493Y0482927D01*
X0018571Y0482870D01*
X0018648Y0482810D01*
X0018721Y0482747D01*
X0018792Y0482681D01*
X0018860Y0482612D01*
X0018926Y0482540D01*
X0018988Y0482466D01*
X0019047Y0482389D01*
X0019103Y0482310D01*
X0019156Y0482228D01*
X0019206Y0482145D01*
X0019251Y0482059D01*
X0019294Y0481972D01*
X0019333Y0481883D01*
X0019368Y0481793D01*
X0019399Y0481701D01*
X0019426Y0481608D01*
X0019450Y0481514D01*
X0019470Y0481419D01*
X0019486Y0481323D01*
X0019498Y0481227D01*
X0019506Y0481130D01*
X0019510Y0481033D01*
X0019510Y0480937D01*
X0019506Y0480840D01*
X0019498Y0480743D01*
X0019486Y0480647D01*
X0019470Y0480551D01*
X0019450Y0480456D01*
X0019426Y0480362D01*
X0019399Y0480269D01*
X0019368Y0480177D01*
X0019333Y0480087D01*
X0019294Y0479998D01*
X0019251Y0479911D01*
X0019206Y0479825D01*
X0019156Y0479742D01*
X0019103Y0479660D01*
X0019047Y0479581D01*
X0018988Y0479504D01*
X0018926Y0479430D01*
X0018860Y0479358D01*
X0018792Y0479289D01*
X0018721Y0479223D01*
X0018648Y0479160D01*
X0018571Y0479100D01*
X0018493Y0479043D01*
X0018412Y0478990D01*
X0018329Y0478939D01*
X0018244Y0478893D01*
X0018157Y0478849D01*
X0018069Y0478810D01*
X0017979Y0478774D01*
X0017887Y0478742D01*
X0017794Y0478713D01*
X0017701Y0478689D01*
X0017606Y0478668D01*
X0017510Y0478651D01*
X0017414Y0478638D01*
X0017318Y0478629D01*
X0017221Y0478624D01*
X0017124Y0478623D01*
X0017027Y0478626D01*
X0016930Y0478633D01*
X0016834Y0478644D01*
X0016738Y0478659D01*
X0016643Y0478678D01*
X0016548Y0478700D01*
X0016455Y0478727D01*
X0016363Y0478757D01*
X0016272Y0478791D01*
X0016183Y0478829D01*
X0016095Y0478871D01*
X0016009Y0478916D01*
X0015925Y0478964D01*
X0015843Y0479016D01*
X0015764Y0479071D01*
X0015686Y0479130D01*
X0015611Y0479191D01*
X0015539Y0479256D01*
X0015469Y0479323D01*
X0015402Y0479394D01*
X0015339Y0479467D01*
X0015278Y0479542D01*
X0015220Y0479620D01*
X0015166Y0479701D01*
X0015115Y0479783D01*
X0015067Y0479868D01*
X0015023Y0479954D01*
X0014982Y0480042D01*
X0014946Y0480132D01*
X0014912Y0480223D01*
X0014883Y0480315D01*
X0014857Y0480409D01*
X0014836Y0480503D01*
X0014818Y0480599D01*
X0014804Y0480695D01*
X0014794Y0480791D01*
X0014788Y0480888D01*
X0014786Y0480985D01*
X0054944Y0536300D02*
X0054946Y0536397D01*
X0054952Y0536494D01*
X0054962Y0536590D01*
X0054976Y0536686D01*
X0054994Y0536782D01*
X0055015Y0536876D01*
X0055041Y0536970D01*
X0055070Y0537062D01*
X0055104Y0537153D01*
X0055140Y0537243D01*
X0055181Y0537331D01*
X0055225Y0537417D01*
X0055273Y0537502D01*
X0055324Y0537584D01*
X0055378Y0537665D01*
X0055436Y0537743D01*
X0055497Y0537818D01*
X0055560Y0537891D01*
X0055627Y0537962D01*
X0055697Y0538029D01*
X0055769Y0538094D01*
X0055844Y0538155D01*
X0055922Y0538214D01*
X0056001Y0538269D01*
X0056083Y0538321D01*
X0056167Y0538369D01*
X0056253Y0538414D01*
X0056341Y0538456D01*
X0056430Y0538494D01*
X0056521Y0538528D01*
X0056613Y0538558D01*
X0056706Y0538585D01*
X0056801Y0538607D01*
X0056896Y0538626D01*
X0056992Y0538641D01*
X0057088Y0538652D01*
X0057185Y0538659D01*
X0057282Y0538662D01*
X0057379Y0538661D01*
X0057476Y0538656D01*
X0057572Y0538647D01*
X0057668Y0538634D01*
X0057764Y0538617D01*
X0057859Y0538596D01*
X0057952Y0538572D01*
X0058045Y0538543D01*
X0058137Y0538511D01*
X0058227Y0538475D01*
X0058315Y0538436D01*
X0058402Y0538392D01*
X0058487Y0538346D01*
X0058570Y0538295D01*
X0058651Y0538242D01*
X0058729Y0538185D01*
X0058806Y0538125D01*
X0058879Y0538062D01*
X0058950Y0537996D01*
X0059018Y0537927D01*
X0059084Y0537855D01*
X0059146Y0537781D01*
X0059205Y0537704D01*
X0059261Y0537625D01*
X0059314Y0537543D01*
X0059364Y0537460D01*
X0059409Y0537374D01*
X0059452Y0537287D01*
X0059491Y0537198D01*
X0059526Y0537108D01*
X0059557Y0537016D01*
X0059584Y0536923D01*
X0059608Y0536829D01*
X0059628Y0536734D01*
X0059644Y0536638D01*
X0059656Y0536542D01*
X0059664Y0536445D01*
X0059668Y0536348D01*
X0059668Y0536252D01*
X0059664Y0536155D01*
X0059656Y0536058D01*
X0059644Y0535962D01*
X0059628Y0535866D01*
X0059608Y0535771D01*
X0059584Y0535677D01*
X0059557Y0535584D01*
X0059526Y0535492D01*
X0059491Y0535402D01*
X0059452Y0535313D01*
X0059409Y0535226D01*
X0059364Y0535140D01*
X0059314Y0535057D01*
X0059261Y0534975D01*
X0059205Y0534896D01*
X0059146Y0534819D01*
X0059084Y0534745D01*
X0059018Y0534673D01*
X0058950Y0534604D01*
X0058879Y0534538D01*
X0058806Y0534475D01*
X0058729Y0534415D01*
X0058651Y0534358D01*
X0058570Y0534305D01*
X0058487Y0534254D01*
X0058402Y0534208D01*
X0058315Y0534164D01*
X0058227Y0534125D01*
X0058137Y0534089D01*
X0058045Y0534057D01*
X0057952Y0534028D01*
X0057859Y0534004D01*
X0057764Y0533983D01*
X0057668Y0533966D01*
X0057572Y0533953D01*
X0057476Y0533944D01*
X0057379Y0533939D01*
X0057282Y0533938D01*
X0057185Y0533941D01*
X0057088Y0533948D01*
X0056992Y0533959D01*
X0056896Y0533974D01*
X0056801Y0533993D01*
X0056706Y0534015D01*
X0056613Y0534042D01*
X0056521Y0534072D01*
X0056430Y0534106D01*
X0056341Y0534144D01*
X0056253Y0534186D01*
X0056167Y0534231D01*
X0056083Y0534279D01*
X0056001Y0534331D01*
X0055922Y0534386D01*
X0055844Y0534445D01*
X0055769Y0534506D01*
X0055697Y0534571D01*
X0055627Y0534638D01*
X0055560Y0534709D01*
X0055497Y0534782D01*
X0055436Y0534857D01*
X0055378Y0534935D01*
X0055324Y0535016D01*
X0055273Y0535098D01*
X0055225Y0535183D01*
X0055181Y0535269D01*
X0055140Y0535357D01*
X0055104Y0535447D01*
X0055070Y0535538D01*
X0055041Y0535630D01*
X0055015Y0535724D01*
X0054994Y0535818D01*
X0054976Y0535914D01*
X0054962Y0536010D01*
X0054952Y0536106D01*
X0054946Y0536203D01*
X0054944Y0536300D01*
X0054944Y0546143D02*
X0054946Y0546240D01*
X0054952Y0546337D01*
X0054962Y0546433D01*
X0054976Y0546529D01*
X0054994Y0546625D01*
X0055015Y0546719D01*
X0055041Y0546813D01*
X0055070Y0546905D01*
X0055104Y0546996D01*
X0055140Y0547086D01*
X0055181Y0547174D01*
X0055225Y0547260D01*
X0055273Y0547345D01*
X0055324Y0547427D01*
X0055378Y0547508D01*
X0055436Y0547586D01*
X0055497Y0547661D01*
X0055560Y0547734D01*
X0055627Y0547805D01*
X0055697Y0547872D01*
X0055769Y0547937D01*
X0055844Y0547998D01*
X0055922Y0548057D01*
X0056001Y0548112D01*
X0056083Y0548164D01*
X0056167Y0548212D01*
X0056253Y0548257D01*
X0056341Y0548299D01*
X0056430Y0548337D01*
X0056521Y0548371D01*
X0056613Y0548401D01*
X0056706Y0548428D01*
X0056801Y0548450D01*
X0056896Y0548469D01*
X0056992Y0548484D01*
X0057088Y0548495D01*
X0057185Y0548502D01*
X0057282Y0548505D01*
X0057379Y0548504D01*
X0057476Y0548499D01*
X0057572Y0548490D01*
X0057668Y0548477D01*
X0057764Y0548460D01*
X0057859Y0548439D01*
X0057952Y0548415D01*
X0058045Y0548386D01*
X0058137Y0548354D01*
X0058227Y0548318D01*
X0058315Y0548279D01*
X0058402Y0548235D01*
X0058487Y0548189D01*
X0058570Y0548138D01*
X0058651Y0548085D01*
X0058729Y0548028D01*
X0058806Y0547968D01*
X0058879Y0547905D01*
X0058950Y0547839D01*
X0059018Y0547770D01*
X0059084Y0547698D01*
X0059146Y0547624D01*
X0059205Y0547547D01*
X0059261Y0547468D01*
X0059314Y0547386D01*
X0059364Y0547303D01*
X0059409Y0547217D01*
X0059452Y0547130D01*
X0059491Y0547041D01*
X0059526Y0546951D01*
X0059557Y0546859D01*
X0059584Y0546766D01*
X0059608Y0546672D01*
X0059628Y0546577D01*
X0059644Y0546481D01*
X0059656Y0546385D01*
X0059664Y0546288D01*
X0059668Y0546191D01*
X0059668Y0546095D01*
X0059664Y0545998D01*
X0059656Y0545901D01*
X0059644Y0545805D01*
X0059628Y0545709D01*
X0059608Y0545614D01*
X0059584Y0545520D01*
X0059557Y0545427D01*
X0059526Y0545335D01*
X0059491Y0545245D01*
X0059452Y0545156D01*
X0059409Y0545069D01*
X0059364Y0544983D01*
X0059314Y0544900D01*
X0059261Y0544818D01*
X0059205Y0544739D01*
X0059146Y0544662D01*
X0059084Y0544588D01*
X0059018Y0544516D01*
X0058950Y0544447D01*
X0058879Y0544381D01*
X0058806Y0544318D01*
X0058729Y0544258D01*
X0058651Y0544201D01*
X0058570Y0544148D01*
X0058487Y0544097D01*
X0058402Y0544051D01*
X0058315Y0544007D01*
X0058227Y0543968D01*
X0058137Y0543932D01*
X0058045Y0543900D01*
X0057952Y0543871D01*
X0057859Y0543847D01*
X0057764Y0543826D01*
X0057668Y0543809D01*
X0057572Y0543796D01*
X0057476Y0543787D01*
X0057379Y0543782D01*
X0057282Y0543781D01*
X0057185Y0543784D01*
X0057088Y0543791D01*
X0056992Y0543802D01*
X0056896Y0543817D01*
X0056801Y0543836D01*
X0056706Y0543858D01*
X0056613Y0543885D01*
X0056521Y0543915D01*
X0056430Y0543949D01*
X0056341Y0543987D01*
X0056253Y0544029D01*
X0056167Y0544074D01*
X0056083Y0544122D01*
X0056001Y0544174D01*
X0055922Y0544229D01*
X0055844Y0544288D01*
X0055769Y0544349D01*
X0055697Y0544414D01*
X0055627Y0544481D01*
X0055560Y0544552D01*
X0055497Y0544625D01*
X0055436Y0544700D01*
X0055378Y0544778D01*
X0055324Y0544859D01*
X0055273Y0544941D01*
X0055225Y0545026D01*
X0055181Y0545112D01*
X0055140Y0545200D01*
X0055104Y0545290D01*
X0055070Y0545381D01*
X0055041Y0545473D01*
X0055015Y0545567D01*
X0054994Y0545661D01*
X0054976Y0545757D01*
X0054962Y0545853D01*
X0054952Y0545949D01*
X0054946Y0546046D01*
X0054944Y0546143D01*
X0094314Y0546143D02*
X0094316Y0546240D01*
X0094322Y0546337D01*
X0094332Y0546433D01*
X0094346Y0546529D01*
X0094364Y0546625D01*
X0094385Y0546719D01*
X0094411Y0546813D01*
X0094440Y0546905D01*
X0094474Y0546996D01*
X0094510Y0547086D01*
X0094551Y0547174D01*
X0094595Y0547260D01*
X0094643Y0547345D01*
X0094694Y0547427D01*
X0094748Y0547508D01*
X0094806Y0547586D01*
X0094867Y0547661D01*
X0094930Y0547734D01*
X0094997Y0547805D01*
X0095067Y0547872D01*
X0095139Y0547937D01*
X0095214Y0547998D01*
X0095292Y0548057D01*
X0095371Y0548112D01*
X0095453Y0548164D01*
X0095537Y0548212D01*
X0095623Y0548257D01*
X0095711Y0548299D01*
X0095800Y0548337D01*
X0095891Y0548371D01*
X0095983Y0548401D01*
X0096076Y0548428D01*
X0096171Y0548450D01*
X0096266Y0548469D01*
X0096362Y0548484D01*
X0096458Y0548495D01*
X0096555Y0548502D01*
X0096652Y0548505D01*
X0096749Y0548504D01*
X0096846Y0548499D01*
X0096942Y0548490D01*
X0097038Y0548477D01*
X0097134Y0548460D01*
X0097229Y0548439D01*
X0097322Y0548415D01*
X0097415Y0548386D01*
X0097507Y0548354D01*
X0097597Y0548318D01*
X0097685Y0548279D01*
X0097772Y0548235D01*
X0097857Y0548189D01*
X0097940Y0548138D01*
X0098021Y0548085D01*
X0098099Y0548028D01*
X0098176Y0547968D01*
X0098249Y0547905D01*
X0098320Y0547839D01*
X0098388Y0547770D01*
X0098454Y0547698D01*
X0098516Y0547624D01*
X0098575Y0547547D01*
X0098631Y0547468D01*
X0098684Y0547386D01*
X0098734Y0547303D01*
X0098779Y0547217D01*
X0098822Y0547130D01*
X0098861Y0547041D01*
X0098896Y0546951D01*
X0098927Y0546859D01*
X0098954Y0546766D01*
X0098978Y0546672D01*
X0098998Y0546577D01*
X0099014Y0546481D01*
X0099026Y0546385D01*
X0099034Y0546288D01*
X0099038Y0546191D01*
X0099038Y0546095D01*
X0099034Y0545998D01*
X0099026Y0545901D01*
X0099014Y0545805D01*
X0098998Y0545709D01*
X0098978Y0545614D01*
X0098954Y0545520D01*
X0098927Y0545427D01*
X0098896Y0545335D01*
X0098861Y0545245D01*
X0098822Y0545156D01*
X0098779Y0545069D01*
X0098734Y0544983D01*
X0098684Y0544900D01*
X0098631Y0544818D01*
X0098575Y0544739D01*
X0098516Y0544662D01*
X0098454Y0544588D01*
X0098388Y0544516D01*
X0098320Y0544447D01*
X0098249Y0544381D01*
X0098176Y0544318D01*
X0098099Y0544258D01*
X0098021Y0544201D01*
X0097940Y0544148D01*
X0097857Y0544097D01*
X0097772Y0544051D01*
X0097685Y0544007D01*
X0097597Y0543968D01*
X0097507Y0543932D01*
X0097415Y0543900D01*
X0097322Y0543871D01*
X0097229Y0543847D01*
X0097134Y0543826D01*
X0097038Y0543809D01*
X0096942Y0543796D01*
X0096846Y0543787D01*
X0096749Y0543782D01*
X0096652Y0543781D01*
X0096555Y0543784D01*
X0096458Y0543791D01*
X0096362Y0543802D01*
X0096266Y0543817D01*
X0096171Y0543836D01*
X0096076Y0543858D01*
X0095983Y0543885D01*
X0095891Y0543915D01*
X0095800Y0543949D01*
X0095711Y0543987D01*
X0095623Y0544029D01*
X0095537Y0544074D01*
X0095453Y0544122D01*
X0095371Y0544174D01*
X0095292Y0544229D01*
X0095214Y0544288D01*
X0095139Y0544349D01*
X0095067Y0544414D01*
X0094997Y0544481D01*
X0094930Y0544552D01*
X0094867Y0544625D01*
X0094806Y0544700D01*
X0094748Y0544778D01*
X0094694Y0544859D01*
X0094643Y0544941D01*
X0094595Y0545026D01*
X0094551Y0545112D01*
X0094510Y0545200D01*
X0094474Y0545290D01*
X0094440Y0545381D01*
X0094411Y0545473D01*
X0094385Y0545567D01*
X0094364Y0545661D01*
X0094346Y0545757D01*
X0094332Y0545853D01*
X0094322Y0545949D01*
X0094316Y0546046D01*
X0094314Y0546143D01*
X0094314Y0536300D02*
X0094316Y0536397D01*
X0094322Y0536494D01*
X0094332Y0536590D01*
X0094346Y0536686D01*
X0094364Y0536782D01*
X0094385Y0536876D01*
X0094411Y0536970D01*
X0094440Y0537062D01*
X0094474Y0537153D01*
X0094510Y0537243D01*
X0094551Y0537331D01*
X0094595Y0537417D01*
X0094643Y0537502D01*
X0094694Y0537584D01*
X0094748Y0537665D01*
X0094806Y0537743D01*
X0094867Y0537818D01*
X0094930Y0537891D01*
X0094997Y0537962D01*
X0095067Y0538029D01*
X0095139Y0538094D01*
X0095214Y0538155D01*
X0095292Y0538214D01*
X0095371Y0538269D01*
X0095453Y0538321D01*
X0095537Y0538369D01*
X0095623Y0538414D01*
X0095711Y0538456D01*
X0095800Y0538494D01*
X0095891Y0538528D01*
X0095983Y0538558D01*
X0096076Y0538585D01*
X0096171Y0538607D01*
X0096266Y0538626D01*
X0096362Y0538641D01*
X0096458Y0538652D01*
X0096555Y0538659D01*
X0096652Y0538662D01*
X0096749Y0538661D01*
X0096846Y0538656D01*
X0096942Y0538647D01*
X0097038Y0538634D01*
X0097134Y0538617D01*
X0097229Y0538596D01*
X0097322Y0538572D01*
X0097415Y0538543D01*
X0097507Y0538511D01*
X0097597Y0538475D01*
X0097685Y0538436D01*
X0097772Y0538392D01*
X0097857Y0538346D01*
X0097940Y0538295D01*
X0098021Y0538242D01*
X0098099Y0538185D01*
X0098176Y0538125D01*
X0098249Y0538062D01*
X0098320Y0537996D01*
X0098388Y0537927D01*
X0098454Y0537855D01*
X0098516Y0537781D01*
X0098575Y0537704D01*
X0098631Y0537625D01*
X0098684Y0537543D01*
X0098734Y0537460D01*
X0098779Y0537374D01*
X0098822Y0537287D01*
X0098861Y0537198D01*
X0098896Y0537108D01*
X0098927Y0537016D01*
X0098954Y0536923D01*
X0098978Y0536829D01*
X0098998Y0536734D01*
X0099014Y0536638D01*
X0099026Y0536542D01*
X0099034Y0536445D01*
X0099038Y0536348D01*
X0099038Y0536252D01*
X0099034Y0536155D01*
X0099026Y0536058D01*
X0099014Y0535962D01*
X0098998Y0535866D01*
X0098978Y0535771D01*
X0098954Y0535677D01*
X0098927Y0535584D01*
X0098896Y0535492D01*
X0098861Y0535402D01*
X0098822Y0535313D01*
X0098779Y0535226D01*
X0098734Y0535140D01*
X0098684Y0535057D01*
X0098631Y0534975D01*
X0098575Y0534896D01*
X0098516Y0534819D01*
X0098454Y0534745D01*
X0098388Y0534673D01*
X0098320Y0534604D01*
X0098249Y0534538D01*
X0098176Y0534475D01*
X0098099Y0534415D01*
X0098021Y0534358D01*
X0097940Y0534305D01*
X0097857Y0534254D01*
X0097772Y0534208D01*
X0097685Y0534164D01*
X0097597Y0534125D01*
X0097507Y0534089D01*
X0097415Y0534057D01*
X0097322Y0534028D01*
X0097229Y0534004D01*
X0097134Y0533983D01*
X0097038Y0533966D01*
X0096942Y0533953D01*
X0096846Y0533944D01*
X0096749Y0533939D01*
X0096652Y0533938D01*
X0096555Y0533941D01*
X0096458Y0533948D01*
X0096362Y0533959D01*
X0096266Y0533974D01*
X0096171Y0533993D01*
X0096076Y0534015D01*
X0095983Y0534042D01*
X0095891Y0534072D01*
X0095800Y0534106D01*
X0095711Y0534144D01*
X0095623Y0534186D01*
X0095537Y0534231D01*
X0095453Y0534279D01*
X0095371Y0534331D01*
X0095292Y0534386D01*
X0095214Y0534445D01*
X0095139Y0534506D01*
X0095067Y0534571D01*
X0094997Y0534638D01*
X0094930Y0534709D01*
X0094867Y0534782D01*
X0094806Y0534857D01*
X0094748Y0534935D01*
X0094694Y0535016D01*
X0094643Y0535098D01*
X0094595Y0535183D01*
X0094551Y0535269D01*
X0094510Y0535357D01*
X0094474Y0535447D01*
X0094440Y0535538D01*
X0094411Y0535630D01*
X0094385Y0535724D01*
X0094364Y0535818D01*
X0094346Y0535914D01*
X0094332Y0536010D01*
X0094322Y0536106D01*
X0094316Y0536203D01*
X0094314Y0536300D01*
X0255491Y0540300D02*
X0255493Y0540461D01*
X0255499Y0540621D01*
X0255509Y0540782D01*
X0255523Y0540942D01*
X0255541Y0541102D01*
X0255562Y0541261D01*
X0255588Y0541420D01*
X0255618Y0541578D01*
X0255651Y0541735D01*
X0255689Y0541892D01*
X0255730Y0542047D01*
X0255775Y0542201D01*
X0255824Y0542354D01*
X0255877Y0542506D01*
X0255933Y0542657D01*
X0255994Y0542806D01*
X0256057Y0542954D01*
X0256125Y0543100D01*
X0256196Y0543244D01*
X0256270Y0543386D01*
X0256348Y0543527D01*
X0256430Y0543665D01*
X0256515Y0543802D01*
X0256603Y0543936D01*
X0256695Y0544068D01*
X0256790Y0544198D01*
X0256888Y0544326D01*
X0256989Y0544451D01*
X0257093Y0544573D01*
X0257200Y0544693D01*
X0257310Y0544810D01*
X0257423Y0544925D01*
X0257539Y0545036D01*
X0257658Y0545145D01*
X0257779Y0545250D01*
X0257903Y0545353D01*
X0258029Y0545453D01*
X0258157Y0545549D01*
X0258288Y0545642D01*
X0258422Y0545732D01*
X0258557Y0545819D01*
X0258695Y0545902D01*
X0258834Y0545982D01*
X0258976Y0546058D01*
X0259119Y0546131D01*
X0259264Y0546200D01*
X0259411Y0546266D01*
X0259559Y0546328D01*
X0259709Y0546386D01*
X0259860Y0546441D01*
X0260013Y0546492D01*
X0260167Y0546539D01*
X0260322Y0546582D01*
X0260478Y0546621D01*
X0260634Y0546657D01*
X0260792Y0546688D01*
X0260950Y0546716D01*
X0261109Y0546740D01*
X0261269Y0546760D01*
X0261429Y0546776D01*
X0261589Y0546788D01*
X0261750Y0546796D01*
X0261911Y0546800D01*
X0262071Y0546800D01*
X0262232Y0546796D01*
X0262393Y0546788D01*
X0262553Y0546776D01*
X0262713Y0546760D01*
X0262873Y0546740D01*
X0263032Y0546716D01*
X0263190Y0546688D01*
X0263348Y0546657D01*
X0263504Y0546621D01*
X0263660Y0546582D01*
X0263815Y0546539D01*
X0263969Y0546492D01*
X0264122Y0546441D01*
X0264273Y0546386D01*
X0264423Y0546328D01*
X0264571Y0546266D01*
X0264718Y0546200D01*
X0264863Y0546131D01*
X0265006Y0546058D01*
X0265148Y0545982D01*
X0265287Y0545902D01*
X0265425Y0545819D01*
X0265560Y0545732D01*
X0265694Y0545642D01*
X0265825Y0545549D01*
X0265953Y0545453D01*
X0266079Y0545353D01*
X0266203Y0545250D01*
X0266324Y0545145D01*
X0266443Y0545036D01*
X0266559Y0544925D01*
X0266672Y0544810D01*
X0266782Y0544693D01*
X0266889Y0544573D01*
X0266993Y0544451D01*
X0267094Y0544326D01*
X0267192Y0544198D01*
X0267287Y0544068D01*
X0267379Y0543936D01*
X0267467Y0543802D01*
X0267552Y0543665D01*
X0267634Y0543527D01*
X0267712Y0543386D01*
X0267786Y0543244D01*
X0267857Y0543100D01*
X0267925Y0542954D01*
X0267988Y0542806D01*
X0268049Y0542657D01*
X0268105Y0542506D01*
X0268158Y0542354D01*
X0268207Y0542201D01*
X0268252Y0542047D01*
X0268293Y0541892D01*
X0268331Y0541735D01*
X0268364Y0541578D01*
X0268394Y0541420D01*
X0268420Y0541261D01*
X0268441Y0541102D01*
X0268459Y0540942D01*
X0268473Y0540782D01*
X0268483Y0540621D01*
X0268489Y0540461D01*
X0268491Y0540300D01*
X0268489Y0540139D01*
X0268483Y0539979D01*
X0268473Y0539818D01*
X0268459Y0539658D01*
X0268441Y0539498D01*
X0268420Y0539339D01*
X0268394Y0539180D01*
X0268364Y0539022D01*
X0268331Y0538865D01*
X0268293Y0538708D01*
X0268252Y0538553D01*
X0268207Y0538399D01*
X0268158Y0538246D01*
X0268105Y0538094D01*
X0268049Y0537943D01*
X0267988Y0537794D01*
X0267925Y0537646D01*
X0267857Y0537500D01*
X0267786Y0537356D01*
X0267712Y0537214D01*
X0267634Y0537073D01*
X0267552Y0536935D01*
X0267467Y0536798D01*
X0267379Y0536664D01*
X0267287Y0536532D01*
X0267192Y0536402D01*
X0267094Y0536274D01*
X0266993Y0536149D01*
X0266889Y0536027D01*
X0266782Y0535907D01*
X0266672Y0535790D01*
X0266559Y0535675D01*
X0266443Y0535564D01*
X0266324Y0535455D01*
X0266203Y0535350D01*
X0266079Y0535247D01*
X0265953Y0535147D01*
X0265825Y0535051D01*
X0265694Y0534958D01*
X0265560Y0534868D01*
X0265425Y0534781D01*
X0265287Y0534698D01*
X0265148Y0534618D01*
X0265006Y0534542D01*
X0264863Y0534469D01*
X0264718Y0534400D01*
X0264571Y0534334D01*
X0264423Y0534272D01*
X0264273Y0534214D01*
X0264122Y0534159D01*
X0263969Y0534108D01*
X0263815Y0534061D01*
X0263660Y0534018D01*
X0263504Y0533979D01*
X0263348Y0533943D01*
X0263190Y0533912D01*
X0263032Y0533884D01*
X0262873Y0533860D01*
X0262713Y0533840D01*
X0262553Y0533824D01*
X0262393Y0533812D01*
X0262232Y0533804D01*
X0262071Y0533800D01*
X0261911Y0533800D01*
X0261750Y0533804D01*
X0261589Y0533812D01*
X0261429Y0533824D01*
X0261269Y0533840D01*
X0261109Y0533860D01*
X0260950Y0533884D01*
X0260792Y0533912D01*
X0260634Y0533943D01*
X0260478Y0533979D01*
X0260322Y0534018D01*
X0260167Y0534061D01*
X0260013Y0534108D01*
X0259860Y0534159D01*
X0259709Y0534214D01*
X0259559Y0534272D01*
X0259411Y0534334D01*
X0259264Y0534400D01*
X0259119Y0534469D01*
X0258976Y0534542D01*
X0258834Y0534618D01*
X0258695Y0534698D01*
X0258557Y0534781D01*
X0258422Y0534868D01*
X0258288Y0534958D01*
X0258157Y0535051D01*
X0258029Y0535147D01*
X0257903Y0535247D01*
X0257779Y0535350D01*
X0257658Y0535455D01*
X0257539Y0535564D01*
X0257423Y0535675D01*
X0257310Y0535790D01*
X0257200Y0535907D01*
X0257093Y0536027D01*
X0256989Y0536149D01*
X0256888Y0536274D01*
X0256790Y0536402D01*
X0256695Y0536532D01*
X0256603Y0536664D01*
X0256515Y0536798D01*
X0256430Y0536935D01*
X0256348Y0537073D01*
X0256270Y0537214D01*
X0256196Y0537356D01*
X0256125Y0537500D01*
X0256057Y0537646D01*
X0255994Y0537794D01*
X0255933Y0537943D01*
X0255877Y0538094D01*
X0255824Y0538246D01*
X0255775Y0538399D01*
X0255730Y0538553D01*
X0255689Y0538708D01*
X0255651Y0538865D01*
X0255618Y0539022D01*
X0255588Y0539180D01*
X0255562Y0539339D01*
X0255541Y0539498D01*
X0255523Y0539658D01*
X0255509Y0539818D01*
X0255499Y0539979D01*
X0255493Y0540139D01*
X0255491Y0540300D01*
X0310491Y0540300D02*
X0310493Y0540461D01*
X0310499Y0540621D01*
X0310509Y0540782D01*
X0310523Y0540942D01*
X0310541Y0541102D01*
X0310562Y0541261D01*
X0310588Y0541420D01*
X0310618Y0541578D01*
X0310651Y0541735D01*
X0310689Y0541892D01*
X0310730Y0542047D01*
X0310775Y0542201D01*
X0310824Y0542354D01*
X0310877Y0542506D01*
X0310933Y0542657D01*
X0310994Y0542806D01*
X0311057Y0542954D01*
X0311125Y0543100D01*
X0311196Y0543244D01*
X0311270Y0543386D01*
X0311348Y0543527D01*
X0311430Y0543665D01*
X0311515Y0543802D01*
X0311603Y0543936D01*
X0311695Y0544068D01*
X0311790Y0544198D01*
X0311888Y0544326D01*
X0311989Y0544451D01*
X0312093Y0544573D01*
X0312200Y0544693D01*
X0312310Y0544810D01*
X0312423Y0544925D01*
X0312539Y0545036D01*
X0312658Y0545145D01*
X0312779Y0545250D01*
X0312903Y0545353D01*
X0313029Y0545453D01*
X0313157Y0545549D01*
X0313288Y0545642D01*
X0313422Y0545732D01*
X0313557Y0545819D01*
X0313695Y0545902D01*
X0313834Y0545982D01*
X0313976Y0546058D01*
X0314119Y0546131D01*
X0314264Y0546200D01*
X0314411Y0546266D01*
X0314559Y0546328D01*
X0314709Y0546386D01*
X0314860Y0546441D01*
X0315013Y0546492D01*
X0315167Y0546539D01*
X0315322Y0546582D01*
X0315478Y0546621D01*
X0315634Y0546657D01*
X0315792Y0546688D01*
X0315950Y0546716D01*
X0316109Y0546740D01*
X0316269Y0546760D01*
X0316429Y0546776D01*
X0316589Y0546788D01*
X0316750Y0546796D01*
X0316911Y0546800D01*
X0317071Y0546800D01*
X0317232Y0546796D01*
X0317393Y0546788D01*
X0317553Y0546776D01*
X0317713Y0546760D01*
X0317873Y0546740D01*
X0318032Y0546716D01*
X0318190Y0546688D01*
X0318348Y0546657D01*
X0318504Y0546621D01*
X0318660Y0546582D01*
X0318815Y0546539D01*
X0318969Y0546492D01*
X0319122Y0546441D01*
X0319273Y0546386D01*
X0319423Y0546328D01*
X0319571Y0546266D01*
X0319718Y0546200D01*
X0319863Y0546131D01*
X0320006Y0546058D01*
X0320148Y0545982D01*
X0320287Y0545902D01*
X0320425Y0545819D01*
X0320560Y0545732D01*
X0320694Y0545642D01*
X0320825Y0545549D01*
X0320953Y0545453D01*
X0321079Y0545353D01*
X0321203Y0545250D01*
X0321324Y0545145D01*
X0321443Y0545036D01*
X0321559Y0544925D01*
X0321672Y0544810D01*
X0321782Y0544693D01*
X0321889Y0544573D01*
X0321993Y0544451D01*
X0322094Y0544326D01*
X0322192Y0544198D01*
X0322287Y0544068D01*
X0322379Y0543936D01*
X0322467Y0543802D01*
X0322552Y0543665D01*
X0322634Y0543527D01*
X0322712Y0543386D01*
X0322786Y0543244D01*
X0322857Y0543100D01*
X0322925Y0542954D01*
X0322988Y0542806D01*
X0323049Y0542657D01*
X0323105Y0542506D01*
X0323158Y0542354D01*
X0323207Y0542201D01*
X0323252Y0542047D01*
X0323293Y0541892D01*
X0323331Y0541735D01*
X0323364Y0541578D01*
X0323394Y0541420D01*
X0323420Y0541261D01*
X0323441Y0541102D01*
X0323459Y0540942D01*
X0323473Y0540782D01*
X0323483Y0540621D01*
X0323489Y0540461D01*
X0323491Y0540300D01*
X0323489Y0540139D01*
X0323483Y0539979D01*
X0323473Y0539818D01*
X0323459Y0539658D01*
X0323441Y0539498D01*
X0323420Y0539339D01*
X0323394Y0539180D01*
X0323364Y0539022D01*
X0323331Y0538865D01*
X0323293Y0538708D01*
X0323252Y0538553D01*
X0323207Y0538399D01*
X0323158Y0538246D01*
X0323105Y0538094D01*
X0323049Y0537943D01*
X0322988Y0537794D01*
X0322925Y0537646D01*
X0322857Y0537500D01*
X0322786Y0537356D01*
X0322712Y0537214D01*
X0322634Y0537073D01*
X0322552Y0536935D01*
X0322467Y0536798D01*
X0322379Y0536664D01*
X0322287Y0536532D01*
X0322192Y0536402D01*
X0322094Y0536274D01*
X0321993Y0536149D01*
X0321889Y0536027D01*
X0321782Y0535907D01*
X0321672Y0535790D01*
X0321559Y0535675D01*
X0321443Y0535564D01*
X0321324Y0535455D01*
X0321203Y0535350D01*
X0321079Y0535247D01*
X0320953Y0535147D01*
X0320825Y0535051D01*
X0320694Y0534958D01*
X0320560Y0534868D01*
X0320425Y0534781D01*
X0320287Y0534698D01*
X0320148Y0534618D01*
X0320006Y0534542D01*
X0319863Y0534469D01*
X0319718Y0534400D01*
X0319571Y0534334D01*
X0319423Y0534272D01*
X0319273Y0534214D01*
X0319122Y0534159D01*
X0318969Y0534108D01*
X0318815Y0534061D01*
X0318660Y0534018D01*
X0318504Y0533979D01*
X0318348Y0533943D01*
X0318190Y0533912D01*
X0318032Y0533884D01*
X0317873Y0533860D01*
X0317713Y0533840D01*
X0317553Y0533824D01*
X0317393Y0533812D01*
X0317232Y0533804D01*
X0317071Y0533800D01*
X0316911Y0533800D01*
X0316750Y0533804D01*
X0316589Y0533812D01*
X0316429Y0533824D01*
X0316269Y0533840D01*
X0316109Y0533860D01*
X0315950Y0533884D01*
X0315792Y0533912D01*
X0315634Y0533943D01*
X0315478Y0533979D01*
X0315322Y0534018D01*
X0315167Y0534061D01*
X0315013Y0534108D01*
X0314860Y0534159D01*
X0314709Y0534214D01*
X0314559Y0534272D01*
X0314411Y0534334D01*
X0314264Y0534400D01*
X0314119Y0534469D01*
X0313976Y0534542D01*
X0313834Y0534618D01*
X0313695Y0534698D01*
X0313557Y0534781D01*
X0313422Y0534868D01*
X0313288Y0534958D01*
X0313157Y0535051D01*
X0313029Y0535147D01*
X0312903Y0535247D01*
X0312779Y0535350D01*
X0312658Y0535455D01*
X0312539Y0535564D01*
X0312423Y0535675D01*
X0312310Y0535790D01*
X0312200Y0535907D01*
X0312093Y0536027D01*
X0311989Y0536149D01*
X0311888Y0536274D01*
X0311790Y0536402D01*
X0311695Y0536532D01*
X0311603Y0536664D01*
X0311515Y0536798D01*
X0311430Y0536935D01*
X0311348Y0537073D01*
X0311270Y0537214D01*
X0311196Y0537356D01*
X0311125Y0537500D01*
X0311057Y0537646D01*
X0310994Y0537794D01*
X0310933Y0537943D01*
X0310877Y0538094D01*
X0310824Y0538246D01*
X0310775Y0538399D01*
X0310730Y0538553D01*
X0310689Y0538708D01*
X0310651Y0538865D01*
X0310618Y0539022D01*
X0310588Y0539180D01*
X0310562Y0539339D01*
X0310541Y0539498D01*
X0310523Y0539658D01*
X0310509Y0539818D01*
X0310499Y0539979D01*
X0310493Y0540139D01*
X0310491Y0540300D01*
X0325741Y0016300D02*
X0325743Y0016458D01*
X0325749Y0016615D01*
X0325759Y0016773D01*
X0325773Y0016930D01*
X0325791Y0017086D01*
X0325812Y0017243D01*
X0325838Y0017398D01*
X0325868Y0017553D01*
X0325901Y0017707D01*
X0325939Y0017860D01*
X0325980Y0018013D01*
X0326025Y0018164D01*
X0326074Y0018314D01*
X0326127Y0018462D01*
X0326183Y0018610D01*
X0326244Y0018755D01*
X0326307Y0018900D01*
X0326375Y0019042D01*
X0326446Y0019183D01*
X0326520Y0019322D01*
X0326598Y0019459D01*
X0326680Y0019594D01*
X0326764Y0019727D01*
X0326853Y0019858D01*
X0326944Y0019986D01*
X0327039Y0020113D01*
X0327136Y0020236D01*
X0327237Y0020358D01*
X0327341Y0020476D01*
X0327448Y0020592D01*
X0327558Y0020705D01*
X0327670Y0020816D01*
X0327786Y0020923D01*
X0327904Y0021028D01*
X0328024Y0021130D01*
X0328147Y0021228D01*
X0328273Y0021324D01*
X0328401Y0021416D01*
X0328531Y0021505D01*
X0328663Y0021591D01*
X0328798Y0021673D01*
X0328935Y0021752D01*
X0329073Y0021827D01*
X0329213Y0021899D01*
X0329356Y0021967D01*
X0329499Y0022032D01*
X0329645Y0022093D01*
X0329792Y0022150D01*
X0329940Y0022204D01*
X0330090Y0022254D01*
X0330240Y0022300D01*
X0330392Y0022342D01*
X0330545Y0022381D01*
X0330699Y0022415D01*
X0330854Y0022446D01*
X0331009Y0022472D01*
X0331165Y0022495D01*
X0331322Y0022514D01*
X0331479Y0022529D01*
X0331636Y0022540D01*
X0331794Y0022547D01*
X0331952Y0022550D01*
X0332109Y0022549D01*
X0332267Y0022544D01*
X0332424Y0022535D01*
X0332582Y0022522D01*
X0332738Y0022505D01*
X0332895Y0022484D01*
X0333050Y0022460D01*
X0333205Y0022431D01*
X0333360Y0022398D01*
X0333513Y0022362D01*
X0333666Y0022321D01*
X0333817Y0022277D01*
X0333967Y0022229D01*
X0334116Y0022178D01*
X0334264Y0022122D01*
X0334410Y0022063D01*
X0334555Y0022000D01*
X0334698Y0021933D01*
X0334839Y0021863D01*
X0334978Y0021790D01*
X0335116Y0021713D01*
X0335252Y0021632D01*
X0335385Y0021548D01*
X0335516Y0021461D01*
X0335645Y0021370D01*
X0335772Y0021276D01*
X0335897Y0021179D01*
X0336018Y0021079D01*
X0336138Y0020976D01*
X0336254Y0020870D01*
X0336368Y0020761D01*
X0336480Y0020649D01*
X0336588Y0020535D01*
X0336693Y0020417D01*
X0336796Y0020297D01*
X0336895Y0020175D01*
X0336991Y0020050D01*
X0337084Y0019922D01*
X0337174Y0019793D01*
X0337260Y0019661D01*
X0337344Y0019527D01*
X0337423Y0019391D01*
X0337500Y0019253D01*
X0337572Y0019113D01*
X0337641Y0018971D01*
X0337707Y0018828D01*
X0337769Y0018683D01*
X0337827Y0018536D01*
X0337882Y0018388D01*
X0337933Y0018239D01*
X0337980Y0018088D01*
X0338023Y0017937D01*
X0338062Y0017784D01*
X0338098Y0017630D01*
X0338129Y0017476D01*
X0338157Y0017321D01*
X0338181Y0017165D01*
X0338201Y0017008D01*
X0338217Y0016851D01*
X0338229Y0016694D01*
X0338237Y0016537D01*
X0338241Y0016379D01*
X0338241Y0016221D01*
X0338237Y0016063D01*
X0338229Y0015906D01*
X0338217Y0015749D01*
X0338201Y0015592D01*
X0338181Y0015435D01*
X0338157Y0015279D01*
X0338129Y0015124D01*
X0338098Y0014970D01*
X0338062Y0014816D01*
X0338023Y0014663D01*
X0337980Y0014512D01*
X0337933Y0014361D01*
X0337882Y0014212D01*
X0337827Y0014064D01*
X0337769Y0013917D01*
X0337707Y0013772D01*
X0337641Y0013629D01*
X0337572Y0013487D01*
X0337500Y0013347D01*
X0337423Y0013209D01*
X0337344Y0013073D01*
X0337260Y0012939D01*
X0337174Y0012807D01*
X0337084Y0012678D01*
X0336991Y0012550D01*
X0336895Y0012425D01*
X0336796Y0012303D01*
X0336693Y0012183D01*
X0336588Y0012065D01*
X0336480Y0011951D01*
X0336368Y0011839D01*
X0336254Y0011730D01*
X0336138Y0011624D01*
X0336018Y0011521D01*
X0335897Y0011421D01*
X0335772Y0011324D01*
X0335645Y0011230D01*
X0335516Y0011139D01*
X0335385Y0011052D01*
X0335252Y0010968D01*
X0335116Y0010887D01*
X0334978Y0010810D01*
X0334839Y0010737D01*
X0334698Y0010667D01*
X0334555Y0010600D01*
X0334410Y0010537D01*
X0334264Y0010478D01*
X0334116Y0010422D01*
X0333967Y0010371D01*
X0333817Y0010323D01*
X0333666Y0010279D01*
X0333513Y0010238D01*
X0333360Y0010202D01*
X0333205Y0010169D01*
X0333050Y0010140D01*
X0332895Y0010116D01*
X0332738Y0010095D01*
X0332582Y0010078D01*
X0332424Y0010065D01*
X0332267Y0010056D01*
X0332109Y0010051D01*
X0331952Y0010050D01*
X0331794Y0010053D01*
X0331636Y0010060D01*
X0331479Y0010071D01*
X0331322Y0010086D01*
X0331165Y0010105D01*
X0331009Y0010128D01*
X0330854Y0010154D01*
X0330699Y0010185D01*
X0330545Y0010219D01*
X0330392Y0010258D01*
X0330240Y0010300D01*
X0330090Y0010346D01*
X0329940Y0010396D01*
X0329792Y0010450D01*
X0329645Y0010507D01*
X0329499Y0010568D01*
X0329356Y0010633D01*
X0329213Y0010701D01*
X0329073Y0010773D01*
X0328935Y0010848D01*
X0328798Y0010927D01*
X0328663Y0011009D01*
X0328531Y0011095D01*
X0328401Y0011184D01*
X0328273Y0011276D01*
X0328147Y0011372D01*
X0328024Y0011470D01*
X0327904Y0011572D01*
X0327786Y0011677D01*
X0327670Y0011784D01*
X0327558Y0011895D01*
X0327448Y0012008D01*
X0327341Y0012124D01*
X0327237Y0012242D01*
X0327136Y0012364D01*
X0327039Y0012487D01*
X0326944Y0012614D01*
X0326853Y0012742D01*
X0326764Y0012873D01*
X0326680Y0013006D01*
X0326598Y0013141D01*
X0326520Y0013278D01*
X0326446Y0013417D01*
X0326375Y0013558D01*
X0326307Y0013700D01*
X0326244Y0013845D01*
X0326183Y0013990D01*
X0326127Y0014138D01*
X0326074Y0014286D01*
X0326025Y0014436D01*
X0325980Y0014587D01*
X0325939Y0014740D01*
X0325901Y0014893D01*
X0325868Y0015047D01*
X0325838Y0015202D01*
X0325812Y0015357D01*
X0325791Y0015514D01*
X0325773Y0015670D01*
X0325759Y0015827D01*
X0325749Y0015985D01*
X0325743Y0016142D01*
X0325741Y0016300D01*
X0195741Y0016300D02*
X0195743Y0016458D01*
X0195749Y0016615D01*
X0195759Y0016773D01*
X0195773Y0016930D01*
X0195791Y0017086D01*
X0195812Y0017243D01*
X0195838Y0017398D01*
X0195868Y0017553D01*
X0195901Y0017707D01*
X0195939Y0017860D01*
X0195980Y0018013D01*
X0196025Y0018164D01*
X0196074Y0018314D01*
X0196127Y0018462D01*
X0196183Y0018610D01*
X0196244Y0018755D01*
X0196307Y0018900D01*
X0196375Y0019042D01*
X0196446Y0019183D01*
X0196520Y0019322D01*
X0196598Y0019459D01*
X0196680Y0019594D01*
X0196764Y0019727D01*
X0196853Y0019858D01*
X0196944Y0019986D01*
X0197039Y0020113D01*
X0197136Y0020236D01*
X0197237Y0020358D01*
X0197341Y0020476D01*
X0197448Y0020592D01*
X0197558Y0020705D01*
X0197670Y0020816D01*
X0197786Y0020923D01*
X0197904Y0021028D01*
X0198024Y0021130D01*
X0198147Y0021228D01*
X0198273Y0021324D01*
X0198401Y0021416D01*
X0198531Y0021505D01*
X0198663Y0021591D01*
X0198798Y0021673D01*
X0198935Y0021752D01*
X0199073Y0021827D01*
X0199213Y0021899D01*
X0199356Y0021967D01*
X0199499Y0022032D01*
X0199645Y0022093D01*
X0199792Y0022150D01*
X0199940Y0022204D01*
X0200090Y0022254D01*
X0200240Y0022300D01*
X0200392Y0022342D01*
X0200545Y0022381D01*
X0200699Y0022415D01*
X0200854Y0022446D01*
X0201009Y0022472D01*
X0201165Y0022495D01*
X0201322Y0022514D01*
X0201479Y0022529D01*
X0201636Y0022540D01*
X0201794Y0022547D01*
X0201952Y0022550D01*
X0202109Y0022549D01*
X0202267Y0022544D01*
X0202424Y0022535D01*
X0202582Y0022522D01*
X0202738Y0022505D01*
X0202895Y0022484D01*
X0203050Y0022460D01*
X0203205Y0022431D01*
X0203360Y0022398D01*
X0203513Y0022362D01*
X0203666Y0022321D01*
X0203817Y0022277D01*
X0203967Y0022229D01*
X0204116Y0022178D01*
X0204264Y0022122D01*
X0204410Y0022063D01*
X0204555Y0022000D01*
X0204698Y0021933D01*
X0204839Y0021863D01*
X0204978Y0021790D01*
X0205116Y0021713D01*
X0205252Y0021632D01*
X0205385Y0021548D01*
X0205516Y0021461D01*
X0205645Y0021370D01*
X0205772Y0021276D01*
X0205897Y0021179D01*
X0206018Y0021079D01*
X0206138Y0020976D01*
X0206254Y0020870D01*
X0206368Y0020761D01*
X0206480Y0020649D01*
X0206588Y0020535D01*
X0206693Y0020417D01*
X0206796Y0020297D01*
X0206895Y0020175D01*
X0206991Y0020050D01*
X0207084Y0019922D01*
X0207174Y0019793D01*
X0207260Y0019661D01*
X0207344Y0019527D01*
X0207423Y0019391D01*
X0207500Y0019253D01*
X0207572Y0019113D01*
X0207641Y0018971D01*
X0207707Y0018828D01*
X0207769Y0018683D01*
X0207827Y0018536D01*
X0207882Y0018388D01*
X0207933Y0018239D01*
X0207980Y0018088D01*
X0208023Y0017937D01*
X0208062Y0017784D01*
X0208098Y0017630D01*
X0208129Y0017476D01*
X0208157Y0017321D01*
X0208181Y0017165D01*
X0208201Y0017008D01*
X0208217Y0016851D01*
X0208229Y0016694D01*
X0208237Y0016537D01*
X0208241Y0016379D01*
X0208241Y0016221D01*
X0208237Y0016063D01*
X0208229Y0015906D01*
X0208217Y0015749D01*
X0208201Y0015592D01*
X0208181Y0015435D01*
X0208157Y0015279D01*
X0208129Y0015124D01*
X0208098Y0014970D01*
X0208062Y0014816D01*
X0208023Y0014663D01*
X0207980Y0014512D01*
X0207933Y0014361D01*
X0207882Y0014212D01*
X0207827Y0014064D01*
X0207769Y0013917D01*
X0207707Y0013772D01*
X0207641Y0013629D01*
X0207572Y0013487D01*
X0207500Y0013347D01*
X0207423Y0013209D01*
X0207344Y0013073D01*
X0207260Y0012939D01*
X0207174Y0012807D01*
X0207084Y0012678D01*
X0206991Y0012550D01*
X0206895Y0012425D01*
X0206796Y0012303D01*
X0206693Y0012183D01*
X0206588Y0012065D01*
X0206480Y0011951D01*
X0206368Y0011839D01*
X0206254Y0011730D01*
X0206138Y0011624D01*
X0206018Y0011521D01*
X0205897Y0011421D01*
X0205772Y0011324D01*
X0205645Y0011230D01*
X0205516Y0011139D01*
X0205385Y0011052D01*
X0205252Y0010968D01*
X0205116Y0010887D01*
X0204978Y0010810D01*
X0204839Y0010737D01*
X0204698Y0010667D01*
X0204555Y0010600D01*
X0204410Y0010537D01*
X0204264Y0010478D01*
X0204116Y0010422D01*
X0203967Y0010371D01*
X0203817Y0010323D01*
X0203666Y0010279D01*
X0203513Y0010238D01*
X0203360Y0010202D01*
X0203205Y0010169D01*
X0203050Y0010140D01*
X0202895Y0010116D01*
X0202738Y0010095D01*
X0202582Y0010078D01*
X0202424Y0010065D01*
X0202267Y0010056D01*
X0202109Y0010051D01*
X0201952Y0010050D01*
X0201794Y0010053D01*
X0201636Y0010060D01*
X0201479Y0010071D01*
X0201322Y0010086D01*
X0201165Y0010105D01*
X0201009Y0010128D01*
X0200854Y0010154D01*
X0200699Y0010185D01*
X0200545Y0010219D01*
X0200392Y0010258D01*
X0200240Y0010300D01*
X0200090Y0010346D01*
X0199940Y0010396D01*
X0199792Y0010450D01*
X0199645Y0010507D01*
X0199499Y0010568D01*
X0199356Y0010633D01*
X0199213Y0010701D01*
X0199073Y0010773D01*
X0198935Y0010848D01*
X0198798Y0010927D01*
X0198663Y0011009D01*
X0198531Y0011095D01*
X0198401Y0011184D01*
X0198273Y0011276D01*
X0198147Y0011372D01*
X0198024Y0011470D01*
X0197904Y0011572D01*
X0197786Y0011677D01*
X0197670Y0011784D01*
X0197558Y0011895D01*
X0197448Y0012008D01*
X0197341Y0012124D01*
X0197237Y0012242D01*
X0197136Y0012364D01*
X0197039Y0012487D01*
X0196944Y0012614D01*
X0196853Y0012742D01*
X0196764Y0012873D01*
X0196680Y0013006D01*
X0196598Y0013141D01*
X0196520Y0013278D01*
X0196446Y0013417D01*
X0196375Y0013558D01*
X0196307Y0013700D01*
X0196244Y0013845D01*
X0196183Y0013990D01*
X0196127Y0014138D01*
X0196074Y0014286D01*
X0196025Y0014436D01*
X0195980Y0014587D01*
X0195939Y0014740D01*
X0195901Y0014893D01*
X0195868Y0015047D01*
X0195838Y0015202D01*
X0195812Y0015357D01*
X0195791Y0015514D01*
X0195773Y0015670D01*
X0195759Y0015827D01*
X0195749Y0015985D01*
X0195743Y0016142D01*
X0195741Y0016300D01*
M02*
