G75*
%MOIN*%
%OFA0B0*%
%FSLAX25Y25*%
%IPPOS*%
%LPD*%
%AMOC8*
5,1,8,0,0,1.08239X$1,22.5*
%
%ADD10OC8,0.05200*%
%ADD11C,0.05200*%
%ADD12C,0.07400*%
%ADD13C,0.05200*%
%ADD14OC8,0.06300*%
%ADD15C,0.06300*%
%ADD16C,0.05600*%
%ADD17C,0.08600*%
%ADD18OC8,0.06000*%
%ADD19C,0.06600*%
%ADD20C,0.06000*%
%ADD21R,0.04600X0.06300*%
%ADD22OC8,0.05250*%
%ADD23OC8,0.05600*%
%ADD24R,0.06300X0.04600*%
%ADD25C,0.02400*%
%ADD26C,0.04000*%
%ADD27C,0.01000*%
D10*
X0056991Y0066300D03*
X0056991Y0076300D03*
X0046991Y0086300D03*
X0026991Y0086400D03*
X0016991Y0096300D03*
X0026991Y0106200D03*
X0031991Y0126300D03*
X0046991Y0116300D03*
X0046991Y0146300D03*
X0056991Y0146300D03*
X0031991Y0156300D03*
X0031991Y0176300D03*
X0031991Y0206300D03*
X0106991Y0206300D03*
X0116991Y0206300D03*
X0116991Y0176300D03*
X0116991Y0166300D03*
X0106991Y0166300D03*
X0106991Y0176300D03*
X0106991Y0136300D03*
X0116991Y0136300D03*
X0130991Y0111300D03*
X0121991Y0091300D03*
X0116991Y0076300D03*
X0116991Y0066300D03*
X0151991Y0091300D03*
X0151991Y0136300D03*
X0151991Y0166300D03*
X0151991Y0176300D03*
X0151991Y0206300D03*
X0156991Y0251300D03*
X0156991Y0261300D03*
X0156991Y0281300D03*
X0156991Y0291300D03*
X0126991Y0316300D03*
X0116991Y0316300D03*
X0146991Y0346300D03*
X0146991Y0356300D03*
X0126991Y0376300D03*
X0116991Y0376300D03*
X0116991Y0396300D03*
X0126991Y0396300D03*
X0146991Y0431300D03*
X0146991Y0441300D03*
X0136991Y0456300D03*
X0136991Y0466300D03*
X0136991Y0481300D03*
X0136991Y0491300D03*
X0121991Y0481300D03*
X0121991Y0451300D03*
X0096991Y0461300D03*
X0096991Y0431300D03*
X0096991Y0421300D03*
X0096991Y0411300D03*
X0081991Y0401300D03*
X0066991Y0396300D03*
X0066991Y0406300D03*
X0081991Y0431300D03*
X0071991Y0436300D03*
X0071991Y0466300D03*
X0041891Y0536300D03*
X0031991Y0546300D03*
X0022091Y0536300D03*
X0046991Y0326300D03*
X0056991Y0326300D03*
X0056991Y0311300D03*
X0086991Y0311300D03*
X0211991Y0291300D03*
X0221991Y0281300D03*
X0231991Y0281300D03*
X0241991Y0291300D03*
X0241991Y0321300D03*
X0226991Y0351300D03*
X0226991Y0361300D03*
X0271991Y0321300D03*
X0246991Y0201300D03*
X0236991Y0201300D03*
X0226991Y0196300D03*
X0216991Y0196300D03*
X0246991Y0151300D03*
X0256991Y0151300D03*
X0296991Y0151300D03*
X0306991Y0151300D03*
X0326991Y0461300D03*
X0346991Y0461300D03*
X0276991Y0461300D03*
X0256991Y0461300D03*
D11*
X0271991Y0448900D02*
X0271991Y0443700D01*
X0231991Y0443700D02*
X0231991Y0448900D01*
X0216991Y0503700D02*
X0216991Y0508900D01*
X0216991Y0513700D02*
X0216991Y0518900D01*
X0206991Y0518900D02*
X0206991Y0513700D01*
X0206991Y0508900D02*
X0206991Y0503700D01*
X0196991Y0503700D02*
X0196991Y0508900D01*
X0196991Y0513700D02*
X0196991Y0518900D01*
X0186991Y0518900D02*
X0186991Y0513700D01*
X0186991Y0508900D02*
X0186991Y0503700D01*
X0176991Y0503700D02*
X0176991Y0508900D01*
X0176991Y0513700D02*
X0176991Y0518900D01*
X0166991Y0518900D02*
X0166991Y0513700D01*
X0166991Y0508900D02*
X0166991Y0503700D01*
X0156991Y0503700D02*
X0156991Y0508900D01*
X0156991Y0513700D02*
X0156991Y0518900D01*
X0146991Y0518900D02*
X0146991Y0513700D01*
X0146991Y0508900D02*
X0146991Y0503700D01*
X0136991Y0503700D02*
X0136991Y0508900D01*
X0146991Y0543700D02*
X0146991Y0548900D01*
X0156991Y0548900D02*
X0156991Y0543700D01*
X0166991Y0543700D02*
X0166991Y0548900D01*
X0176991Y0548900D02*
X0176991Y0543700D01*
X0186991Y0543700D02*
X0186991Y0548900D01*
X0196991Y0548900D02*
X0196991Y0543700D01*
X0206991Y0543700D02*
X0206991Y0548900D01*
X0216991Y0548900D02*
X0216991Y0543700D01*
X0236991Y0363900D02*
X0236991Y0358700D01*
X0246991Y0358700D02*
X0246991Y0363900D01*
X0256991Y0363900D02*
X0256991Y0358700D01*
X0266991Y0358700D02*
X0266991Y0363900D01*
X0276991Y0363900D02*
X0276991Y0358700D01*
X0286991Y0358700D02*
X0286991Y0363900D01*
X0296991Y0363900D02*
X0296991Y0358700D01*
X0306991Y0358700D02*
X0306991Y0363900D01*
X0316991Y0363900D02*
X0316991Y0358700D01*
X0326991Y0358700D02*
X0326991Y0363900D01*
X0326991Y0333900D02*
X0326991Y0328700D01*
X0316991Y0328700D02*
X0316991Y0333900D01*
X0306991Y0333900D02*
X0306991Y0328700D01*
X0296991Y0328700D02*
X0296991Y0333900D01*
X0286991Y0333900D02*
X0286991Y0328700D01*
X0276991Y0328700D02*
X0276991Y0333900D01*
X0266991Y0333900D02*
X0266991Y0328700D01*
X0256991Y0328700D02*
X0256991Y0333900D01*
X0246991Y0333900D02*
X0246991Y0328700D01*
X0236991Y0328700D02*
X0236991Y0333900D01*
X0241991Y0273900D02*
X0241991Y0268700D01*
X0251991Y0268700D02*
X0251991Y0273900D01*
X0261991Y0273900D02*
X0261991Y0268700D01*
X0271991Y0268700D02*
X0271991Y0273900D01*
X0281991Y0273900D02*
X0281991Y0268700D01*
X0291991Y0268700D02*
X0291991Y0273900D01*
X0301991Y0273900D02*
X0301991Y0268700D01*
X0301991Y0213900D02*
X0301991Y0208700D01*
X0291991Y0208700D02*
X0291991Y0213900D01*
X0281991Y0213900D02*
X0281991Y0208700D01*
X0271991Y0208700D02*
X0271991Y0213900D01*
X0261991Y0213900D02*
X0261991Y0208700D01*
X0251991Y0208700D02*
X0251991Y0213900D01*
X0241991Y0213900D02*
X0241991Y0208700D01*
X0231991Y0208700D02*
X0231991Y0213900D01*
X0221991Y0213900D02*
X0221991Y0208700D01*
X0211991Y0208700D02*
X0211991Y0213900D01*
X0201991Y0213900D02*
X0201991Y0208700D01*
X0191991Y0208700D02*
X0191991Y0213900D01*
X0181991Y0213900D02*
X0181991Y0208700D01*
X0171991Y0208700D02*
X0171991Y0213900D01*
X0171991Y0268700D02*
X0171991Y0273900D01*
X0181991Y0273900D02*
X0181991Y0268700D01*
X0191991Y0268700D02*
X0191991Y0273900D01*
X0201991Y0273900D02*
X0201991Y0268700D01*
X0211991Y0268700D02*
X0211991Y0273900D01*
X0221991Y0273900D02*
X0221991Y0268700D01*
X0231991Y0268700D02*
X0231991Y0273900D01*
X0229591Y0141300D02*
X0224391Y0141300D01*
X0224391Y0131300D02*
X0229591Y0131300D01*
X0229591Y0121300D02*
X0224391Y0121300D01*
X0224391Y0111300D02*
X0229591Y0111300D01*
X0229591Y0101300D02*
X0224391Y0101300D01*
X0224391Y0091300D02*
X0229591Y0091300D01*
X0229591Y0081300D02*
X0224391Y0081300D01*
X0224391Y0071300D02*
X0229591Y0071300D01*
X0229591Y0061300D02*
X0224391Y0061300D01*
X0224391Y0051300D02*
X0229591Y0051300D01*
X0254391Y0051300D02*
X0259591Y0051300D01*
X0259591Y0061300D02*
X0254391Y0061300D01*
X0254391Y0071300D02*
X0259591Y0071300D01*
X0259591Y0081300D02*
X0254391Y0081300D01*
X0254391Y0091300D02*
X0259591Y0091300D01*
X0259591Y0101300D02*
X0254391Y0101300D01*
X0254391Y0111300D02*
X0259591Y0111300D01*
X0259591Y0121300D02*
X0254391Y0121300D01*
X0254391Y0131300D02*
X0259591Y0131300D01*
X0259591Y0141300D02*
X0254391Y0141300D01*
X0274391Y0141300D02*
X0279591Y0141300D01*
X0279591Y0131300D02*
X0274391Y0131300D01*
X0274391Y0121300D02*
X0279591Y0121300D01*
X0279591Y0111300D02*
X0274391Y0111300D01*
X0274391Y0101300D02*
X0279591Y0101300D01*
X0279591Y0091300D02*
X0274391Y0091300D01*
X0274391Y0081300D02*
X0279591Y0081300D01*
X0279591Y0071300D02*
X0274391Y0071300D01*
X0274391Y0061300D02*
X0279591Y0061300D01*
X0279591Y0051300D02*
X0274391Y0051300D01*
X0304391Y0051300D02*
X0309591Y0051300D01*
X0309591Y0061300D02*
X0304391Y0061300D01*
X0304391Y0071300D02*
X0309591Y0071300D01*
X0309591Y0081300D02*
X0304391Y0081300D01*
X0304391Y0091300D02*
X0309591Y0091300D01*
X0309591Y0101300D02*
X0304391Y0101300D01*
X0304391Y0111300D02*
X0309591Y0111300D01*
X0309591Y0121300D02*
X0304391Y0121300D01*
X0304391Y0131300D02*
X0309591Y0131300D01*
X0309591Y0141300D02*
X0304391Y0141300D01*
X0109591Y0121300D02*
X0104391Y0121300D01*
X0104391Y0111300D02*
X0109591Y0111300D01*
X0109591Y0101300D02*
X0104391Y0101300D01*
X0104391Y0091300D02*
X0109591Y0091300D01*
X0109591Y0081300D02*
X0104391Y0081300D01*
X0104391Y0071300D02*
X0109591Y0071300D01*
X0109591Y0061300D02*
X0104391Y0061300D01*
X0104391Y0051300D02*
X0109591Y0051300D01*
X0109591Y0041300D02*
X0104391Y0041300D01*
X0104391Y0031300D02*
X0109591Y0031300D01*
X0109591Y0021300D02*
X0104391Y0021300D01*
X0069591Y0021300D02*
X0064391Y0021300D01*
X0064391Y0031300D02*
X0069591Y0031300D01*
X0069591Y0041300D02*
X0064391Y0041300D01*
X0064391Y0051300D02*
X0069591Y0051300D01*
X0069591Y0061300D02*
X0064391Y0061300D01*
X0064391Y0071300D02*
X0069591Y0071300D01*
X0069591Y0081300D02*
X0064391Y0081300D01*
X0064391Y0091300D02*
X0069591Y0091300D01*
X0069591Y0101300D02*
X0064391Y0101300D01*
X0064391Y0111300D02*
X0069591Y0111300D01*
X0069591Y0121300D02*
X0064391Y0121300D01*
D12*
X0131991Y0146300D03*
X0139491Y0151300D03*
X0131991Y0156300D03*
X0131991Y0186300D03*
X0131991Y0196300D03*
X0139491Y0191300D03*
D13*
X0136991Y0261800D03*
X0136991Y0280800D03*
X0136991Y0331300D03*
X0136991Y0341300D03*
X0136991Y0351300D03*
X0136991Y0361300D03*
X0106991Y0361300D03*
X0106991Y0351300D03*
X0106991Y0341300D03*
X0106991Y0331300D03*
X0106991Y0411300D03*
X0106991Y0421300D03*
X0106991Y0431300D03*
X0106991Y0441300D03*
X0136991Y0441300D03*
X0136991Y0431300D03*
X0136991Y0421300D03*
X0136991Y0411300D03*
X0122991Y0111300D03*
D14*
X0221991Y0316300D03*
X0226991Y0411300D03*
X0271991Y0421300D03*
X0331991Y0431300D03*
X0086991Y0486300D03*
X0081991Y0336300D03*
D15*
X0081991Y0346300D03*
X0086991Y0476300D03*
X0211991Y0316300D03*
X0226991Y0421300D03*
X0261991Y0421300D03*
X0321991Y0431300D03*
D16*
X0126991Y0528500D02*
X0126991Y0534100D01*
X0116991Y0534100D02*
X0116991Y0528500D01*
X0024791Y0511300D02*
X0019191Y0511300D01*
X0019191Y0501300D02*
X0024791Y0501300D01*
D17*
X0046676Y0480985D03*
X0046676Y0471143D03*
X0046676Y0461143D03*
X0046676Y0451457D03*
X0046676Y0441615D03*
X0046676Y0420985D03*
X0046676Y0411143D03*
X0046676Y0401143D03*
X0046676Y0391457D03*
X0046676Y0381615D03*
X0026991Y0401300D03*
X0026991Y0461300D03*
X0057306Y0516615D03*
X0067148Y0516615D03*
X0076833Y0516615D03*
X0086833Y0516615D03*
X0096676Y0516615D03*
X0076991Y0536300D03*
D18*
X0136991Y0376300D03*
X0206991Y0196300D03*
X0066991Y0146300D03*
D19*
X0078691Y0216300D02*
X0085291Y0216300D01*
X0035291Y0216300D02*
X0028691Y0216300D01*
X0251991Y0478000D02*
X0251991Y0484600D01*
X0261991Y0484600D02*
X0261991Y0478000D01*
X0271991Y0478000D02*
X0271991Y0484600D01*
X0296991Y0464600D02*
X0296991Y0458000D01*
X0306991Y0478000D02*
X0306991Y0484600D01*
X0316991Y0484600D02*
X0316991Y0478000D01*
X0326991Y0478000D02*
X0326991Y0484600D01*
X0296991Y0414600D02*
X0296991Y0408000D01*
D20*
X0373991Y0403800D02*
X0379991Y0403800D01*
X0379991Y0393800D02*
X0373991Y0393800D01*
X0373991Y0383800D02*
X0379991Y0383800D01*
X0379991Y0373800D02*
X0373991Y0373800D01*
X0373991Y0363800D02*
X0379991Y0363800D01*
X0379991Y0353800D02*
X0373991Y0353800D01*
X0373991Y0343800D02*
X0379991Y0343800D01*
X0379991Y0333800D02*
X0373991Y0333800D01*
X0373991Y0323800D02*
X0379991Y0323800D01*
X0379991Y0313800D02*
X0373991Y0313800D01*
X0373991Y0303800D02*
X0379991Y0303800D01*
X0379991Y0293800D02*
X0373991Y0293800D01*
X0373991Y0273800D02*
X0379991Y0273800D01*
X0379991Y0263800D02*
X0373991Y0263800D01*
X0373991Y0253800D02*
X0379991Y0253800D01*
X0379991Y0243800D02*
X0373991Y0243800D01*
X0373991Y0233800D02*
X0379991Y0233800D01*
X0379991Y0223800D02*
X0373991Y0223800D01*
X0373991Y0213800D02*
X0379991Y0213800D01*
X0379991Y0203800D02*
X0373991Y0203800D01*
X0373991Y0193800D02*
X0379991Y0193800D01*
X0379991Y0183800D02*
X0373991Y0183800D01*
X0373991Y0173800D02*
X0379991Y0173800D01*
X0379991Y0163800D02*
X0373991Y0163800D01*
X0373991Y0153800D02*
X0379991Y0153800D01*
X0379991Y0143800D02*
X0373991Y0143800D01*
X0373991Y0133800D02*
X0379991Y0133800D01*
X0379991Y0123800D02*
X0373991Y0123800D01*
X0373991Y0113800D02*
X0379991Y0113800D01*
X0379991Y0103800D02*
X0373991Y0103800D01*
X0373991Y0093800D02*
X0379991Y0093800D01*
X0379991Y0083800D02*
X0373991Y0083800D01*
X0373991Y0073800D02*
X0379991Y0073800D01*
X0379991Y0063800D02*
X0373991Y0063800D01*
X0373991Y0053800D02*
X0379991Y0053800D01*
X0379991Y0043800D02*
X0373991Y0043800D01*
X0373991Y0033800D02*
X0379991Y0033800D01*
X0379991Y0413800D02*
X0373991Y0413800D01*
X0373991Y0423800D02*
X0379991Y0423800D01*
X0379991Y0433800D02*
X0373991Y0433800D01*
X0373991Y0443800D02*
X0379991Y0443800D01*
X0379991Y0453800D02*
X0373991Y0453800D01*
X0373991Y0463800D02*
X0379991Y0463800D01*
X0379991Y0473800D02*
X0373991Y0473800D01*
X0373991Y0483800D02*
X0379991Y0483800D01*
X0379991Y0493800D02*
X0373991Y0493800D01*
X0373991Y0503800D02*
X0379991Y0503800D01*
X0379991Y0513800D02*
X0373991Y0513800D01*
X0373991Y0523800D02*
X0379991Y0523800D01*
X0379991Y0533800D02*
X0373991Y0533800D01*
D21*
X0344991Y0276300D03*
X0338991Y0276300D03*
X0338991Y0211300D03*
X0344991Y0211300D03*
D22*
X0361991Y0213800D03*
X0361991Y0203800D03*
X0361991Y0193800D03*
X0361991Y0183800D03*
X0361991Y0173800D03*
X0361991Y0163800D03*
X0361991Y0153800D03*
X0361991Y0143800D03*
X0361991Y0133800D03*
X0361991Y0123800D03*
X0361991Y0113800D03*
X0361991Y0103800D03*
X0361991Y0093800D03*
X0361991Y0083800D03*
X0361991Y0073800D03*
X0361991Y0063800D03*
X0361991Y0053800D03*
X0361991Y0043800D03*
X0361991Y0033800D03*
X0391991Y0033800D03*
X0391991Y0043800D03*
X0391991Y0053800D03*
X0391991Y0063800D03*
X0391991Y0073800D03*
X0391991Y0083800D03*
X0391991Y0093800D03*
X0391991Y0103800D03*
X0391991Y0113800D03*
X0391991Y0123800D03*
X0391991Y0133800D03*
X0391991Y0143800D03*
X0391991Y0153800D03*
X0391991Y0163800D03*
X0391991Y0173800D03*
X0391991Y0183800D03*
X0391991Y0193800D03*
X0391991Y0203800D03*
X0391991Y0213800D03*
X0391991Y0223800D03*
X0391991Y0233800D03*
X0391991Y0243800D03*
X0391991Y0253800D03*
X0391991Y0263800D03*
X0391991Y0273800D03*
X0391991Y0293800D03*
X0391991Y0303800D03*
X0391991Y0313800D03*
X0391991Y0323800D03*
X0391991Y0333800D03*
X0391991Y0343800D03*
X0391991Y0353800D03*
X0391991Y0363800D03*
X0391991Y0373800D03*
X0391991Y0383800D03*
X0391991Y0393800D03*
X0391991Y0403800D03*
X0391991Y0413800D03*
X0391991Y0423800D03*
X0391991Y0433800D03*
X0391991Y0443800D03*
X0391991Y0453800D03*
X0391991Y0463800D03*
X0391991Y0473800D03*
X0391991Y0483800D03*
X0391991Y0493800D03*
X0391991Y0503800D03*
X0391991Y0513800D03*
X0391991Y0523800D03*
X0391991Y0533800D03*
X0361991Y0533800D03*
X0361991Y0523800D03*
X0361991Y0513800D03*
X0361991Y0503800D03*
X0361991Y0493800D03*
X0361991Y0483800D03*
X0361991Y0473800D03*
X0361991Y0463800D03*
X0361991Y0453800D03*
X0361991Y0443800D03*
X0361991Y0433800D03*
X0361991Y0423800D03*
X0361991Y0413800D03*
X0361991Y0403800D03*
X0361991Y0393800D03*
X0361991Y0383800D03*
X0361991Y0373800D03*
X0361991Y0363800D03*
X0361991Y0353800D03*
X0361991Y0343800D03*
X0361991Y0333800D03*
X0361991Y0323800D03*
X0361991Y0313800D03*
X0361991Y0303800D03*
X0361991Y0293800D03*
X0361991Y0273800D03*
X0361991Y0263800D03*
X0361991Y0253800D03*
X0361991Y0243800D03*
X0361991Y0233800D03*
X0361991Y0223800D03*
D23*
X0336991Y0121300D03*
X0336991Y0111300D03*
X0336991Y0101300D03*
X0336991Y0091300D03*
X0336991Y0081300D03*
X0336991Y0071300D03*
X0336991Y0061300D03*
X0326991Y0061300D03*
X0326991Y0071300D03*
X0326991Y0081300D03*
X0326991Y0091300D03*
X0326991Y0101300D03*
X0326991Y0111300D03*
X0326991Y0121300D03*
D24*
X0101991Y0298300D03*
X0101991Y0304300D03*
D25*
X0116991Y0316300D02*
X0119991Y0316300D01*
X0128991Y0307300D01*
X0140991Y0307300D01*
X0156991Y0291300D01*
X0156991Y0251300D02*
X0156991Y0226800D01*
X0155991Y0226300D01*
X0128991Y0199300D01*
X0121991Y0206300D01*
X0116991Y0206300D01*
X0115991Y0206800D01*
X0106491Y0216300D01*
X0081991Y0216300D01*
X0081491Y0215300D01*
X0067491Y0201300D01*
X0067491Y0147300D01*
X0066991Y0146300D01*
X0056991Y0146300D01*
X0046991Y0146300D02*
X0046491Y0147300D01*
X0046491Y0148800D01*
X0031991Y0163300D01*
X0031991Y0176300D01*
X0031991Y0206300D02*
X0031991Y0216300D01*
X0046991Y0146300D02*
X0046991Y0116300D01*
X0061991Y0116300D01*
X0066991Y0121300D01*
X0116991Y0076300D02*
X0124991Y0076300D01*
X0139991Y0091300D01*
X0151991Y0091300D01*
X0152991Y0090800D01*
X0192491Y0051300D01*
X0226991Y0051300D01*
X0226991Y0071300D02*
X0219491Y0078800D01*
X0219491Y0166800D01*
X0248491Y0195800D01*
X0246991Y0201300D02*
X0243991Y0201300D01*
X0233991Y0191300D01*
X0222491Y0191300D01*
X0217991Y0195800D01*
X0216991Y0196300D01*
X0216991Y0215800D01*
X0231491Y0230300D01*
X0231491Y0270300D01*
X0231991Y0271300D01*
X0231991Y0281300D01*
X0231991Y0313800D01*
X0244491Y0313800D01*
X0251991Y0321300D01*
X0251991Y0323800D01*
X0258991Y0323800D01*
X0261991Y0326800D01*
X0261991Y0335800D01*
X0268991Y0342800D01*
X0268491Y0343800D01*
X0261991Y0350300D01*
X0261991Y0411300D01*
X0271991Y0421300D01*
X0272991Y0420800D01*
X0282491Y0411300D01*
X0296991Y0411300D01*
X0297991Y0411800D01*
X0309991Y0411800D01*
X0328991Y0430800D01*
X0330991Y0430800D01*
X0331991Y0431300D01*
X0331991Y0455800D01*
X0327491Y0460300D01*
X0326991Y0461300D01*
X0326991Y0470300D01*
X0316991Y0480300D01*
X0316991Y0481300D01*
X0306991Y0481300D02*
X0306991Y0480300D01*
X0321991Y0465300D01*
X0321991Y0431300D01*
X0296991Y0461300D02*
X0262491Y0426800D01*
X0254991Y0426800D01*
X0243491Y0415300D01*
X0237991Y0415300D01*
X0244491Y0421300D02*
X0268991Y0445800D01*
X0270991Y0445800D01*
X0271991Y0446300D01*
X0271991Y0456300D01*
X0276991Y0461300D01*
X0276491Y0462300D01*
X0271991Y0466800D01*
X0271991Y0481300D01*
X0261991Y0481300D02*
X0261991Y0480300D01*
X0256991Y0475300D01*
X0256991Y0461300D01*
X0231991Y0446300D02*
X0162991Y0377300D01*
X0151991Y0344300D02*
X0152991Y0343800D01*
X0183991Y0343800D01*
X0210991Y0316800D01*
X0211991Y0316300D01*
X0211991Y0291300D01*
X0221991Y0281300D01*
X0221991Y0271300D01*
X0241991Y0291300D02*
X0256741Y0306050D01*
X0286991Y0275800D01*
X0286991Y0180800D01*
X0283491Y0177300D01*
X0282991Y0176300D01*
X0306991Y0152300D01*
X0306991Y0151300D01*
X0306991Y0141300D01*
X0296991Y0151300D02*
X0286991Y0151300D01*
X0276991Y0141300D01*
X0256991Y0141300D02*
X0256991Y0151300D01*
X0231991Y0196300D02*
X0226991Y0196300D01*
X0231991Y0196300D02*
X0236991Y0201300D01*
X0236491Y0202300D01*
X0231991Y0206800D01*
X0231991Y0211300D01*
X0216991Y0196300D02*
X0206991Y0196300D01*
X0186991Y0196300D01*
X0171991Y0211300D01*
X0171491Y0212300D01*
X0156991Y0226800D01*
X0128991Y0199300D02*
X0131991Y0196300D01*
X0121991Y0166300D02*
X0116991Y0166300D01*
X0121991Y0166300D02*
X0131991Y0156300D01*
X0224491Y0313800D02*
X0221991Y0316300D01*
X0224491Y0313800D02*
X0231991Y0313800D01*
X0251991Y0323800D02*
X0251991Y0335800D01*
X0236491Y0351300D01*
X0226991Y0351300D01*
X0221991Y0355300D02*
X0221991Y0356300D01*
X0226991Y0361300D01*
X0226991Y0411300D02*
X0261991Y0411300D01*
X0244491Y0421300D02*
X0226991Y0421300D01*
X0268991Y0342800D02*
X0284991Y0342800D01*
X0291991Y0335800D01*
X0291991Y0326800D01*
X0294991Y0323800D01*
X0319491Y0323800D01*
X0326991Y0331300D01*
X0332991Y0315300D02*
X0338491Y0309800D01*
X0338491Y0277300D01*
X0338991Y0276300D01*
X0338991Y0211300D01*
X0256741Y0306050D02*
X0271991Y0321300D01*
X0346991Y0461300D02*
X0326991Y0481300D01*
X0361991Y0513800D02*
X0376991Y0513800D01*
X0391991Y0513800D01*
X0391991Y0523800D02*
X0391991Y0528800D01*
X0376991Y0528800D01*
X0361991Y0528800D01*
X0361991Y0523800D01*
X0361991Y0528800D02*
X0361991Y0533800D01*
X0376991Y0533800D02*
X0376991Y0528800D01*
X0376991Y0523800D01*
X0391991Y0528800D02*
X0391991Y0533800D01*
X0216991Y0546300D02*
X0206991Y0546300D01*
X0196991Y0546300D01*
X0186991Y0546300D01*
X0176991Y0546300D01*
X0166991Y0546300D01*
X0156991Y0546300D01*
X0146991Y0546300D01*
X0145991Y0545800D01*
X0131491Y0545800D01*
X0116991Y0531300D01*
X0136991Y0506300D02*
X0136991Y0498300D01*
X0155991Y0479300D01*
X0155991Y0432300D01*
X0151991Y0433300D02*
X0151991Y0344300D01*
X0148991Y0341300D01*
X0136991Y0341300D01*
X0116991Y0396300D02*
X0116991Y0400800D01*
X0107491Y0410300D01*
X0106991Y0411300D01*
X0107991Y0411800D01*
X0133741Y0437550D01*
X0134991Y0436300D01*
X0138991Y0436300D01*
X0143991Y0431300D01*
X0146991Y0431300D01*
X0151991Y0433300D02*
X0147491Y0437800D01*
X0147491Y0440300D01*
X0146991Y0441300D01*
X0136991Y0441300D01*
X0133741Y0437550D02*
X0121991Y0449300D01*
X0121991Y0451300D01*
X0106991Y0411300D02*
X0096991Y0411300D01*
X0046676Y0401143D02*
X0046491Y0401300D01*
X0039991Y0401300D01*
X0039991Y0461300D01*
X0046491Y0461300D01*
X0046676Y0461143D01*
X0039991Y0461300D02*
X0039491Y0461300D01*
X0033991Y0466800D01*
X0032991Y0467300D01*
X0026991Y0461300D01*
X0032991Y0467300D02*
X0032991Y0483300D01*
X0021991Y0494300D01*
X0021991Y0501300D01*
X0026991Y0401300D02*
X0039991Y0401300D01*
X0276991Y0051300D02*
X0283991Y0044300D01*
X0360991Y0044300D01*
X0361991Y0043800D01*
X0361991Y0038800D01*
X0376991Y0038800D01*
X0391991Y0038800D01*
X0391991Y0033800D01*
X0391991Y0038800D02*
X0391991Y0043800D01*
X0376991Y0043800D02*
X0376991Y0038800D01*
X0376991Y0033800D01*
X0361991Y0033800D02*
X0361991Y0038800D01*
D26*
X0319491Y0060300D03*
X0320491Y0078300D03*
X0300991Y0086300D03*
X0303991Y0039800D03*
X0244991Y0035800D03*
X0242491Y0026800D03*
X0228491Y0035800D03*
X0233991Y0046800D03*
X0236991Y0071300D03*
X0233491Y0076800D03*
X0244491Y0085300D03*
X0244491Y0110300D03*
X0242491Y0136800D03*
X0214991Y0104800D03*
X0172991Y0064800D03*
X0230491Y0183800D03*
X0248491Y0195800D03*
X0253991Y0191300D03*
X0233491Y0226300D03*
X0200991Y0191800D03*
X0193991Y0234800D03*
X0270991Y0338300D03*
X0221991Y0355300D03*
X0216991Y0357300D03*
X0237991Y0415300D03*
X0162991Y0377300D03*
X0155991Y0432300D03*
X0101991Y0220800D03*
X0282991Y0176300D03*
X0287491Y0131800D03*
X0341991Y0124800D03*
X0348491Y0170300D03*
X0343491Y0196300D03*
X0356491Y0218300D03*
X0334491Y0238800D03*
X0384491Y0207800D03*
X0387991Y0149800D03*
X0332991Y0315300D03*
D27*
X0061991Y0015800D02*
X0017491Y0060300D01*
X0017491Y0096300D01*
X0016991Y0096300D01*
X0026991Y0106300D01*
X0026991Y0106200D01*
X0031991Y0109300D02*
X0052491Y0088800D01*
X0052491Y0064800D01*
X0065991Y0051300D01*
X0066991Y0051300D01*
X0066991Y0061300D02*
X0078491Y0061300D01*
X0102991Y0085800D01*
X0130491Y0085800D01*
X0149491Y0104800D01*
X0214991Y0104800D01*
X0226991Y0082800D02*
X0238991Y0094800D01*
X0238991Y0181300D01*
X0251991Y0194300D01*
X0251991Y0202300D01*
X0242991Y0211300D01*
X0241991Y0211300D01*
X0251991Y0219800D02*
X0257491Y0214300D01*
X0257491Y0156800D01*
X0263991Y0150300D01*
X0263991Y0138300D01*
X0256991Y0131300D01*
X0256991Y0121300D02*
X0255491Y0121300D01*
X0244491Y0110300D01*
X0247991Y0110800D02*
X0253991Y0116800D01*
X0262491Y0116800D01*
X0276991Y0131300D01*
X0276491Y0131300D01*
X0267491Y0140300D01*
X0267491Y0215300D01*
X0271991Y0219800D01*
X0271991Y0271300D01*
X0281991Y0271300D02*
X0281991Y0219800D01*
X0277491Y0215300D01*
X0277491Y0176800D01*
X0301491Y0152800D01*
X0301491Y0149800D01*
X0286991Y0135300D01*
X0285991Y0135300D01*
X0283991Y0133300D01*
X0283991Y0108300D01*
X0276991Y0101300D01*
X0272991Y0096800D02*
X0322491Y0096800D01*
X0322741Y0097050D01*
X0326991Y0092800D01*
X0326991Y0091300D01*
X0326991Y0081300D01*
X0326991Y0071300D01*
X0326991Y0061300D01*
X0328991Y0056800D02*
X0332491Y0060300D01*
X0332491Y0134300D01*
X0361991Y0163800D01*
X0376991Y0163800D01*
X0391991Y0163800D01*
X0391991Y0173800D02*
X0376991Y0173800D01*
X0361991Y0173800D01*
X0361991Y0183800D02*
X0376991Y0183800D01*
X0391991Y0183800D01*
X0391991Y0193800D02*
X0376991Y0193800D01*
X0361991Y0193800D01*
X0344991Y0176800D01*
X0344991Y0150800D01*
X0306991Y0112800D01*
X0306991Y0111300D01*
X0306991Y0121300D02*
X0306991Y0122800D01*
X0342991Y0158800D01*
X0342991Y0184800D01*
X0361991Y0203800D01*
X0376991Y0203800D01*
X0391991Y0203800D01*
X0391991Y0213800D02*
X0376991Y0213800D01*
X0361991Y0213800D01*
X0359491Y0211300D01*
X0344991Y0211300D01*
X0356491Y0218300D02*
X0361991Y0223800D01*
X0376991Y0223800D01*
X0391991Y0223800D01*
X0391991Y0233800D02*
X0376991Y0233800D01*
X0361991Y0233800D01*
X0361991Y0243800D02*
X0376991Y0243800D01*
X0391991Y0243800D01*
X0391991Y0253800D02*
X0376991Y0253800D01*
X0361991Y0253800D01*
X0361991Y0263800D02*
X0376991Y0263800D01*
X0391991Y0263800D01*
X0391991Y0273800D02*
X0376991Y0273800D01*
X0361991Y0273800D01*
X0359491Y0276300D01*
X0344991Y0276300D01*
X0361991Y0293800D02*
X0376991Y0293800D01*
X0391991Y0293800D01*
X0391991Y0303800D02*
X0376991Y0303800D01*
X0361991Y0303800D01*
X0361991Y0313800D02*
X0376991Y0313800D01*
X0391991Y0313800D01*
X0391991Y0323800D02*
X0376991Y0323800D01*
X0361991Y0323800D01*
X0361991Y0333800D02*
X0376991Y0333800D01*
X0391991Y0333800D01*
X0391991Y0343800D02*
X0376991Y0343800D01*
X0376991Y0353800D02*
X0370491Y0353800D01*
X0366241Y0349550D01*
X0366491Y0349300D01*
X0366491Y0342300D01*
X0363491Y0339300D01*
X0361491Y0339300D01*
X0340991Y0318800D01*
X0280991Y0318800D01*
X0268491Y0331300D01*
X0266991Y0331300D01*
X0270991Y0338300D02*
X0278491Y0338300D01*
X0281491Y0335300D01*
X0281491Y0328300D01*
X0288991Y0320800D01*
X0324991Y0320800D01*
X0347991Y0343800D01*
X0361991Y0343800D01*
X0366241Y0349550D02*
X0361991Y0353800D01*
X0361991Y0363800D02*
X0376991Y0363800D01*
X0391991Y0363800D01*
X0391991Y0353800D02*
X0376991Y0353800D01*
X0376991Y0373800D02*
X0361991Y0373800D01*
X0350991Y0373800D01*
X0308491Y0331300D01*
X0306991Y0331300D01*
X0306991Y0361300D02*
X0308491Y0361300D01*
X0340991Y0393800D01*
X0361991Y0393800D01*
X0376991Y0393800D01*
X0391991Y0393800D01*
X0391991Y0383800D02*
X0376991Y0383800D01*
X0361991Y0383800D01*
X0357991Y0383800D01*
X0335491Y0361300D01*
X0326991Y0361300D01*
X0288491Y0361300D02*
X0330991Y0403800D01*
X0361991Y0403800D01*
X0376991Y0403800D01*
X0391991Y0403800D01*
X0391991Y0413800D02*
X0376991Y0413800D01*
X0361991Y0413800D01*
X0320991Y0413800D01*
X0268491Y0361300D01*
X0266991Y0361300D01*
X0256991Y0352800D02*
X0251491Y0358300D01*
X0251491Y0379800D01*
X0221991Y0409300D01*
X0221991Y0427800D01*
X0236491Y0442300D01*
X0236491Y0450300D01*
X0187491Y0499300D01*
X0153991Y0499300D01*
X0146991Y0506300D01*
X0146991Y0516300D01*
X0142491Y0509300D02*
X0142491Y0496800D01*
X0159491Y0479800D01*
X0159491Y0375800D01*
X0203991Y0331300D01*
X0236991Y0331300D01*
X0236991Y0326300D01*
X0241991Y0321300D01*
X0243491Y0316800D02*
X0240491Y0316800D01*
X0235991Y0321300D01*
X0219991Y0321300D01*
X0216991Y0318300D01*
X0216991Y0314300D01*
X0226491Y0304800D01*
X0226491Y0267300D01*
X0193991Y0234800D01*
X0181991Y0251300D02*
X0201991Y0271300D01*
X0211991Y0271300D02*
X0197491Y0285800D01*
X0156491Y0285800D01*
X0137991Y0304300D01*
X0101991Y0304300D01*
X0087991Y0304300D01*
X0076991Y0315300D01*
X0076991Y0338300D01*
X0079991Y0341300D01*
X0083991Y0341300D01*
X0086991Y0344300D01*
X0086991Y0352800D01*
X0062491Y0377300D01*
X0062491Y0397800D01*
X0065491Y0400800D01*
X0067491Y0400800D01*
X0071491Y0404800D01*
X0071491Y0426800D01*
X0096991Y0452300D01*
X0096991Y0461300D01*
X0106991Y0441300D02*
X0106991Y0439800D01*
X0102741Y0435550D01*
X0102491Y0435800D01*
X0095491Y0435800D01*
X0090991Y0431300D01*
X0081991Y0431300D01*
X0071991Y0436300D02*
X0067491Y0440800D01*
X0067491Y0471800D01*
X0041991Y0497300D01*
X0041991Y0536300D01*
X0041891Y0536300D01*
X0031991Y0546300D02*
X0031991Y0504300D01*
X0065491Y0470800D01*
X0065491Y0407800D01*
X0066991Y0406300D01*
X0066991Y0396300D02*
X0066991Y0381300D01*
X0106991Y0341300D01*
X0112991Y0331300D02*
X0108491Y0326800D01*
X0086991Y0326800D01*
X0086991Y0311300D01*
X0086991Y0326800D02*
X0086991Y0331300D01*
X0081991Y0336300D01*
X0081991Y0346300D02*
X0081991Y0354800D01*
X0054491Y0382300D01*
X0054491Y0433800D01*
X0046676Y0441615D01*
X0046991Y0441800D01*
X0052491Y0447300D01*
X0052491Y0473800D01*
X0046991Y0479300D01*
X0046991Y0480800D01*
X0046676Y0480985D01*
X0046491Y0481300D01*
X0046491Y0486800D01*
X0021991Y0511300D01*
X0057306Y0516615D02*
X0057491Y0516300D01*
X0062991Y0510800D01*
X0089491Y0510800D01*
X0094991Y0516300D01*
X0096491Y0516300D01*
X0096676Y0516615D01*
X0091991Y0491300D02*
X0086991Y0486300D01*
X0071991Y0471300D01*
X0071991Y0466300D01*
X0091991Y0491300D02*
X0136991Y0491300D01*
X0136991Y0481300D02*
X0136991Y0466300D01*
X0136991Y0481300D02*
X0121991Y0481300D01*
X0142491Y0509300D02*
X0126991Y0524800D01*
X0126991Y0531300D01*
X0156991Y0516300D02*
X0156991Y0506300D01*
X0166991Y0506300D02*
X0166991Y0516300D01*
X0176991Y0516300D02*
X0176991Y0506300D01*
X0186991Y0506300D02*
X0186991Y0516300D01*
X0196991Y0516300D02*
X0196991Y0506300D01*
X0206991Y0506300D02*
X0206991Y0516300D01*
X0216991Y0516300D02*
X0216991Y0506300D01*
X0136991Y0431300D02*
X0136991Y0421300D01*
X0136991Y0411300D02*
X0126991Y0401300D01*
X0126991Y0396300D01*
X0126991Y0376300D02*
X0136991Y0376300D01*
X0136991Y0361300D01*
X0136991Y0351300D02*
X0141991Y0351300D01*
X0146991Y0356300D01*
X0136991Y0331300D02*
X0112991Y0331300D01*
X0106991Y0361300D02*
X0106991Y0366300D01*
X0116991Y0376300D01*
X0106991Y0421300D02*
X0096991Y0421300D01*
X0096991Y0431300D01*
X0102741Y0435550D02*
X0106991Y0431300D01*
X0052491Y0415300D02*
X0052491Y0388800D01*
X0046991Y0383300D01*
X0046991Y0381800D01*
X0046676Y0381615D01*
X0052491Y0415300D02*
X0046991Y0420800D01*
X0046676Y0420985D01*
X0056991Y0326300D02*
X0056991Y0311300D01*
X0101991Y0298300D02*
X0101991Y0220800D01*
X0126991Y0186300D02*
X0116991Y0176300D01*
X0106991Y0176300D01*
X0102491Y0171800D01*
X0102491Y0148300D01*
X0066991Y0112800D01*
X0066991Y0111300D01*
X0066991Y0101300D02*
X0071991Y0101300D01*
X0106991Y0136300D01*
X0116991Y0136300D01*
X0126991Y0146300D01*
X0131991Y0146300D01*
X0139491Y0151300D02*
X0151991Y0138800D01*
X0151991Y0136300D01*
X0151991Y0166300D02*
X0212991Y0166300D01*
X0230491Y0183800D01*
X0242491Y0179800D02*
X0253991Y0191300D01*
X0242491Y0179800D02*
X0242491Y0136800D01*
X0247991Y0110800D02*
X0247991Y0093800D01*
X0233491Y0079300D01*
X0233491Y0076800D01*
X0236991Y0071300D02*
X0256991Y0051300D01*
X0256991Y0061300D02*
X0276991Y0081300D01*
X0276991Y0080800D01*
X0280991Y0076800D01*
X0310991Y0076800D01*
X0312491Y0078300D01*
X0320491Y0078300D01*
X0319491Y0060300D02*
X0307991Y0060300D01*
X0306991Y0061300D01*
X0302991Y0056800D02*
X0328991Y0056800D01*
X0336991Y0061300D02*
X0359491Y0061300D01*
X0361991Y0063800D01*
X0376991Y0063800D01*
X0391991Y0063800D01*
X0391991Y0053800D02*
X0376991Y0053800D01*
X0361991Y0053800D01*
X0359491Y0071300D02*
X0361991Y0073800D01*
X0376991Y0073800D01*
X0391991Y0073800D01*
X0391991Y0083800D02*
X0376991Y0083800D01*
X0361991Y0083800D01*
X0359491Y0081300D01*
X0336991Y0081300D01*
X0336991Y0071300D02*
X0359491Y0071300D01*
X0359491Y0091300D02*
X0361991Y0093800D01*
X0376991Y0093800D01*
X0391991Y0093800D01*
X0391991Y0103800D02*
X0376991Y0103800D01*
X0361991Y0103800D01*
X0359491Y0101300D01*
X0336991Y0101300D01*
X0336991Y0091300D02*
X0359491Y0091300D01*
X0359491Y0111300D02*
X0361991Y0113800D01*
X0376991Y0113800D01*
X0391991Y0113800D01*
X0391991Y0123800D02*
X0376991Y0123800D01*
X0361991Y0123800D01*
X0359491Y0121300D01*
X0336991Y0121300D01*
X0341991Y0124800D02*
X0341991Y0129800D01*
X0360491Y0148300D01*
X0380991Y0148300D01*
X0382491Y0149800D01*
X0387991Y0149800D01*
X0391991Y0153800D02*
X0376991Y0153800D01*
X0361991Y0153800D01*
X0361991Y0143800D02*
X0376991Y0143800D01*
X0391991Y0143800D01*
X0391991Y0133800D02*
X0376991Y0133800D01*
X0361991Y0133800D01*
X0359491Y0111300D02*
X0336991Y0111300D01*
X0326991Y0111300D02*
X0326991Y0101300D01*
X0322741Y0097050D01*
X0326991Y0111300D02*
X0326991Y0121300D01*
X0309991Y0135800D02*
X0313991Y0139800D01*
X0313991Y0161800D01*
X0360491Y0208300D01*
X0381991Y0208300D01*
X0382491Y0207800D01*
X0384491Y0207800D01*
X0361991Y0183800D02*
X0348491Y0170300D01*
X0343491Y0196300D02*
X0291991Y0247800D01*
X0291991Y0271300D01*
X0301991Y0271300D02*
X0334491Y0238800D01*
X0261991Y0212800D02*
X0261991Y0211300D01*
X0261991Y0212800D02*
X0257491Y0217300D01*
X0257491Y0274300D01*
X0253491Y0278300D01*
X0250491Y0278300D01*
X0247491Y0275300D01*
X0247491Y0242300D01*
X0233491Y0228300D01*
X0233491Y0226300D01*
X0251991Y0219800D02*
X0251991Y0271300D01*
X0243491Y0316800D02*
X0246991Y0320300D01*
X0246991Y0331300D01*
X0256991Y0331300D02*
X0256991Y0352800D01*
X0246991Y0361300D02*
X0239991Y0368300D01*
X0227991Y0368300D01*
X0216991Y0357300D01*
X0181991Y0271300D02*
X0180491Y0271300D01*
X0170491Y0261300D01*
X0156991Y0261300D01*
X0137491Y0261300D01*
X0136991Y0261800D01*
X0136991Y0280800D02*
X0156491Y0280800D01*
X0156991Y0281300D01*
X0156991Y0280800D01*
X0166491Y0271300D01*
X0171991Y0271300D01*
X0181991Y0251300D02*
X0181991Y0211300D01*
X0168491Y0206300D02*
X0182991Y0191800D01*
X0200991Y0191800D01*
X0168491Y0206300D02*
X0151991Y0206300D01*
X0139491Y0191300D02*
X0151991Y0178800D01*
X0151991Y0176300D01*
X0131991Y0186300D02*
X0126991Y0186300D01*
X0106991Y0121300D02*
X0106991Y0111300D01*
X0122991Y0111300D01*
X0121991Y0110300D01*
X0121991Y0091300D01*
X0116991Y0066300D02*
X0112491Y0066300D01*
X0106991Y0060800D01*
X0106991Y0061300D01*
X0106991Y0060800D02*
X0106991Y0051800D01*
X0106991Y0051300D01*
X0106991Y0051800D02*
X0098491Y0043300D01*
X0098491Y0042300D01*
X0071991Y0015800D01*
X0061991Y0015800D01*
X0106991Y0021300D02*
X0191491Y0021300D01*
X0216991Y0046800D01*
X0233991Y0046800D01*
X0244991Y0035800D01*
X0242491Y0026800D02*
X0276991Y0061300D01*
X0276991Y0071300D02*
X0288491Y0071300D01*
X0302991Y0056800D01*
X0303991Y0039800D02*
X0287491Y0023300D01*
X0240991Y0023300D01*
X0228491Y0035800D01*
X0252991Y0076800D02*
X0263991Y0076800D01*
X0273491Y0086300D01*
X0300991Y0086300D01*
X0276991Y0121300D02*
X0262491Y0106800D01*
X0253991Y0106800D01*
X0249991Y0102800D01*
X0249991Y0089800D01*
X0256991Y0082800D01*
X0256991Y0081300D01*
X0252991Y0076800D02*
X0244491Y0085300D01*
X0256991Y0101300D02*
X0268491Y0101300D01*
X0272991Y0096800D01*
X0287491Y0131800D02*
X0291491Y0135800D01*
X0309991Y0135800D01*
X0226991Y0082800D02*
X0226991Y0081300D01*
X0172991Y0064800D02*
X0149491Y0041300D01*
X0106991Y0041300D01*
X0066991Y0081300D02*
X0061991Y0076300D01*
X0056991Y0076300D01*
X0046991Y0086300D02*
X0026991Y0086300D01*
X0026991Y0086400D01*
X0031991Y0109300D02*
X0031991Y0126300D01*
X0286991Y0361300D02*
X0288491Y0361300D01*
X0361991Y0423800D02*
X0376991Y0423800D01*
X0391991Y0423800D01*
X0391991Y0433800D02*
X0376991Y0433800D01*
X0361991Y0433800D01*
X0361991Y0443800D02*
X0376991Y0443800D01*
X0391991Y0443800D01*
X0391991Y0453800D02*
X0376991Y0453800D01*
X0361991Y0453800D01*
X0361991Y0463800D02*
X0376991Y0463800D01*
X0391991Y0463800D01*
X0391991Y0473800D02*
X0376991Y0473800D01*
X0361991Y0473800D01*
X0361991Y0483800D02*
X0376991Y0483800D01*
X0391991Y0483800D01*
X0391991Y0493800D02*
X0376991Y0493800D01*
X0361991Y0493800D01*
X0361991Y0503800D02*
X0376991Y0503800D01*
X0391991Y0503800D01*
X0391991Y0373800D02*
X0376991Y0373800D01*
M02*
