%
M48
M72
T01C0.02400
T02C0.03200
T03C0.03250
T04C0.03600
T05C0.04000
T06C0.04400
T07C0.13000
T08C0.16000
%
T01
X83800Y106300
X94425Y118175
X128800Y100675
X140675Y131300
X177550Y131925
X176300Y150050
X163175Y169425
X183175Y175675
X212550Y168175
X225675Y150050
X241300Y164425
X241300Y171300
X248800Y159425
X251300Y148175
X251300Y128175
X235675Y121300
X231925Y108800
X196925Y113175
X182550Y81925
X193175Y68175
X241925Y53175
X308800Y76925
X311925Y80675
X345050Y94425
X355675Y86300
X326925Y129425
X308175Y138800
X294425Y129425
X280675Y128800
X271300Y144425
X298175Y159425
X325675Y157550
X325675Y166925
X358175Y165050
X358175Y151925
X373800Y140675
X422550Y151925
X426300Y155050
X430675Y167550
X450050Y166925
X433800Y140675
X426300Y109425
X431300Y93175
X471300Y76925
X480675Y60675
X493175Y65050
X490050Y34425
X554425Y60675
X575675Y39425
X540050Y93175
X536925Y96925
X536925Y142550
X525050Y157550
X517550Y140675
X488175Y129425
X484425Y133175
X480050Y100675
X401925Y30675
X565675Y161300
X591925Y182550
X565675Y196300
X538800Y186300
X525050Y201925
X515675Y193800
X500675Y193800
X498800Y185675
X489425Y216925
X500675Y220675
X517550Y220675
X489425Y241300
X485050Y251925
X475675Y245675
X494425Y266925
X503175Y264425
X510675Y266925
X498175Y278800
X521925Y296925
X528800Y274425
X536300Y266925
X532550Y259425
X543175Y246300
X561925Y238175
X596925Y250050
X591925Y276300
X603800Y290675
X572550Y286300
X565675Y291300
X552550Y296300
X560050Y306300
X573800Y310050
X599425Y320675
X599425Y331925
X611300Y336300
X615050Y350050
X652550Y360675
X607550Y397550
X601925Y408175
X591925Y401925
X591925Y425675
X587550Y441925
X565675Y428800
X552550Y416300
X531925Y421300
X531300Y411300
X528175Y405675
X542550Y392550
X539425Y384425
X535675Y376925
X535675Y370050
X523175Y373175
X503175Y370050
X488800Y364425
X488800Y358800
X488800Y353175
X496300Y340050
X505050Y345675
X508800Y341925
X513800Y352550
X490675Y330675
X470050Y338175
X461925Y341925
X451925Y340050
X438175Y341925
X428175Y338175
X432550Y349425
X416300Y364425
X406300Y376925
X411925Y385675
X397550Y376925
X388800Y375675
X386300Y380675
X374425Y383800
X360675Y368175
X351300Y371925
X339425Y366300
X325050Y379425
X321300Y371925
X313800Y350675
X317550Y344425
X321300Y341300
X306300Y318800
X298175Y313800
X278175Y335675
X273175Y350675
X265675Y353175
X256925Y326300
X228175Y337550
X195675Y309425
X196925Y286925
X188175Y271300
X181925Y268175
X216925Y242550
X240675Y240675
X241300Y225050
X245050Y212550
X216925Y202550
X224425Y188175
X191300Y228175
X256925Y265050
X282550Y288175
X298175Y270050
X308175Y261300
X315050Y265050
X323800Y265050
X315675Y253800
X341925Y240675
X366925Y228175
X380050Y231925
X392550Y231925
X410050Y228175
X410050Y240050
X435675Y235675
X446925Y234425
X440675Y245675
X446925Y256300
X454425Y273175
X464425Y269425
X471925Y269425
X456925Y285675
X477550Y305050
X473800Y308800
X471925Y313800
X468175Y310050
X440050Y308175
X431925Y316925
X411925Y313800
X396300Y308800
X392550Y311925
X378175Y308175
X371925Y308175
X364425Y303800
X351300Y308175
X340675Y319425
X338175Y295050
X341925Y291925
X332550Y288175
X338175Y279425
X363175Y262550
X371925Y266300
X376300Y263800
X406925Y267550
X431925Y291925
X422550Y293175
X400050Y293175
X392550Y295675
X395675Y338175
X391925Y350050
X433175Y373175
X438175Y373175
X445675Y385050
X446300Y407550
X424425Y412550
X400050Y409425
X381925Y432550
X361925Y413800
X335675Y423800
X320050Y428175
X314425Y415050
X291925Y423800
X310675Y445675
X315675Y475050
X323800Y473800
X323800Y478800
X341300Y485050
X341300Y490050
X351300Y495050
X339425Y504425
X328175Y518175
X296925Y509425
X251925Y527550
X248175Y546925
X181925Y478175
X208175Y461300
X204425Y449425
X225675Y413800
X211925Y410050
X223175Y381300
X188175Y385675
X260675Y445675
X270675Y445675
X328800Y393175
X298175Y376925
X358175Y463175
X346300Y475050
X400675Y475675
X405675Y476925
X437550Y463175
X421925Y445675
X481300Y407550
X481300Y400050
X495050Y386300
X492550Y420050
X492550Y446925
X497550Y455675
X490050Y464425
X490050Y469425
X515675Y454425
X533175Y438175
X570675Y387550
X566925Y378800
X559425Y376300
X559425Y366300
X545050Y371925
X540050Y344425
X543175Y334425
X543175Y310675
X626925Y316300
X620675Y405675
X648175Y450675
X549425Y535050
X541300Y541300
X543175Y546300
X539425Y550050
X532550Y555050
X576300Y560675
X526300Y508175
X542550Y501925
X491925Y536300
X487550Y525050
X476925Y516300
X455050Y504425
X462550Y213800
X466300Y205050
X447550Y203800
X410675Y208800
X380050Y198175
X358175Y201925
X305675Y194425
X288175Y206300
X276925Y195050
X90675Y370675
X87550Y417550
X86300Y516300
X630050Y131925
T02
X581300Y136300
X581300Y126300
X581300Y116300
X581300Y106300
X581300Y96300
X581300Y86300
X581300Y76300
X581300Y66300
X551300Y66300
X551300Y76300
X551300Y86300
X551300Y96300
X551300Y106300
X551300Y116300
X551300Y126300
X551300Y136300
X551300Y146300
X551300Y156300
X531300Y166300
X521300Y166300
X486300Y181300
X476300Y181300
X466300Y181300
X456300Y181300
X446300Y181300
X436300Y181300
X426300Y181300
X416300Y181300
X406300Y181300
X396300Y181300
X386300Y181300
X376300Y181300
X366300Y181300
X356300Y181300
X346300Y181300
X336300Y181300
X326300Y181300
X316300Y181300
X306300Y181300
X296300Y181300
X286300Y181300
X276300Y181300
X286300Y171300
X276300Y161300
X256300Y166300
X256300Y136300
X251300Y111300
X241300Y111300
X226300Y136300
X201300Y126300
X186300Y141300
X176300Y141300
X166300Y141300
X156300Y141300
X146300Y141300
X136300Y141300
X126300Y141300
X116300Y141300
X106300Y141300
X106300Y131300
X96300Y141300
X126300Y156300
X136300Y156300
X136300Y171300
X126300Y171300
X121300Y191300
X111300Y191300
X101300Y191300
X96300Y171300
X131300Y191300
X141300Y191300
X151300Y191300
X161300Y191300
X171300Y191300
X181300Y191300
X181300Y201300
X171300Y221300
X161300Y221300
X151300Y221300
X141300Y221300
X131300Y221300
X121300Y221300
X111300Y221300
X101300Y221300
X101300Y241300
X111300Y241300
X121300Y241300
X131300Y241300
X141300Y241300
X151300Y241300
X161300Y241300
X171300Y241300
X181300Y241300
X181300Y251300
X171300Y271300
X161300Y271300
X151300Y271300
X141300Y271300
X131300Y271300
X121300Y271300
X111300Y271300
X101300Y271300
X101300Y291300
X111300Y291300
X121300Y291300
X131300Y291300
X141300Y291300
X151300Y291300
X161300Y291300
X171300Y291300
X181300Y291300
X181300Y301300
X171300Y321300
X161300Y321300
X151300Y321300
X141300Y321300
X131300Y321300
X121300Y321300
X111300Y321300
X101300Y321300
X101300Y341300
X111300Y341300
X121300Y341300
X131300Y341300
X141300Y341300
X151300Y341300
X161300Y341300
X171300Y341300
X181300Y341300
X181300Y351300
X171300Y371300
X161300Y371300
X151300Y371300
X141300Y371300
X131300Y371300
X121300Y371300
X111300Y371300
X101300Y371300
X101300Y391300
X111300Y391300
X121300Y391300
X131300Y391300
X141300Y391300
X151300Y391300
X161300Y391300
X171300Y391300
X181300Y391300
X181300Y401300
X171300Y421300
X161300Y421300
X151300Y421300
X141300Y421300
X131300Y421300
X121300Y421300
X111300Y421300
X101300Y421300
X101300Y441300
X111300Y441300
X121300Y441300
X131300Y441300
X141300Y441300
X151300Y441300
X161300Y441300
X171300Y441300
X181300Y441300
X181300Y451300
X171300Y471300
X161300Y471300
X151300Y471300
X141300Y471300
X131300Y471300
X121300Y471300
X111300Y471300
X101300Y471300
X101300Y491300
X111300Y491300
X121300Y491300
X131300Y491300
X141300Y491300
X151300Y491300
X161300Y491300
X171300Y491300
X181300Y491300
X181300Y501300
X171300Y521300
X161300Y521300
X151300Y521300
X141300Y521300
X131300Y521300
X121300Y521300
X111300Y521300
X101300Y521300
X101300Y541300
X111300Y541300
X121300Y541300
X131300Y541300
X141300Y541300
X151300Y541300
X161300Y541300
X171300Y541300
X181300Y541300
X181300Y551300
X171300Y571300
X161300Y571300
X151300Y571300
X141300Y571300
X131300Y571300
X121300Y571300
X111300Y571300
X101300Y571300
X236300Y521300
X236300Y511300
X246300Y521300
X256300Y521300
X266300Y521300
X276300Y521300
X286300Y521300
X296300Y521300
X306300Y521300
X316300Y521300
X316300Y536300
X326300Y536300
X326300Y556300
X316300Y556300
X306300Y556300
X296300Y556300
X286300Y556300
X276300Y556300
X266300Y556300
X256300Y556300
X256300Y536300
X266300Y536300
X276300Y536300
X286300Y536300
X296300Y536300
X306300Y536300
X351300Y516300
X351300Y506300
X361300Y516300
X371300Y516300
X381300Y516300
X391300Y516300
X401300Y516300
X411300Y516300
X421300Y516300
X431300Y516300
X441300Y516300
X451300Y516300
X466300Y496300
X451300Y486300
X441300Y486300
X431300Y486300
X421300Y486300
X411300Y486300
X401300Y486300
X391300Y486300
X381300Y486300
X371300Y486300
X361300Y486300
X371300Y471300
X341300Y471300
X316300Y491300
X306300Y491300
X296300Y491300
X286300Y491300
X276300Y491300
X266300Y491300
X256300Y491300
X246300Y491300
X246300Y461300
X236300Y461300
X236300Y451300
X246300Y431300
X256300Y431300
X266300Y431300
X276300Y431300
X286300Y431300
X296300Y431300
X306300Y431300
X306300Y461300
X296300Y461300
X286300Y461300
X276300Y461300
X266300Y461300
X256300Y461300
X216300Y426300
X216300Y406300
X216300Y396300
X236300Y396300
X236300Y386300
X246300Y396300
X256300Y396300
X266300Y396300
X276300Y396300
X286300Y396300
X296300Y396300
X306300Y396300
X306300Y366300
X296300Y366300
X286300Y366300
X276300Y366300
X266300Y366300
X256300Y366300
X246300Y366300
X216300Y366300
X226300Y281300
X226300Y271300
X236300Y281300
X246300Y281300
X256300Y281300
X266300Y281300
X276300Y281300
X286300Y281300
X296300Y281300
X296300Y251300
X286300Y251300
X276300Y251300
X266300Y251300
X256300Y251300
X246300Y251300
X236300Y251300
X306300Y206300
X336300Y206300
X351300Y206300
X381300Y206300
X376300Y251300
X366300Y251300
X386300Y251300
X396300Y251300
X406300Y251300
X416300Y251300
X426300Y251300
X426300Y281300
X416300Y281300
X406300Y281300
X396300Y281300
X386300Y281300
X376300Y281300
X366300Y281300
X356300Y281300
X356300Y271300
X356300Y326300
X366300Y326300
X376300Y326300
X386300Y326300
X396300Y326300
X406300Y326300
X416300Y326300
X426300Y326300
X436300Y326300
X446300Y326300
X456300Y326300
X466300Y326300
X466300Y356300
X456300Y356300
X446300Y356300
X436300Y356300
X426300Y356300
X416300Y356300
X406300Y356300
X396300Y356300
X386300Y356300
X376300Y356300
X366300Y356300
X356300Y356300
X346300Y356300
X346300Y346300
X356300Y396300
X366300Y396300
X376300Y396300
X386300Y396300
X396300Y396300
X406300Y396300
X416300Y396300
X426300Y396300
X436300Y396300
X446300Y396300
X456300Y396300
X466300Y396300
X466300Y426300
X456300Y426300
X446300Y426300
X436300Y426300
X426300Y426300
X416300Y426300
X406300Y426300
X396300Y426300
X386300Y426300
X376300Y426300
X366300Y426300
X356300Y426300
X346300Y426300
X346300Y416300
X471300Y466300
X481300Y466300
X506300Y471300
X526300Y471300
X526300Y496300
X506300Y496300
X486300Y496300
X436300Y536300
X426300Y536300
X416300Y536300
X406300Y536300
X396300Y536300
X386300Y536300
X376300Y536300
X366300Y536300
X356300Y536300
X366300Y556300
X376300Y556300
X386300Y556300
X396300Y556300
X406300Y556300
X416300Y556300
X426300Y556300
X436300Y556300
X436300Y586300
X426300Y586300
X416300Y586300
X406300Y586300
X396300Y586300
X386300Y586300
X376300Y586300
X366300Y586300
X326300Y586300
X316300Y586300
X306300Y586300
X296300Y586300
X286300Y586300
X276300Y586300
X266300Y586300
X256300Y586300
X246300Y536300
X501300Y351300
X511300Y361300
X521300Y361300
X531300Y351300
X551300Y346300
X551300Y336300
X551300Y326300
X551300Y316300
X531300Y316300
X521300Y326300
X511300Y326300
X501300Y316300
X521300Y286300
X521300Y276300
X551300Y276300
X551300Y286300
X551300Y266300
X551300Y256300
X551300Y246300
X551300Y236300
X551300Y226300
X551300Y216300
X551300Y206300
X551300Y196300
X581300Y196300
X581300Y206300
X581300Y216300
X581300Y226300
X581300Y236300
X581300Y246300
X581300Y256300
X581300Y266300
X581300Y276300
X581300Y286300
X581300Y296300
X571300Y296300
X581300Y316300
X581300Y326300
X581300Y336300
X581300Y346300
X581300Y356300
X581300Y366300
X581300Y376300
X581300Y386300
X581300Y396300
X581300Y406300
X581300Y416300
X571300Y416300
X551300Y406300
X551300Y396300
X551300Y386300
X551300Y376300
X551300Y366300
X551300Y356300
X551300Y436300
X551300Y446300
X551300Y456300
X551300Y466300
X551300Y476300
X551300Y486300
X551300Y496300
X551300Y506300
X551300Y516300
X551300Y526300
X571300Y536300
X581300Y536300
X581300Y526300
X581300Y516300
X581300Y506300
X581300Y496300
X581300Y486300
X581300Y476300
X581300Y466300
X581300Y456300
X581300Y446300
X581300Y436300
X486300Y246300
X486300Y231300
X456300Y231300
X456300Y246300
X571300Y166300
X581300Y166300
X581300Y156300
X581300Y146300
X486300Y121300
X476300Y121300
X466300Y121300
X456300Y121300
X446300Y121300
X436300Y121300
X426300Y121300
X416300Y121300
X406300Y121300
X396300Y121300
X386300Y121300
X376300Y121300
X366300Y121300
X356300Y121300
X346300Y121300
X336300Y121300
X326300Y121300
X316300Y121300
X306300Y121300
X296300Y121300
X321300Y101300
X331300Y101300
X341300Y101300
X351300Y101300
X376300Y101300
X386300Y101300
X396300Y101300
X406300Y101300
X416300Y101300
X426300Y101300
X436300Y101300
X446300Y101300
X456300Y101300
X456300Y71300
X466300Y71300
X476300Y71300
X486300Y71300
X486300Y41300
X476300Y41300
X466300Y41300
X456300Y41300
X446300Y41300
X436300Y41300
X426300Y41300
X416300Y41300
X406300Y41300
X396300Y41300
X386300Y61300
X386300Y71300
X396300Y71300
X406300Y71300
X416300Y71300
X426300Y71300
X436300Y71300
X446300Y71300
X276300Y71300
X266300Y71300
X256300Y71300
X246300Y71300
X236300Y71300
X226300Y71300
X216300Y71300
X206300Y71300
X206300Y61300
X216300Y41300
X226300Y41300
X236300Y41300
X246300Y41300
X256300Y41300
X266300Y41300
X276300Y41300
X201300Y96300
X186300Y111300
X176300Y111300
X166300Y111300
X156300Y111300
X146300Y111300
X136300Y111300
X126300Y111300
X116300Y111300
X166300Y96300
X176300Y96300
X176300Y81300
X166300Y81300
X226300Y166300
T03
X626300Y166300
X626300Y156300
X626300Y146300
X626300Y136300
X626300Y126300
X626300Y116300
X626300Y106300
X626300Y96300
X626300Y86300
X626300Y76300
X626300Y66300
X656300Y66300
X656300Y76300
X656300Y86300
X656300Y96300
X656300Y106300
X656300Y116300
X656300Y126300
X656300Y136300
X656300Y146300
X656300Y156300
X656300Y166300
X656300Y176300
X656300Y186300
X656300Y196300
X656300Y206300
X656300Y216300
X656300Y226300
X656300Y236300
X656300Y246300
X656300Y256300
X656300Y266300
X656300Y276300
X656300Y286300
X656300Y296300
X656300Y306300
X656300Y326300
X656300Y336300
X656300Y346300
X656300Y356300
X656300Y366300
X656300Y376300
X656300Y386300
X656300Y396300
X656300Y406300
X656300Y416300
X656300Y426300
X656300Y436300
X656300Y446300
X656300Y456300
X656300Y466300
X656300Y476300
X656300Y486300
X656300Y496300
X656300Y506300
X656300Y516300
X656300Y526300
X656300Y536300
X656300Y546300
X656300Y556300
X656300Y566300
X626300Y566300
X626300Y556300
X626300Y546300
X626300Y536300
X626300Y526300
X626300Y516300
X626300Y506300
X626300Y496300
X626300Y486300
X626300Y476300
X626300Y466300
X626300Y456300
X626300Y446300
X626300Y436300
X626300Y426300
X626300Y416300
X626300Y406300
X626300Y396300
X626300Y386300
X626300Y376300
X626300Y366300
X626300Y356300
X626300Y346300
X626300Y336300
X626300Y326300
X626300Y306300
X626300Y296300
X626300Y286300
X626300Y276300
X626300Y266300
X626300Y256300
X626300Y246300
X626300Y236300
X626300Y226300
X626300Y216300
X626300Y206300
X626300Y196300
X626300Y186300
X626300Y176300
T04
X581300Y46300
X571300Y46300
X561300Y46300
X541300Y46300
X531300Y46300
X521300Y46300
X441300Y211300
X431300Y211300
X421300Y211300
X286300Y296300
X276300Y296300
X276300Y306300
X286300Y306300
X266300Y306300
X256300Y306300
X256300Y296300
X266300Y296300
X246300Y296300
X246300Y306300
X276300Y236300
X276300Y226300
X501300Y396300
X511300Y396300
X521300Y396300
X521300Y431300
X511300Y431300
X501300Y431300
X406300Y441300
X406300Y451300
X396300Y451300
X396300Y441300
X331300Y446300
X331300Y456300
X216300Y566300
X216300Y576300
X216300Y586300
X461300Y586300
X461300Y576300
X461300Y566300
T05
X556300Y581300
X566300Y581300
X576300Y581300
X586300Y581300
X641300Y566300
X641300Y556300
X641300Y546300
X641300Y536300
X641300Y526300
X641300Y516300
X641300Y506300
X641300Y496300
X641300Y486300
X641300Y476300
X641300Y466300
X641300Y456300
X641300Y446300
X641300Y436300
X641300Y426300
X641300Y416300
X641300Y406300
X641300Y396300
X641300Y386300
X641300Y376300
X641300Y366300
X641300Y356300
X641300Y346300
X641300Y336300
X641300Y326300
X641300Y306300
X641300Y296300
X641300Y286300
X641300Y276300
X641300Y266300
X641300Y256300
X641300Y246300
X641300Y236300
X641300Y226300
X641300Y216300
X641300Y206300
X641300Y196300
X641300Y186300
X641300Y176300
X641300Y166300
X641300Y156300
X641300Y146300
X641300Y136300
X641300Y126300
X641300Y116300
X641300Y106300
X641300Y96300
X641300Y86300
X641300Y76300
X641300Y66300
X476300Y86300
X476300Y26300
X446300Y26300
X436300Y26300
X406300Y26300
X406300Y86300
X406300Y196300
X396300Y196300
X351300Y196300
X276300Y86300
X266300Y86300
X256300Y86300
X246300Y86300
X236300Y86300
X226300Y86300
X226300Y26300
X216300Y26300
X236300Y26300
X246300Y26300
X256300Y26300
X266300Y26300
X156300Y81300
X156300Y96300
X141300Y96300
X146300Y156300
X146300Y171300
X161300Y156300
X256300Y351300
X366300Y371300
X376300Y371300
X386300Y311300
X446300Y371300
X456300Y371300
X466300Y371300
X436300Y441300
X426300Y441300
X416300Y441300
X386300Y441300
X376300Y441300
X151300Y591300
X131300Y591300
X111300Y591300
X601300Y356300
X601300Y296300
X601300Y266300
X601300Y256300
T06
X521300Y521300
X511300Y521300
X501300Y521300
T07
X511300Y580300
T08
X41300Y111300
X41300Y211300
X41300Y311300
X41300Y411300
X41300Y511300
M30
