G75*
%MOIN*%
%OFA0B0*%
%FSLAX25Y25*%
%IPPOS*%
%LPD*%
%AMOC8*
5,1,8,0,0,1.08239X$1,22.5*
%
%ADD10C,0.06800*%
%ADD11C,0.07400*%
%ADD12C,0.13800*%
%ADD13OC8,0.07100*%
%ADD14C,0.07100*%
%ADD15OC8,0.06000*%
%ADD16OC8,0.06050*%
%ADD17C,0.25800*%
%ADD18C,0.06000*%
%ADD19C,0.06000*%
%ADD20C,0.06400*%
%ADD21OC8,0.06800*%
%ADD22OC8,0.06400*%
D10*
X0638300Y0066300D02*
X0644300Y0066300D01*
X0644300Y0076300D02*
X0638300Y0076300D01*
X0638300Y0086300D02*
X0644300Y0086300D01*
X0644300Y0096300D02*
X0638300Y0096300D01*
X0638300Y0106300D02*
X0644300Y0106300D01*
X0644300Y0116300D02*
X0638300Y0116300D01*
X0638300Y0126300D02*
X0644300Y0126300D01*
X0644300Y0136300D02*
X0638300Y0136300D01*
X0638300Y0146300D02*
X0644300Y0146300D01*
X0644300Y0156300D02*
X0638300Y0156300D01*
X0638300Y0166300D02*
X0644300Y0166300D01*
X0644300Y0176300D02*
X0638300Y0176300D01*
X0638300Y0186300D02*
X0644300Y0186300D01*
X0644300Y0196300D02*
X0638300Y0196300D01*
X0638300Y0206300D02*
X0644300Y0206300D01*
X0644300Y0216300D02*
X0638300Y0216300D01*
X0638300Y0226300D02*
X0644300Y0226300D01*
X0644300Y0236300D02*
X0638300Y0236300D01*
X0638300Y0246300D02*
X0644300Y0246300D01*
X0644300Y0256300D02*
X0638300Y0256300D01*
X0638300Y0266300D02*
X0644300Y0266300D01*
X0644300Y0276300D02*
X0638300Y0276300D01*
X0638300Y0286300D02*
X0644300Y0286300D01*
X0644300Y0296300D02*
X0638300Y0296300D01*
X0638300Y0306300D02*
X0644300Y0306300D01*
X0644300Y0326300D02*
X0638300Y0326300D01*
X0638300Y0336300D02*
X0644300Y0336300D01*
X0644300Y0346300D02*
X0638300Y0346300D01*
X0638300Y0356300D02*
X0644300Y0356300D01*
X0644300Y0366300D02*
X0638300Y0366300D01*
X0638300Y0376300D02*
X0644300Y0376300D01*
X0644300Y0386300D02*
X0638300Y0386300D01*
X0638300Y0396300D02*
X0644300Y0396300D01*
X0644300Y0406300D02*
X0638300Y0406300D01*
X0638300Y0416300D02*
X0644300Y0416300D01*
X0644300Y0426300D02*
X0638300Y0426300D01*
X0638300Y0436300D02*
X0644300Y0436300D01*
X0644300Y0446300D02*
X0638300Y0446300D01*
X0638300Y0456300D02*
X0644300Y0456300D01*
X0644300Y0466300D02*
X0638300Y0466300D01*
X0638300Y0476300D02*
X0644300Y0476300D01*
X0644300Y0486300D02*
X0638300Y0486300D01*
X0638300Y0496300D02*
X0644300Y0496300D01*
X0644300Y0506300D02*
X0638300Y0506300D01*
X0638300Y0516300D02*
X0644300Y0516300D01*
X0644300Y0526300D02*
X0638300Y0526300D01*
X0638300Y0536300D02*
X0644300Y0536300D01*
X0644300Y0546300D02*
X0638300Y0546300D01*
X0638300Y0556300D02*
X0644300Y0556300D01*
X0644300Y0566300D02*
X0638300Y0566300D01*
X0586300Y0578300D02*
X0586300Y0584300D01*
X0576300Y0584300D02*
X0576300Y0578300D01*
X0566300Y0578300D02*
X0566300Y0584300D01*
X0556300Y0584300D02*
X0556300Y0578300D01*
D11*
X0521300Y0524600D02*
X0521300Y0518000D01*
X0511300Y0518000D02*
X0511300Y0524600D01*
X0501300Y0524600D02*
X0501300Y0518000D01*
D12*
X0511300Y0580300D03*
D13*
X0481300Y0466300D03*
D14*
X0471300Y0466300D03*
D15*
X0466300Y0496300D03*
X0486300Y0496300D03*
X0506300Y0496300D03*
X0526300Y0496300D03*
X0526300Y0471300D03*
X0506300Y0471300D03*
X0571300Y0416300D03*
X0581300Y0416300D03*
X0521300Y0361300D03*
X0511300Y0361300D03*
X0501300Y0351300D03*
X0511300Y0326300D03*
X0521300Y0326300D03*
X0531300Y0316300D03*
X0501300Y0316300D03*
X0521300Y0286300D03*
X0521300Y0276300D03*
X0486300Y0246300D03*
X0486300Y0231300D03*
X0456300Y0231300D03*
X0456300Y0246300D03*
X0381300Y0206300D03*
X0351300Y0206300D03*
X0336300Y0206300D03*
X0306300Y0206300D03*
X0286300Y0181300D03*
X0276300Y0181300D03*
X0286300Y0171300D03*
X0276300Y0161300D03*
X0251300Y0111300D03*
X0241300Y0111300D03*
X0201300Y0096300D03*
X0176300Y0096300D03*
X0166300Y0096300D03*
X0166300Y0081300D03*
X0176300Y0081300D03*
X0206300Y0071300D03*
X0206300Y0061300D03*
X0201300Y0126300D03*
X0181300Y0191300D03*
X0181300Y0201300D03*
X0181300Y0241300D03*
X0181300Y0251300D03*
X0181300Y0291300D03*
X0181300Y0301300D03*
X0181300Y0341300D03*
X0181300Y0351300D03*
X0216300Y0366300D03*
X0236300Y0386300D03*
X0236300Y0396300D03*
X0216300Y0396300D03*
X0216300Y0406300D03*
X0216300Y0426300D03*
X0236300Y0451300D03*
X0236300Y0461300D03*
X0236300Y0511300D03*
X0236300Y0521300D03*
X0181300Y0501300D03*
X0181300Y0491300D03*
X0181300Y0451300D03*
X0181300Y0441300D03*
X0181300Y0401300D03*
X0181300Y0391300D03*
X0226300Y0281300D03*
X0226300Y0271300D03*
X0136300Y0171300D03*
X0126300Y0171300D03*
X0126300Y0156300D03*
X0136300Y0156300D03*
X0106300Y0141300D03*
X0106300Y0131300D03*
X0096300Y0141300D03*
X0096300Y0171300D03*
X0346300Y0346300D03*
X0346300Y0356300D03*
X0346300Y0416300D03*
X0346300Y0426300D03*
X0341300Y0471300D03*
X0371300Y0471300D03*
X0351300Y0506300D03*
X0351300Y0516300D03*
X0181300Y0541300D03*
X0181300Y0551300D03*
X0356300Y0281300D03*
X0356300Y0271300D03*
X0521300Y0166300D03*
X0531300Y0166300D03*
X0571300Y0166300D03*
X0581300Y0166300D03*
X0581300Y0296300D03*
X0571300Y0296300D03*
X0531300Y0351300D03*
X0571300Y0536300D03*
X0581300Y0536300D03*
X0386300Y0071300D03*
X0386300Y0061300D03*
D16*
X0626300Y0066300D03*
X0626300Y0076300D03*
X0626300Y0086300D03*
X0626300Y0096300D03*
X0626300Y0106300D03*
X0626300Y0116300D03*
X0626300Y0126300D03*
X0626300Y0136300D03*
X0626300Y0146300D03*
X0626300Y0156300D03*
X0626300Y0166300D03*
X0626300Y0176300D03*
X0626300Y0186300D03*
X0626300Y0196300D03*
X0626300Y0206300D03*
X0626300Y0216300D03*
X0626300Y0226300D03*
X0626300Y0236300D03*
X0626300Y0246300D03*
X0626300Y0256300D03*
X0626300Y0266300D03*
X0626300Y0276300D03*
X0626300Y0286300D03*
X0626300Y0296300D03*
X0626300Y0306300D03*
X0626300Y0326300D03*
X0626300Y0336300D03*
X0626300Y0346300D03*
X0626300Y0356300D03*
X0626300Y0366300D03*
X0626300Y0376300D03*
X0626300Y0386300D03*
X0626300Y0396300D03*
X0626300Y0406300D03*
X0626300Y0416300D03*
X0626300Y0426300D03*
X0626300Y0436300D03*
X0626300Y0446300D03*
X0626300Y0456300D03*
X0626300Y0466300D03*
X0626300Y0476300D03*
X0626300Y0486300D03*
X0626300Y0496300D03*
X0626300Y0506300D03*
X0626300Y0516300D03*
X0626300Y0526300D03*
X0626300Y0536300D03*
X0626300Y0546300D03*
X0626300Y0556300D03*
X0626300Y0566300D03*
X0656300Y0566300D03*
X0656300Y0556300D03*
X0656300Y0546300D03*
X0656300Y0536300D03*
X0656300Y0526300D03*
X0656300Y0516300D03*
X0656300Y0506300D03*
X0656300Y0496300D03*
X0656300Y0486300D03*
X0656300Y0476300D03*
X0656300Y0466300D03*
X0656300Y0456300D03*
X0656300Y0446300D03*
X0656300Y0436300D03*
X0656300Y0426300D03*
X0656300Y0416300D03*
X0656300Y0406300D03*
X0656300Y0396300D03*
X0656300Y0386300D03*
X0656300Y0376300D03*
X0656300Y0366300D03*
X0656300Y0356300D03*
X0656300Y0346300D03*
X0656300Y0336300D03*
X0656300Y0326300D03*
X0656300Y0306300D03*
X0656300Y0296300D03*
X0656300Y0286300D03*
X0656300Y0276300D03*
X0656300Y0266300D03*
X0656300Y0256300D03*
X0656300Y0246300D03*
X0656300Y0236300D03*
X0656300Y0226300D03*
X0656300Y0216300D03*
X0656300Y0206300D03*
X0656300Y0196300D03*
X0656300Y0186300D03*
X0656300Y0176300D03*
X0656300Y0166300D03*
X0656300Y0156300D03*
X0656300Y0146300D03*
X0656300Y0136300D03*
X0656300Y0126300D03*
X0656300Y0116300D03*
X0656300Y0106300D03*
X0656300Y0096300D03*
X0656300Y0086300D03*
X0656300Y0076300D03*
X0656300Y0066300D03*
D17*
X0041300Y0111300D03*
X0041300Y0211300D03*
X0041300Y0311300D03*
X0041300Y0411300D03*
X0041300Y0511300D03*
D18*
X0101300Y0518700D02*
X0101300Y0523900D01*
X0111300Y0523900D02*
X0111300Y0518700D01*
X0121300Y0518700D02*
X0121300Y0523900D01*
X0131300Y0523900D02*
X0131300Y0518700D01*
X0141300Y0518700D02*
X0141300Y0523900D01*
X0151300Y0523900D02*
X0151300Y0518700D01*
X0161300Y0518700D02*
X0161300Y0523900D01*
X0171300Y0523900D02*
X0171300Y0518700D01*
X0171300Y0538700D02*
X0171300Y0543900D01*
X0161300Y0543900D02*
X0161300Y0538700D01*
X0151300Y0538700D02*
X0151300Y0543900D01*
X0141300Y0543900D02*
X0141300Y0538700D01*
X0131300Y0538700D02*
X0131300Y0543900D01*
X0121300Y0543900D02*
X0121300Y0538700D01*
X0111300Y0538700D02*
X0111300Y0543900D01*
X0101300Y0543900D02*
X0101300Y0538700D01*
X0101300Y0568700D02*
X0101300Y0573900D01*
X0111300Y0573900D02*
X0111300Y0568700D01*
X0121300Y0568700D02*
X0121300Y0573900D01*
X0131300Y0573900D02*
X0131300Y0568700D01*
X0141300Y0568700D02*
X0141300Y0573900D01*
X0151300Y0573900D02*
X0151300Y0568700D01*
X0161300Y0568700D02*
X0161300Y0573900D01*
X0171300Y0573900D02*
X0171300Y0568700D01*
X0246300Y0538900D02*
X0246300Y0533700D01*
X0246300Y0523900D02*
X0246300Y0518700D01*
X0256300Y0518700D02*
X0256300Y0523900D01*
X0256300Y0533700D02*
X0256300Y0538900D01*
X0266300Y0538900D02*
X0266300Y0533700D01*
X0266300Y0523900D02*
X0266300Y0518700D01*
X0276300Y0518700D02*
X0276300Y0523900D01*
X0276300Y0533700D02*
X0276300Y0538900D01*
X0286300Y0538900D02*
X0286300Y0533700D01*
X0286300Y0523900D02*
X0286300Y0518700D01*
X0296300Y0518700D02*
X0296300Y0523900D01*
X0296300Y0533700D02*
X0296300Y0538900D01*
X0306300Y0538900D02*
X0306300Y0533700D01*
X0306300Y0523900D02*
X0306300Y0518700D01*
X0316300Y0518700D02*
X0316300Y0523900D01*
X0316300Y0533700D02*
X0316300Y0538900D01*
X0326300Y0538900D02*
X0326300Y0533700D01*
X0326300Y0553700D02*
X0326300Y0558900D01*
X0316300Y0558900D02*
X0316300Y0553700D01*
X0306300Y0553700D02*
X0306300Y0558900D01*
X0296300Y0558900D02*
X0296300Y0553700D01*
X0286300Y0553700D02*
X0286300Y0558900D01*
X0276300Y0558900D02*
X0276300Y0553700D01*
X0266300Y0553700D02*
X0266300Y0558900D01*
X0256300Y0558900D02*
X0256300Y0553700D01*
X0256300Y0583700D02*
X0256300Y0588900D01*
X0266300Y0588900D02*
X0266300Y0583700D01*
X0276300Y0583700D02*
X0276300Y0588900D01*
X0286300Y0588900D02*
X0286300Y0583700D01*
X0296300Y0583700D02*
X0296300Y0588900D01*
X0306300Y0588900D02*
X0306300Y0583700D01*
X0316300Y0583700D02*
X0316300Y0588900D01*
X0326300Y0588900D02*
X0326300Y0583700D01*
X0366300Y0583700D02*
X0366300Y0588900D01*
X0376300Y0588900D02*
X0376300Y0583700D01*
X0386300Y0583700D02*
X0386300Y0588900D01*
X0396300Y0588900D02*
X0396300Y0583700D01*
X0406300Y0583700D02*
X0406300Y0588900D01*
X0416300Y0588900D02*
X0416300Y0583700D01*
X0426300Y0583700D02*
X0426300Y0588900D01*
X0436300Y0588900D02*
X0436300Y0583700D01*
X0436300Y0558900D02*
X0436300Y0553700D01*
X0426300Y0553700D02*
X0426300Y0558900D01*
X0416300Y0558900D02*
X0416300Y0553700D01*
X0406300Y0553700D02*
X0406300Y0558900D01*
X0396300Y0558900D02*
X0396300Y0553700D01*
X0386300Y0553700D02*
X0386300Y0558900D01*
X0376300Y0558900D02*
X0376300Y0553700D01*
X0366300Y0553700D02*
X0366300Y0558900D01*
X0366300Y0538900D02*
X0366300Y0533700D01*
X0376300Y0533700D02*
X0376300Y0538900D01*
X0386300Y0538900D02*
X0386300Y0533700D01*
X0396300Y0533700D02*
X0396300Y0538900D01*
X0406300Y0538900D02*
X0406300Y0533700D01*
X0416300Y0533700D02*
X0416300Y0538900D01*
X0426300Y0538900D02*
X0426300Y0533700D01*
X0436300Y0533700D02*
X0436300Y0538900D01*
X0431300Y0518900D02*
X0431300Y0513700D01*
X0421300Y0513700D02*
X0421300Y0518900D01*
X0411300Y0518900D02*
X0411300Y0513700D01*
X0401300Y0513700D02*
X0401300Y0518900D01*
X0391300Y0518900D02*
X0391300Y0513700D01*
X0381300Y0513700D02*
X0381300Y0518900D01*
X0371300Y0518900D02*
X0371300Y0513700D01*
X0361300Y0513700D02*
X0361300Y0518900D01*
X0356300Y0533700D02*
X0356300Y0538900D01*
X0316300Y0493900D02*
X0316300Y0488700D01*
X0306300Y0488700D02*
X0306300Y0493900D01*
X0296300Y0493900D02*
X0296300Y0488700D01*
X0286300Y0488700D02*
X0286300Y0493900D01*
X0276300Y0493900D02*
X0276300Y0488700D01*
X0266300Y0488700D02*
X0266300Y0493900D01*
X0256300Y0493900D02*
X0256300Y0488700D01*
X0246300Y0488700D02*
X0246300Y0493900D01*
X0246300Y0463900D02*
X0246300Y0458700D01*
X0256300Y0458700D02*
X0256300Y0463900D01*
X0266300Y0463900D02*
X0266300Y0458700D01*
X0276300Y0458700D02*
X0276300Y0463900D01*
X0286300Y0463900D02*
X0286300Y0458700D01*
X0296300Y0458700D02*
X0296300Y0463900D01*
X0306300Y0463900D02*
X0306300Y0458700D01*
X0306300Y0433900D02*
X0306300Y0428700D01*
X0296300Y0428700D02*
X0296300Y0433900D01*
X0286300Y0433900D02*
X0286300Y0428700D01*
X0276300Y0428700D02*
X0276300Y0433900D01*
X0266300Y0433900D02*
X0266300Y0428700D01*
X0256300Y0428700D02*
X0256300Y0433900D01*
X0246300Y0433900D02*
X0246300Y0428700D01*
X0246300Y0398900D02*
X0246300Y0393700D01*
X0256300Y0393700D02*
X0256300Y0398900D01*
X0266300Y0398900D02*
X0266300Y0393700D01*
X0276300Y0393700D02*
X0276300Y0398900D01*
X0286300Y0398900D02*
X0286300Y0393700D01*
X0296300Y0393700D02*
X0296300Y0398900D01*
X0306300Y0398900D02*
X0306300Y0393700D01*
X0306300Y0368900D02*
X0306300Y0363700D01*
X0296300Y0363700D02*
X0296300Y0368900D01*
X0286300Y0368900D02*
X0286300Y0363700D01*
X0276300Y0363700D02*
X0276300Y0368900D01*
X0266300Y0368900D02*
X0266300Y0363700D01*
X0256300Y0363700D02*
X0256300Y0368900D01*
X0246300Y0368900D02*
X0246300Y0363700D01*
X0171300Y0368700D02*
X0171300Y0373900D01*
X0161300Y0373900D02*
X0161300Y0368700D01*
X0151300Y0368700D02*
X0151300Y0373900D01*
X0141300Y0373900D02*
X0141300Y0368700D01*
X0131300Y0368700D02*
X0131300Y0373900D01*
X0121300Y0373900D02*
X0121300Y0368700D01*
X0111300Y0368700D02*
X0111300Y0373900D01*
X0101300Y0373900D02*
X0101300Y0368700D01*
X0101300Y0388700D02*
X0101300Y0393900D01*
X0111300Y0393900D02*
X0111300Y0388700D01*
X0121300Y0388700D02*
X0121300Y0393900D01*
X0131300Y0393900D02*
X0131300Y0388700D01*
X0141300Y0388700D02*
X0141300Y0393900D01*
X0151300Y0393900D02*
X0151300Y0388700D01*
X0161300Y0388700D02*
X0161300Y0393900D01*
X0171300Y0393900D02*
X0171300Y0388700D01*
X0171300Y0418700D02*
X0171300Y0423900D01*
X0161300Y0423900D02*
X0161300Y0418700D01*
X0151300Y0418700D02*
X0151300Y0423900D01*
X0141300Y0423900D02*
X0141300Y0418700D01*
X0131300Y0418700D02*
X0131300Y0423900D01*
X0121300Y0423900D02*
X0121300Y0418700D01*
X0111300Y0418700D02*
X0111300Y0423900D01*
X0101300Y0423900D02*
X0101300Y0418700D01*
X0101300Y0438700D02*
X0101300Y0443900D01*
X0111300Y0443900D02*
X0111300Y0438700D01*
X0121300Y0438700D02*
X0121300Y0443900D01*
X0131300Y0443900D02*
X0131300Y0438700D01*
X0141300Y0438700D02*
X0141300Y0443900D01*
X0151300Y0443900D02*
X0151300Y0438700D01*
X0161300Y0438700D02*
X0161300Y0443900D01*
X0171300Y0443900D02*
X0171300Y0438700D01*
X0171300Y0468700D02*
X0171300Y0473900D01*
X0161300Y0473900D02*
X0161300Y0468700D01*
X0151300Y0468700D02*
X0151300Y0473900D01*
X0141300Y0473900D02*
X0141300Y0468700D01*
X0131300Y0468700D02*
X0131300Y0473900D01*
X0121300Y0473900D02*
X0121300Y0468700D01*
X0111300Y0468700D02*
X0111300Y0473900D01*
X0101300Y0473900D02*
X0101300Y0468700D01*
X0101300Y0488700D02*
X0101300Y0493900D01*
X0111300Y0493900D02*
X0111300Y0488700D01*
X0121300Y0488700D02*
X0121300Y0493900D01*
X0131300Y0493900D02*
X0131300Y0488700D01*
X0141300Y0488700D02*
X0141300Y0493900D01*
X0151300Y0493900D02*
X0151300Y0488700D01*
X0161300Y0488700D02*
X0161300Y0493900D01*
X0171300Y0493900D02*
X0171300Y0488700D01*
X0171300Y0343900D02*
X0171300Y0338700D01*
X0161300Y0338700D02*
X0161300Y0343900D01*
X0151300Y0343900D02*
X0151300Y0338700D01*
X0141300Y0338700D02*
X0141300Y0343900D01*
X0131300Y0343900D02*
X0131300Y0338700D01*
X0121300Y0338700D02*
X0121300Y0343900D01*
X0111300Y0343900D02*
X0111300Y0338700D01*
X0101300Y0338700D02*
X0101300Y0343900D01*
X0101300Y0323900D02*
X0101300Y0318700D01*
X0111300Y0318700D02*
X0111300Y0323900D01*
X0121300Y0323900D02*
X0121300Y0318700D01*
X0131300Y0318700D02*
X0131300Y0323900D01*
X0141300Y0323900D02*
X0141300Y0318700D01*
X0151300Y0318700D02*
X0151300Y0323900D01*
X0161300Y0323900D02*
X0161300Y0318700D01*
X0171300Y0318700D02*
X0171300Y0323900D01*
X0171300Y0293900D02*
X0171300Y0288700D01*
X0161300Y0288700D02*
X0161300Y0293900D01*
X0151300Y0293900D02*
X0151300Y0288700D01*
X0141300Y0288700D02*
X0141300Y0293900D01*
X0131300Y0293900D02*
X0131300Y0288700D01*
X0121300Y0288700D02*
X0121300Y0293900D01*
X0111300Y0293900D02*
X0111300Y0288700D01*
X0101300Y0288700D02*
X0101300Y0293900D01*
X0101300Y0273900D02*
X0101300Y0268700D01*
X0111300Y0268700D02*
X0111300Y0273900D01*
X0121300Y0273900D02*
X0121300Y0268700D01*
X0131300Y0268700D02*
X0131300Y0273900D01*
X0141300Y0273900D02*
X0141300Y0268700D01*
X0151300Y0268700D02*
X0151300Y0273900D01*
X0161300Y0273900D02*
X0161300Y0268700D01*
X0171300Y0268700D02*
X0171300Y0273900D01*
X0171300Y0243900D02*
X0171300Y0238700D01*
X0161300Y0238700D02*
X0161300Y0243900D01*
X0151300Y0243900D02*
X0151300Y0238700D01*
X0141300Y0238700D02*
X0141300Y0243900D01*
X0131300Y0243900D02*
X0131300Y0238700D01*
X0121300Y0238700D02*
X0121300Y0243900D01*
X0111300Y0243900D02*
X0111300Y0238700D01*
X0101300Y0238700D02*
X0101300Y0243900D01*
X0101300Y0223900D02*
X0101300Y0218700D01*
X0111300Y0218700D02*
X0111300Y0223900D01*
X0121300Y0223900D02*
X0121300Y0218700D01*
X0131300Y0218700D02*
X0131300Y0223900D01*
X0141300Y0223900D02*
X0141300Y0218700D01*
X0151300Y0218700D02*
X0151300Y0223900D01*
X0161300Y0223900D02*
X0161300Y0218700D01*
X0171300Y0218700D02*
X0171300Y0223900D01*
X0171300Y0193900D02*
X0171300Y0188700D01*
X0161300Y0188700D02*
X0161300Y0193900D01*
X0151300Y0193900D02*
X0151300Y0188700D01*
X0141300Y0188700D02*
X0141300Y0193900D01*
X0131300Y0193900D02*
X0131300Y0188700D01*
X0121300Y0188700D02*
X0121300Y0193900D01*
X0111300Y0193900D02*
X0111300Y0188700D01*
X0101300Y0188700D02*
X0101300Y0193900D01*
X0116300Y0143900D02*
X0116300Y0138700D01*
X0126300Y0138700D02*
X0126300Y0143900D01*
X0136300Y0143900D02*
X0136300Y0138700D01*
X0146300Y0138700D02*
X0146300Y0143900D01*
X0156300Y0143900D02*
X0156300Y0138700D01*
X0166300Y0138700D02*
X0166300Y0143900D01*
X0176300Y0143900D02*
X0176300Y0138700D01*
X0186300Y0138700D02*
X0186300Y0143900D01*
X0186300Y0113900D02*
X0186300Y0108700D01*
X0176300Y0108700D02*
X0176300Y0113900D01*
X0166300Y0113900D02*
X0166300Y0108700D01*
X0156300Y0108700D02*
X0156300Y0113900D01*
X0146300Y0113900D02*
X0146300Y0108700D01*
X0136300Y0108700D02*
X0136300Y0113900D01*
X0126300Y0113900D02*
X0126300Y0108700D01*
X0116300Y0108700D02*
X0116300Y0113900D01*
X0216300Y0073900D02*
X0216300Y0068700D01*
X0226300Y0068700D02*
X0226300Y0073900D01*
X0236300Y0073900D02*
X0236300Y0068700D01*
X0246300Y0068700D02*
X0246300Y0073900D01*
X0256300Y0073900D02*
X0256300Y0068700D01*
X0266300Y0068700D02*
X0266300Y0073900D01*
X0276300Y0073900D02*
X0276300Y0068700D01*
X0276300Y0043900D02*
X0276300Y0038700D01*
X0266300Y0038700D02*
X0266300Y0043900D01*
X0256300Y0043900D02*
X0256300Y0038700D01*
X0246300Y0038700D02*
X0246300Y0043900D01*
X0236300Y0043900D02*
X0236300Y0038700D01*
X0226300Y0038700D02*
X0226300Y0043900D01*
X0216300Y0043900D02*
X0216300Y0038700D01*
X0296300Y0118700D02*
X0296300Y0123900D01*
X0306300Y0123900D02*
X0306300Y0118700D01*
X0316300Y0118700D02*
X0316300Y0123900D01*
X0326300Y0123900D02*
X0326300Y0118700D01*
X0336300Y0118700D02*
X0336300Y0123900D01*
X0346300Y0123900D02*
X0346300Y0118700D01*
X0356300Y0118700D02*
X0356300Y0123900D01*
X0366300Y0123900D02*
X0366300Y0118700D01*
X0376300Y0118700D02*
X0376300Y0123900D01*
X0386300Y0123900D02*
X0386300Y0118700D01*
X0396300Y0118700D02*
X0396300Y0123900D01*
X0406300Y0123900D02*
X0406300Y0118700D01*
X0416300Y0118700D02*
X0416300Y0123900D01*
X0426300Y0123900D02*
X0426300Y0118700D01*
X0436300Y0118700D02*
X0436300Y0123900D01*
X0446300Y0123900D02*
X0446300Y0118700D01*
X0456300Y0118700D02*
X0456300Y0123900D01*
X0466300Y0123900D02*
X0466300Y0118700D01*
X0476300Y0118700D02*
X0476300Y0123900D01*
X0486300Y0123900D02*
X0486300Y0118700D01*
X0456300Y0103900D02*
X0456300Y0098700D01*
X0446300Y0098700D02*
X0446300Y0103900D01*
X0436300Y0103900D02*
X0436300Y0098700D01*
X0426300Y0098700D02*
X0426300Y0103900D01*
X0416300Y0103900D02*
X0416300Y0098700D01*
X0406300Y0098700D02*
X0406300Y0103900D01*
X0396300Y0103900D02*
X0396300Y0098700D01*
X0386300Y0098700D02*
X0386300Y0103900D01*
X0376300Y0103900D02*
X0376300Y0098700D01*
X0351300Y0098700D02*
X0351300Y0103900D01*
X0341300Y0103900D02*
X0341300Y0098700D01*
X0331300Y0098700D02*
X0331300Y0103900D01*
X0321300Y0103900D02*
X0321300Y0098700D01*
X0396300Y0073900D02*
X0396300Y0068700D01*
X0406300Y0068700D02*
X0406300Y0073900D01*
X0416300Y0073900D02*
X0416300Y0068700D01*
X0426300Y0068700D02*
X0426300Y0073900D01*
X0436300Y0073900D02*
X0436300Y0068700D01*
X0446300Y0068700D02*
X0446300Y0073900D01*
X0456300Y0073900D02*
X0456300Y0068700D01*
X0466300Y0068700D02*
X0466300Y0073900D01*
X0476300Y0073900D02*
X0476300Y0068700D01*
X0486300Y0068700D02*
X0486300Y0073900D01*
X0486300Y0043900D02*
X0486300Y0038700D01*
X0476300Y0038700D02*
X0476300Y0043900D01*
X0466300Y0043900D02*
X0466300Y0038700D01*
X0456300Y0038700D02*
X0456300Y0043900D01*
X0446300Y0043900D02*
X0446300Y0038700D01*
X0436300Y0038700D02*
X0436300Y0043900D01*
X0426300Y0043900D02*
X0426300Y0038700D01*
X0416300Y0038700D02*
X0416300Y0043900D01*
X0406300Y0043900D02*
X0406300Y0038700D01*
X0396300Y0038700D02*
X0396300Y0043900D01*
X0396300Y0178700D02*
X0396300Y0183900D01*
X0386300Y0183900D02*
X0386300Y0178700D01*
X0376300Y0178700D02*
X0376300Y0183900D01*
X0366300Y0183900D02*
X0366300Y0178700D01*
X0356300Y0178700D02*
X0356300Y0183900D01*
X0346300Y0183900D02*
X0346300Y0178700D01*
X0336300Y0178700D02*
X0336300Y0183900D01*
X0326300Y0183900D02*
X0326300Y0178700D01*
X0316300Y0178700D02*
X0316300Y0183900D01*
X0306300Y0183900D02*
X0306300Y0178700D01*
X0296300Y0178700D02*
X0296300Y0183900D01*
X0296300Y0248700D02*
X0296300Y0253900D01*
X0286300Y0253900D02*
X0286300Y0248700D01*
X0276300Y0248700D02*
X0276300Y0253900D01*
X0266300Y0253900D02*
X0266300Y0248700D01*
X0256300Y0248700D02*
X0256300Y0253900D01*
X0246300Y0253900D02*
X0246300Y0248700D01*
X0236300Y0248700D02*
X0236300Y0253900D01*
X0236300Y0278700D02*
X0236300Y0283900D01*
X0246300Y0283900D02*
X0246300Y0278700D01*
X0256300Y0278700D02*
X0256300Y0283900D01*
X0266300Y0283900D02*
X0266300Y0278700D01*
X0276300Y0278700D02*
X0276300Y0283900D01*
X0286300Y0283900D02*
X0286300Y0278700D01*
X0296300Y0278700D02*
X0296300Y0283900D01*
X0356300Y0323700D02*
X0356300Y0328900D01*
X0366300Y0328900D02*
X0366300Y0323700D01*
X0376300Y0323700D02*
X0376300Y0328900D01*
X0386300Y0328900D02*
X0386300Y0323700D01*
X0396300Y0323700D02*
X0396300Y0328900D01*
X0406300Y0328900D02*
X0406300Y0323700D01*
X0416300Y0323700D02*
X0416300Y0328900D01*
X0426300Y0328900D02*
X0426300Y0323700D01*
X0436300Y0323700D02*
X0436300Y0328900D01*
X0446300Y0328900D02*
X0446300Y0323700D01*
X0456300Y0323700D02*
X0456300Y0328900D01*
X0466300Y0328900D02*
X0466300Y0323700D01*
X0466300Y0353700D02*
X0466300Y0358900D01*
X0456300Y0358900D02*
X0456300Y0353700D01*
X0446300Y0353700D02*
X0446300Y0358900D01*
X0436300Y0358900D02*
X0436300Y0353700D01*
X0426300Y0353700D02*
X0426300Y0358900D01*
X0416300Y0358900D02*
X0416300Y0353700D01*
X0406300Y0353700D02*
X0406300Y0358900D01*
X0396300Y0358900D02*
X0396300Y0353700D01*
X0386300Y0353700D02*
X0386300Y0358900D01*
X0376300Y0358900D02*
X0376300Y0353700D01*
X0366300Y0353700D02*
X0366300Y0358900D01*
X0356300Y0358900D02*
X0356300Y0353700D01*
X0356300Y0393700D02*
X0356300Y0398900D01*
X0366300Y0398900D02*
X0366300Y0393700D01*
X0376300Y0393700D02*
X0376300Y0398900D01*
X0386300Y0398900D02*
X0386300Y0393700D01*
X0396300Y0393700D02*
X0396300Y0398900D01*
X0406300Y0398900D02*
X0406300Y0393700D01*
X0416300Y0393700D02*
X0416300Y0398900D01*
X0426300Y0398900D02*
X0426300Y0393700D01*
X0436300Y0393700D02*
X0436300Y0398900D01*
X0446300Y0398900D02*
X0446300Y0393700D01*
X0456300Y0393700D02*
X0456300Y0398900D01*
X0466300Y0398900D02*
X0466300Y0393700D01*
X0466300Y0423700D02*
X0466300Y0428900D01*
X0456300Y0428900D02*
X0456300Y0423700D01*
X0446300Y0423700D02*
X0446300Y0428900D01*
X0436300Y0428900D02*
X0436300Y0423700D01*
X0426300Y0423700D02*
X0426300Y0428900D01*
X0416300Y0428900D02*
X0416300Y0423700D01*
X0406300Y0423700D02*
X0406300Y0428900D01*
X0396300Y0428900D02*
X0396300Y0423700D01*
X0386300Y0423700D02*
X0386300Y0428900D01*
X0376300Y0428900D02*
X0376300Y0423700D01*
X0366300Y0423700D02*
X0366300Y0428900D01*
X0356300Y0428900D02*
X0356300Y0423700D01*
X0361300Y0483700D02*
X0361300Y0488900D01*
X0371300Y0488900D02*
X0371300Y0483700D01*
X0381300Y0483700D02*
X0381300Y0488900D01*
X0391300Y0488900D02*
X0391300Y0483700D01*
X0401300Y0483700D02*
X0401300Y0488900D01*
X0411300Y0488900D02*
X0411300Y0483700D01*
X0421300Y0483700D02*
X0421300Y0488900D01*
X0431300Y0488900D02*
X0431300Y0483700D01*
X0441300Y0483700D02*
X0441300Y0488900D01*
X0451300Y0488900D02*
X0451300Y0483700D01*
X0451300Y0513700D02*
X0451300Y0518900D01*
X0441300Y0518900D02*
X0441300Y0513700D01*
X0548700Y0516300D02*
X0553900Y0516300D01*
X0553900Y0506300D02*
X0548700Y0506300D01*
X0548700Y0496300D02*
X0553900Y0496300D01*
X0553900Y0486300D02*
X0548700Y0486300D01*
X0548700Y0476300D02*
X0553900Y0476300D01*
X0553900Y0466300D02*
X0548700Y0466300D01*
X0548700Y0456300D02*
X0553900Y0456300D01*
X0553900Y0446300D02*
X0548700Y0446300D01*
X0548700Y0436300D02*
X0553900Y0436300D01*
X0578700Y0436300D02*
X0583900Y0436300D01*
X0583900Y0446300D02*
X0578700Y0446300D01*
X0578700Y0456300D02*
X0583900Y0456300D01*
X0583900Y0466300D02*
X0578700Y0466300D01*
X0578700Y0476300D02*
X0583900Y0476300D01*
X0583900Y0486300D02*
X0578700Y0486300D01*
X0578700Y0496300D02*
X0583900Y0496300D01*
X0583900Y0506300D02*
X0578700Y0506300D01*
X0578700Y0516300D02*
X0583900Y0516300D01*
X0583900Y0526300D02*
X0578700Y0526300D01*
X0553900Y0526300D02*
X0548700Y0526300D01*
X0548700Y0406300D02*
X0553900Y0406300D01*
X0553900Y0396300D02*
X0548700Y0396300D01*
X0548700Y0386300D02*
X0553900Y0386300D01*
X0553900Y0376300D02*
X0548700Y0376300D01*
X0548700Y0366300D02*
X0553900Y0366300D01*
X0553900Y0356300D02*
X0548700Y0356300D01*
X0548700Y0346300D02*
X0553900Y0346300D01*
X0553900Y0336300D02*
X0548700Y0336300D01*
X0548700Y0326300D02*
X0553900Y0326300D01*
X0553900Y0316300D02*
X0548700Y0316300D01*
X0548700Y0286300D02*
X0553900Y0286300D01*
X0553900Y0276300D02*
X0548700Y0276300D01*
X0548700Y0266300D02*
X0553900Y0266300D01*
X0553900Y0256300D02*
X0548700Y0256300D01*
X0548700Y0246300D02*
X0553900Y0246300D01*
X0553900Y0236300D02*
X0548700Y0236300D01*
X0548700Y0226300D02*
X0553900Y0226300D01*
X0553900Y0216300D02*
X0548700Y0216300D01*
X0548700Y0206300D02*
X0553900Y0206300D01*
X0553900Y0196300D02*
X0548700Y0196300D01*
X0578700Y0196300D02*
X0583900Y0196300D01*
X0583900Y0206300D02*
X0578700Y0206300D01*
X0578700Y0216300D02*
X0583900Y0216300D01*
X0583900Y0226300D02*
X0578700Y0226300D01*
X0578700Y0236300D02*
X0583900Y0236300D01*
X0583900Y0246300D02*
X0578700Y0246300D01*
X0578700Y0256300D02*
X0583900Y0256300D01*
X0583900Y0266300D02*
X0578700Y0266300D01*
X0578700Y0276300D02*
X0583900Y0276300D01*
X0583900Y0286300D02*
X0578700Y0286300D01*
X0578700Y0316300D02*
X0583900Y0316300D01*
X0583900Y0326300D02*
X0578700Y0326300D01*
X0578700Y0336300D02*
X0583900Y0336300D01*
X0583900Y0346300D02*
X0578700Y0346300D01*
X0578700Y0356300D02*
X0583900Y0356300D01*
X0583900Y0366300D02*
X0578700Y0366300D01*
X0578700Y0376300D02*
X0583900Y0376300D01*
X0583900Y0386300D02*
X0578700Y0386300D01*
X0578700Y0396300D02*
X0583900Y0396300D01*
X0583900Y0406300D02*
X0578700Y0406300D01*
X0426300Y0283900D02*
X0426300Y0278700D01*
X0416300Y0278700D02*
X0416300Y0283900D01*
X0406300Y0283900D02*
X0406300Y0278700D01*
X0396300Y0278700D02*
X0396300Y0283900D01*
X0386300Y0283900D02*
X0386300Y0278700D01*
X0376300Y0278700D02*
X0376300Y0283900D01*
X0366300Y0283900D02*
X0366300Y0278700D01*
X0366300Y0253900D02*
X0366300Y0248700D01*
X0376300Y0248700D02*
X0376300Y0253900D01*
X0386300Y0253900D02*
X0386300Y0248700D01*
X0396300Y0248700D02*
X0396300Y0253900D01*
X0406300Y0253900D02*
X0406300Y0248700D01*
X0416300Y0248700D02*
X0416300Y0253900D01*
X0426300Y0253900D02*
X0426300Y0248700D01*
X0426300Y0183900D02*
X0426300Y0178700D01*
X0416300Y0178700D02*
X0416300Y0183900D01*
X0406300Y0183900D02*
X0406300Y0178700D01*
X0436300Y0178700D02*
X0436300Y0183900D01*
X0446300Y0183900D02*
X0446300Y0178700D01*
X0456300Y0178700D02*
X0456300Y0183900D01*
X0466300Y0183900D02*
X0466300Y0178700D01*
X0476300Y0178700D02*
X0476300Y0183900D01*
X0486300Y0183900D02*
X0486300Y0178700D01*
X0548700Y0156300D02*
X0553900Y0156300D01*
X0553900Y0146300D02*
X0548700Y0146300D01*
X0548700Y0136300D02*
X0553900Y0136300D01*
X0553900Y0126300D02*
X0548700Y0126300D01*
X0548700Y0116300D02*
X0553900Y0116300D01*
X0553900Y0106300D02*
X0548700Y0106300D01*
X0548700Y0096300D02*
X0553900Y0096300D01*
X0553900Y0086300D02*
X0548700Y0086300D01*
X0548700Y0076300D02*
X0553900Y0076300D01*
X0553900Y0066300D02*
X0548700Y0066300D01*
X0578700Y0066300D02*
X0583900Y0066300D01*
X0583900Y0076300D02*
X0578700Y0076300D01*
X0578700Y0086300D02*
X0583900Y0086300D01*
X0583900Y0096300D02*
X0578700Y0096300D01*
X0578700Y0106300D02*
X0583900Y0106300D01*
X0583900Y0116300D02*
X0578700Y0116300D01*
X0578700Y0126300D02*
X0583900Y0126300D01*
X0583900Y0136300D02*
X0578700Y0136300D01*
X0578700Y0146300D02*
X0583900Y0146300D01*
X0583900Y0156300D02*
X0578700Y0156300D01*
D19*
X0256300Y0166300D03*
X0256300Y0136300D03*
X0226300Y0136300D03*
X0226300Y0166300D03*
D20*
X0273500Y0226300D02*
X0279100Y0226300D01*
X0279100Y0236300D02*
X0273500Y0236300D01*
X0421300Y0214100D02*
X0421300Y0208500D01*
X0431300Y0208500D02*
X0431300Y0214100D01*
X0441300Y0214100D02*
X0441300Y0208500D01*
X0521300Y0049100D02*
X0521300Y0043500D01*
X0531300Y0043500D02*
X0531300Y0049100D01*
X0541300Y0049100D02*
X0541300Y0043500D01*
X0561300Y0043500D02*
X0561300Y0049100D01*
X0571300Y0049100D02*
X0571300Y0043500D01*
X0581300Y0043500D02*
X0581300Y0049100D01*
X0521300Y0393500D02*
X0521300Y0399100D01*
X0511300Y0399100D02*
X0511300Y0393500D01*
X0501300Y0393500D02*
X0501300Y0399100D01*
X0501300Y0428500D02*
X0501300Y0434100D01*
X0511300Y0434100D02*
X0511300Y0428500D01*
X0521300Y0428500D02*
X0521300Y0434100D01*
X0464100Y0566300D02*
X0458500Y0566300D01*
X0458500Y0576300D02*
X0464100Y0576300D01*
X0464100Y0586300D02*
X0458500Y0586300D01*
X0334100Y0456300D02*
X0328500Y0456300D01*
X0328500Y0446300D02*
X0334100Y0446300D01*
X0219100Y0566300D02*
X0213500Y0566300D01*
X0213500Y0576300D02*
X0219100Y0576300D01*
X0219100Y0586300D02*
X0213500Y0586300D01*
D21*
X0151300Y0591300D03*
X0131300Y0591300D03*
X0111300Y0591300D03*
X0366300Y0371300D03*
X0376300Y0371300D03*
X0386300Y0311300D03*
X0446300Y0371300D03*
X0456300Y0371300D03*
X0466300Y0371300D03*
X0436300Y0441300D03*
X0426300Y0441300D03*
X0416300Y0441300D03*
X0386300Y0441300D03*
X0376300Y0441300D03*
X0256300Y0351300D03*
X0351300Y0196300D03*
X0396300Y0196300D03*
X0406300Y0196300D03*
X0406300Y0086300D03*
X0406300Y0026300D03*
X0436300Y0026300D03*
X0446300Y0026300D03*
X0476300Y0026300D03*
X0476300Y0086300D03*
X0601300Y0256300D03*
X0601300Y0266300D03*
X0601300Y0296300D03*
X0601300Y0356300D03*
X0276300Y0086300D03*
X0266300Y0086300D03*
X0256300Y0086300D03*
X0246300Y0086300D03*
X0236300Y0086300D03*
X0226300Y0086300D03*
X0226300Y0026300D03*
X0216300Y0026300D03*
X0236300Y0026300D03*
X0246300Y0026300D03*
X0256300Y0026300D03*
X0266300Y0026300D03*
X0156300Y0081300D03*
X0156300Y0096300D03*
X0141300Y0096300D03*
X0146300Y0156300D03*
X0146300Y0171300D03*
X0161300Y0156300D03*
D22*
X0246300Y0296300D03*
X0246300Y0306300D03*
X0256300Y0306300D03*
X0266300Y0306300D03*
X0266300Y0296300D03*
X0256300Y0296300D03*
X0276300Y0296300D03*
X0286300Y0296300D03*
X0286300Y0306300D03*
X0276300Y0306300D03*
X0396300Y0441300D03*
X0396300Y0451300D03*
X0406300Y0451300D03*
X0406300Y0441300D03*
M02*
