G75*
%MOIN*%
%OFA0B0*%
%FSLAX25Y25*%
%IPPOS*%
%LPD*%
%AMOC8*
5,1,8,0,0,1.08239X$1,22.5*
%
%ADD10C,0.06800*%
%ADD11C,0.07400*%
%ADD12C,0.13800*%
%ADD13OC8,0.07100*%
%ADD14C,0.07100*%
%ADD15OC8,0.06000*%
%ADD16OC8,0.06050*%
%ADD17C,0.25800*%
%ADD18C,0.06000*%
%ADD19OC8,0.06400*%
%ADD20C,0.06400*%
%ADD21C,0.08477*%
%ADD22OC8,0.06800*%
D10*
X1161300Y0598300D02*
X1161300Y0604300D01*
X1171300Y0604300D02*
X1171300Y0598300D01*
X1181300Y0598300D02*
X1181300Y0604300D01*
X1188300Y0571300D02*
X1194300Y0571300D01*
X1194300Y0561300D02*
X1188300Y0561300D01*
X1188300Y0551300D02*
X1194300Y0551300D01*
X1194300Y0541300D02*
X1188300Y0541300D01*
X1188300Y0531300D02*
X1194300Y0531300D01*
X1194300Y0521300D02*
X1188300Y0521300D01*
X1188300Y0511300D02*
X1194300Y0511300D01*
X1194300Y0501300D02*
X1188300Y0501300D01*
X1188300Y0491300D02*
X1194300Y0491300D01*
X1194300Y0481300D02*
X1188300Y0481300D01*
X1188300Y0471300D02*
X1194300Y0471300D01*
X1194300Y0461300D02*
X1188300Y0461300D01*
X1188300Y0451300D02*
X1194300Y0451300D01*
X1194300Y0441300D02*
X1188300Y0441300D01*
X1188300Y0431300D02*
X1194300Y0431300D01*
X1194300Y0421300D02*
X1188300Y0421300D01*
X1188300Y0411300D02*
X1194300Y0411300D01*
X1194300Y0401300D02*
X1188300Y0401300D01*
X1188300Y0391300D02*
X1194300Y0391300D01*
X1194300Y0381300D02*
X1188300Y0381300D01*
X1188300Y0371300D02*
X1194300Y0371300D01*
X1194300Y0361300D02*
X1188300Y0361300D01*
X1188300Y0351300D02*
X1194300Y0351300D01*
X1194300Y0341300D02*
X1188300Y0341300D01*
X1188300Y0331300D02*
X1194300Y0331300D01*
X1194300Y0311300D02*
X1188300Y0311300D01*
X1188300Y0301300D02*
X1194300Y0301300D01*
X1194300Y0291300D02*
X1188300Y0291300D01*
X1188300Y0281300D02*
X1194300Y0281300D01*
X1194300Y0271300D02*
X1188300Y0271300D01*
X1188300Y0261300D02*
X1194300Y0261300D01*
X1194300Y0251300D02*
X1188300Y0251300D01*
X1188300Y0241300D02*
X1194300Y0241300D01*
X1194300Y0231300D02*
X1188300Y0231300D01*
X1188300Y0221300D02*
X1194300Y0221300D01*
X1194300Y0211300D02*
X1188300Y0211300D01*
X1188300Y0201300D02*
X1194300Y0201300D01*
X1194300Y0191300D02*
X1188300Y0191300D01*
X1188300Y0181300D02*
X1194300Y0181300D01*
X1194300Y0171300D02*
X1188300Y0171300D01*
X1188300Y0161300D02*
X1194300Y0161300D01*
X1194300Y0151300D02*
X1188300Y0151300D01*
X1188300Y0141300D02*
X1194300Y0141300D01*
X1194300Y0131300D02*
X1188300Y0131300D01*
X1188300Y0121300D02*
X1194300Y0121300D01*
X1194300Y0111300D02*
X1188300Y0111300D01*
X1188300Y0101300D02*
X1194300Y0101300D01*
X1194300Y0091300D02*
X1188300Y0091300D01*
X1188300Y0081300D02*
X1194300Y0081300D01*
X1194300Y0071300D02*
X1188300Y0071300D01*
D11*
X0791300Y0073000D02*
X0791300Y0079600D01*
X0771300Y0079600D02*
X0771300Y0073000D01*
X0751300Y0073000D02*
X0751300Y0079600D01*
X0751300Y0123000D02*
X0751300Y0129600D01*
X0771300Y0129600D02*
X0771300Y0123000D01*
X0791300Y0123000D02*
X0791300Y0129600D01*
X1106300Y0538000D02*
X1106300Y0544600D01*
X1116300Y0544600D02*
X1116300Y0538000D01*
X1126300Y0538000D02*
X1126300Y0544600D01*
D12*
X1116300Y0600300D03*
D13*
X1101300Y0486300D03*
D14*
X1091300Y0486300D03*
D15*
X1126300Y0491300D03*
X1146300Y0491300D03*
X1146300Y0516300D03*
X1126300Y0516300D03*
X1106300Y0516300D03*
X1086300Y0516300D03*
X1041300Y0536300D03*
X1031300Y0536300D03*
X0931300Y0551300D03*
X0921300Y0551300D03*
X0891300Y0551300D03*
X0881300Y0551300D03*
X0881300Y0591300D03*
X0891300Y0591300D03*
X0921300Y0591300D03*
X0931300Y0591300D03*
X0761300Y0526300D03*
X0761300Y0516300D03*
X0761300Y0476300D03*
X0761300Y0466300D03*
X0881300Y0456300D03*
X0881300Y0486300D03*
X0946300Y0416300D03*
X0956300Y0416300D03*
X0996300Y0406300D03*
X1031300Y0416300D03*
X1041300Y0416300D03*
X0996300Y0376300D03*
X0906300Y0376300D03*
X0906300Y0406300D03*
X0721300Y0391300D03*
X0711300Y0391300D03*
X0641300Y0391300D03*
X0631300Y0391300D03*
X0561300Y0391300D03*
X0551300Y0391300D03*
X0481300Y0391300D03*
X0471300Y0391300D03*
X0401300Y0391300D03*
X0391300Y0391300D03*
X0321300Y0391300D03*
X0311300Y0391300D03*
X0241300Y0391300D03*
X0231300Y0391300D03*
X0161300Y0391300D03*
X0151300Y0391300D03*
X0151300Y0576300D03*
X0161300Y0576300D03*
X0231300Y0576300D03*
X0241300Y0576300D03*
X0311300Y0576300D03*
X0321300Y0576300D03*
X0391300Y0576300D03*
X0401300Y0576300D03*
X0471300Y0576300D03*
X0481300Y0576300D03*
X0551300Y0576300D03*
X0561300Y0576300D03*
X0631300Y0576300D03*
X0641300Y0576300D03*
X0711300Y0576300D03*
X0721300Y0576300D03*
X1121300Y0421300D03*
X1131300Y0421300D03*
X0976300Y0286300D03*
X0976300Y0256300D03*
X0956300Y0241300D03*
X0946300Y0241300D03*
X0951300Y0256300D03*
X0921300Y0256300D03*
X1046300Y0271300D03*
X1056300Y0271300D03*
X1086300Y0266300D03*
X1096300Y0266300D03*
X1106300Y0266300D03*
X1106300Y0251300D03*
X1096300Y0251300D03*
X1086300Y0251300D03*
X1086300Y0236300D03*
X1096300Y0236300D03*
X1106300Y0236300D03*
X1106300Y0221300D03*
X1096300Y0221300D03*
X1086300Y0221300D03*
X1086300Y0206300D03*
X1096300Y0206300D03*
X1106300Y0206300D03*
X1136300Y0206300D03*
X1136300Y0221300D03*
X1136300Y0236300D03*
X1136300Y0251300D03*
X1136300Y0266300D03*
X1131300Y0176300D03*
X1121300Y0176300D03*
X0971300Y0116300D03*
X0956300Y0111300D03*
X0946300Y0111300D03*
X0971300Y0086300D03*
X0971300Y0076300D03*
X0971300Y0066300D03*
X0841300Y0056300D03*
X0791300Y0056300D03*
X0821300Y0136300D03*
X0851300Y0136300D03*
X0551300Y0151300D03*
X0541300Y0151300D03*
X0496300Y0161300D03*
X0486300Y0161300D03*
X0446300Y0161300D03*
X0436300Y0161300D03*
X0396300Y0161300D03*
X0386300Y0161300D03*
X0346300Y0161300D03*
X0336300Y0161300D03*
X0296300Y0161300D03*
X0286300Y0161300D03*
X0246300Y0161300D03*
X0236300Y0161300D03*
X0196300Y0161300D03*
X0186300Y0161300D03*
X0146300Y0161300D03*
X0136300Y0161300D03*
D16*
X1176300Y0161300D03*
X1176300Y0151300D03*
X1176300Y0141300D03*
X1176300Y0131300D03*
X1176300Y0121300D03*
X1176300Y0111300D03*
X1176300Y0101300D03*
X1176300Y0091300D03*
X1176300Y0081300D03*
X1176300Y0071300D03*
X1206300Y0071300D03*
X1206300Y0081300D03*
X1206300Y0091300D03*
X1206300Y0101300D03*
X1206300Y0111300D03*
X1206300Y0121300D03*
X1206300Y0131300D03*
X1206300Y0141300D03*
X1206300Y0151300D03*
X1206300Y0161300D03*
X1206300Y0171300D03*
X1206300Y0181300D03*
X1206300Y0191300D03*
X1206300Y0201300D03*
X1206300Y0211300D03*
X1206300Y0221300D03*
X1206300Y0231300D03*
X1206300Y0241300D03*
X1206300Y0251300D03*
X1206300Y0261300D03*
X1206300Y0271300D03*
X1206300Y0281300D03*
X1206300Y0291300D03*
X1206300Y0301300D03*
X1206300Y0311300D03*
X1176300Y0311300D03*
X1176300Y0301300D03*
X1176300Y0291300D03*
X1176300Y0281300D03*
X1176300Y0271300D03*
X1176300Y0261300D03*
X1176300Y0251300D03*
X1176300Y0241300D03*
X1176300Y0231300D03*
X1176300Y0221300D03*
X1176300Y0211300D03*
X1176300Y0201300D03*
X1176300Y0191300D03*
X1176300Y0181300D03*
X1176300Y0171300D03*
X1176300Y0331300D03*
X1176300Y0341300D03*
X1176300Y0351300D03*
X1176300Y0361300D03*
X1176300Y0371300D03*
X1176300Y0381300D03*
X1176300Y0391300D03*
X1176300Y0401300D03*
X1176300Y0411300D03*
X1176300Y0421300D03*
X1176300Y0431300D03*
X1176300Y0441300D03*
X1176300Y0451300D03*
X1176300Y0461300D03*
X1176300Y0471300D03*
X1176300Y0481300D03*
X1176300Y0491300D03*
X1176300Y0501300D03*
X1176300Y0511300D03*
X1176300Y0521300D03*
X1176300Y0531300D03*
X1176300Y0541300D03*
X1176300Y0551300D03*
X1176300Y0561300D03*
X1176300Y0571300D03*
X1206300Y0571300D03*
X1206300Y0561300D03*
X1206300Y0551300D03*
X1206300Y0541300D03*
X1206300Y0531300D03*
X1206300Y0521300D03*
X1206300Y0511300D03*
X1206300Y0501300D03*
X1206300Y0491300D03*
X1206300Y0481300D03*
X1206300Y0471300D03*
X1206300Y0461300D03*
X1206300Y0451300D03*
X1206300Y0441300D03*
X1206300Y0431300D03*
X1206300Y0421300D03*
X1206300Y0411300D03*
X1206300Y0401300D03*
X1206300Y0391300D03*
X1206300Y0381300D03*
X1206300Y0371300D03*
X1206300Y0361300D03*
X1206300Y0351300D03*
X1206300Y0341300D03*
X1206300Y0331300D03*
D17*
X0036300Y0316300D03*
X0036300Y0216300D03*
X0036300Y0116300D03*
X0036300Y0416300D03*
X0036300Y0516300D03*
D18*
X0113700Y0081300D02*
X0118900Y0081300D01*
X0118900Y0091300D02*
X0113700Y0091300D01*
X0113700Y0101300D02*
X0118900Y0101300D01*
X0118900Y0111300D02*
X0113700Y0111300D01*
X0113700Y0121300D02*
X0118900Y0121300D01*
X0118900Y0131300D02*
X0113700Y0131300D01*
X0113700Y0141300D02*
X0118900Y0141300D01*
X0118900Y0151300D02*
X0113700Y0151300D01*
X0143700Y0151300D02*
X0148900Y0151300D01*
X0163700Y0151300D02*
X0168900Y0151300D01*
X0168900Y0141300D02*
X0163700Y0141300D01*
X0148900Y0141300D02*
X0143700Y0141300D01*
X0143700Y0131300D02*
X0148900Y0131300D01*
X0148900Y0121300D02*
X0143700Y0121300D01*
X0143700Y0111300D02*
X0148900Y0111300D01*
X0148900Y0101300D02*
X0143700Y0101300D01*
X0143700Y0091300D02*
X0148900Y0091300D01*
X0163700Y0091300D02*
X0168900Y0091300D01*
X0168900Y0081300D02*
X0163700Y0081300D01*
X0148900Y0081300D02*
X0143700Y0081300D01*
X0163700Y0101300D02*
X0168900Y0101300D01*
X0168900Y0111300D02*
X0163700Y0111300D01*
X0163700Y0121300D02*
X0168900Y0121300D01*
X0168900Y0131300D02*
X0163700Y0131300D01*
X0193700Y0131300D02*
X0198900Y0131300D01*
X0198900Y0121300D02*
X0193700Y0121300D01*
X0193700Y0111300D02*
X0198900Y0111300D01*
X0198900Y0101300D02*
X0193700Y0101300D01*
X0193700Y0091300D02*
X0198900Y0091300D01*
X0213700Y0091300D02*
X0218900Y0091300D01*
X0218900Y0081300D02*
X0213700Y0081300D01*
X0198900Y0081300D02*
X0193700Y0081300D01*
X0213700Y0101300D02*
X0218900Y0101300D01*
X0218900Y0111300D02*
X0213700Y0111300D01*
X0213700Y0121300D02*
X0218900Y0121300D01*
X0218900Y0131300D02*
X0213700Y0131300D01*
X0213700Y0141300D02*
X0218900Y0141300D01*
X0218900Y0151300D02*
X0213700Y0151300D01*
X0198900Y0151300D02*
X0193700Y0151300D01*
X0193700Y0141300D02*
X0198900Y0141300D01*
X0243700Y0141300D02*
X0248900Y0141300D01*
X0263700Y0141300D02*
X0268900Y0141300D01*
X0268900Y0131300D02*
X0263700Y0131300D01*
X0263700Y0121300D02*
X0268900Y0121300D01*
X0268900Y0111300D02*
X0263700Y0111300D01*
X0263700Y0101300D02*
X0268900Y0101300D01*
X0268900Y0091300D02*
X0263700Y0091300D01*
X0248900Y0091300D02*
X0243700Y0091300D01*
X0243700Y0081300D02*
X0248900Y0081300D01*
X0263700Y0081300D02*
X0268900Y0081300D01*
X0293700Y0081300D02*
X0298900Y0081300D01*
X0313700Y0081300D02*
X0318900Y0081300D01*
X0318900Y0091300D02*
X0313700Y0091300D01*
X0298900Y0091300D02*
X0293700Y0091300D01*
X0293700Y0101300D02*
X0298900Y0101300D01*
X0298900Y0111300D02*
X0293700Y0111300D01*
X0313700Y0111300D02*
X0318900Y0111300D01*
X0318900Y0101300D02*
X0313700Y0101300D01*
X0313700Y0121300D02*
X0318900Y0121300D01*
X0318900Y0131300D02*
X0313700Y0131300D01*
X0298900Y0131300D02*
X0293700Y0131300D01*
X0293700Y0121300D02*
X0298900Y0121300D01*
X0298900Y0141300D02*
X0293700Y0141300D01*
X0313700Y0141300D02*
X0318900Y0141300D01*
X0318900Y0151300D02*
X0313700Y0151300D01*
X0298900Y0151300D02*
X0293700Y0151300D01*
X0268900Y0151300D02*
X0263700Y0151300D01*
X0248900Y0151300D02*
X0243700Y0151300D01*
X0243700Y0131300D02*
X0248900Y0131300D01*
X0248900Y0121300D02*
X0243700Y0121300D01*
X0243700Y0111300D02*
X0248900Y0111300D01*
X0248900Y0101300D02*
X0243700Y0101300D01*
X0343700Y0101300D02*
X0348900Y0101300D01*
X0348900Y0111300D02*
X0343700Y0111300D01*
X0363700Y0111300D02*
X0368900Y0111300D01*
X0368900Y0101300D02*
X0363700Y0101300D01*
X0363700Y0091300D02*
X0368900Y0091300D01*
X0368900Y0081300D02*
X0363700Y0081300D01*
X0348900Y0081300D02*
X0343700Y0081300D01*
X0343700Y0091300D02*
X0348900Y0091300D01*
X0393700Y0091300D02*
X0398900Y0091300D01*
X0398900Y0081300D02*
X0393700Y0081300D01*
X0413700Y0081300D02*
X0418900Y0081300D01*
X0418900Y0091300D02*
X0413700Y0091300D01*
X0413700Y0101300D02*
X0418900Y0101300D01*
X0418900Y0111300D02*
X0413700Y0111300D01*
X0413700Y0121300D02*
X0418900Y0121300D01*
X0418900Y0131300D02*
X0413700Y0131300D01*
X0413700Y0141300D02*
X0418900Y0141300D01*
X0418900Y0151300D02*
X0413700Y0151300D01*
X0398900Y0151300D02*
X0393700Y0151300D01*
X0393700Y0141300D02*
X0398900Y0141300D01*
X0398900Y0131300D02*
X0393700Y0131300D01*
X0393700Y0121300D02*
X0398900Y0121300D01*
X0398900Y0111300D02*
X0393700Y0111300D01*
X0393700Y0101300D02*
X0398900Y0101300D01*
X0368900Y0121300D02*
X0363700Y0121300D01*
X0363700Y0131300D02*
X0368900Y0131300D01*
X0368900Y0141300D02*
X0363700Y0141300D01*
X0348900Y0141300D02*
X0343700Y0141300D01*
X0343700Y0131300D02*
X0348900Y0131300D01*
X0348900Y0121300D02*
X0343700Y0121300D01*
X0343700Y0151300D02*
X0348900Y0151300D01*
X0363700Y0151300D02*
X0368900Y0151300D01*
X0371300Y0178700D02*
X0371300Y0183900D01*
X0361300Y0183900D02*
X0361300Y0178700D01*
X0351300Y0178700D02*
X0351300Y0183900D01*
X0341300Y0183900D02*
X0341300Y0178700D01*
X0331300Y0178700D02*
X0331300Y0183900D01*
X0306300Y0183900D02*
X0306300Y0178700D01*
X0296300Y0178700D02*
X0296300Y0183900D01*
X0286300Y0183900D02*
X0286300Y0178700D01*
X0276300Y0178700D02*
X0276300Y0183900D01*
X0266300Y0183900D02*
X0266300Y0178700D01*
X0256300Y0178700D02*
X0256300Y0183900D01*
X0246300Y0183900D02*
X0246300Y0178700D01*
X0236300Y0178700D02*
X0236300Y0183900D01*
X0226300Y0183900D02*
X0226300Y0178700D01*
X0196300Y0178700D02*
X0196300Y0183900D01*
X0186300Y0183900D02*
X0186300Y0178700D01*
X0176300Y0178700D02*
X0176300Y0183900D01*
X0166300Y0183900D02*
X0166300Y0178700D01*
X0156300Y0178700D02*
X0156300Y0183900D01*
X0146300Y0183900D02*
X0146300Y0178700D01*
X0136300Y0178700D02*
X0136300Y0183900D01*
X0126300Y0183900D02*
X0126300Y0178700D01*
X0116300Y0178700D02*
X0116300Y0183900D01*
X0103900Y0231300D02*
X0098700Y0231300D01*
X0098700Y0241300D02*
X0103900Y0241300D01*
X0103900Y0251300D02*
X0098700Y0251300D01*
X0098700Y0261300D02*
X0103900Y0261300D01*
X0103900Y0271300D02*
X0098700Y0271300D01*
X0098700Y0281300D02*
X0103900Y0281300D01*
X0103900Y0291300D02*
X0098700Y0291300D01*
X0098700Y0301300D02*
X0103900Y0301300D01*
X0103900Y0311300D02*
X0098700Y0311300D01*
X0098700Y0321300D02*
X0103900Y0321300D01*
X0103900Y0331300D02*
X0098700Y0331300D01*
X0098700Y0341300D02*
X0103900Y0341300D01*
X0103900Y0351300D02*
X0098700Y0351300D01*
X0098700Y0361300D02*
X0103900Y0361300D01*
X0103900Y0371300D02*
X0098700Y0371300D01*
X0098700Y0381300D02*
X0103900Y0381300D01*
X0158700Y0381300D02*
X0163900Y0381300D01*
X0163900Y0371300D02*
X0158700Y0371300D01*
X0178700Y0371300D02*
X0183900Y0371300D01*
X0183900Y0381300D02*
X0178700Y0381300D01*
X0178700Y0361300D02*
X0183900Y0361300D01*
X0183900Y0351300D02*
X0178700Y0351300D01*
X0178700Y0341300D02*
X0183900Y0341300D01*
X0183900Y0331300D02*
X0178700Y0331300D01*
X0178700Y0321300D02*
X0183900Y0321300D01*
X0183900Y0311300D02*
X0178700Y0311300D01*
X0178700Y0301300D02*
X0183900Y0301300D01*
X0183900Y0291300D02*
X0178700Y0291300D01*
X0163900Y0291300D02*
X0158700Y0291300D01*
X0158700Y0281300D02*
X0163900Y0281300D01*
X0163900Y0271300D02*
X0158700Y0271300D01*
X0178700Y0271300D02*
X0183900Y0271300D01*
X0183900Y0281300D02*
X0178700Y0281300D01*
X0178700Y0261300D02*
X0183900Y0261300D01*
X0183900Y0251300D02*
X0178700Y0251300D01*
X0163900Y0251300D02*
X0158700Y0251300D01*
X0158700Y0261300D02*
X0163900Y0261300D01*
X0163900Y0241300D02*
X0158700Y0241300D01*
X0178700Y0241300D02*
X0183900Y0241300D01*
X0183900Y0231300D02*
X0178700Y0231300D01*
X0163900Y0231300D02*
X0158700Y0231300D01*
X0238700Y0231300D02*
X0243900Y0231300D01*
X0258700Y0231300D02*
X0263900Y0231300D01*
X0263900Y0241300D02*
X0258700Y0241300D01*
X0243900Y0241300D02*
X0238700Y0241300D01*
X0238700Y0251300D02*
X0243900Y0251300D01*
X0243900Y0261300D02*
X0238700Y0261300D01*
X0238700Y0271300D02*
X0243900Y0271300D01*
X0243900Y0281300D02*
X0238700Y0281300D01*
X0238700Y0291300D02*
X0243900Y0291300D01*
X0258700Y0291300D02*
X0263900Y0291300D01*
X0263900Y0281300D02*
X0258700Y0281300D01*
X0258700Y0271300D02*
X0263900Y0271300D01*
X0263900Y0261300D02*
X0258700Y0261300D01*
X0258700Y0251300D02*
X0263900Y0251300D01*
X0318700Y0251300D02*
X0323900Y0251300D01*
X0323900Y0261300D02*
X0318700Y0261300D01*
X0338700Y0261300D02*
X0343900Y0261300D01*
X0343900Y0251300D02*
X0338700Y0251300D01*
X0338700Y0241300D02*
X0343900Y0241300D01*
X0343900Y0231300D02*
X0338700Y0231300D01*
X0323900Y0231300D02*
X0318700Y0231300D01*
X0318700Y0241300D02*
X0323900Y0241300D01*
X0323900Y0271300D02*
X0318700Y0271300D01*
X0318700Y0281300D02*
X0323900Y0281300D01*
X0338700Y0281300D02*
X0343900Y0281300D01*
X0343900Y0271300D02*
X0338700Y0271300D01*
X0338700Y0291300D02*
X0343900Y0291300D01*
X0343900Y0301300D02*
X0338700Y0301300D01*
X0338700Y0311300D02*
X0343900Y0311300D01*
X0343900Y0321300D02*
X0338700Y0321300D01*
X0338700Y0331300D02*
X0343900Y0331300D01*
X0343900Y0341300D02*
X0338700Y0341300D01*
X0338700Y0351300D02*
X0343900Y0351300D01*
X0343900Y0361300D02*
X0338700Y0361300D01*
X0323900Y0361300D02*
X0318700Y0361300D01*
X0318700Y0351300D02*
X0323900Y0351300D01*
X0323900Y0341300D02*
X0318700Y0341300D01*
X0318700Y0331300D02*
X0323900Y0331300D01*
X0323900Y0321300D02*
X0318700Y0321300D01*
X0318700Y0311300D02*
X0323900Y0311300D01*
X0323900Y0301300D02*
X0318700Y0301300D01*
X0318700Y0291300D02*
X0323900Y0291300D01*
X0263900Y0301300D02*
X0258700Y0301300D01*
X0258700Y0311300D02*
X0263900Y0311300D01*
X0243900Y0311300D02*
X0238700Y0311300D01*
X0238700Y0301300D02*
X0243900Y0301300D01*
X0243900Y0321300D02*
X0238700Y0321300D01*
X0238700Y0331300D02*
X0243900Y0331300D01*
X0258700Y0331300D02*
X0263900Y0331300D01*
X0263900Y0321300D02*
X0258700Y0321300D01*
X0258700Y0341300D02*
X0263900Y0341300D01*
X0263900Y0351300D02*
X0258700Y0351300D01*
X0243900Y0351300D02*
X0238700Y0351300D01*
X0238700Y0341300D02*
X0243900Y0341300D01*
X0243900Y0361300D02*
X0238700Y0361300D01*
X0238700Y0371300D02*
X0243900Y0371300D01*
X0243900Y0381300D02*
X0238700Y0381300D01*
X0258700Y0381300D02*
X0263900Y0381300D01*
X0263900Y0371300D02*
X0258700Y0371300D01*
X0258700Y0361300D02*
X0263900Y0361300D01*
X0318700Y0371300D02*
X0323900Y0371300D01*
X0323900Y0381300D02*
X0318700Y0381300D01*
X0338700Y0381300D02*
X0343900Y0381300D01*
X0343900Y0371300D02*
X0338700Y0371300D01*
X0398700Y0371300D02*
X0403900Y0371300D01*
X0403900Y0381300D02*
X0398700Y0381300D01*
X0418700Y0381300D02*
X0423900Y0381300D01*
X0423900Y0371300D02*
X0418700Y0371300D01*
X0418700Y0361300D02*
X0423900Y0361300D01*
X0403900Y0361300D02*
X0398700Y0361300D01*
X0398700Y0351300D02*
X0403900Y0351300D01*
X0403900Y0341300D02*
X0398700Y0341300D01*
X0398700Y0331300D02*
X0403900Y0331300D01*
X0403900Y0321300D02*
X0398700Y0321300D01*
X0398700Y0311300D02*
X0403900Y0311300D01*
X0403900Y0301300D02*
X0398700Y0301300D01*
X0398700Y0291300D02*
X0403900Y0291300D01*
X0418700Y0291300D02*
X0423900Y0291300D01*
X0423900Y0281300D02*
X0418700Y0281300D01*
X0418700Y0271300D02*
X0423900Y0271300D01*
X0403900Y0271300D02*
X0398700Y0271300D01*
X0398700Y0281300D02*
X0403900Y0281300D01*
X0403900Y0261300D02*
X0398700Y0261300D01*
X0398700Y0251300D02*
X0403900Y0251300D01*
X0418700Y0251300D02*
X0423900Y0251300D01*
X0423900Y0261300D02*
X0418700Y0261300D01*
X0418700Y0241300D02*
X0423900Y0241300D01*
X0403900Y0241300D02*
X0398700Y0241300D01*
X0398700Y0231300D02*
X0403900Y0231300D01*
X0418700Y0231300D02*
X0423900Y0231300D01*
X0478700Y0231300D02*
X0483900Y0231300D01*
X0483900Y0241300D02*
X0478700Y0241300D01*
X0478700Y0251300D02*
X0483900Y0251300D01*
X0483900Y0261300D02*
X0478700Y0261300D01*
X0478700Y0271300D02*
X0483900Y0271300D01*
X0483900Y0281300D02*
X0478700Y0281300D01*
X0478700Y0291300D02*
X0483900Y0291300D01*
X0483900Y0301300D02*
X0478700Y0301300D01*
X0478700Y0311300D02*
X0483900Y0311300D01*
X0483900Y0321300D02*
X0478700Y0321300D01*
X0478700Y0331300D02*
X0483900Y0331300D01*
X0483900Y0341300D02*
X0478700Y0341300D01*
X0478700Y0351300D02*
X0483900Y0351300D01*
X0483900Y0361300D02*
X0478700Y0361300D01*
X0478700Y0371300D02*
X0483900Y0371300D01*
X0483900Y0381300D02*
X0478700Y0381300D01*
X0498700Y0381300D02*
X0503900Y0381300D01*
X0503900Y0371300D02*
X0498700Y0371300D01*
X0498700Y0361300D02*
X0503900Y0361300D01*
X0503900Y0351300D02*
X0498700Y0351300D01*
X0498700Y0341300D02*
X0503900Y0341300D01*
X0503900Y0331300D02*
X0498700Y0331300D01*
X0498700Y0321300D02*
X0503900Y0321300D01*
X0503900Y0311300D02*
X0498700Y0311300D01*
X0498700Y0301300D02*
X0503900Y0301300D01*
X0503900Y0291300D02*
X0498700Y0291300D01*
X0498700Y0281300D02*
X0503900Y0281300D01*
X0503900Y0271300D02*
X0498700Y0271300D01*
X0498700Y0261300D02*
X0503900Y0261300D01*
X0503900Y0251300D02*
X0498700Y0251300D01*
X0498700Y0241300D02*
X0503900Y0241300D01*
X0503900Y0231300D02*
X0498700Y0231300D01*
X0558700Y0231300D02*
X0563900Y0231300D01*
X0578700Y0231300D02*
X0583900Y0231300D01*
X0583900Y0241300D02*
X0578700Y0241300D01*
X0563900Y0241300D02*
X0558700Y0241300D01*
X0558700Y0251300D02*
X0563900Y0251300D01*
X0563900Y0261300D02*
X0558700Y0261300D01*
X0578700Y0261300D02*
X0583900Y0261300D01*
X0583900Y0251300D02*
X0578700Y0251300D01*
X0578700Y0271300D02*
X0583900Y0271300D01*
X0583900Y0281300D02*
X0578700Y0281300D01*
X0563900Y0281300D02*
X0558700Y0281300D01*
X0558700Y0271300D02*
X0563900Y0271300D01*
X0563900Y0291300D02*
X0558700Y0291300D01*
X0578700Y0291300D02*
X0583900Y0291300D01*
X0583900Y0301300D02*
X0578700Y0301300D01*
X0578700Y0311300D02*
X0583900Y0311300D01*
X0583900Y0321300D02*
X0578700Y0321300D01*
X0578700Y0331300D02*
X0583900Y0331300D01*
X0583900Y0341300D02*
X0578700Y0341300D01*
X0578700Y0351300D02*
X0583900Y0351300D01*
X0583900Y0361300D02*
X0578700Y0361300D01*
X0563900Y0361300D02*
X0558700Y0361300D01*
X0558700Y0351300D02*
X0563900Y0351300D01*
X0563900Y0341300D02*
X0558700Y0341300D01*
X0558700Y0331300D02*
X0563900Y0331300D01*
X0563900Y0321300D02*
X0558700Y0321300D01*
X0558700Y0311300D02*
X0563900Y0311300D01*
X0563900Y0301300D02*
X0558700Y0301300D01*
X0638700Y0301300D02*
X0643900Y0301300D01*
X0643900Y0311300D02*
X0638700Y0311300D01*
X0638700Y0321300D02*
X0643900Y0321300D01*
X0643900Y0331300D02*
X0638700Y0331300D01*
X0638700Y0341300D02*
X0643900Y0341300D01*
X0643900Y0351300D02*
X0638700Y0351300D01*
X0638700Y0361300D02*
X0643900Y0361300D01*
X0658700Y0361300D02*
X0663900Y0361300D01*
X0663900Y0351300D02*
X0658700Y0351300D01*
X0658700Y0341300D02*
X0663900Y0341300D01*
X0663900Y0331300D02*
X0658700Y0331300D01*
X0658700Y0321300D02*
X0663900Y0321300D01*
X0663900Y0311300D02*
X0658700Y0311300D01*
X0658700Y0301300D02*
X0663900Y0301300D01*
X0663900Y0291300D02*
X0658700Y0291300D01*
X0643900Y0291300D02*
X0638700Y0291300D01*
X0638700Y0281300D02*
X0643900Y0281300D01*
X0643900Y0271300D02*
X0638700Y0271300D01*
X0638700Y0261300D02*
X0643900Y0261300D01*
X0643900Y0251300D02*
X0638700Y0251300D01*
X0638700Y0241300D02*
X0643900Y0241300D01*
X0658700Y0241300D02*
X0663900Y0241300D01*
X0663900Y0231300D02*
X0658700Y0231300D01*
X0643900Y0231300D02*
X0638700Y0231300D01*
X0658700Y0251300D02*
X0663900Y0251300D01*
X0663900Y0261300D02*
X0658700Y0261300D01*
X0658700Y0271300D02*
X0663900Y0271300D01*
X0663900Y0281300D02*
X0658700Y0281300D01*
X0718700Y0281300D02*
X0723900Y0281300D01*
X0723900Y0271300D02*
X0718700Y0271300D01*
X0738700Y0271300D02*
X0743900Y0271300D01*
X0743900Y0281300D02*
X0738700Y0281300D01*
X0738700Y0291300D02*
X0743900Y0291300D01*
X0743900Y0301300D02*
X0738700Y0301300D01*
X0723900Y0301300D02*
X0718700Y0301300D01*
X0718700Y0311300D02*
X0723900Y0311300D01*
X0723900Y0321300D02*
X0718700Y0321300D01*
X0718700Y0331300D02*
X0723900Y0331300D01*
X0723900Y0341300D02*
X0718700Y0341300D01*
X0718700Y0351300D02*
X0723900Y0351300D01*
X0723900Y0361300D02*
X0718700Y0361300D01*
X0718700Y0371300D02*
X0723900Y0371300D01*
X0723900Y0381300D02*
X0718700Y0381300D01*
X0663900Y0381300D02*
X0658700Y0381300D01*
X0658700Y0371300D02*
X0663900Y0371300D01*
X0643900Y0371300D02*
X0638700Y0371300D01*
X0638700Y0381300D02*
X0643900Y0381300D01*
X0583900Y0381300D02*
X0578700Y0381300D01*
X0578700Y0371300D02*
X0583900Y0371300D01*
X0563900Y0371300D02*
X0558700Y0371300D01*
X0558700Y0381300D02*
X0563900Y0381300D01*
X0563900Y0416300D02*
X0558700Y0416300D01*
X0558700Y0426300D02*
X0563900Y0426300D01*
X0578700Y0426300D02*
X0583900Y0426300D01*
X0583900Y0416300D02*
X0578700Y0416300D01*
X0578700Y0436300D02*
X0583900Y0436300D01*
X0583900Y0446300D02*
X0578700Y0446300D01*
X0578700Y0456300D02*
X0583900Y0456300D01*
X0583900Y0466300D02*
X0578700Y0466300D01*
X0578700Y0476300D02*
X0583900Y0476300D01*
X0583900Y0486300D02*
X0578700Y0486300D01*
X0563900Y0486300D02*
X0558700Y0486300D01*
X0558700Y0476300D02*
X0563900Y0476300D01*
X0563900Y0466300D02*
X0558700Y0466300D01*
X0558700Y0456300D02*
X0563900Y0456300D01*
X0563900Y0446300D02*
X0558700Y0446300D01*
X0558700Y0436300D02*
X0563900Y0436300D01*
X0503900Y0436300D02*
X0498700Y0436300D01*
X0498700Y0426300D02*
X0503900Y0426300D01*
X0503900Y0416300D02*
X0498700Y0416300D01*
X0483900Y0416300D02*
X0478700Y0416300D01*
X0478700Y0426300D02*
X0483900Y0426300D01*
X0483900Y0436300D02*
X0478700Y0436300D01*
X0478700Y0446300D02*
X0483900Y0446300D01*
X0483900Y0456300D02*
X0478700Y0456300D01*
X0478700Y0466300D02*
X0483900Y0466300D01*
X0483900Y0476300D02*
X0478700Y0476300D01*
X0478700Y0486300D02*
X0483900Y0486300D01*
X0483900Y0496300D02*
X0478700Y0496300D01*
X0478700Y0506300D02*
X0483900Y0506300D01*
X0483900Y0516300D02*
X0478700Y0516300D01*
X0478700Y0526300D02*
X0483900Y0526300D01*
X0483900Y0536300D02*
X0478700Y0536300D01*
X0478700Y0546300D02*
X0483900Y0546300D01*
X0483900Y0556300D02*
X0478700Y0556300D01*
X0478700Y0566300D02*
X0483900Y0566300D01*
X0498700Y0566300D02*
X0503900Y0566300D01*
X0503900Y0556300D02*
X0498700Y0556300D01*
X0498700Y0546300D02*
X0503900Y0546300D01*
X0503900Y0536300D02*
X0498700Y0536300D01*
X0498700Y0526300D02*
X0503900Y0526300D01*
X0503900Y0516300D02*
X0498700Y0516300D01*
X0498700Y0506300D02*
X0503900Y0506300D01*
X0503900Y0496300D02*
X0498700Y0496300D01*
X0498700Y0486300D02*
X0503900Y0486300D01*
X0503900Y0476300D02*
X0498700Y0476300D01*
X0498700Y0466300D02*
X0503900Y0466300D01*
X0503900Y0456300D02*
X0498700Y0456300D01*
X0498700Y0446300D02*
X0503900Y0446300D01*
X0423900Y0446300D02*
X0418700Y0446300D01*
X0418700Y0456300D02*
X0423900Y0456300D01*
X0403900Y0456300D02*
X0398700Y0456300D01*
X0398700Y0446300D02*
X0403900Y0446300D01*
X0403900Y0436300D02*
X0398700Y0436300D01*
X0398700Y0426300D02*
X0403900Y0426300D01*
X0403900Y0416300D02*
X0398700Y0416300D01*
X0418700Y0416300D02*
X0423900Y0416300D01*
X0423900Y0426300D02*
X0418700Y0426300D01*
X0418700Y0436300D02*
X0423900Y0436300D01*
X0423900Y0466300D02*
X0418700Y0466300D01*
X0418700Y0476300D02*
X0423900Y0476300D01*
X0403900Y0476300D02*
X0398700Y0476300D01*
X0398700Y0466300D02*
X0403900Y0466300D01*
X0403900Y0486300D02*
X0398700Y0486300D01*
X0398700Y0496300D02*
X0403900Y0496300D01*
X0403900Y0506300D02*
X0398700Y0506300D01*
X0398700Y0516300D02*
X0403900Y0516300D01*
X0403900Y0526300D02*
X0398700Y0526300D01*
X0398700Y0536300D02*
X0403900Y0536300D01*
X0418700Y0536300D02*
X0423900Y0536300D01*
X0423900Y0526300D02*
X0418700Y0526300D01*
X0418700Y0516300D02*
X0423900Y0516300D01*
X0423900Y0506300D02*
X0418700Y0506300D01*
X0418700Y0496300D02*
X0423900Y0496300D01*
X0423900Y0486300D02*
X0418700Y0486300D01*
X0343900Y0486300D02*
X0338700Y0486300D01*
X0323900Y0486300D02*
X0318700Y0486300D01*
X0318700Y0476300D02*
X0323900Y0476300D01*
X0323900Y0466300D02*
X0318700Y0466300D01*
X0338700Y0466300D02*
X0343900Y0466300D01*
X0343900Y0476300D02*
X0338700Y0476300D01*
X0338700Y0456300D02*
X0343900Y0456300D01*
X0343900Y0446300D02*
X0338700Y0446300D01*
X0323900Y0446300D02*
X0318700Y0446300D01*
X0318700Y0456300D02*
X0323900Y0456300D01*
X0323900Y0436300D02*
X0318700Y0436300D01*
X0338700Y0436300D02*
X0343900Y0436300D01*
X0343900Y0426300D02*
X0338700Y0426300D01*
X0338700Y0416300D02*
X0343900Y0416300D01*
X0323900Y0416300D02*
X0318700Y0416300D01*
X0318700Y0426300D02*
X0323900Y0426300D01*
X0263900Y0426300D02*
X0258700Y0426300D01*
X0258700Y0416300D02*
X0263900Y0416300D01*
X0243900Y0416300D02*
X0238700Y0416300D01*
X0238700Y0426300D02*
X0243900Y0426300D01*
X0243900Y0436300D02*
X0238700Y0436300D01*
X0238700Y0446300D02*
X0243900Y0446300D01*
X0243900Y0456300D02*
X0238700Y0456300D01*
X0238700Y0466300D02*
X0243900Y0466300D01*
X0243900Y0476300D02*
X0238700Y0476300D01*
X0238700Y0486300D02*
X0243900Y0486300D01*
X0258700Y0486300D02*
X0263900Y0486300D01*
X0263900Y0476300D02*
X0258700Y0476300D01*
X0258700Y0466300D02*
X0263900Y0466300D01*
X0263900Y0456300D02*
X0258700Y0456300D01*
X0258700Y0446300D02*
X0263900Y0446300D01*
X0263900Y0436300D02*
X0258700Y0436300D01*
X0183900Y0436300D02*
X0178700Y0436300D01*
X0163900Y0436300D02*
X0158700Y0436300D01*
X0158700Y0426300D02*
X0163900Y0426300D01*
X0163900Y0416300D02*
X0158700Y0416300D01*
X0178700Y0416300D02*
X0183900Y0416300D01*
X0183900Y0426300D02*
X0178700Y0426300D01*
X0178700Y0446300D02*
X0183900Y0446300D01*
X0183900Y0456300D02*
X0178700Y0456300D01*
X0163900Y0456300D02*
X0158700Y0456300D01*
X0158700Y0446300D02*
X0163900Y0446300D01*
X0163900Y0466300D02*
X0158700Y0466300D01*
X0158700Y0476300D02*
X0163900Y0476300D01*
X0178700Y0476300D02*
X0183900Y0476300D01*
X0183900Y0466300D02*
X0178700Y0466300D01*
X0178700Y0486300D02*
X0183900Y0486300D01*
X0183900Y0496300D02*
X0178700Y0496300D01*
X0178700Y0506300D02*
X0183900Y0506300D01*
X0183900Y0516300D02*
X0178700Y0516300D01*
X0178700Y0526300D02*
X0183900Y0526300D01*
X0183900Y0536300D02*
X0178700Y0536300D01*
X0163900Y0536300D02*
X0158700Y0536300D01*
X0158700Y0526300D02*
X0163900Y0526300D01*
X0163900Y0516300D02*
X0158700Y0516300D01*
X0158700Y0506300D02*
X0163900Y0506300D01*
X0163900Y0496300D02*
X0158700Y0496300D01*
X0158700Y0486300D02*
X0163900Y0486300D01*
X0103900Y0486300D02*
X0098700Y0486300D01*
X0098700Y0476300D02*
X0103900Y0476300D01*
X0103900Y0466300D02*
X0098700Y0466300D01*
X0098700Y0456300D02*
X0103900Y0456300D01*
X0103900Y0446300D02*
X0098700Y0446300D01*
X0098700Y0436300D02*
X0103900Y0436300D01*
X0103900Y0426300D02*
X0098700Y0426300D01*
X0098700Y0416300D02*
X0103900Y0416300D01*
X0158700Y0361300D02*
X0163900Y0361300D01*
X0163900Y0351300D02*
X0158700Y0351300D01*
X0158700Y0341300D02*
X0163900Y0341300D01*
X0163900Y0331300D02*
X0158700Y0331300D01*
X0158700Y0321300D02*
X0163900Y0321300D01*
X0163900Y0311300D02*
X0158700Y0311300D01*
X0158700Y0301300D02*
X0163900Y0301300D01*
X0381300Y0183900D02*
X0381300Y0178700D01*
X0391300Y0178700D02*
X0391300Y0183900D01*
X0401300Y0183900D02*
X0401300Y0178700D01*
X0411300Y0178700D02*
X0411300Y0183900D01*
X0421300Y0183900D02*
X0421300Y0178700D01*
X0431300Y0178700D02*
X0431300Y0183900D01*
X0441300Y0183900D02*
X0441300Y0178700D01*
X0443700Y0151300D02*
X0448900Y0151300D01*
X0463700Y0151300D02*
X0468900Y0151300D01*
X0468900Y0141300D02*
X0463700Y0141300D01*
X0448900Y0141300D02*
X0443700Y0141300D01*
X0443700Y0131300D02*
X0448900Y0131300D01*
X0448900Y0121300D02*
X0443700Y0121300D01*
X0443700Y0111300D02*
X0448900Y0111300D01*
X0448900Y0101300D02*
X0443700Y0101300D01*
X0443700Y0091300D02*
X0448900Y0091300D01*
X0463700Y0091300D02*
X0468900Y0091300D01*
X0468900Y0081300D02*
X0463700Y0081300D01*
X0448900Y0081300D02*
X0443700Y0081300D01*
X0463700Y0101300D02*
X0468900Y0101300D01*
X0468900Y0111300D02*
X0463700Y0111300D01*
X0463700Y0121300D02*
X0468900Y0121300D01*
X0468900Y0131300D02*
X0463700Y0131300D01*
X0493700Y0131300D02*
X0498900Y0131300D01*
X0498900Y0121300D02*
X0493700Y0121300D01*
X0493700Y0111300D02*
X0498900Y0111300D01*
X0498900Y0101300D02*
X0493700Y0101300D01*
X0493700Y0091300D02*
X0498900Y0091300D01*
X0518700Y0091300D02*
X0523900Y0091300D01*
X0523900Y0081300D02*
X0518700Y0081300D01*
X0498900Y0081300D02*
X0493700Y0081300D01*
X0518700Y0101300D02*
X0523900Y0101300D01*
X0523900Y0111300D02*
X0518700Y0111300D01*
X0518700Y0121300D02*
X0523900Y0121300D01*
X0523900Y0131300D02*
X0518700Y0131300D01*
X0518700Y0141300D02*
X0523900Y0141300D01*
X0548700Y0141300D02*
X0553900Y0141300D01*
X0553900Y0131300D02*
X0548700Y0131300D01*
X0548700Y0121300D02*
X0553900Y0121300D01*
X0553900Y0111300D02*
X0548700Y0111300D01*
X0548700Y0101300D02*
X0553900Y0101300D01*
X0553900Y0091300D02*
X0548700Y0091300D01*
X0548700Y0081300D02*
X0553900Y0081300D01*
X0498900Y0141300D02*
X0493700Y0141300D01*
X0493700Y0151300D02*
X0498900Y0151300D01*
X0718700Y0231300D02*
X0723900Y0231300D01*
X0738700Y0231300D02*
X0743900Y0231300D01*
X0743900Y0221300D02*
X0738700Y0221300D01*
X0738700Y0241300D02*
X0743900Y0241300D01*
X0743900Y0251300D02*
X0738700Y0251300D01*
X0738700Y0261300D02*
X0743900Y0261300D01*
X0723900Y0261300D02*
X0718700Y0261300D01*
X0718700Y0251300D02*
X0723900Y0251300D01*
X0723900Y0241300D02*
X0718700Y0241300D01*
X0718700Y0291300D02*
X0723900Y0291300D01*
X0923700Y0296300D02*
X0928900Y0296300D01*
X0928900Y0306300D02*
X0923700Y0306300D01*
X0923700Y0316300D02*
X0928900Y0316300D01*
X0928900Y0326300D02*
X0923700Y0326300D01*
X0923700Y0336300D02*
X0928900Y0336300D01*
X0928900Y0346300D02*
X0923700Y0346300D01*
X0923700Y0356300D02*
X0928900Y0356300D01*
X0928900Y0366300D02*
X0923700Y0366300D01*
X0923700Y0376300D02*
X0928900Y0376300D01*
X0928900Y0386300D02*
X0923700Y0386300D01*
X0923700Y0396300D02*
X0928900Y0396300D01*
X0928900Y0406300D02*
X0923700Y0406300D01*
X0953700Y0406300D02*
X0958900Y0406300D01*
X0958900Y0396300D02*
X0953700Y0396300D01*
X0953700Y0386300D02*
X0958900Y0386300D01*
X0958900Y0376300D02*
X0953700Y0376300D01*
X0953700Y0366300D02*
X0958900Y0366300D01*
X0958900Y0356300D02*
X0953700Y0356300D01*
X0953700Y0346300D02*
X0958900Y0346300D01*
X0958900Y0336300D02*
X0953700Y0336300D01*
X0953700Y0326300D02*
X0958900Y0326300D01*
X0958900Y0316300D02*
X0953700Y0316300D01*
X0953700Y0306300D02*
X0958900Y0306300D01*
X0958900Y0296300D02*
X0953700Y0296300D01*
X1008700Y0296300D02*
X1013900Y0296300D01*
X1013900Y0306300D02*
X1008700Y0306300D01*
X1008700Y0316300D02*
X1013900Y0316300D01*
X1013900Y0326300D02*
X1008700Y0326300D01*
X1008700Y0336300D02*
X1013900Y0336300D01*
X1013900Y0346300D02*
X1008700Y0346300D01*
X1008700Y0356300D02*
X1013900Y0356300D01*
X1013900Y0366300D02*
X1008700Y0366300D01*
X1008700Y0376300D02*
X1013900Y0376300D01*
X1013900Y0386300D02*
X1008700Y0386300D01*
X1008700Y0396300D02*
X1013900Y0396300D01*
X1013900Y0406300D02*
X1008700Y0406300D01*
X1038700Y0406300D02*
X1043900Y0406300D01*
X1043900Y0396300D02*
X1038700Y0396300D01*
X1038700Y0386300D02*
X1043900Y0386300D01*
X1043900Y0376300D02*
X1038700Y0376300D01*
X1038700Y0366300D02*
X1043900Y0366300D01*
X1043900Y0356300D02*
X1038700Y0356300D01*
X1038700Y0346300D02*
X1043900Y0346300D01*
X1043900Y0336300D02*
X1038700Y0336300D01*
X1038700Y0326300D02*
X1043900Y0326300D01*
X1043900Y0316300D02*
X1038700Y0316300D01*
X1038700Y0306300D02*
X1043900Y0306300D01*
X1043900Y0296300D02*
X1038700Y0296300D01*
X1098700Y0321300D02*
X1103900Y0321300D01*
X1103900Y0331300D02*
X1098700Y0331300D01*
X1098700Y0341300D02*
X1103900Y0341300D01*
X1103900Y0351300D02*
X1098700Y0351300D01*
X1098700Y0361300D02*
X1103900Y0361300D01*
X1103900Y0371300D02*
X1098700Y0371300D01*
X1098700Y0381300D02*
X1103900Y0381300D01*
X1103900Y0391300D02*
X1098700Y0391300D01*
X1098700Y0401300D02*
X1103900Y0401300D01*
X1103900Y0411300D02*
X1098700Y0411300D01*
X1128700Y0411300D02*
X1133900Y0411300D01*
X1133900Y0401300D02*
X1128700Y0401300D01*
X1128700Y0391300D02*
X1133900Y0391300D01*
X1133900Y0381300D02*
X1128700Y0381300D01*
X1128700Y0371300D02*
X1133900Y0371300D01*
X1133900Y0361300D02*
X1128700Y0361300D01*
X1128700Y0351300D02*
X1133900Y0351300D01*
X1133900Y0341300D02*
X1128700Y0341300D01*
X1128700Y0331300D02*
X1133900Y0331300D01*
X1133900Y0321300D02*
X1128700Y0321300D01*
X1058900Y0261300D02*
X1053700Y0261300D01*
X1053700Y0251300D02*
X1058900Y0251300D01*
X1058900Y0241300D02*
X1053700Y0241300D01*
X1053700Y0231300D02*
X1058900Y0231300D01*
X1058900Y0221300D02*
X1053700Y0221300D01*
X1053700Y0211300D02*
X1058900Y0211300D01*
X1058900Y0201300D02*
X1053700Y0201300D01*
X1028900Y0201300D02*
X1023700Y0201300D01*
X1023700Y0211300D02*
X1028900Y0211300D01*
X1008900Y0206300D02*
X1003700Y0206300D01*
X1003700Y0196300D02*
X1008900Y0196300D01*
X1008900Y0186300D02*
X1003700Y0186300D01*
X0958900Y0181300D02*
X0953700Y0181300D01*
X0953700Y0171300D02*
X0958900Y0171300D01*
X0958900Y0191300D02*
X0953700Y0191300D01*
X0953700Y0201300D02*
X0958900Y0201300D01*
X0958900Y0211300D02*
X0953700Y0211300D01*
X0953700Y0221300D02*
X0958900Y0221300D01*
X0958900Y0231300D02*
X0953700Y0231300D01*
X0928900Y0231300D02*
X0923700Y0231300D01*
X0923700Y0221300D02*
X0928900Y0221300D01*
X0928900Y0211300D02*
X0923700Y0211300D01*
X0923700Y0201300D02*
X0928900Y0201300D01*
X0928900Y0191300D02*
X0923700Y0191300D01*
X0923700Y0181300D02*
X0928900Y0181300D01*
X0928900Y0171300D02*
X0923700Y0171300D01*
X1003700Y0216300D02*
X1008900Y0216300D01*
X1023700Y0221300D02*
X1028900Y0221300D01*
X1028900Y0231300D02*
X1023700Y0231300D01*
X1008900Y0236300D02*
X1003700Y0236300D01*
X1003700Y0226300D02*
X1008900Y0226300D01*
X1023700Y0241300D02*
X1028900Y0241300D01*
X1028900Y0251300D02*
X1023700Y0251300D01*
X1023700Y0261300D02*
X1028900Y0261300D01*
X1098700Y0166300D02*
X1103900Y0166300D01*
X1103900Y0156300D02*
X1098700Y0156300D01*
X1098700Y0146300D02*
X1103900Y0146300D01*
X1103900Y0136300D02*
X1098700Y0136300D01*
X1098700Y0126300D02*
X1103900Y0126300D01*
X1103900Y0116300D02*
X1098700Y0116300D01*
X1098700Y0106300D02*
X1103900Y0106300D01*
X1103900Y0096300D02*
X1098700Y0096300D01*
X1098700Y0086300D02*
X1103900Y0086300D01*
X1103900Y0076300D02*
X1098700Y0076300D01*
X1128700Y0076300D02*
X1133900Y0076300D01*
X1133900Y0086300D02*
X1128700Y0086300D01*
X1128700Y0096300D02*
X1133900Y0096300D01*
X1133900Y0106300D02*
X1128700Y0106300D01*
X1128700Y0116300D02*
X1133900Y0116300D01*
X1133900Y0126300D02*
X1128700Y0126300D01*
X1128700Y0136300D02*
X1133900Y0136300D01*
X1133900Y0146300D02*
X1128700Y0146300D01*
X1128700Y0156300D02*
X1133900Y0156300D01*
X1133900Y0166300D02*
X1128700Y0166300D01*
X0958900Y0101300D02*
X0953700Y0101300D01*
X0953700Y0091300D02*
X0958900Y0091300D01*
X0958900Y0081300D02*
X0953700Y0081300D01*
X0953700Y0071300D02*
X0958900Y0071300D01*
X0958900Y0061300D02*
X0953700Y0061300D01*
X0953700Y0051300D02*
X0958900Y0051300D01*
X0958900Y0041300D02*
X0953700Y0041300D01*
X0928900Y0041300D02*
X0923700Y0041300D01*
X0923700Y0051300D02*
X0928900Y0051300D01*
X0928900Y0061300D02*
X0923700Y0061300D01*
X0923700Y0071300D02*
X0928900Y0071300D01*
X0928900Y0081300D02*
X0923700Y0081300D01*
X0923700Y0091300D02*
X0928900Y0091300D01*
X0928900Y0101300D02*
X0923700Y0101300D01*
X0853900Y0101300D02*
X0848700Y0101300D01*
X0848700Y0111300D02*
X0853900Y0111300D01*
X0853900Y0091300D02*
X0848700Y0091300D01*
X0848700Y0081300D02*
X0853900Y0081300D01*
X0823900Y0081300D02*
X0818700Y0081300D01*
X0818700Y0091300D02*
X0823900Y0091300D01*
X0823900Y0101300D02*
X0818700Y0101300D01*
X0818700Y0111300D02*
X0823900Y0111300D01*
X0423900Y0301300D02*
X0418700Y0301300D01*
X0418700Y0311300D02*
X0423900Y0311300D01*
X0423900Y0321300D02*
X0418700Y0321300D01*
X0418700Y0331300D02*
X0423900Y0331300D01*
X0423900Y0341300D02*
X0418700Y0341300D01*
X0418700Y0351300D02*
X0423900Y0351300D01*
X0638700Y0416300D02*
X0643900Y0416300D01*
X0643900Y0426300D02*
X0638700Y0426300D01*
X0638700Y0436300D02*
X0643900Y0436300D01*
X0658700Y0436300D02*
X0663900Y0436300D01*
X0663900Y0426300D02*
X0658700Y0426300D01*
X0658700Y0416300D02*
X0663900Y0416300D01*
X0663900Y0446300D02*
X0658700Y0446300D01*
X0658700Y0456300D02*
X0663900Y0456300D01*
X0643900Y0456300D02*
X0638700Y0456300D01*
X0638700Y0446300D02*
X0643900Y0446300D01*
X0643900Y0466300D02*
X0638700Y0466300D01*
X0638700Y0476300D02*
X0643900Y0476300D01*
X0658700Y0476300D02*
X0663900Y0476300D01*
X0663900Y0466300D02*
X0658700Y0466300D01*
X0658700Y0486300D02*
X0663900Y0486300D01*
X0643900Y0486300D02*
X0638700Y0486300D01*
X0638700Y0496300D02*
X0643900Y0496300D01*
X0643900Y0506300D02*
X0638700Y0506300D01*
X0638700Y0516300D02*
X0643900Y0516300D01*
X0643900Y0526300D02*
X0638700Y0526300D01*
X0638700Y0536300D02*
X0643900Y0536300D01*
X0658700Y0536300D02*
X0663900Y0536300D01*
X0663900Y0526300D02*
X0658700Y0526300D01*
X0658700Y0516300D02*
X0663900Y0516300D01*
X0663900Y0506300D02*
X0658700Y0506300D01*
X0658700Y0496300D02*
X0663900Y0496300D01*
X0718700Y0496300D02*
X0723900Y0496300D01*
X0723900Y0506300D02*
X0718700Y0506300D01*
X0718700Y0516300D02*
X0723900Y0516300D01*
X0723900Y0526300D02*
X0718700Y0526300D01*
X0718700Y0536300D02*
X0723900Y0536300D01*
X0723900Y0546300D02*
X0718700Y0546300D01*
X0718700Y0556300D02*
X0723900Y0556300D01*
X0723900Y0566300D02*
X0718700Y0566300D01*
X0771300Y0548900D02*
X0771300Y0543700D01*
X0781300Y0543700D02*
X0781300Y0548900D01*
X0791300Y0548900D02*
X0791300Y0543700D01*
X0801300Y0543700D02*
X0801300Y0548900D01*
X0811300Y0548900D02*
X0811300Y0543700D01*
X0821300Y0543700D02*
X0821300Y0548900D01*
X0831300Y0548900D02*
X0831300Y0543700D01*
X0841300Y0543700D02*
X0841300Y0548900D01*
X0851300Y0548900D02*
X0851300Y0543700D01*
X0851300Y0528900D02*
X0851300Y0523700D01*
X0841300Y0523700D02*
X0841300Y0528900D01*
X0831300Y0528900D02*
X0831300Y0523700D01*
X0821300Y0523700D02*
X0821300Y0528900D01*
X0811300Y0528900D02*
X0811300Y0523700D01*
X0801300Y0523700D02*
X0801300Y0528900D01*
X0791300Y0528900D02*
X0791300Y0523700D01*
X0781300Y0523700D02*
X0781300Y0528900D01*
X0771300Y0528900D02*
X0771300Y0523700D01*
X0771300Y0498900D02*
X0771300Y0493700D01*
X0781300Y0493700D02*
X0781300Y0498900D01*
X0791300Y0498900D02*
X0791300Y0493700D01*
X0801300Y0493700D02*
X0801300Y0498900D01*
X0811300Y0498900D02*
X0811300Y0493700D01*
X0821300Y0493700D02*
X0821300Y0498900D01*
X0831300Y0498900D02*
X0831300Y0493700D01*
X0841300Y0493700D02*
X0841300Y0498900D01*
X0851300Y0498900D02*
X0851300Y0493700D01*
X0861300Y0493700D02*
X0861300Y0498900D01*
X0861300Y0478900D02*
X0861300Y0473700D01*
X0851300Y0473700D02*
X0851300Y0478900D01*
X0841300Y0478900D02*
X0841300Y0473700D01*
X0831300Y0473700D02*
X0831300Y0478900D01*
X0821300Y0478900D02*
X0821300Y0473700D01*
X0811300Y0473700D02*
X0811300Y0478900D01*
X0801300Y0478900D02*
X0801300Y0473700D01*
X0791300Y0473700D02*
X0791300Y0478900D01*
X0781300Y0478900D02*
X0781300Y0473700D01*
X0771300Y0473700D02*
X0771300Y0478900D01*
X0723900Y0476300D02*
X0718700Y0476300D01*
X0718700Y0466300D02*
X0723900Y0466300D01*
X0723900Y0456300D02*
X0718700Y0456300D01*
X0718700Y0446300D02*
X0723900Y0446300D01*
X0723900Y0436300D02*
X0718700Y0436300D01*
X0718700Y0426300D02*
X0723900Y0426300D01*
X0723900Y0416300D02*
X0718700Y0416300D01*
X0771300Y0443700D02*
X0771300Y0448900D01*
X0781300Y0448900D02*
X0781300Y0443700D01*
X0791300Y0443700D02*
X0791300Y0448900D01*
X0801300Y0448900D02*
X0801300Y0443700D01*
X0811300Y0443700D02*
X0811300Y0448900D01*
X0821300Y0448900D02*
X0821300Y0443700D01*
X0831300Y0443700D02*
X0831300Y0448900D01*
X0841300Y0448900D02*
X0841300Y0443700D01*
X0851300Y0443700D02*
X0851300Y0448900D01*
X0861300Y0448900D02*
X0861300Y0443700D01*
X0901300Y0508700D02*
X0901300Y0513900D01*
X0911300Y0513900D02*
X0911300Y0508700D01*
X0921300Y0508700D02*
X0921300Y0513900D01*
X0931300Y0513900D02*
X0931300Y0508700D01*
X0941300Y0508700D02*
X0941300Y0513900D01*
X1008700Y0516300D02*
X1013900Y0516300D01*
X1013900Y0526300D02*
X1008700Y0526300D01*
X1038700Y0526300D02*
X1043900Y0526300D01*
X1043900Y0516300D02*
X1038700Y0516300D01*
X1038700Y0506300D02*
X1043900Y0506300D01*
X1043900Y0496300D02*
X1038700Y0496300D01*
X1038700Y0486300D02*
X1043900Y0486300D01*
X1043900Y0476300D02*
X1038700Y0476300D01*
X1038700Y0466300D02*
X1043900Y0466300D01*
X1043900Y0456300D02*
X1038700Y0456300D01*
X1038700Y0446300D02*
X1043900Y0446300D01*
X1043900Y0436300D02*
X1038700Y0436300D01*
X1013900Y0436300D02*
X1008700Y0436300D01*
X1008700Y0446300D02*
X1013900Y0446300D01*
X1013900Y0456300D02*
X1008700Y0456300D01*
X1008700Y0466300D02*
X1013900Y0466300D01*
X1013900Y0476300D02*
X1008700Y0476300D01*
X1008700Y0486300D02*
X1013900Y0486300D01*
X1013900Y0496300D02*
X1008700Y0496300D01*
X1008700Y0506300D02*
X1013900Y0506300D01*
X0861300Y0523700D02*
X0861300Y0528900D01*
X0851300Y0558700D02*
X0851300Y0563900D01*
X0841300Y0563900D02*
X0841300Y0558700D01*
X0831300Y0558700D02*
X0831300Y0563900D01*
X0821300Y0563900D02*
X0821300Y0558700D01*
X0811300Y0558700D02*
X0811300Y0563900D01*
X0801300Y0563900D02*
X0801300Y0558700D01*
X0791300Y0558700D02*
X0791300Y0563900D01*
X0781300Y0563900D02*
X0781300Y0558700D01*
X0781300Y0588700D02*
X0781300Y0593900D01*
X0791300Y0593900D02*
X0791300Y0588700D01*
X0801300Y0588700D02*
X0801300Y0593900D01*
X0811300Y0593900D02*
X0811300Y0588700D01*
X0821300Y0588700D02*
X0821300Y0593900D01*
X0831300Y0593900D02*
X0831300Y0588700D01*
X0841300Y0588700D02*
X0841300Y0593900D01*
X0851300Y0593900D02*
X0851300Y0588700D01*
X0723900Y0486300D02*
X0718700Y0486300D01*
X0663900Y0546300D02*
X0658700Y0546300D01*
X0658700Y0556300D02*
X0663900Y0556300D01*
X0643900Y0556300D02*
X0638700Y0556300D01*
X0638700Y0546300D02*
X0643900Y0546300D01*
X0643900Y0566300D02*
X0638700Y0566300D01*
X0658700Y0566300D02*
X0663900Y0566300D01*
X0583900Y0566300D02*
X0578700Y0566300D01*
X0563900Y0566300D02*
X0558700Y0566300D01*
X0558700Y0556300D02*
X0563900Y0556300D01*
X0563900Y0546300D02*
X0558700Y0546300D01*
X0578700Y0546300D02*
X0583900Y0546300D01*
X0583900Y0556300D02*
X0578700Y0556300D01*
X0578700Y0536300D02*
X0583900Y0536300D01*
X0583900Y0526300D02*
X0578700Y0526300D01*
X0578700Y0516300D02*
X0583900Y0516300D01*
X0583900Y0506300D02*
X0578700Y0506300D01*
X0578700Y0496300D02*
X0583900Y0496300D01*
X0563900Y0496300D02*
X0558700Y0496300D01*
X0558700Y0506300D02*
X0563900Y0506300D01*
X0563900Y0516300D02*
X0558700Y0516300D01*
X0558700Y0526300D02*
X0563900Y0526300D01*
X0563900Y0536300D02*
X0558700Y0536300D01*
X0423900Y0546300D02*
X0418700Y0546300D01*
X0418700Y0556300D02*
X0423900Y0556300D01*
X0403900Y0556300D02*
X0398700Y0556300D01*
X0398700Y0546300D02*
X0403900Y0546300D01*
X0403900Y0566300D02*
X0398700Y0566300D01*
X0418700Y0566300D02*
X0423900Y0566300D01*
X0343900Y0566300D02*
X0338700Y0566300D01*
X0323900Y0566300D02*
X0318700Y0566300D01*
X0318700Y0556300D02*
X0323900Y0556300D01*
X0323900Y0546300D02*
X0318700Y0546300D01*
X0338700Y0546300D02*
X0343900Y0546300D01*
X0343900Y0556300D02*
X0338700Y0556300D01*
X0338700Y0536300D02*
X0343900Y0536300D01*
X0343900Y0526300D02*
X0338700Y0526300D01*
X0338700Y0516300D02*
X0343900Y0516300D01*
X0343900Y0506300D02*
X0338700Y0506300D01*
X0338700Y0496300D02*
X0343900Y0496300D01*
X0323900Y0496300D02*
X0318700Y0496300D01*
X0318700Y0506300D02*
X0323900Y0506300D01*
X0323900Y0516300D02*
X0318700Y0516300D01*
X0318700Y0526300D02*
X0323900Y0526300D01*
X0323900Y0536300D02*
X0318700Y0536300D01*
X0263900Y0536300D02*
X0258700Y0536300D01*
X0243900Y0536300D02*
X0238700Y0536300D01*
X0238700Y0526300D02*
X0243900Y0526300D01*
X0243900Y0516300D02*
X0238700Y0516300D01*
X0238700Y0506300D02*
X0243900Y0506300D01*
X0243900Y0496300D02*
X0238700Y0496300D01*
X0258700Y0496300D02*
X0263900Y0496300D01*
X0263900Y0506300D02*
X0258700Y0506300D01*
X0258700Y0516300D02*
X0263900Y0516300D01*
X0263900Y0526300D02*
X0258700Y0526300D01*
X0258700Y0546300D02*
X0263900Y0546300D01*
X0263900Y0556300D02*
X0258700Y0556300D01*
X0243900Y0556300D02*
X0238700Y0556300D01*
X0238700Y0546300D02*
X0243900Y0546300D01*
X0243900Y0566300D02*
X0238700Y0566300D01*
X0258700Y0566300D02*
X0263900Y0566300D01*
X0183900Y0566300D02*
X0178700Y0566300D01*
X0163900Y0566300D02*
X0158700Y0566300D01*
X0158700Y0556300D02*
X0163900Y0556300D01*
X0163900Y0546300D02*
X0158700Y0546300D01*
X0178700Y0546300D02*
X0183900Y0546300D01*
X0183900Y0556300D02*
X0178700Y0556300D01*
X0103900Y0556300D02*
X0098700Y0556300D01*
X0098700Y0546300D02*
X0103900Y0546300D01*
X0103900Y0536300D02*
X0098700Y0536300D01*
X0098700Y0526300D02*
X0103900Y0526300D01*
X0103900Y0516300D02*
X0098700Y0516300D01*
X0098700Y0506300D02*
X0103900Y0506300D01*
X0103900Y0496300D02*
X0098700Y0496300D01*
X0098700Y0566300D02*
X0103900Y0566300D01*
D19*
X0151300Y0591300D03*
X0151300Y0601300D03*
X0161300Y0601300D03*
X0161300Y0591300D03*
X0471300Y0591300D03*
X0471300Y0601300D03*
X0481300Y0601300D03*
X0481300Y0591300D03*
X0481300Y0211300D03*
X0481300Y0201300D03*
X0471300Y0201300D03*
X0471300Y0211300D03*
X0161300Y0211300D03*
X0161300Y0201300D03*
X0151300Y0201300D03*
X0151300Y0211300D03*
D20*
X0099100Y0131300D02*
X0093500Y0131300D01*
X0093500Y0121300D02*
X0099100Y0121300D01*
X0099100Y0111300D02*
X0093500Y0111300D01*
X0573500Y0121300D02*
X0579100Y0121300D01*
X0579100Y0131300D02*
X0573500Y0131300D01*
X0573500Y0141300D02*
X0579100Y0141300D01*
X0603500Y0141300D02*
X0609100Y0141300D01*
X0609100Y0131300D02*
X0603500Y0131300D01*
X0603500Y0121300D02*
X0609100Y0121300D01*
X0761300Y0054100D02*
X0761300Y0048500D01*
X0771300Y0048500D02*
X0771300Y0054100D01*
X0873500Y0051300D02*
X0879100Y0051300D01*
X0879100Y0061300D02*
X0873500Y0061300D01*
X0873500Y0111300D02*
X0879100Y0111300D01*
X0879100Y0121300D02*
X0873500Y0121300D01*
X0791300Y0143500D02*
X0791300Y0149100D01*
X0781300Y0149100D02*
X0781300Y0143500D01*
X0978500Y0386300D02*
X0984100Y0386300D01*
X0984100Y0396300D02*
X0978500Y0396300D01*
X0974100Y0576300D02*
X0968500Y0576300D01*
X0968500Y0586300D02*
X0974100Y0586300D01*
X0974100Y0596300D02*
X0968500Y0596300D01*
X0998500Y0596300D02*
X1004100Y0596300D01*
X1018500Y0596300D02*
X1024100Y0596300D01*
X1024100Y0586300D02*
X1018500Y0586300D01*
X1004100Y0586300D02*
X0998500Y0586300D01*
X0998500Y0576300D02*
X1004100Y0576300D01*
X1043500Y0586300D02*
X1049100Y0586300D01*
X1049100Y0596300D02*
X1043500Y0596300D01*
X1068500Y0596300D02*
X1074100Y0596300D01*
X1074100Y0586300D02*
X1068500Y0586300D01*
D21*
X0686300Y0152954D03*
X0686300Y0074213D03*
D22*
X0971300Y0306300D03*
X0996300Y0336300D03*
X0996300Y0346300D03*
X0996300Y0356300D03*
X0996300Y0366300D03*
X1056300Y0366300D03*
X1056300Y0376300D03*
X1056300Y0386300D03*
X1056300Y0356300D03*
X1056300Y0346300D03*
X1056300Y0336300D03*
X1056300Y0326300D03*
X1056300Y0316300D03*
X1056300Y0306300D03*
X0821300Y0431300D03*
X0781300Y0431300D03*
M02*
