G75*
%MOIN*%
%OFA0B0*%
%FSLAX25Y25*%
%IPPOS*%
%LPD*%
%AMOC8*
5,1,8,0,0,1.08239X$1,22.5*
%
%ADD10C,0.00600*%
%ADD11C,0.00500*%
D10*
X0872300Y0272800D02*
X0872300Y0289800D01*
X0872302Y0289860D01*
X0872307Y0289921D01*
X0872316Y0289980D01*
X0872329Y0290039D01*
X0872345Y0290098D01*
X0872365Y0290155D01*
X0872388Y0290210D01*
X0872415Y0290265D01*
X0872444Y0290317D01*
X0872477Y0290368D01*
X0872513Y0290417D01*
X0872551Y0290463D01*
X0872593Y0290507D01*
X0872637Y0290549D01*
X0872683Y0290587D01*
X0872732Y0290623D01*
X0872783Y0290656D01*
X0872835Y0290685D01*
X0872890Y0290712D01*
X0872945Y0290735D01*
X0873002Y0290755D01*
X0873061Y0290771D01*
X0873120Y0290784D01*
X0873179Y0290793D01*
X0873240Y0290798D01*
X0873300Y0290800D01*
X0879300Y0290800D01*
X0879360Y0290798D01*
X0879421Y0290793D01*
X0879480Y0290784D01*
X0879539Y0290771D01*
X0879598Y0290755D01*
X0879655Y0290735D01*
X0879710Y0290712D01*
X0879765Y0290685D01*
X0879817Y0290656D01*
X0879868Y0290623D01*
X0879917Y0290587D01*
X0879963Y0290549D01*
X0880007Y0290507D01*
X0880049Y0290463D01*
X0880087Y0290417D01*
X0880123Y0290368D01*
X0880156Y0290317D01*
X0880185Y0290265D01*
X0880212Y0290210D01*
X0880235Y0290155D01*
X0880255Y0290098D01*
X0880271Y0290039D01*
X0880284Y0289980D01*
X0880293Y0289921D01*
X0880298Y0289860D01*
X0880300Y0289800D01*
X0880300Y0272800D01*
X0880298Y0272740D01*
X0880293Y0272679D01*
X0880284Y0272620D01*
X0880271Y0272561D01*
X0880255Y0272502D01*
X0880235Y0272445D01*
X0880212Y0272390D01*
X0880185Y0272335D01*
X0880156Y0272283D01*
X0880123Y0272232D01*
X0880087Y0272183D01*
X0880049Y0272137D01*
X0880007Y0272093D01*
X0879963Y0272051D01*
X0879917Y0272013D01*
X0879868Y0271977D01*
X0879817Y0271944D01*
X0879765Y0271915D01*
X0879710Y0271888D01*
X0879655Y0271865D01*
X0879598Y0271845D01*
X0879539Y0271829D01*
X0879480Y0271816D01*
X0879421Y0271807D01*
X0879360Y0271802D01*
X0879300Y0271800D01*
X0873300Y0271800D01*
X0873240Y0271802D01*
X0873179Y0271807D01*
X0873120Y0271816D01*
X0873061Y0271829D01*
X0873002Y0271845D01*
X0872945Y0271865D01*
X0872890Y0271888D01*
X0872835Y0271915D01*
X0872783Y0271944D01*
X0872732Y0271977D01*
X0872683Y0272013D01*
X0872637Y0272051D01*
X0872593Y0272093D01*
X0872551Y0272137D01*
X0872513Y0272183D01*
X0872477Y0272232D01*
X0872444Y0272283D01*
X0872415Y0272335D01*
X0872388Y0272390D01*
X0872365Y0272445D01*
X0872345Y0272502D01*
X0872329Y0272561D01*
X0872316Y0272620D01*
X0872307Y0272679D01*
X0872302Y0272740D01*
X0872300Y0272800D01*
X0873300Y0296800D02*
X0879300Y0296800D01*
X0879360Y0296802D01*
X0879421Y0296807D01*
X0879480Y0296816D01*
X0879539Y0296829D01*
X0879598Y0296845D01*
X0879655Y0296865D01*
X0879710Y0296888D01*
X0879765Y0296915D01*
X0879817Y0296944D01*
X0879868Y0296977D01*
X0879917Y0297013D01*
X0879963Y0297051D01*
X0880007Y0297093D01*
X0880049Y0297137D01*
X0880087Y0297183D01*
X0880123Y0297232D01*
X0880156Y0297283D01*
X0880185Y0297335D01*
X0880212Y0297390D01*
X0880235Y0297445D01*
X0880255Y0297502D01*
X0880271Y0297561D01*
X0880284Y0297620D01*
X0880293Y0297679D01*
X0880298Y0297740D01*
X0880300Y0297800D01*
X0880300Y0314800D01*
X0880298Y0314860D01*
X0880293Y0314921D01*
X0880284Y0314980D01*
X0880271Y0315039D01*
X0880255Y0315098D01*
X0880235Y0315155D01*
X0880212Y0315210D01*
X0880185Y0315265D01*
X0880156Y0315317D01*
X0880123Y0315368D01*
X0880087Y0315417D01*
X0880049Y0315463D01*
X0880007Y0315507D01*
X0879963Y0315549D01*
X0879917Y0315587D01*
X0879868Y0315623D01*
X0879817Y0315656D01*
X0879765Y0315685D01*
X0879710Y0315712D01*
X0879655Y0315735D01*
X0879598Y0315755D01*
X0879539Y0315771D01*
X0879480Y0315784D01*
X0879421Y0315793D01*
X0879360Y0315798D01*
X0879300Y0315800D01*
X0873300Y0315800D01*
X0873240Y0315798D01*
X0873179Y0315793D01*
X0873120Y0315784D01*
X0873061Y0315771D01*
X0873002Y0315755D01*
X0872945Y0315735D01*
X0872890Y0315712D01*
X0872835Y0315685D01*
X0872783Y0315656D01*
X0872732Y0315623D01*
X0872683Y0315587D01*
X0872637Y0315549D01*
X0872593Y0315507D01*
X0872551Y0315463D01*
X0872513Y0315417D01*
X0872477Y0315368D01*
X0872444Y0315317D01*
X0872415Y0315265D01*
X0872388Y0315210D01*
X0872365Y0315155D01*
X0872345Y0315098D01*
X0872329Y0315039D01*
X0872316Y0314980D01*
X0872307Y0314921D01*
X0872302Y0314860D01*
X0872300Y0314800D01*
X0872300Y0297800D01*
X0872302Y0297740D01*
X0872307Y0297679D01*
X0872316Y0297620D01*
X0872329Y0297561D01*
X0872345Y0297502D01*
X0872365Y0297445D01*
X0872388Y0297390D01*
X0872415Y0297335D01*
X0872444Y0297283D01*
X0872477Y0297232D01*
X0872513Y0297183D01*
X0872551Y0297137D01*
X0872593Y0297093D01*
X0872637Y0297051D01*
X0872683Y0297013D01*
X0872732Y0296977D01*
X0872783Y0296944D01*
X0872835Y0296915D01*
X0872890Y0296888D01*
X0872945Y0296865D01*
X0873002Y0296845D01*
X0873061Y0296829D01*
X0873120Y0296816D01*
X0873179Y0296807D01*
X0873240Y0296802D01*
X0873300Y0296800D01*
D11*
X0881550Y0297801D02*
X0882301Y0297050D01*
X0881550Y0297801D02*
X0881550Y0299302D01*
X0882301Y0300053D01*
X0883051Y0300053D01*
X0883802Y0299302D01*
X0883802Y0297801D01*
X0884553Y0297050D01*
X0885303Y0297050D01*
X0886054Y0297801D01*
X0886054Y0299302D01*
X0885303Y0300053D01*
X0886054Y0303155D02*
X0886054Y0304656D01*
X0886054Y0303906D02*
X0882301Y0303906D01*
X0881550Y0303155D01*
X0881550Y0302405D01*
X0882301Y0301654D01*
X0881550Y0306258D02*
X0881550Y0309260D01*
X0881550Y0307759D02*
X0886054Y0307759D01*
X0884553Y0306258D01*
X0884553Y0284260D02*
X0885303Y0284260D01*
X0886054Y0283510D01*
X0886054Y0282008D01*
X0885303Y0281258D01*
X0886054Y0279656D02*
X0886054Y0278155D01*
X0886054Y0278906D02*
X0882301Y0278906D01*
X0881550Y0278155D01*
X0881550Y0277405D01*
X0882301Y0276654D01*
X0882301Y0275053D02*
X0881550Y0274302D01*
X0881550Y0272801D01*
X0882301Y0272050D01*
X0883802Y0272801D02*
X0883802Y0274302D01*
X0883051Y0275053D01*
X0882301Y0275053D01*
X0883802Y0272801D02*
X0884553Y0272050D01*
X0885303Y0272050D01*
X0886054Y0272801D01*
X0886054Y0274302D01*
X0885303Y0275053D01*
X0881550Y0281258D02*
X0884553Y0284260D01*
X0881550Y0284260D02*
X0881550Y0281258D01*
M02*
