%
M48
M72
T01C0.02400
T02C0.03200
T03C0.03250
T04C0.03600
T05C0.04000
T06C0.04400
T07C0.05118
T08C0.13000
T09C0.16000
%
T01
X128800Y62550
X116300Y70050
X181300Y56300
X207550Y72550
X232550Y86300
X252550Y67550
X277550Y67550
X271300Y42550
X271300Y37550
X235050Y33800
X316300Y72550
X346300Y57550
X350050Y63800
X352550Y45050
X376300Y71300
X386300Y77550
X405050Y63800
X410050Y67550
X431300Y56300
X475050Y60050
X507550Y72550
X545050Y52550
X527550Y48800
X582550Y62550
X527550Y126300
X507550Y132550
X531300Y146300
X452550Y136300
X427550Y152550
X427550Y160050
X378800Y170050
X370050Y160050
X375050Y152550
X341300Y172550
X325050Y168800
X325050Y158800
X325050Y147550
X307550Y142550
X285050Y150050
X280050Y165050
X302550Y193800
X291300Y195050
X296300Y202550
X282550Y198800
X265050Y195050
X255050Y202550
X247550Y200050
X221300Y197550
X198800Y202550
X181300Y195050
X172550Y215050
X191300Y226300
X203800Y230050
X207550Y235050
X231300Y215050
X275050Y215050
X297550Y227550
X322550Y222550
X331300Y206300
X336300Y201300
X341300Y206300
X360050Y195050
X376300Y195050
X335050Y192550
X356300Y236300
X295050Y270050
X295050Y282550
X275050Y250050
X202550Y286300
X302550Y358800
X300050Y392550
X328800Y398800
X336300Y407550
X350050Y392550
X310050Y415050
X257550Y407550
X235050Y402550
X230050Y407550
X187550Y386300
X155050Y386300
X275050Y450050
X233800Y452550
X175050Y471300
X233800Y586300
X410050Y467550
X417550Y407550
X433800Y392550
X451300Y357550
X512550Y385050
X540050Y415050
X572550Y402550
X596300Y395050
X588800Y385050
X588800Y367550
X648800Y397550
X667550Y407550
X683800Y397550
X691300Y390050
X691300Y415050
X677550Y455050
X627550Y415050
X540050Y451300
X676300Y551300
X650050Y561300
X623800Y575050
X543800Y575050
X540050Y590050
X706300Y572550
X715050Y561300
X747550Y536300
X745050Y516300
X797550Y515050
X840050Y485050
X875050Y488800
X900050Y476300
X903800Y455050
X885050Y436300
X913800Y422550
X896300Y411300
X846300Y436300
X836300Y440050
X827550Y431300
X871300Y465050
X935050Y472550
X967550Y471300
X951300Y506300
X992550Y525050
X955050Y550050
X886300Y562550
X876300Y562550
X850050Y515050
X995050Y591300
X1057550Y595050
X1062550Y570050
X1037550Y546300
X1061300Y535050
X1083800Y540050
X1091300Y532550
X1120050Y527550
X1166300Y550050
X1160050Y492550
X1155050Y470050
X1116300Y432550
X1086300Y455050
X1062550Y467550
X1026300Y490050
X1027550Y435050
X1050050Y427550
X1057550Y437550
X1027550Y400050
X1035050Y391300
X967550Y377550
X947550Y366300
X940050Y365050
X943800Y351300
X943800Y346300
X941300Y337550
X942550Y327550
X916300Y317550
X908800Y305050
X908800Y286300
X893800Y282550
X882550Y272550
X886300Y265050
X933800Y270050
X946300Y272550
X937550Y288800
X945050Y296300
X933800Y302550
X967550Y311300
X977550Y318800
X1025050Y331300
X1000050Y285050
X1012550Y272550
X1032550Y266300
X1075050Y285050
X1092550Y285050
X1111300Y292550
X1170050Y240050
X1088800Y198800
X1085050Y191300
X1081300Y187550
X1073800Y195050
X1065050Y187550
X1040050Y206300
X1020050Y206300
X983800Y205050
X983800Y212550
X1020050Y236300
X990050Y262550
X935050Y248800
X868800Y228800
X806300Y257550
X802550Y277550
X776300Y287550
X780050Y305050
X730050Y336300
X710050Y320050
X700050Y305050
X687550Y320050
X675050Y312550
X700050Y336300
X680050Y346300
X772550Y357550
X855050Y357550
X865050Y335050
X891300Y327550
X896300Y327550
X912550Y341300
X868800Y306300
X728800Y237550
X740050Y210050
X751300Y210050
X786300Y217550
X755050Y187550
X710050Y210050
X670050Y155050
X665050Y151300
X612550Y146300
X741300Y147550
X813800Y160050
X818800Y150050
X908800Y193800
X961300Y157550
X983800Y181300
X1016300Y170050
X982550Y127550
X915050Y153800
X805050Y88800
X782550Y62550
X767550Y37550
X867550Y42550
X915050Y73800
X906300Y77550
X872550Y85050
X936300Y52550
X946300Y62550
X966300Y46300
X1056300Y127550
X1117550Y116300
X1142550Y121300
X1117550Y97550
X1142550Y81300
X1125050Y61300
X1108800Y170050
X1112550Y173800
X1142550Y181300
X1165050Y191300
X855050Y381300
X947550Y430050
X967550Y430050
X967550Y411300
X967550Y405050
X515050Y222550
X475050Y226300
X467550Y233800
X463800Y250050
X455050Y246300
X458800Y262550
X447550Y268800
X432550Y231300
X426300Y190050
X480050Y192550
X406300Y127550
X328800Y92550
X236300Y136300
X228800Y126300
X203800Y127550
X182550Y136300
X180050Y127550
X172550Y126300
X157550Y125050
X205050Y95050
X125050Y152550
X116300Y157550
X105050Y181300
X191300Y173800
X211300Y162550
X235050Y170050
T02
X236300Y181300
X226300Y181300
X246300Y181300
X256300Y181300
X266300Y181300
X276300Y181300
X286300Y181300
X296300Y181300
X306300Y181300
X331300Y181300
X341300Y181300
X351300Y181300
X361300Y181300
X371300Y181300
X381300Y181300
X391300Y181300
X401300Y181300
X411300Y181300
X421300Y181300
X431300Y181300
X441300Y181300
X436300Y161300
X446300Y161300
X446300Y151300
X446300Y141300
X446300Y131300
X446300Y121300
X446300Y111300
X446300Y101300
X446300Y91300
X446300Y81300
X466300Y81300
X466300Y91300
X466300Y101300
X466300Y111300
X466300Y121300
X466300Y131300
X466300Y141300
X466300Y151300
X486300Y161300
X496300Y161300
X496300Y151300
X496300Y141300
X496300Y131300
X496300Y121300
X496300Y111300
X496300Y101300
X496300Y91300
X496300Y81300
X521300Y81300
X521300Y91300
X521300Y101300
X521300Y111300
X521300Y121300
X521300Y131300
X521300Y141300
X541300Y151300
X551300Y151300
X551300Y141300
X551300Y131300
X551300Y121300
X551300Y111300
X551300Y101300
X551300Y91300
X551300Y81300
X416300Y81300
X416300Y91300
X416300Y101300
X416300Y111300
X416300Y121300
X416300Y131300
X416300Y141300
X416300Y151300
X396300Y151300
X396300Y161300
X386300Y161300
X366300Y151300
X366300Y141300
X366300Y131300
X366300Y121300
X366300Y111300
X366300Y101300
X366300Y91300
X366300Y81300
X346300Y81300
X346300Y91300
X346300Y101300
X346300Y111300
X346300Y121300
X346300Y131300
X346300Y141300
X346300Y151300
X346300Y161300
X336300Y161300
X316300Y151300
X316300Y141300
X316300Y131300
X316300Y121300
X316300Y111300
X316300Y101300
X316300Y91300
X316300Y81300
X296300Y81300
X296300Y91300
X296300Y101300
X296300Y111300
X296300Y121300
X296300Y131300
X296300Y141300
X296300Y151300
X296300Y161300
X286300Y161300
X266300Y151300
X246300Y151300
X246300Y161300
X236300Y161300
X216300Y151300
X196300Y151300
X196300Y161300
X186300Y161300
X166300Y151300
X146300Y151300
X146300Y161300
X136300Y161300
X116300Y151300
X116300Y141300
X116300Y131300
X116300Y121300
X116300Y111300
X116300Y101300
X116300Y91300
X116300Y81300
X146300Y81300
X166300Y81300
X166300Y91300
X146300Y91300
X146300Y101300
X146300Y111300
X166300Y111300
X166300Y101300
X166300Y121300
X166300Y131300
X146300Y131300
X146300Y121300
X146300Y141300
X166300Y141300
X196300Y141300
X216300Y141300
X216300Y131300
X216300Y121300
X196300Y121300
X196300Y131300
X196300Y111300
X196300Y101300
X216300Y101300
X216300Y111300
X216300Y91300
X196300Y91300
X196300Y81300
X216300Y81300
X246300Y81300
X266300Y81300
X266300Y91300
X246300Y91300
X246300Y101300
X246300Y111300
X266300Y111300
X266300Y101300
X266300Y121300
X266300Y131300
X246300Y131300
X246300Y121300
X246300Y141300
X266300Y141300
X196300Y181300
X186300Y181300
X176300Y181300
X166300Y181300
X156300Y181300
X146300Y181300
X136300Y181300
X126300Y181300
X116300Y181300
X101300Y231300
X101300Y241300
X101300Y251300
X101300Y261300
X101300Y271300
X101300Y281300
X101300Y291300
X101300Y301300
X101300Y311300
X101300Y321300
X101300Y331300
X101300Y341300
X101300Y351300
X101300Y361300
X101300Y371300
X101300Y381300
X151300Y391300
X161300Y391300
X161300Y381300
X161300Y371300
X181300Y371300
X181300Y381300
X181300Y361300
X161300Y361300
X161300Y351300
X161300Y341300
X181300Y341300
X181300Y351300
X181300Y331300
X181300Y321300
X161300Y321300
X161300Y331300
X161300Y311300
X161300Y301300
X181300Y301300
X181300Y311300
X181300Y291300
X161300Y291300
X161300Y281300
X161300Y271300
X181300Y271300
X181300Y281300
X181300Y261300
X181300Y251300
X161300Y251300
X161300Y261300
X161300Y241300
X181300Y241300
X181300Y231300
X161300Y231300
X241300Y231300
X241300Y241300
X241300Y251300
X241300Y261300
X241300Y271300
X241300Y281300
X241300Y291300
X241300Y301300
X241300Y311300
X241300Y321300
X241300Y331300
X241300Y341300
X241300Y351300
X241300Y361300
X241300Y371300
X241300Y381300
X241300Y391300
X231300Y391300
X261300Y381300
X261300Y371300
X261300Y361300
X261300Y351300
X261300Y341300
X261300Y331300
X261300Y321300
X261300Y311300
X261300Y301300
X261300Y291300
X261300Y281300
X261300Y271300
X261300Y261300
X261300Y251300
X261300Y241300
X261300Y231300
X321300Y231300
X321300Y241300
X321300Y251300
X321300Y261300
X321300Y271300
X321300Y281300
X321300Y291300
X321300Y301300
X321300Y311300
X321300Y321300
X321300Y331300
X321300Y341300
X321300Y351300
X321300Y361300
X321300Y371300
X321300Y381300
X321300Y391300
X311300Y391300
X341300Y381300
X341300Y371300
X341300Y361300
X341300Y351300
X341300Y341300
X341300Y331300
X341300Y321300
X341300Y311300
X341300Y301300
X341300Y291300
X341300Y281300
X341300Y271300
X341300Y261300
X341300Y251300
X341300Y241300
X341300Y231300
X401300Y231300
X421300Y231300
X421300Y241300
X401300Y241300
X401300Y251300
X401300Y261300
X421300Y261300
X421300Y251300
X421300Y271300
X421300Y281300
X401300Y281300
X401300Y271300
X401300Y291300
X421300Y291300
X421300Y301300
X421300Y311300
X401300Y311300
X401300Y301300
X401300Y321300
X401300Y331300
X421300Y331300
X421300Y321300
X421300Y341300
X421300Y351300
X401300Y351300
X401300Y341300
X401300Y361300
X421300Y361300
X421300Y371300
X421300Y381300
X401300Y381300
X401300Y371300
X401300Y391300
X391300Y391300
X401300Y416300
X401300Y426300
X421300Y426300
X421300Y416300
X421300Y436300
X401300Y436300
X401300Y446300
X401300Y456300
X421300Y456300
X421300Y446300
X421300Y466300
X421300Y476300
X401300Y476300
X401300Y466300
X401300Y486300
X421300Y486300
X421300Y496300
X421300Y506300
X401300Y506300
X401300Y496300
X401300Y516300
X401300Y526300
X421300Y526300
X421300Y516300
X421300Y536300
X401300Y536300
X401300Y546300
X401300Y556300
X421300Y556300
X421300Y546300
X421300Y566300
X401300Y566300
X401300Y576300
X391300Y576300
X341300Y566300
X341300Y556300
X341300Y546300
X341300Y536300
X341300Y526300
X341300Y516300
X341300Y506300
X341300Y496300
X341300Y486300
X341300Y476300
X341300Y466300
X341300Y456300
X341300Y446300
X341300Y436300
X341300Y426300
X341300Y416300
X321300Y416300
X321300Y426300
X321300Y436300
X321300Y446300
X321300Y456300
X321300Y466300
X321300Y476300
X321300Y486300
X321300Y496300
X321300Y506300
X321300Y516300
X321300Y526300
X321300Y536300
X321300Y546300
X321300Y556300
X321300Y566300
X321300Y576300
X311300Y576300
X261300Y566300
X261300Y556300
X261300Y546300
X261300Y536300
X261300Y526300
X261300Y516300
X261300Y506300
X261300Y496300
X261300Y486300
X261300Y476300
X261300Y466300
X261300Y456300
X261300Y446300
X261300Y436300
X261300Y426300
X261300Y416300
X241300Y416300
X241300Y426300
X241300Y436300
X241300Y446300
X241300Y456300
X241300Y466300
X241300Y476300
X241300Y486300
X241300Y496300
X241300Y506300
X241300Y516300
X241300Y526300
X241300Y536300
X241300Y546300
X241300Y556300
X241300Y566300
X241300Y576300
X231300Y576300
X181300Y566300
X161300Y566300
X161300Y576300
X151300Y576300
X161300Y556300
X161300Y546300
X181300Y546300
X181300Y556300
X181300Y536300
X161300Y536300
X161300Y526300
X161300Y516300
X181300Y516300
X181300Y526300
X181300Y506300
X181300Y496300
X161300Y496300
X161300Y506300
X161300Y486300
X181300Y486300
X181300Y476300
X181300Y466300
X161300Y466300
X161300Y476300
X161300Y456300
X161300Y446300
X181300Y446300
X181300Y456300
X181300Y436300
X161300Y436300
X161300Y426300
X161300Y416300
X181300Y416300
X181300Y426300
X101300Y426300
X101300Y416300
X101300Y436300
X101300Y446300
X101300Y456300
X101300Y466300
X101300Y476300
X101300Y486300
X101300Y496300
X101300Y506300
X101300Y516300
X101300Y526300
X101300Y536300
X101300Y546300
X101300Y556300
X101300Y566300
X471300Y576300
X481300Y576300
X481300Y566300
X481300Y556300
X481300Y546300
X481300Y536300
X481300Y526300
X481300Y516300
X481300Y506300
X481300Y496300
X481300Y486300
X481300Y476300
X481300Y466300
X481300Y456300
X481300Y446300
X481300Y436300
X481300Y426300
X481300Y416300
X501300Y416300
X501300Y426300
X501300Y436300
X501300Y446300
X501300Y456300
X501300Y466300
X501300Y476300
X501300Y486300
X501300Y496300
X501300Y506300
X501300Y516300
X501300Y526300
X501300Y536300
X501300Y546300
X501300Y556300
X501300Y566300
X551300Y576300
X561300Y576300
X561300Y566300
X581300Y566300
X581300Y556300
X581300Y546300
X561300Y546300
X561300Y556300
X561300Y536300
X581300Y536300
X581300Y526300
X581300Y516300
X561300Y516300
X561300Y526300
X561300Y506300
X561300Y496300
X581300Y496300
X581300Y506300
X581300Y486300
X561300Y486300
X561300Y476300
X561300Y466300
X581300Y466300
X581300Y476300
X581300Y456300
X581300Y446300
X561300Y446300
X561300Y456300
X561300Y436300
X581300Y436300
X581300Y426300
X581300Y416300
X561300Y416300
X561300Y426300
X561300Y391300
X551300Y391300
X561300Y381300
X561300Y371300
X581300Y371300
X581300Y381300
X581300Y361300
X561300Y361300
X561300Y351300
X561300Y341300
X581300Y341300
X581300Y351300
X581300Y331300
X581300Y321300
X561300Y321300
X561300Y331300
X561300Y311300
X561300Y301300
X581300Y301300
X581300Y311300
X581300Y291300
X561300Y291300
X561300Y281300
X561300Y271300
X581300Y271300
X581300Y281300
X581300Y261300
X581300Y251300
X561300Y251300
X561300Y261300
X561300Y241300
X581300Y241300
X581300Y231300
X561300Y231300
X501300Y231300
X501300Y241300
X501300Y251300
X501300Y261300
X501300Y271300
X501300Y281300
X501300Y291300
X501300Y301300
X501300Y311300
X501300Y321300
X501300Y331300
X501300Y341300
X501300Y351300
X501300Y361300
X501300Y371300
X501300Y381300
X481300Y381300
X481300Y371300
X481300Y361300
X481300Y351300
X481300Y341300
X481300Y331300
X481300Y321300
X481300Y311300
X481300Y301300
X481300Y291300
X481300Y281300
X481300Y271300
X481300Y261300
X481300Y251300
X481300Y241300
X481300Y231300
X641300Y231300
X641300Y241300
X641300Y251300
X641300Y261300
X641300Y271300
X641300Y281300
X641300Y291300
X641300Y301300
X641300Y311300
X641300Y321300
X641300Y331300
X641300Y341300
X641300Y351300
X641300Y361300
X641300Y371300
X641300Y381300
X641300Y391300
X631300Y391300
X661300Y381300
X661300Y371300
X661300Y361300
X661300Y351300
X661300Y341300
X661300Y331300
X661300Y321300
X661300Y311300
X661300Y301300
X661300Y291300
X661300Y281300
X661300Y271300
X661300Y261300
X661300Y251300
X661300Y241300
X661300Y231300
X721300Y231300
X721300Y241300
X721300Y251300
X721300Y261300
X721300Y271300
X721300Y281300
X721300Y291300
X721300Y301300
X721300Y311300
X721300Y321300
X721300Y331300
X721300Y341300
X721300Y351300
X721300Y361300
X721300Y371300
X721300Y381300
X721300Y391300
X711300Y391300
X721300Y416300
X721300Y426300
X721300Y436300
X721300Y446300
X721300Y456300
X721300Y466300
X721300Y476300
X721300Y486300
X721300Y496300
X721300Y506300
X721300Y516300
X721300Y526300
X721300Y536300
X721300Y546300
X721300Y556300
X721300Y566300
X721300Y576300
X711300Y576300
X661300Y566300
X661300Y556300
X661300Y546300
X661300Y536300
X661300Y526300
X661300Y516300
X661300Y506300
X661300Y496300
X661300Y486300
X661300Y476300
X661300Y466300
X661300Y456300
X661300Y446300
X661300Y436300
X661300Y426300
X661300Y416300
X641300Y416300
X641300Y426300
X641300Y436300
X641300Y446300
X641300Y456300
X641300Y466300
X641300Y476300
X641300Y486300
X641300Y496300
X641300Y506300
X641300Y516300
X641300Y526300
X641300Y536300
X641300Y546300
X641300Y556300
X641300Y566300
X641300Y576300
X631300Y576300
X761300Y526300
X761300Y516300
X771300Y526300
X781300Y526300
X791300Y526300
X801300Y526300
X811300Y526300
X821300Y526300
X831300Y526300
X841300Y526300
X851300Y526300
X861300Y526300
X901300Y511300
X911300Y511300
X921300Y511300
X931300Y511300
X941300Y511300
X881300Y486300
X861300Y476300
X851300Y476300
X841300Y476300
X831300Y476300
X821300Y476300
X811300Y476300
X801300Y476300
X791300Y476300
X781300Y476300
X771300Y476300
X761300Y476300
X761300Y466300
X771300Y446300
X781300Y446300
X791300Y446300
X801300Y446300
X811300Y446300
X821300Y446300
X831300Y446300
X841300Y446300
X851300Y446300
X861300Y446300
X881300Y456300
X946300Y416300
X956300Y416300
X956300Y406300
X956300Y396300
X956300Y386300
X956300Y376300
X956300Y366300
X956300Y356300
X956300Y346300
X956300Y336300
X956300Y326300
X956300Y316300
X956300Y306300
X956300Y296300
X976300Y286300
X1011300Y296300
X1011300Y306300
X1011300Y316300
X1011300Y326300
X1011300Y336300
X1011300Y346300
X1011300Y356300
X1011300Y366300
X1011300Y376300
X996300Y376300
X1011300Y386300
X1011300Y396300
X1011300Y406300
X996300Y406300
X1031300Y416300
X1041300Y416300
X1041300Y406300
X1041300Y396300
X1041300Y386300
X1041300Y376300
X1041300Y366300
X1041300Y356300
X1041300Y346300
X1041300Y336300
X1041300Y326300
X1041300Y316300
X1041300Y306300
X1041300Y296300
X1046300Y271300
X1056300Y271300
X1056300Y261300
X1056300Y251300
X1056300Y241300
X1056300Y231300
X1056300Y221300
X1056300Y211300
X1056300Y201300
X1086300Y206300
X1096300Y206300
X1106300Y206300
X1136300Y206300
X1136300Y221300
X1136300Y236300
X1106300Y236300
X1096300Y236300
X1086300Y236300
X1086300Y221300
X1096300Y221300
X1106300Y221300
X1106300Y251300
X1096300Y251300
X1086300Y251300
X1086300Y266300
X1096300Y266300
X1106300Y266300
X1136300Y266300
X1136300Y251300
X1026300Y251300
X1026300Y261300
X1026300Y241300
X1026300Y231300
X1026300Y221300
X1026300Y211300
X1026300Y201300
X1006300Y196300
X1006300Y206300
X1006300Y216300
X1006300Y226300
X1006300Y236300
X976300Y256300
X956300Y241300
X946300Y241300
X956300Y231300
X956300Y221300
X956300Y211300
X956300Y201300
X956300Y191300
X956300Y181300
X956300Y171300
X926300Y171300
X926300Y181300
X926300Y191300
X926300Y201300
X926300Y211300
X926300Y221300
X926300Y231300
X921300Y256300
X951300Y256300
X926300Y296300
X926300Y306300
X926300Y316300
X926300Y326300
X926300Y336300
X926300Y346300
X926300Y356300
X926300Y366300
X926300Y376300
X926300Y386300
X926300Y396300
X926300Y406300
X906300Y406300
X906300Y376300
X1011300Y436300
X1011300Y446300
X1011300Y456300
X1011300Y466300
X1011300Y476300
X1011300Y486300
X1011300Y496300
X1011300Y506300
X1011300Y516300
X1011300Y526300
X1031300Y536300
X1041300Y536300
X1041300Y526300
X1041300Y516300
X1041300Y506300
X1041300Y496300
X1041300Y486300
X1041300Y476300
X1041300Y466300
X1041300Y456300
X1041300Y446300
X1041300Y436300
X1101300Y411300
X1101300Y401300
X1101300Y391300
X1101300Y381300
X1101300Y371300
X1101300Y361300
X1101300Y351300
X1101300Y341300
X1101300Y331300
X1101300Y321300
X1131300Y321300
X1131300Y331300
X1131300Y341300
X1131300Y351300
X1131300Y361300
X1131300Y371300
X1131300Y381300
X1131300Y391300
X1131300Y401300
X1131300Y411300
X1131300Y421300
X1121300Y421300
X1101300Y486300
X1091300Y486300
X1126300Y491300
X1146300Y491300
X1146300Y516300
X1126300Y516300
X1106300Y516300
X1086300Y516300
X931300Y551300
X921300Y551300
X891300Y551300
X881300Y551300
X851300Y546300
X841300Y546300
X831300Y546300
X821300Y546300
X811300Y546300
X801300Y546300
X791300Y546300
X781300Y546300
X771300Y546300
X781300Y561300
X791300Y561300
X801300Y561300
X811300Y561300
X821300Y561300
X831300Y561300
X841300Y561300
X851300Y561300
X851300Y591300
X841300Y591300
X831300Y591300
X821300Y591300
X811300Y591300
X801300Y591300
X791300Y591300
X781300Y591300
X881300Y591300
X891300Y591300
X921300Y591300
X931300Y591300
X861300Y496300
X851300Y496300
X841300Y496300
X831300Y496300
X821300Y496300
X811300Y496300
X801300Y496300
X791300Y496300
X781300Y496300
X771300Y496300
X481300Y391300
X471300Y391300
X741300Y301300
X741300Y291300
X741300Y281300
X741300Y271300
X741300Y261300
X741300Y251300
X741300Y241300
X741300Y231300
X741300Y221300
X821300Y136300
X851300Y136300
X851300Y111300
X851300Y101300
X851300Y91300
X851300Y81300
X821300Y81300
X821300Y91300
X821300Y101300
X821300Y111300
X841300Y56300
X791300Y56300
X926300Y51300
X926300Y61300
X926300Y71300
X926300Y81300
X926300Y91300
X926300Y101300
X946300Y111300
X956300Y111300
X956300Y101300
X956300Y91300
X956300Y81300
X956300Y71300
X956300Y61300
X956300Y51300
X956300Y41300
X926300Y41300
X971300Y66300
X971300Y76300
X971300Y86300
X971300Y116300
X1101300Y116300
X1101300Y106300
X1101300Y96300
X1101300Y86300
X1101300Y76300
X1131300Y76300
X1131300Y86300
X1131300Y96300
X1131300Y106300
X1131300Y116300
X1131300Y126300
X1131300Y136300
X1131300Y146300
X1131300Y156300
X1131300Y166300
X1131300Y176300
X1121300Y176300
X1101300Y166300
X1101300Y156300
X1101300Y146300
X1101300Y136300
X1101300Y126300
X1006300Y186300
X396300Y141300
X396300Y131300
X396300Y121300
X396300Y111300
X396300Y101300
X396300Y91300
X396300Y81300
T03
X1176300Y81300
X1176300Y71300
X1206300Y71300
X1206300Y81300
X1206300Y91300
X1206300Y101300
X1206300Y111300
X1206300Y121300
X1206300Y131300
X1206300Y141300
X1206300Y151300
X1206300Y161300
X1206300Y171300
X1206300Y181300
X1206300Y191300
X1206300Y201300
X1206300Y211300
X1206300Y221300
X1206300Y231300
X1206300Y241300
X1206300Y251300
X1206300Y261300
X1206300Y271300
X1206300Y281300
X1206300Y291300
X1206300Y301300
X1206300Y311300
X1176300Y311300
X1176300Y301300
X1176300Y291300
X1176300Y281300
X1176300Y271300
X1176300Y261300
X1176300Y251300
X1176300Y241300
X1176300Y231300
X1176300Y221300
X1176300Y211300
X1176300Y201300
X1176300Y191300
X1176300Y181300
X1176300Y171300
X1176300Y161300
X1176300Y151300
X1176300Y141300
X1176300Y131300
X1176300Y121300
X1176300Y111300
X1176300Y101300
X1176300Y91300
X1176300Y331300
X1176300Y341300
X1176300Y351300
X1176300Y361300
X1176300Y371300
X1176300Y381300
X1176300Y391300
X1176300Y401300
X1176300Y411300
X1176300Y421300
X1176300Y431300
X1176300Y441300
X1176300Y451300
X1176300Y461300
X1176300Y471300
X1176300Y481300
X1176300Y491300
X1176300Y501300
X1176300Y511300
X1176300Y521300
X1176300Y531300
X1176300Y541300
X1176300Y551300
X1176300Y561300
X1176300Y571300
X1206300Y571300
X1206300Y561300
X1206300Y551300
X1206300Y541300
X1206300Y531300
X1206300Y521300
X1206300Y511300
X1206300Y501300
X1206300Y491300
X1206300Y481300
X1206300Y471300
X1206300Y461300
X1206300Y451300
X1206300Y441300
X1206300Y431300
X1206300Y421300
X1206300Y411300
X1206300Y401300
X1206300Y391300
X1206300Y381300
X1206300Y371300
X1206300Y361300
X1206300Y351300
X1206300Y341300
X1206300Y331300
T04
X981300Y386300
X981300Y396300
X971300Y576300
X971300Y586300
X971300Y596300
X1001300Y596300
X1001300Y586300
X1001300Y576300
X1021300Y586300
X1021300Y596300
X1046300Y596300
X1046300Y586300
X1071300Y586300
X1071300Y596300
X481300Y591300
X481300Y601300
X471300Y601300
X471300Y591300
X161300Y591300
X161300Y601300
X151300Y601300
X151300Y591300
X151300Y211300
X151300Y201300
X161300Y201300
X161300Y211300
X96300Y131300
X96300Y121300
X96300Y111300
X471300Y201300
X471300Y211300
X481300Y211300
X481300Y201300
X576300Y141300
X576300Y131300
X576300Y121300
X606300Y121300
X606300Y131300
X606300Y141300
X781300Y146300
X791300Y146300
X876300Y121300
X876300Y111300
X876300Y61300
X876300Y51300
X771300Y51300
X761300Y51300
T05
X1191300Y71300
X1191300Y81300
X1191300Y91300
X1191300Y101300
X1191300Y111300
X1191300Y121300
X1191300Y131300
X1191300Y141300
X1191300Y151300
X1191300Y161300
X1191300Y171300
X1191300Y181300
X1191300Y191300
X1191300Y201300
X1191300Y211300
X1191300Y221300
X1191300Y231300
X1191300Y241300
X1191300Y251300
X1191300Y261300
X1191300Y271300
X1191300Y281300
X1191300Y291300
X1191300Y301300
X1191300Y311300
X1191300Y331300
X1191300Y341300
X1191300Y351300
X1191300Y361300
X1191300Y371300
X1191300Y381300
X1191300Y391300
X1191300Y401300
X1191300Y411300
X1191300Y421300
X1191300Y431300
X1191300Y441300
X1191300Y451300
X1191300Y461300
X1191300Y471300
X1191300Y481300
X1191300Y491300
X1191300Y501300
X1191300Y511300
X1191300Y521300
X1191300Y531300
X1191300Y541300
X1191300Y551300
X1191300Y561300
X1191300Y571300
X1181300Y601300
X1171300Y601300
X1161300Y601300
X821300Y431300
X781300Y431300
X996300Y366300
X996300Y356300
X996300Y346300
X996300Y336300
X971300Y306300
X1056300Y306300
X1056300Y316300
X1056300Y326300
X1056300Y336300
X1056300Y346300
X1056300Y356300
X1056300Y366300
X1056300Y376300
X1056300Y386300
T06
X1106300Y541300
X1116300Y541300
X1126300Y541300
X791300Y126300
X771300Y126300
X751300Y126300
X751300Y76300
X771300Y76300
X791300Y76300
T07
X686300Y74213
X686300Y152954
T08
X1116300Y600300
T09
X36300Y516300
X36300Y416300
X36300Y316300
X36300Y216300
X36300Y116300
M30
