G75*
%MOIN*%
%OFA0B0*%
%FSLAX25Y25*%
%IPPOS*%
%LPD*%
%AMOC8*
5,1,8,0,0,1.08239X$1,22.5*
%
%ADD10C,0.00000*%
D10*
X0011300Y0001300D02*
X0011300Y0601300D01*
X0756300Y0601300D01*
X0756300Y0001300D01*
X0011300Y0001300D01*
X0115800Y0266300D02*
X0115802Y0266461D01*
X0115808Y0266621D01*
X0115818Y0266782D01*
X0115832Y0266942D01*
X0115850Y0267102D01*
X0115871Y0267261D01*
X0115897Y0267420D01*
X0115927Y0267578D01*
X0115960Y0267735D01*
X0115998Y0267892D01*
X0116039Y0268047D01*
X0116084Y0268201D01*
X0116133Y0268354D01*
X0116186Y0268506D01*
X0116242Y0268657D01*
X0116303Y0268806D01*
X0116366Y0268954D01*
X0116434Y0269100D01*
X0116505Y0269244D01*
X0116579Y0269386D01*
X0116657Y0269527D01*
X0116739Y0269665D01*
X0116824Y0269802D01*
X0116912Y0269936D01*
X0117004Y0270068D01*
X0117099Y0270198D01*
X0117197Y0270326D01*
X0117298Y0270451D01*
X0117402Y0270573D01*
X0117509Y0270693D01*
X0117619Y0270810D01*
X0117732Y0270925D01*
X0117848Y0271036D01*
X0117967Y0271145D01*
X0118088Y0271250D01*
X0118212Y0271353D01*
X0118338Y0271453D01*
X0118466Y0271549D01*
X0118597Y0271642D01*
X0118731Y0271732D01*
X0118866Y0271819D01*
X0119004Y0271902D01*
X0119143Y0271982D01*
X0119285Y0272058D01*
X0119428Y0272131D01*
X0119573Y0272200D01*
X0119720Y0272266D01*
X0119868Y0272328D01*
X0120018Y0272386D01*
X0120169Y0272441D01*
X0120322Y0272492D01*
X0120476Y0272539D01*
X0120631Y0272582D01*
X0120787Y0272621D01*
X0120943Y0272657D01*
X0121101Y0272688D01*
X0121259Y0272716D01*
X0121418Y0272740D01*
X0121578Y0272760D01*
X0121738Y0272776D01*
X0121898Y0272788D01*
X0122059Y0272796D01*
X0122220Y0272800D01*
X0122380Y0272800D01*
X0122541Y0272796D01*
X0122702Y0272788D01*
X0122862Y0272776D01*
X0123022Y0272760D01*
X0123182Y0272740D01*
X0123341Y0272716D01*
X0123499Y0272688D01*
X0123657Y0272657D01*
X0123813Y0272621D01*
X0123969Y0272582D01*
X0124124Y0272539D01*
X0124278Y0272492D01*
X0124431Y0272441D01*
X0124582Y0272386D01*
X0124732Y0272328D01*
X0124880Y0272266D01*
X0125027Y0272200D01*
X0125172Y0272131D01*
X0125315Y0272058D01*
X0125457Y0271982D01*
X0125596Y0271902D01*
X0125734Y0271819D01*
X0125869Y0271732D01*
X0126003Y0271642D01*
X0126134Y0271549D01*
X0126262Y0271453D01*
X0126388Y0271353D01*
X0126512Y0271250D01*
X0126633Y0271145D01*
X0126752Y0271036D01*
X0126868Y0270925D01*
X0126981Y0270810D01*
X0127091Y0270693D01*
X0127198Y0270573D01*
X0127302Y0270451D01*
X0127403Y0270326D01*
X0127501Y0270198D01*
X0127596Y0270068D01*
X0127688Y0269936D01*
X0127776Y0269802D01*
X0127861Y0269665D01*
X0127943Y0269527D01*
X0128021Y0269386D01*
X0128095Y0269244D01*
X0128166Y0269100D01*
X0128234Y0268954D01*
X0128297Y0268806D01*
X0128358Y0268657D01*
X0128414Y0268506D01*
X0128467Y0268354D01*
X0128516Y0268201D01*
X0128561Y0268047D01*
X0128602Y0267892D01*
X0128640Y0267735D01*
X0128673Y0267578D01*
X0128703Y0267420D01*
X0128729Y0267261D01*
X0128750Y0267102D01*
X0128768Y0266942D01*
X0128782Y0266782D01*
X0128792Y0266621D01*
X0128798Y0266461D01*
X0128800Y0266300D01*
X0128798Y0266139D01*
X0128792Y0265979D01*
X0128782Y0265818D01*
X0128768Y0265658D01*
X0128750Y0265498D01*
X0128729Y0265339D01*
X0128703Y0265180D01*
X0128673Y0265022D01*
X0128640Y0264865D01*
X0128602Y0264708D01*
X0128561Y0264553D01*
X0128516Y0264399D01*
X0128467Y0264246D01*
X0128414Y0264094D01*
X0128358Y0263943D01*
X0128297Y0263794D01*
X0128234Y0263646D01*
X0128166Y0263500D01*
X0128095Y0263356D01*
X0128021Y0263214D01*
X0127943Y0263073D01*
X0127861Y0262935D01*
X0127776Y0262798D01*
X0127688Y0262664D01*
X0127596Y0262532D01*
X0127501Y0262402D01*
X0127403Y0262274D01*
X0127302Y0262149D01*
X0127198Y0262027D01*
X0127091Y0261907D01*
X0126981Y0261790D01*
X0126868Y0261675D01*
X0126752Y0261564D01*
X0126633Y0261455D01*
X0126512Y0261350D01*
X0126388Y0261247D01*
X0126262Y0261147D01*
X0126134Y0261051D01*
X0126003Y0260958D01*
X0125869Y0260868D01*
X0125734Y0260781D01*
X0125596Y0260698D01*
X0125457Y0260618D01*
X0125315Y0260542D01*
X0125172Y0260469D01*
X0125027Y0260400D01*
X0124880Y0260334D01*
X0124732Y0260272D01*
X0124582Y0260214D01*
X0124431Y0260159D01*
X0124278Y0260108D01*
X0124124Y0260061D01*
X0123969Y0260018D01*
X0123813Y0259979D01*
X0123657Y0259943D01*
X0123499Y0259912D01*
X0123341Y0259884D01*
X0123182Y0259860D01*
X0123022Y0259840D01*
X0122862Y0259824D01*
X0122702Y0259812D01*
X0122541Y0259804D01*
X0122380Y0259800D01*
X0122220Y0259800D01*
X0122059Y0259804D01*
X0121898Y0259812D01*
X0121738Y0259824D01*
X0121578Y0259840D01*
X0121418Y0259860D01*
X0121259Y0259884D01*
X0121101Y0259912D01*
X0120943Y0259943D01*
X0120787Y0259979D01*
X0120631Y0260018D01*
X0120476Y0260061D01*
X0120322Y0260108D01*
X0120169Y0260159D01*
X0120018Y0260214D01*
X0119868Y0260272D01*
X0119720Y0260334D01*
X0119573Y0260400D01*
X0119428Y0260469D01*
X0119285Y0260542D01*
X0119143Y0260618D01*
X0119004Y0260698D01*
X0118866Y0260781D01*
X0118731Y0260868D01*
X0118597Y0260958D01*
X0118466Y0261051D01*
X0118338Y0261147D01*
X0118212Y0261247D01*
X0118088Y0261350D01*
X0117967Y0261455D01*
X0117848Y0261564D01*
X0117732Y0261675D01*
X0117619Y0261790D01*
X0117509Y0261907D01*
X0117402Y0262027D01*
X0117298Y0262149D01*
X0117197Y0262274D01*
X0117099Y0262402D01*
X0117004Y0262532D01*
X0116912Y0262664D01*
X0116824Y0262798D01*
X0116739Y0262935D01*
X0116657Y0263073D01*
X0116579Y0263214D01*
X0116505Y0263356D01*
X0116434Y0263500D01*
X0116366Y0263646D01*
X0116303Y0263794D01*
X0116242Y0263943D01*
X0116186Y0264094D01*
X0116133Y0264246D01*
X0116084Y0264399D01*
X0116039Y0264553D01*
X0115998Y0264708D01*
X0115960Y0264865D01*
X0115927Y0265022D01*
X0115897Y0265180D01*
X0115871Y0265339D01*
X0115850Y0265498D01*
X0115832Y0265658D01*
X0115818Y0265818D01*
X0115808Y0265979D01*
X0115802Y0266139D01*
X0115800Y0266300D01*
M02*
