G75*
%MOIN*%
%OFA0B0*%
%FSLAX25Y25*%
%IPPOS*%
%LPD*%
%AMOC8*
5,1,8,0,0,1.08239X$1,22.5*
%
%ADD10C,0.06800*%
%ADD11C,0.07400*%
%ADD12C,0.13800*%
%ADD13OC8,0.07100*%
%ADD14C,0.07100*%
%ADD15OC8,0.06000*%
%ADD16OC8,0.06050*%
%ADD17C,0.06000*%
%ADD18C,0.25800*%
%ADD19OC8,0.06800*%
D10*
X0733300Y0056300D02*
X0739300Y0056300D01*
X0739300Y0066300D02*
X0733300Y0066300D01*
X0733300Y0076300D02*
X0739300Y0076300D01*
X0739300Y0086300D02*
X0733300Y0086300D01*
X0733300Y0096300D02*
X0739300Y0096300D01*
X0739300Y0106300D02*
X0733300Y0106300D01*
X0733300Y0116300D02*
X0739300Y0116300D01*
X0739300Y0126300D02*
X0733300Y0126300D01*
X0733300Y0136300D02*
X0739300Y0136300D01*
X0739300Y0146300D02*
X0733300Y0146300D01*
X0733300Y0156300D02*
X0739300Y0156300D01*
X0739300Y0166300D02*
X0733300Y0166300D01*
X0733300Y0176300D02*
X0739300Y0176300D01*
X0739300Y0186300D02*
X0733300Y0186300D01*
X0733300Y0196300D02*
X0739300Y0196300D01*
X0739300Y0206300D02*
X0733300Y0206300D01*
X0733300Y0216300D02*
X0739300Y0216300D01*
X0739300Y0226300D02*
X0733300Y0226300D01*
X0733300Y0236300D02*
X0739300Y0236300D01*
X0739300Y0246300D02*
X0733300Y0246300D01*
X0733300Y0256300D02*
X0739300Y0256300D01*
X0739300Y0266300D02*
X0733300Y0266300D01*
X0733300Y0276300D02*
X0739300Y0276300D01*
X0739300Y0286300D02*
X0733300Y0286300D01*
X0733300Y0296300D02*
X0739300Y0296300D01*
X0739300Y0316300D02*
X0733300Y0316300D01*
X0733300Y0326300D02*
X0739300Y0326300D01*
X0739300Y0336300D02*
X0733300Y0336300D01*
X0733300Y0346300D02*
X0739300Y0346300D01*
X0739300Y0356300D02*
X0733300Y0356300D01*
X0733300Y0366300D02*
X0739300Y0366300D01*
X0739300Y0376300D02*
X0733300Y0376300D01*
X0733300Y0386300D02*
X0739300Y0386300D01*
X0739300Y0396300D02*
X0733300Y0396300D01*
X0733300Y0406300D02*
X0739300Y0406300D01*
X0739300Y0416300D02*
X0733300Y0416300D01*
X0733300Y0426300D02*
X0739300Y0426300D01*
X0739300Y0436300D02*
X0733300Y0436300D01*
X0733300Y0446300D02*
X0739300Y0446300D01*
X0739300Y0456300D02*
X0733300Y0456300D01*
X0733300Y0466300D02*
X0739300Y0466300D01*
X0739300Y0476300D02*
X0733300Y0476300D01*
X0733300Y0486300D02*
X0739300Y0486300D01*
X0739300Y0496300D02*
X0733300Y0496300D01*
X0733300Y0506300D02*
X0739300Y0506300D01*
X0739300Y0516300D02*
X0733300Y0516300D01*
X0733300Y0526300D02*
X0739300Y0526300D01*
X0739300Y0536300D02*
X0733300Y0536300D01*
X0733300Y0546300D02*
X0739300Y0546300D01*
X0739300Y0556300D02*
X0733300Y0556300D01*
D11*
X0184600Y0276300D02*
X0178000Y0276300D01*
X0178000Y0266300D02*
X0184600Y0266300D01*
X0184600Y0256300D02*
X0178000Y0256300D01*
D12*
X0122300Y0266300D03*
D13*
X0246300Y0216300D03*
D14*
X0246300Y0226300D03*
D15*
X0206300Y0251300D03*
X0206300Y0271300D03*
X0206300Y0286300D03*
X0216300Y0286300D03*
X0231300Y0286300D03*
X0251300Y0286300D03*
X0251300Y0266300D03*
X0231300Y0266300D03*
X0176300Y0386300D03*
X0176300Y0396300D03*
X0176300Y0486300D03*
X0186300Y0486300D03*
X0291300Y0396300D03*
X0291300Y0386300D03*
X0551300Y0376300D03*
X0551300Y0366300D03*
X0551300Y0301300D03*
X0551300Y0291300D03*
X0551300Y0201300D03*
X0551300Y0191300D03*
X0661300Y0231300D03*
X0661300Y0241300D03*
X0661300Y0331300D03*
X0661300Y0341300D03*
X0661300Y0391300D03*
X0661300Y0401300D03*
X0551300Y0436300D03*
X0551300Y0446300D03*
X0551300Y0506300D03*
X0551300Y0516300D03*
X0661300Y0141300D03*
X0661300Y0131300D03*
X0551300Y0091300D03*
X0551300Y0081300D03*
X0661300Y0041300D03*
X0661300Y0031300D03*
D16*
X0721300Y0056300D03*
X0721300Y0066300D03*
X0721300Y0076300D03*
X0721300Y0086300D03*
X0721300Y0096300D03*
X0721300Y0106300D03*
X0721300Y0116300D03*
X0721300Y0126300D03*
X0721300Y0136300D03*
X0721300Y0146300D03*
X0721300Y0156300D03*
X0721300Y0166300D03*
X0721300Y0176300D03*
X0721300Y0186300D03*
X0721300Y0196300D03*
X0721300Y0206300D03*
X0721300Y0216300D03*
X0721300Y0226300D03*
X0721300Y0236300D03*
X0721300Y0246300D03*
X0721300Y0256300D03*
X0721300Y0266300D03*
X0721300Y0276300D03*
X0721300Y0286300D03*
X0721300Y0296300D03*
X0721300Y0316300D03*
X0721300Y0326300D03*
X0721300Y0336300D03*
X0721300Y0346300D03*
X0721300Y0356300D03*
X0721300Y0366300D03*
X0721300Y0376300D03*
X0721300Y0386300D03*
X0721300Y0396300D03*
X0721300Y0406300D03*
X0721300Y0416300D03*
X0721300Y0426300D03*
X0721300Y0436300D03*
X0721300Y0446300D03*
X0721300Y0456300D03*
X0721300Y0466300D03*
X0721300Y0476300D03*
X0721300Y0486300D03*
X0721300Y0496300D03*
X0721300Y0506300D03*
X0721300Y0516300D03*
X0721300Y0526300D03*
X0721300Y0536300D03*
X0721300Y0546300D03*
X0721300Y0556300D03*
X0751300Y0556300D03*
X0751300Y0546300D03*
X0751300Y0536300D03*
X0751300Y0526300D03*
X0751300Y0516300D03*
X0751300Y0506300D03*
X0751300Y0496300D03*
X0751300Y0486300D03*
X0751300Y0476300D03*
X0751300Y0466300D03*
X0751300Y0456300D03*
X0751300Y0446300D03*
X0751300Y0436300D03*
X0751300Y0426300D03*
X0751300Y0416300D03*
X0751300Y0406300D03*
X0751300Y0396300D03*
X0751300Y0386300D03*
X0751300Y0376300D03*
X0751300Y0366300D03*
X0751300Y0356300D03*
X0751300Y0346300D03*
X0751300Y0336300D03*
X0751300Y0326300D03*
X0751300Y0316300D03*
X0751300Y0296300D03*
X0751300Y0286300D03*
X0751300Y0276300D03*
X0751300Y0266300D03*
X0751300Y0256300D03*
X0751300Y0246300D03*
X0751300Y0236300D03*
X0751300Y0226300D03*
X0751300Y0216300D03*
X0751300Y0206300D03*
X0751300Y0196300D03*
X0751300Y0186300D03*
X0751300Y0176300D03*
X0751300Y0166300D03*
X0751300Y0156300D03*
X0751300Y0146300D03*
X0751300Y0136300D03*
X0751300Y0126300D03*
X0751300Y0116300D03*
X0751300Y0106300D03*
X0751300Y0096300D03*
X0751300Y0086300D03*
X0751300Y0076300D03*
X0751300Y0066300D03*
X0751300Y0056300D03*
X0656300Y0576300D03*
X0656300Y0586300D03*
X0646300Y0586300D03*
X0636300Y0586300D03*
X0626300Y0586300D03*
X0626300Y0576300D03*
X0636300Y0576300D03*
X0646300Y0576300D03*
X0616300Y0576300D03*
X0606300Y0576300D03*
X0596300Y0576300D03*
X0596300Y0586300D03*
X0606300Y0586300D03*
X0616300Y0586300D03*
X0586300Y0586300D03*
X0576300Y0586300D03*
X0566300Y0586300D03*
X0566300Y0576300D03*
X0576300Y0576300D03*
X0586300Y0576300D03*
X0556300Y0576300D03*
X0546300Y0576300D03*
X0536300Y0576300D03*
X0526300Y0576300D03*
X0526300Y0586300D03*
X0536300Y0586300D03*
X0546300Y0586300D03*
X0556300Y0586300D03*
X0516300Y0586300D03*
X0506300Y0586300D03*
X0496300Y0586300D03*
X0496300Y0576300D03*
X0506300Y0576300D03*
X0516300Y0576300D03*
X0486300Y0576300D03*
X0476300Y0576300D03*
X0466300Y0576300D03*
X0466300Y0586300D03*
X0476300Y0586300D03*
X0486300Y0586300D03*
X0456300Y0586300D03*
X0446300Y0586300D03*
X0436300Y0586300D03*
X0436300Y0576300D03*
X0446300Y0576300D03*
X0456300Y0576300D03*
X0426300Y0576300D03*
X0416300Y0576300D03*
X0416300Y0586300D03*
X0426300Y0586300D03*
X0396300Y0586300D03*
X0386300Y0586300D03*
X0376300Y0586300D03*
X0366300Y0586300D03*
X0366300Y0576300D03*
X0376300Y0576300D03*
X0386300Y0576300D03*
X0396300Y0576300D03*
X0356300Y0576300D03*
X0346300Y0576300D03*
X0336300Y0576300D03*
X0336300Y0586300D03*
X0346300Y0586300D03*
X0356300Y0586300D03*
X0326300Y0586300D03*
X0316300Y0586300D03*
X0306300Y0586300D03*
X0306300Y0576300D03*
X0316300Y0576300D03*
X0326300Y0576300D03*
X0296300Y0576300D03*
X0286300Y0576300D03*
X0276300Y0576300D03*
X0276300Y0586300D03*
X0286300Y0586300D03*
X0296300Y0586300D03*
X0266300Y0586300D03*
X0256300Y0586300D03*
X0246300Y0586300D03*
X0246300Y0576300D03*
X0256300Y0576300D03*
X0266300Y0576300D03*
X0236300Y0576300D03*
X0226300Y0576300D03*
X0216300Y0576300D03*
X0206300Y0576300D03*
X0206300Y0586300D03*
X0216300Y0586300D03*
X0226300Y0586300D03*
X0236300Y0586300D03*
X0196300Y0586300D03*
X0186300Y0586300D03*
X0176300Y0586300D03*
X0176300Y0576300D03*
X0186300Y0576300D03*
X0196300Y0576300D03*
X0166300Y0576300D03*
X0156300Y0576300D03*
X0156300Y0586300D03*
X0166300Y0586300D03*
D17*
X0206300Y0538900D02*
X0206300Y0533700D01*
X0216300Y0533700D02*
X0216300Y0538900D01*
X0226300Y0538900D02*
X0226300Y0533700D01*
X0236300Y0533700D02*
X0236300Y0538900D01*
X0246300Y0538900D02*
X0246300Y0533700D01*
X0256300Y0533700D02*
X0256300Y0538900D01*
X0266300Y0538900D02*
X0266300Y0533700D01*
X0276300Y0533700D02*
X0276300Y0538900D01*
X0306300Y0538900D02*
X0306300Y0533700D01*
X0316300Y0533700D02*
X0316300Y0538900D01*
X0326300Y0538900D02*
X0326300Y0533700D01*
X0336300Y0533700D02*
X0336300Y0538900D01*
X0346300Y0538900D02*
X0346300Y0533700D01*
X0356300Y0533700D02*
X0356300Y0538900D01*
X0366300Y0538900D02*
X0366300Y0533700D01*
X0376300Y0533700D02*
X0376300Y0538900D01*
X0376300Y0508900D02*
X0376300Y0503700D01*
X0366300Y0503700D02*
X0366300Y0508900D01*
X0356300Y0508900D02*
X0356300Y0503700D01*
X0346300Y0503700D02*
X0346300Y0508900D01*
X0336300Y0508900D02*
X0336300Y0503700D01*
X0326300Y0503700D02*
X0326300Y0508900D01*
X0316300Y0508900D02*
X0316300Y0503700D01*
X0306300Y0503700D02*
X0306300Y0508900D01*
X0306300Y0483900D02*
X0306300Y0478700D01*
X0316300Y0478700D02*
X0316300Y0483900D01*
X0326300Y0483900D02*
X0326300Y0478700D01*
X0336300Y0478700D02*
X0336300Y0483900D01*
X0346300Y0483900D02*
X0346300Y0478700D01*
X0356300Y0478700D02*
X0356300Y0483900D01*
X0366300Y0483900D02*
X0366300Y0478700D01*
X0376300Y0478700D02*
X0376300Y0483900D01*
X0376300Y0453900D02*
X0376300Y0448700D01*
X0366300Y0448700D02*
X0366300Y0453900D01*
X0356300Y0453900D02*
X0356300Y0448700D01*
X0346300Y0448700D02*
X0346300Y0453900D01*
X0336300Y0453900D02*
X0336300Y0448700D01*
X0326300Y0448700D02*
X0326300Y0453900D01*
X0316300Y0453900D02*
X0316300Y0448700D01*
X0306300Y0448700D02*
X0306300Y0453900D01*
X0306300Y0433900D02*
X0306300Y0428700D01*
X0316300Y0428700D02*
X0316300Y0433900D01*
X0326300Y0433900D02*
X0326300Y0428700D01*
X0326300Y0418900D02*
X0326300Y0413700D01*
X0316300Y0413700D02*
X0316300Y0418900D01*
X0306300Y0418900D02*
X0306300Y0413700D01*
X0301300Y0398900D02*
X0301300Y0393700D01*
X0311300Y0393700D02*
X0311300Y0398900D01*
X0321300Y0398900D02*
X0321300Y0393700D01*
X0331300Y0393700D02*
X0331300Y0398900D01*
X0341300Y0398900D02*
X0341300Y0393700D01*
X0351300Y0393700D02*
X0351300Y0398900D01*
X0361300Y0398900D02*
X0361300Y0393700D01*
X0371300Y0393700D02*
X0371300Y0398900D01*
X0381300Y0398900D02*
X0381300Y0393700D01*
X0391300Y0393700D02*
X0391300Y0398900D01*
X0386300Y0413700D02*
X0386300Y0418900D01*
X0376300Y0418900D02*
X0376300Y0413700D01*
X0366300Y0413700D02*
X0366300Y0418900D01*
X0366300Y0428700D02*
X0366300Y0433900D01*
X0376300Y0433900D02*
X0376300Y0428700D01*
X0386300Y0428700D02*
X0386300Y0433900D01*
X0356300Y0433900D02*
X0356300Y0428700D01*
X0346300Y0428700D02*
X0346300Y0433900D01*
X0336300Y0433900D02*
X0336300Y0428700D01*
X0336300Y0418900D02*
X0336300Y0413700D01*
X0346300Y0413700D02*
X0346300Y0418900D01*
X0356300Y0418900D02*
X0356300Y0413700D01*
X0351300Y0368900D02*
X0351300Y0363700D01*
X0361300Y0363700D02*
X0361300Y0368900D01*
X0371300Y0368900D02*
X0371300Y0363700D01*
X0381300Y0363700D02*
X0381300Y0368900D01*
X0391300Y0368900D02*
X0391300Y0363700D01*
X0341300Y0363700D02*
X0341300Y0368900D01*
X0331300Y0368900D02*
X0331300Y0363700D01*
X0321300Y0363700D02*
X0321300Y0368900D01*
X0311300Y0368900D02*
X0311300Y0363700D01*
X0301300Y0363700D02*
X0301300Y0368900D01*
X0276300Y0368900D02*
X0276300Y0363700D01*
X0266300Y0363700D02*
X0266300Y0368900D01*
X0256300Y0368900D02*
X0256300Y0363700D01*
X0246300Y0363700D02*
X0246300Y0368900D01*
X0236300Y0368900D02*
X0236300Y0363700D01*
X0226300Y0363700D02*
X0226300Y0368900D01*
X0216300Y0368900D02*
X0216300Y0363700D01*
X0206300Y0363700D02*
X0206300Y0368900D01*
X0196300Y0368900D02*
X0196300Y0363700D01*
X0186300Y0363700D02*
X0186300Y0368900D01*
X0186300Y0393700D02*
X0186300Y0398900D01*
X0196300Y0398900D02*
X0196300Y0393700D01*
X0206300Y0393700D02*
X0206300Y0398900D01*
X0216300Y0398900D02*
X0216300Y0393700D01*
X0226300Y0393700D02*
X0226300Y0398900D01*
X0236300Y0398900D02*
X0236300Y0393700D01*
X0246300Y0393700D02*
X0246300Y0398900D01*
X0256300Y0398900D02*
X0256300Y0393700D01*
X0266300Y0393700D02*
X0266300Y0398900D01*
X0276300Y0398900D02*
X0276300Y0393700D01*
X0276300Y0413700D02*
X0276300Y0418900D01*
X0286300Y0418900D02*
X0286300Y0413700D01*
X0286300Y0428700D02*
X0286300Y0433900D01*
X0276300Y0433900D02*
X0276300Y0428700D01*
X0266300Y0428700D02*
X0266300Y0433900D01*
X0256300Y0433900D02*
X0256300Y0428700D01*
X0246300Y0428700D02*
X0246300Y0433900D01*
X0236300Y0433900D02*
X0236300Y0428700D01*
X0226300Y0428700D02*
X0226300Y0433900D01*
X0216300Y0433900D02*
X0216300Y0428700D01*
X0206300Y0428700D02*
X0206300Y0433900D01*
X0206300Y0448700D02*
X0206300Y0453900D01*
X0216300Y0453900D02*
X0216300Y0448700D01*
X0226300Y0448700D02*
X0226300Y0453900D01*
X0236300Y0453900D02*
X0236300Y0448700D01*
X0246300Y0448700D02*
X0246300Y0453900D01*
X0256300Y0453900D02*
X0256300Y0448700D01*
X0266300Y0448700D02*
X0266300Y0453900D01*
X0276300Y0453900D02*
X0276300Y0448700D01*
X0276300Y0478700D02*
X0276300Y0483900D01*
X0266300Y0483900D02*
X0266300Y0478700D01*
X0256300Y0478700D02*
X0256300Y0483900D01*
X0246300Y0483900D02*
X0246300Y0478700D01*
X0236300Y0478700D02*
X0236300Y0483900D01*
X0226300Y0483900D02*
X0226300Y0478700D01*
X0216300Y0478700D02*
X0216300Y0483900D01*
X0206300Y0483900D02*
X0206300Y0478700D01*
X0188900Y0476300D02*
X0183700Y0476300D01*
X0183700Y0466300D02*
X0188900Y0466300D01*
X0188900Y0456300D02*
X0183700Y0456300D01*
X0183700Y0446300D02*
X0188900Y0446300D01*
X0188900Y0436300D02*
X0183700Y0436300D01*
X0183700Y0426300D02*
X0188900Y0426300D01*
X0188900Y0416300D02*
X0183700Y0416300D01*
X0206300Y0418900D02*
X0206300Y0413700D01*
X0216300Y0413700D02*
X0216300Y0418900D01*
X0226300Y0418900D02*
X0226300Y0413700D01*
X0236300Y0413700D02*
X0236300Y0418900D01*
X0246300Y0418900D02*
X0246300Y0413700D01*
X0256300Y0413700D02*
X0256300Y0418900D01*
X0266300Y0418900D02*
X0266300Y0413700D01*
X0266300Y0503700D02*
X0266300Y0508900D01*
X0256300Y0508900D02*
X0256300Y0503700D01*
X0246300Y0503700D02*
X0246300Y0508900D01*
X0236300Y0508900D02*
X0236300Y0503700D01*
X0226300Y0503700D02*
X0226300Y0508900D01*
X0216300Y0508900D02*
X0216300Y0503700D01*
X0206300Y0503700D02*
X0206300Y0508900D01*
X0158900Y0476300D02*
X0153700Y0476300D01*
X0153700Y0466300D02*
X0158900Y0466300D01*
X0158900Y0456300D02*
X0153700Y0456300D01*
X0153700Y0446300D02*
X0158900Y0446300D01*
X0158900Y0436300D02*
X0153700Y0436300D01*
X0153700Y0426300D02*
X0158900Y0426300D01*
X0158900Y0416300D02*
X0153700Y0416300D01*
X0276300Y0503700D02*
X0276300Y0508900D01*
X0561300Y0513700D02*
X0561300Y0518900D01*
X0571300Y0518900D02*
X0571300Y0513700D01*
X0581300Y0513700D02*
X0581300Y0518900D01*
X0591300Y0518900D02*
X0591300Y0513700D01*
X0601300Y0513700D02*
X0601300Y0518900D01*
X0611300Y0518900D02*
X0611300Y0513700D01*
X0621300Y0513700D02*
X0621300Y0518900D01*
X0631300Y0518900D02*
X0631300Y0513700D01*
X0641300Y0513700D02*
X0641300Y0518900D01*
X0651300Y0518900D02*
X0651300Y0513700D01*
X0673700Y0511300D02*
X0678900Y0511300D01*
X0678900Y0521300D02*
X0673700Y0521300D01*
X0673700Y0531300D02*
X0678900Y0531300D01*
X0693700Y0531300D02*
X0698900Y0531300D01*
X0698900Y0521300D02*
X0693700Y0521300D01*
X0693700Y0511300D02*
X0698900Y0511300D01*
X0698900Y0501300D02*
X0693700Y0501300D01*
X0678900Y0501300D02*
X0673700Y0501300D01*
X0673700Y0491300D02*
X0678900Y0491300D01*
X0693700Y0491300D02*
X0698900Y0491300D01*
X0698900Y0471300D02*
X0693700Y0471300D01*
X0678900Y0471300D02*
X0673700Y0471300D01*
X0673700Y0461300D02*
X0678900Y0461300D01*
X0678900Y0451300D02*
X0673700Y0451300D01*
X0673700Y0441300D02*
X0678900Y0441300D01*
X0693700Y0441300D02*
X0698900Y0441300D01*
X0698900Y0431300D02*
X0693700Y0431300D01*
X0693700Y0421300D02*
X0698900Y0421300D01*
X0698900Y0411300D02*
X0693700Y0411300D01*
X0693700Y0401300D02*
X0698900Y0401300D01*
X0698900Y0391300D02*
X0693700Y0391300D01*
X0678900Y0391300D02*
X0673700Y0391300D01*
X0673700Y0401300D02*
X0678900Y0401300D01*
X0678900Y0411300D02*
X0673700Y0411300D01*
X0673700Y0421300D02*
X0678900Y0421300D01*
X0678900Y0431300D02*
X0673700Y0431300D01*
X0651300Y0443700D02*
X0651300Y0448900D01*
X0641300Y0448900D02*
X0641300Y0443700D01*
X0631300Y0443700D02*
X0631300Y0448900D01*
X0621300Y0448900D02*
X0621300Y0443700D01*
X0611300Y0443700D02*
X0611300Y0448900D01*
X0601300Y0448900D02*
X0601300Y0443700D01*
X0591300Y0443700D02*
X0591300Y0448900D01*
X0581300Y0448900D02*
X0581300Y0443700D01*
X0571300Y0443700D02*
X0571300Y0448900D01*
X0561300Y0448900D02*
X0561300Y0443700D01*
X0561300Y0418900D02*
X0561300Y0413700D01*
X0571300Y0413700D02*
X0571300Y0418900D01*
X0581300Y0418900D02*
X0581300Y0413700D01*
X0591300Y0413700D02*
X0591300Y0418900D01*
X0601300Y0418900D02*
X0601300Y0413700D01*
X0611300Y0413700D02*
X0611300Y0418900D01*
X0621300Y0418900D02*
X0621300Y0413700D01*
X0631300Y0413700D02*
X0631300Y0418900D01*
X0641300Y0418900D02*
X0641300Y0413700D01*
X0651300Y0413700D02*
X0651300Y0418900D01*
X0651300Y0378900D02*
X0651300Y0373700D01*
X0641300Y0373700D02*
X0641300Y0378900D01*
X0631300Y0378900D02*
X0631300Y0373700D01*
X0621300Y0373700D02*
X0621300Y0378900D01*
X0611300Y0378900D02*
X0611300Y0373700D01*
X0601300Y0373700D02*
X0601300Y0378900D01*
X0591300Y0378900D02*
X0591300Y0373700D01*
X0581300Y0373700D02*
X0581300Y0378900D01*
X0571300Y0378900D02*
X0571300Y0373700D01*
X0561300Y0373700D02*
X0561300Y0378900D01*
X0561300Y0348900D02*
X0561300Y0343700D01*
X0571300Y0343700D02*
X0571300Y0348900D01*
X0581300Y0348900D02*
X0581300Y0343700D01*
X0591300Y0343700D02*
X0591300Y0348900D01*
X0601300Y0348900D02*
X0601300Y0343700D01*
X0611300Y0343700D02*
X0611300Y0348900D01*
X0621300Y0348900D02*
X0621300Y0343700D01*
X0631300Y0343700D02*
X0631300Y0348900D01*
X0641300Y0348900D02*
X0641300Y0343700D01*
X0651300Y0343700D02*
X0651300Y0348900D01*
X0673700Y0351300D02*
X0678900Y0351300D01*
X0678900Y0341300D02*
X0673700Y0341300D01*
X0673700Y0331300D02*
X0678900Y0331300D01*
X0693700Y0331300D02*
X0698900Y0331300D01*
X0698900Y0341300D02*
X0693700Y0341300D01*
X0693700Y0351300D02*
X0698900Y0351300D01*
X0698900Y0361300D02*
X0693700Y0361300D01*
X0678900Y0361300D02*
X0673700Y0361300D01*
X0673700Y0371300D02*
X0678900Y0371300D01*
X0693700Y0371300D02*
X0698900Y0371300D01*
X0698900Y0311300D02*
X0693700Y0311300D01*
X0678900Y0311300D02*
X0673700Y0311300D01*
X0673700Y0301300D02*
X0678900Y0301300D01*
X0693700Y0301300D02*
X0698900Y0301300D01*
X0698900Y0291300D02*
X0693700Y0291300D01*
X0693700Y0281300D02*
X0698900Y0281300D01*
X0698900Y0271300D02*
X0693700Y0271300D01*
X0693700Y0261300D02*
X0698900Y0261300D01*
X0698900Y0251300D02*
X0693700Y0251300D01*
X0678900Y0251300D02*
X0673700Y0251300D01*
X0673700Y0241300D02*
X0678900Y0241300D01*
X0678900Y0231300D02*
X0673700Y0231300D01*
X0693700Y0231300D02*
X0698900Y0231300D01*
X0698900Y0241300D02*
X0693700Y0241300D01*
X0678900Y0261300D02*
X0673700Y0261300D01*
X0673700Y0271300D02*
X0678900Y0271300D01*
X0678900Y0281300D02*
X0673700Y0281300D01*
X0673700Y0291300D02*
X0678900Y0291300D01*
X0651300Y0298700D02*
X0651300Y0303900D01*
X0641300Y0303900D02*
X0641300Y0298700D01*
X0631300Y0298700D02*
X0631300Y0303900D01*
X0621300Y0303900D02*
X0621300Y0298700D01*
X0611300Y0298700D02*
X0611300Y0303900D01*
X0601300Y0303900D02*
X0601300Y0298700D01*
X0591300Y0298700D02*
X0591300Y0303900D01*
X0581300Y0303900D02*
X0581300Y0298700D01*
X0571300Y0298700D02*
X0571300Y0303900D01*
X0561300Y0303900D02*
X0561300Y0298700D01*
X0561300Y0273900D02*
X0561300Y0268700D01*
X0571300Y0268700D02*
X0571300Y0273900D01*
X0581300Y0273900D02*
X0581300Y0268700D01*
X0591300Y0268700D02*
X0591300Y0273900D01*
X0601300Y0273900D02*
X0601300Y0268700D01*
X0611300Y0268700D02*
X0611300Y0273900D01*
X0621300Y0273900D02*
X0621300Y0268700D01*
X0631300Y0268700D02*
X0631300Y0273900D01*
X0641300Y0273900D02*
X0641300Y0268700D01*
X0651300Y0268700D02*
X0651300Y0273900D01*
X0673700Y0211300D02*
X0678900Y0211300D01*
X0678900Y0201300D02*
X0673700Y0201300D01*
X0673700Y0191300D02*
X0678900Y0191300D01*
X0693700Y0191300D02*
X0698900Y0191300D01*
X0698900Y0181300D02*
X0693700Y0181300D01*
X0693700Y0171300D02*
X0698900Y0171300D01*
X0698900Y0161300D02*
X0693700Y0161300D01*
X0678900Y0161300D02*
X0673700Y0161300D01*
X0673700Y0151300D02*
X0678900Y0151300D01*
X0678900Y0141300D02*
X0673700Y0141300D01*
X0673700Y0131300D02*
X0678900Y0131300D01*
X0693700Y0131300D02*
X0698900Y0131300D01*
X0698900Y0141300D02*
X0693700Y0141300D01*
X0693700Y0151300D02*
X0698900Y0151300D01*
X0678900Y0171300D02*
X0673700Y0171300D01*
X0673700Y0181300D02*
X0678900Y0181300D01*
X0693700Y0201300D02*
X0698900Y0201300D01*
X0698900Y0211300D02*
X0693700Y0211300D01*
X0651300Y0203900D02*
X0651300Y0198700D01*
X0641300Y0198700D02*
X0641300Y0203900D01*
X0631300Y0203900D02*
X0631300Y0198700D01*
X0621300Y0198700D02*
X0621300Y0203900D01*
X0611300Y0203900D02*
X0611300Y0198700D01*
X0601300Y0198700D02*
X0601300Y0203900D01*
X0591300Y0203900D02*
X0591300Y0198700D01*
X0581300Y0198700D02*
X0581300Y0203900D01*
X0571300Y0203900D02*
X0571300Y0198700D01*
X0561300Y0198700D02*
X0561300Y0203900D01*
X0561300Y0173900D02*
X0561300Y0168700D01*
X0571300Y0168700D02*
X0571300Y0173900D01*
X0581300Y0173900D02*
X0581300Y0168700D01*
X0591300Y0168700D02*
X0591300Y0173900D01*
X0601300Y0173900D02*
X0601300Y0168700D01*
X0611300Y0168700D02*
X0611300Y0173900D01*
X0621300Y0173900D02*
X0621300Y0168700D01*
X0631300Y0168700D02*
X0631300Y0173900D01*
X0641300Y0173900D02*
X0641300Y0168700D01*
X0651300Y0168700D02*
X0651300Y0173900D01*
X0673700Y0111300D02*
X0678900Y0111300D01*
X0693700Y0111300D02*
X0698900Y0111300D01*
X0698900Y0101300D02*
X0693700Y0101300D01*
X0693700Y0091300D02*
X0698900Y0091300D01*
X0698900Y0081300D02*
X0693700Y0081300D01*
X0678900Y0081300D02*
X0673700Y0081300D01*
X0673700Y0071300D02*
X0678900Y0071300D01*
X0678900Y0061300D02*
X0673700Y0061300D01*
X0673700Y0051300D02*
X0678900Y0051300D01*
X0693700Y0051300D02*
X0698900Y0051300D01*
X0698900Y0041300D02*
X0693700Y0041300D01*
X0693700Y0031300D02*
X0698900Y0031300D01*
X0678900Y0031300D02*
X0673700Y0031300D01*
X0673700Y0041300D02*
X0678900Y0041300D01*
X0693700Y0061300D02*
X0698900Y0061300D01*
X0698900Y0071300D02*
X0693700Y0071300D01*
X0678900Y0091300D02*
X0673700Y0091300D01*
X0673700Y0101300D02*
X0678900Y0101300D01*
X0651300Y0093900D02*
X0651300Y0088700D01*
X0641300Y0088700D02*
X0641300Y0093900D01*
X0631300Y0093900D02*
X0631300Y0088700D01*
X0621300Y0088700D02*
X0621300Y0093900D01*
X0611300Y0093900D02*
X0611300Y0088700D01*
X0601300Y0088700D02*
X0601300Y0093900D01*
X0591300Y0093900D02*
X0591300Y0088700D01*
X0581300Y0088700D02*
X0581300Y0093900D01*
X0571300Y0093900D02*
X0571300Y0088700D01*
X0561300Y0088700D02*
X0561300Y0093900D01*
X0561300Y0063900D02*
X0561300Y0058700D01*
X0571300Y0058700D02*
X0571300Y0063900D01*
X0581300Y0063900D02*
X0581300Y0058700D01*
X0591300Y0058700D02*
X0591300Y0063900D01*
X0601300Y0063900D02*
X0601300Y0058700D01*
X0611300Y0058700D02*
X0611300Y0063900D01*
X0621300Y0063900D02*
X0621300Y0058700D01*
X0631300Y0058700D02*
X0631300Y0063900D01*
X0641300Y0063900D02*
X0641300Y0058700D01*
X0651300Y0058700D02*
X0651300Y0063900D01*
X0693700Y0451300D02*
X0698900Y0451300D01*
X0698900Y0461300D02*
X0693700Y0461300D01*
X0651300Y0483700D02*
X0651300Y0488900D01*
X0641300Y0488900D02*
X0641300Y0483700D01*
X0631300Y0483700D02*
X0631300Y0488900D01*
X0621300Y0488900D02*
X0621300Y0483700D01*
X0611300Y0483700D02*
X0611300Y0488900D01*
X0601300Y0488900D02*
X0601300Y0483700D01*
X0591300Y0483700D02*
X0591300Y0488900D01*
X0581300Y0488900D02*
X0581300Y0483700D01*
X0571300Y0483700D02*
X0571300Y0488900D01*
X0561300Y0488900D02*
X0561300Y0483700D01*
X0673700Y0541300D02*
X0678900Y0541300D01*
X0678900Y0551300D02*
X0673700Y0551300D01*
X0673700Y0561300D02*
X0678900Y0561300D01*
X0693700Y0561300D02*
X0698900Y0561300D01*
X0698900Y0551300D02*
X0693700Y0551300D01*
X0693700Y0541300D02*
X0698900Y0541300D01*
X0698900Y0571300D02*
X0693700Y0571300D01*
X0678900Y0571300D02*
X0673700Y0571300D01*
D18*
X0036300Y0101300D03*
X0036300Y0201300D03*
X0036300Y0301300D03*
X0036300Y0401300D03*
X0036300Y0501300D03*
D19*
X0096300Y0576300D03*
X0106300Y0576300D03*
X0106300Y0586300D03*
X0096300Y0586300D03*
X0116300Y0586300D03*
X0126300Y0586300D03*
X0136300Y0586300D03*
X0136300Y0576300D03*
X0126300Y0576300D03*
X0116300Y0576300D03*
M02*
