%
M48
M72
T01C0.02400
T02C0.03200
T03C0.03250
T04C0.04000
T05C0.04400
T06C0.13000
T07C0.16000
%
T01
X145050Y340050
X160050Y343800
X173800Y355050
X145050Y358800
X163800Y381300
X145050Y385050
X156300Y396300
X187550Y382550
X211300Y373800
X202550Y358800
X247550Y351300
X265050Y343800
X275050Y352550
X255050Y376300
X245050Y376300
X280050Y403800
X300050Y406300
X321300Y407550
X331300Y406300
X351300Y410050
X386300Y405050
X370050Y378800
X350050Y382550
X326300Y382550
X300050Y382550
X293800Y431300
X297550Y435050
X297550Y443800
X290050Y451300
X286300Y440050
X305050Y467550
X297550Y471300
X297550Y477550
X293800Y481300
X297550Y488800
X287550Y490050
X283800Y493800
X287550Y510050
X281300Y525050
X293800Y548800
X320050Y562550
X370050Y571300
X377550Y548800
X382550Y548800
X388800Y531300
X405050Y556300
X418800Y567550
X410050Y571300
X430050Y541300
X443800Y527550
X455050Y527550
X462550Y541300
X480050Y547550
X491300Y550050
X542550Y536300
X580050Y531300
X596300Y531300
X610050Y543800
X616300Y531300
X620050Y527550
X632550Y497550
X642550Y497550
X668800Y497550
X690050Y482550
X703800Y475050
X711300Y490050
X707550Y500050
X690050Y516300
X638800Y558800
X603800Y557550
X576300Y570050
X552550Y571300
X567550Y478800
X593800Y472550
X590050Y457550
X610050Y457550
X622550Y475050
X617550Y432550
X632550Y427550
X642550Y405050
X660050Y385050
X690050Y416300
X710050Y420050
X708800Y432550
X728800Y410050
X747550Y341300
X742550Y311300
X660050Y325050
X626300Y295050
X610050Y315050
X602550Y310050
X565050Y360050
X542550Y375050
X567550Y400050
X491300Y348800
X502550Y335050
X480050Y320050
X472550Y331300
X447550Y338800
X482550Y371300
X455050Y391300
X426300Y387550
X415050Y383800
X411300Y441300
X397550Y455050
X390050Y458800
X393800Y467550
X397550Y471300
X401300Y463800
X408800Y481300
X405050Y485050
X398800Y493800
X430050Y478800
X438800Y478800
X422550Y465050
X438800Y461300
X472550Y441300
X387550Y445050
X383800Y441300
X356300Y460050
X346300Y460050
X340050Y463800
X336300Y460050
X331300Y467550
X326300Y460050
X325050Y442550
X335050Y442550
X277550Y471300
X257550Y491300
X235050Y491300
X225050Y495050
X215050Y492550
X196300Y495050
X171300Y498800
X166300Y498800
X162550Y491300
X162550Y481300
X141300Y470050
X137550Y466300
X172550Y435050
X195050Y436300
X197550Y443800
X197550Y457550
X200050Y465050
X212550Y467550
X241300Y443800
X241300Y410050
X361300Y487550
X241300Y517550
X231300Y521300
X221300Y525050
X192550Y517550
X181300Y562550
X211300Y565050
X137550Y513800
X482550Y283800
X517550Y280050
X525050Y280050
X525050Y245050
X525050Y240050
X525050Y235050
X525050Y230050
X532550Y208800
X532550Y203800
X575050Y225050
X580050Y225050
X590050Y223800
X610050Y223800
X613800Y215050
X618800Y235050
X602550Y246300
X642550Y157550
X705050Y100050
X663800Y95050
X535050Y147550
T02
X561300Y171300
X571300Y171300
X581300Y171300
X591300Y171300
X601300Y171300
X611300Y171300
X621300Y171300
X631300Y171300
X641300Y171300
X651300Y171300
X676300Y171300
X676300Y181300
X676300Y191300
X676300Y201300
X676300Y211300
X696300Y211300
X696300Y201300
X696300Y191300
X696300Y181300
X696300Y171300
X696300Y161300
X696300Y151300
X696300Y141300
X696300Y131300
X696300Y111300
X696300Y101300
X696300Y91300
X696300Y81300
X696300Y71300
X696300Y61300
X696300Y51300
X696300Y41300
X696300Y31300
X676300Y31300
X676300Y41300
X676300Y51300
X676300Y61300
X676300Y71300
X676300Y81300
X676300Y91300
X676300Y101300
X676300Y111300
X676300Y131300
X676300Y141300
X676300Y151300
X676300Y161300
X661300Y141300
X661300Y131300
X651300Y91300
X641300Y91300
X631300Y91300
X621300Y91300
X611300Y91300
X601300Y91300
X591300Y91300
X581300Y91300
X571300Y91300
X561300Y91300
X551300Y91300
X551300Y81300
X561300Y61300
X571300Y61300
X581300Y61300
X591300Y61300
X601300Y61300
X611300Y61300
X621300Y61300
X631300Y61300
X641300Y61300
X651300Y61300
X661300Y41300
X661300Y31300
X551300Y191300
X551300Y201300
X561300Y201300
X571300Y201300
X581300Y201300
X591300Y201300
X601300Y201300
X611300Y201300
X621300Y201300
X631300Y201300
X641300Y201300
X651300Y201300
X661300Y231300
X661300Y241300
X676300Y241300
X676300Y231300
X676300Y251300
X676300Y261300
X676300Y271300
X676300Y281300
X676300Y291300
X676300Y301300
X676300Y311300
X676300Y331300
X676300Y341300
X676300Y351300
X676300Y361300
X676300Y371300
X676300Y391300
X676300Y401300
X676300Y411300
X676300Y421300
X676300Y431300
X676300Y441300
X676300Y451300
X676300Y461300
X676300Y471300
X676300Y491300
X676300Y501300
X676300Y511300
X676300Y521300
X676300Y531300
X676300Y541300
X676300Y551300
X676300Y561300
X676300Y571300
X696300Y571300
X696300Y561300
X696300Y551300
X696300Y541300
X696300Y531300
X696300Y521300
X696300Y511300
X696300Y501300
X696300Y491300
X696300Y471300
X696300Y461300
X696300Y451300
X696300Y441300
X696300Y431300
X696300Y421300
X696300Y411300
X696300Y401300
X696300Y391300
X696300Y371300
X696300Y361300
X696300Y351300
X696300Y341300
X696300Y331300
X696300Y311300
X696300Y301300
X696300Y291300
X696300Y281300
X696300Y271300
X696300Y261300
X696300Y251300
X696300Y241300
X696300Y231300
X651300Y271300
X641300Y271300
X631300Y271300
X621300Y271300
X611300Y271300
X601300Y271300
X591300Y271300
X581300Y271300
X571300Y271300
X561300Y271300
X551300Y291300
X551300Y301300
X561300Y301300
X571300Y301300
X581300Y301300
X591300Y301300
X601300Y301300
X611300Y301300
X621300Y301300
X631300Y301300
X641300Y301300
X651300Y301300
X661300Y331300
X661300Y341300
X651300Y346300
X641300Y346300
X631300Y346300
X621300Y346300
X611300Y346300
X601300Y346300
X591300Y346300
X581300Y346300
X571300Y346300
X561300Y346300
X551300Y366300
X551300Y376300
X561300Y376300
X571300Y376300
X581300Y376300
X591300Y376300
X601300Y376300
X611300Y376300
X621300Y376300
X631300Y376300
X641300Y376300
X651300Y376300
X661300Y391300
X661300Y401300
X651300Y416300
X641300Y416300
X631300Y416300
X621300Y416300
X611300Y416300
X601300Y416300
X591300Y416300
X581300Y416300
X571300Y416300
X561300Y416300
X551300Y436300
X551300Y446300
X561300Y446300
X571300Y446300
X581300Y446300
X591300Y446300
X601300Y446300
X611300Y446300
X621300Y446300
X631300Y446300
X641300Y446300
X651300Y446300
X651300Y486300
X641300Y486300
X631300Y486300
X621300Y486300
X611300Y486300
X601300Y486300
X591300Y486300
X581300Y486300
X571300Y486300
X561300Y486300
X551300Y506300
X551300Y516300
X561300Y516300
X571300Y516300
X581300Y516300
X591300Y516300
X601300Y516300
X611300Y516300
X621300Y516300
X631300Y516300
X641300Y516300
X651300Y516300
X391300Y396300
X381300Y396300
X371300Y396300
X361300Y396300
X351300Y396300
X341300Y396300
X331300Y396300
X321300Y396300
X311300Y396300
X301300Y396300
X291300Y396300
X291300Y386300
X276300Y396300
X266300Y396300
X256300Y396300
X246300Y396300
X236300Y396300
X226300Y396300
X216300Y396300
X206300Y396300
X196300Y396300
X186300Y396300
X176300Y396300
X176300Y386300
X186300Y366300
X196300Y366300
X206300Y366300
X216300Y366300
X226300Y366300
X236300Y366300
X246300Y366300
X256300Y366300
X266300Y366300
X276300Y366300
X301300Y366300
X311300Y366300
X321300Y366300
X331300Y366300
X341300Y366300
X351300Y366300
X361300Y366300
X371300Y366300
X381300Y366300
X391300Y366300
X386300Y416300
X376300Y416300
X366300Y416300
X356300Y416300
X346300Y416300
X336300Y416300
X326300Y416300
X316300Y416300
X306300Y416300
X306300Y431300
X316300Y431300
X326300Y431300
X336300Y431300
X346300Y431300
X356300Y431300
X366300Y431300
X376300Y431300
X386300Y431300
X376300Y451300
X366300Y451300
X356300Y451300
X346300Y451300
X336300Y451300
X326300Y451300
X316300Y451300
X306300Y451300
X286300Y431300
X276300Y431300
X266300Y431300
X256300Y431300
X246300Y431300
X236300Y431300
X226300Y431300
X216300Y431300
X206300Y431300
X206300Y416300
X216300Y416300
X226300Y416300
X236300Y416300
X246300Y416300
X256300Y416300
X266300Y416300
X276300Y416300
X286300Y416300
X276300Y451300
X266300Y451300
X256300Y451300
X246300Y451300
X236300Y451300
X226300Y451300
X216300Y451300
X206300Y451300
X186300Y446300
X186300Y436300
X186300Y426300
X186300Y416300
X156300Y416300
X156300Y426300
X156300Y436300
X156300Y446300
X156300Y456300
X156300Y466300
X156300Y476300
X176300Y486300
X186300Y486300
X186300Y476300
X186300Y466300
X186300Y456300
X206300Y481300
X216300Y481300
X226300Y481300
X236300Y481300
X246300Y481300
X256300Y481300
X266300Y481300
X276300Y481300
X276300Y506300
X266300Y506300
X256300Y506300
X246300Y506300
X236300Y506300
X226300Y506300
X216300Y506300
X206300Y506300
X206300Y536300
X216300Y536300
X226300Y536300
X236300Y536300
X246300Y536300
X256300Y536300
X266300Y536300
X276300Y536300
X306300Y536300
X316300Y536300
X326300Y536300
X336300Y536300
X346300Y536300
X356300Y536300
X366300Y536300
X376300Y536300
X376300Y506300
X366300Y506300
X356300Y506300
X346300Y506300
X336300Y506300
X326300Y506300
X316300Y506300
X306300Y506300
X306300Y481300
X316300Y481300
X326300Y481300
X336300Y481300
X346300Y481300
X356300Y481300
X366300Y481300
X376300Y481300
X251300Y286300
X231300Y286300
X216300Y286300
X206300Y286300
X206300Y271300
X206300Y251300
X231300Y266300
X251300Y266300
X246300Y226300
X246300Y216300
T03
X246300Y576300
X256300Y576300
X266300Y576300
X266300Y586300
X256300Y586300
X246300Y586300
X236300Y586300
X226300Y586300
X216300Y586300
X206300Y586300
X206300Y576300
X216300Y576300
X226300Y576300
X236300Y576300
X196300Y576300
X186300Y576300
X176300Y576300
X176300Y586300
X186300Y586300
X196300Y586300
X166300Y586300
X156300Y586300
X156300Y576300
X166300Y576300
X276300Y576300
X286300Y576300
X296300Y576300
X296300Y586300
X286300Y586300
X276300Y586300
X306300Y586300
X316300Y586300
X326300Y586300
X326300Y576300
X316300Y576300
X306300Y576300
X336300Y576300
X346300Y576300
X356300Y576300
X356300Y586300
X346300Y586300
X336300Y586300
X366300Y586300
X376300Y586300
X386300Y586300
X396300Y586300
X396300Y576300
X386300Y576300
X376300Y576300
X366300Y576300
X416300Y576300
X426300Y576300
X426300Y586300
X416300Y586300
X436300Y586300
X446300Y586300
X456300Y586300
X456300Y576300
X446300Y576300
X436300Y576300
X466300Y576300
X476300Y576300
X486300Y576300
X486300Y586300
X476300Y586300
X466300Y586300
X496300Y586300
X506300Y586300
X516300Y586300
X516300Y576300
X506300Y576300
X496300Y576300
X526300Y576300
X536300Y576300
X546300Y576300
X556300Y576300
X556300Y586300
X546300Y586300
X536300Y586300
X526300Y586300
X566300Y586300
X576300Y586300
X586300Y586300
X586300Y576300
X576300Y576300
X566300Y576300
X596300Y576300
X606300Y576300
X616300Y576300
X616300Y586300
X606300Y586300
X596300Y586300
X626300Y586300
X636300Y586300
X646300Y586300
X646300Y576300
X636300Y576300
X626300Y576300
X656300Y576300
X656300Y586300
X721300Y556300
X721300Y546300
X721300Y536300
X721300Y526300
X721300Y516300
X721300Y506300
X721300Y496300
X721300Y486300
X721300Y476300
X721300Y466300
X721300Y456300
X721300Y446300
X721300Y436300
X721300Y426300
X721300Y416300
X721300Y406300
X721300Y396300
X721300Y386300
X721300Y376300
X721300Y366300
X721300Y356300
X721300Y346300
X721300Y336300
X721300Y326300
X721300Y316300
X721300Y296300
X721300Y286300
X721300Y276300
X721300Y266300
X721300Y256300
X721300Y246300
X721300Y236300
X721300Y226300
X721300Y216300
X721300Y206300
X721300Y196300
X721300Y186300
X721300Y176300
X721300Y166300
X721300Y156300
X721300Y146300
X721300Y136300
X721300Y126300
X721300Y116300
X721300Y106300
X721300Y96300
X721300Y86300
X721300Y76300
X721300Y66300
X721300Y56300
X751300Y56300
X751300Y66300
X751300Y76300
X751300Y86300
X751300Y96300
X751300Y106300
X751300Y116300
X751300Y126300
X751300Y136300
X751300Y146300
X751300Y156300
X751300Y166300
X751300Y176300
X751300Y186300
X751300Y196300
X751300Y206300
X751300Y216300
X751300Y226300
X751300Y236300
X751300Y246300
X751300Y256300
X751300Y266300
X751300Y276300
X751300Y286300
X751300Y296300
X751300Y316300
X751300Y326300
X751300Y336300
X751300Y346300
X751300Y356300
X751300Y366300
X751300Y376300
X751300Y386300
X751300Y396300
X751300Y406300
X751300Y416300
X751300Y426300
X751300Y436300
X751300Y446300
X751300Y456300
X751300Y466300
X751300Y476300
X751300Y486300
X751300Y496300
X751300Y506300
X751300Y516300
X751300Y526300
X751300Y536300
X751300Y546300
X751300Y556300
T04
X736300Y556300
X736300Y546300
X736300Y536300
X736300Y526300
X736300Y516300
X736300Y506300
X736300Y496300
X736300Y486300
X736300Y476300
X736300Y466300
X736300Y456300
X736300Y446300
X736300Y436300
X736300Y426300
X736300Y416300
X736300Y406300
X736300Y396300
X736300Y386300
X736300Y376300
X736300Y366300
X736300Y356300
X736300Y346300
X736300Y336300
X736300Y326300
X736300Y316300
X736300Y296300
X736300Y286300
X736300Y276300
X736300Y266300
X736300Y256300
X736300Y246300
X736300Y236300
X736300Y226300
X736300Y216300
X736300Y206300
X736300Y196300
X736300Y186300
X736300Y176300
X736300Y166300
X736300Y156300
X736300Y146300
X736300Y136300
X736300Y126300
X736300Y116300
X736300Y106300
X736300Y96300
X736300Y86300
X736300Y76300
X736300Y66300
X736300Y56300
X136300Y576300
X126300Y576300
X116300Y576300
X116300Y586300
X126300Y586300
X136300Y586300
X106300Y586300
X96300Y586300
X96300Y576300
X106300Y576300
T05
X181300Y276300
X181300Y266300
X181300Y256300
T06
X122300Y266300
T07
X36300Y101300
X36300Y201300
X36300Y301300
X36300Y401300
X36300Y501300
M30
