%
M48
M72
T01C0.02400
T02C0.03200
T03C0.03250
T04C0.03600
T05C0.04000
T06C0.12500
%
T01
X132550Y77550
X80050Y85050
X27550Y85050
X137550Y112550
X185050Y127550
X165050Y132550
X195050Y116300
X102550Y132550
X93800Y132550
X85050Y132550
X67550Y128800
X121300Y152550
X131300Y157550
X242550Y170050
X295050Y162550
X317550Y128800
X316300Y115050
X305050Y113800
X337550Y115050
X530050Y113800
T02
X531300Y121300
X521300Y121300
X511300Y121300
X501300Y121300
X491300Y121300
X481300Y121300
X471300Y121300
X446300Y121300
X436300Y121300
X376300Y121300
X366300Y121300
X346300Y121300
X336300Y121300
X326300Y121300
X316300Y121300
X296300Y121300
X286300Y121300
X266300Y121300
X256300Y121300
X236300Y121300
X226300Y121300
X216300Y121300
X206300Y121300
X186300Y121300
X176300Y121300
X166300Y121300
X156300Y121300
X146300Y121300
X136300Y121300
X126300Y121300
X116300Y121300
X106300Y121300
X96300Y121300
X76300Y121300
X66300Y121300
X46300Y121300
X36300Y121300
X16300Y142300
X36300Y146300
X46300Y146300
X56300Y146300
X66300Y146300
X76300Y146300
X86300Y146300
X96300Y146300
X106300Y146300
X116300Y146300
X136300Y146300
X146300Y146300
X156300Y146300
X166300Y146300
X176300Y146300
X186300Y146300
X196300Y146300
X206300Y146300
X216300Y146300
X286300Y146300
X296300Y146300
X306300Y146300
X316300Y146300
X326300Y146300
X336300Y146300
X346300Y146300
X356300Y146300
X366300Y146300
X491300Y146300
X501300Y146300
X511300Y146300
X521300Y146300
X531300Y146300
X541300Y146300
X551300Y146300
X561300Y146300
X571300Y146300
X571300Y121300
X581300Y121300
X591300Y121300
X601300Y121300
X561300Y121300
X551300Y121300
X541300Y121300
X541300Y96300
X531300Y96300
X521300Y96300
X511300Y96300
X501300Y96300
X491300Y96300
X551300Y96300
X561300Y96300
X571300Y96300
X571300Y71300
X581300Y71300
X591300Y71300
X601300Y71300
X561300Y71300
X551300Y71300
X541300Y71300
X531300Y71300
X521300Y71300
X511300Y71300
X501300Y71300
X491300Y71300
X481300Y71300
X471300Y71300
X461300Y71300
X451300Y71300
X401300Y71300
X391300Y71300
X381300Y71300
X371300Y71300
X361300Y71300
X351300Y71300
X341300Y71300
X331300Y71300
X321300Y71300
X311300Y71300
X301300Y71300
X291300Y71300
X281300Y71300
X271300Y71300
X261300Y71300
X251300Y71300
X241300Y71300
X231300Y71300
X221300Y71300
X211300Y71300
X201300Y71300
X191300Y71300
X181300Y71300
X171300Y71300
X161300Y71300
X151300Y71300
X141300Y71300
X131300Y71300
X121300Y71300
X111300Y71300
X101300Y71300
X91300Y71300
X76300Y71300
X66300Y71300
X46300Y71300
X36300Y71300
X51300Y96300
X61300Y96300
X136300Y96300
X146300Y96300
X156300Y96300
X166300Y96300
X176300Y96300
X186300Y96300
X196300Y96300
X206300Y96300
X216300Y96300
X286300Y96300
X296300Y96300
X306300Y96300
X316300Y96300
X326300Y96300
X336300Y96300
X346300Y96300
X356300Y96300
X366300Y96300
X16300Y150300
T03
X96300Y176300
X106300Y176300
X116300Y176300
X126300Y176300
X136300Y176300
X146300Y176300
X156300Y176300
X166300Y176300
X176300Y176300
X186300Y176300
X196300Y176300
X206300Y176300
X216300Y176300
X226300Y176300
X236300Y176300
X246300Y176300
X256300Y176300
X266300Y176300
X276300Y176300
X286300Y176300
X296300Y176300
X306300Y176300
X316300Y176300
X326300Y176300
X336300Y176300
X356300Y176300
X366300Y176300
X376300Y176300
X386300Y176300
X396300Y176300
X406300Y176300
X416300Y176300
X426300Y176300
X436300Y176300
X446300Y176300
X456300Y176300
X466300Y176300
X476300Y176300
X486300Y176300
X496300Y176300
X506300Y176300
X516300Y176300
X526300Y176300
X536300Y176300
X546300Y176300
X556300Y176300
X566300Y176300
X576300Y176300
X586300Y176300
X596300Y176300
X596300Y186300
X586300Y186300
X576300Y186300
X566300Y186300
X556300Y186300
X546300Y186300
X536300Y186300
X526300Y186300
X516300Y186300
X506300Y186300
X496300Y186300
X486300Y186300
X476300Y186300
X466300Y186300
X456300Y186300
X446300Y186300
X436300Y186300
X426300Y186300
X416300Y186300
X406300Y186300
X396300Y186300
X386300Y186300
X376300Y186300
X366300Y186300
X356300Y186300
X336300Y186300
X326300Y186300
X316300Y186300
X306300Y186300
X296300Y186300
X286300Y186300
X276300Y186300
X266300Y186300
X256300Y186300
X246300Y186300
X236300Y186300
X226300Y186300
X216300Y186300
X206300Y186300
X196300Y186300
X186300Y186300
X176300Y186300
X166300Y186300
X156300Y186300
X146300Y186300
X136300Y186300
X126300Y186300
X116300Y186300
X106300Y186300
X96300Y186300
X96300Y31300
X106300Y31300
X116300Y31300
X126300Y31300
X136300Y31300
X146300Y31300
X156300Y31300
X166300Y31300
X176300Y31300
X186300Y31300
X196300Y31300
X206300Y31300
X216300Y31300
X226300Y31300
X236300Y31300
X246300Y31300
X256300Y31300
X266300Y31300
X276300Y31300
X286300Y31300
X296300Y31300
X306300Y31300
X316300Y31300
X326300Y31300
X336300Y31300
X356300Y31300
X366300Y31300
X376300Y31300
X386300Y31300
X396300Y31300
X406300Y31300
X416300Y31300
X426300Y31300
X436300Y31300
X446300Y31300
X456300Y31300
X466300Y31300
X476300Y31300
X486300Y31300
X496300Y31300
X506300Y31300
X516300Y31300
X526300Y31300
X536300Y31300
X546300Y31300
X556300Y31300
X566300Y31300
X576300Y31300
X586300Y31300
X596300Y31300
X596300Y21300
X586300Y21300
X576300Y21300
X566300Y21300
X556300Y21300
X546300Y21300
X536300Y21300
X526300Y21300
X516300Y21300
X506300Y21300
X496300Y21300
X486300Y21300
X476300Y21300
X466300Y21300
X456300Y21300
X446300Y21300
X436300Y21300
X426300Y21300
X416300Y21300
X406300Y21300
X396300Y21300
X386300Y21300
X376300Y21300
X366300Y21300
X356300Y21300
X336300Y21300
X326300Y21300
X316300Y21300
X306300Y21300
X296300Y21300
X286300Y21300
X276300Y21300
X266300Y21300
X256300Y21300
X246300Y21300
X236300Y21300
X226300Y21300
X216300Y21300
X206300Y21300
X196300Y21300
X186300Y21300
X176300Y21300
X166300Y21300
X156300Y21300
X146300Y21300
X136300Y21300
X126300Y21300
X116300Y21300
X106300Y21300
X96300Y21300
T04
X11300Y76300
X11300Y86300
X11300Y106300
X11300Y116300
T05
X36300Y21300
X46300Y21300
X56300Y21300
X66300Y21300
X76300Y21300
X76300Y31300
X66300Y31300
X56300Y31300
X46300Y31300
X36300Y31300
X36300Y176300
X46300Y176300
X56300Y176300
X66300Y176300
X76300Y176300
X76300Y186300
X66300Y186300
X56300Y186300
X46300Y186300
X36300Y186300
T06
X16300Y181300
X16300Y26300
X616300Y26300
X616300Y181300
M30
