G75*
%MOIN*%
%OFA0B0*%
%FSLAX25Y25*%
%IPPOS*%
%LPD*%
%AMOC8*
5,1,8,0,0,1.08239X$1,22.5*
%
%ADD10C,0.00000*%
D10*
X0001300Y0011300D02*
X0001300Y0196300D01*
X0631300Y0196300D01*
X0631300Y0011300D01*
X0001300Y0011300D01*
X0010050Y0026300D02*
X0010052Y0026458D01*
X0010058Y0026615D01*
X0010068Y0026773D01*
X0010082Y0026930D01*
X0010100Y0027086D01*
X0010121Y0027243D01*
X0010147Y0027398D01*
X0010177Y0027553D01*
X0010210Y0027707D01*
X0010248Y0027860D01*
X0010289Y0028013D01*
X0010334Y0028164D01*
X0010383Y0028314D01*
X0010436Y0028462D01*
X0010492Y0028610D01*
X0010553Y0028755D01*
X0010616Y0028900D01*
X0010684Y0029042D01*
X0010755Y0029183D01*
X0010829Y0029322D01*
X0010907Y0029459D01*
X0010989Y0029594D01*
X0011073Y0029727D01*
X0011162Y0029858D01*
X0011253Y0029986D01*
X0011348Y0030113D01*
X0011445Y0030236D01*
X0011546Y0030358D01*
X0011650Y0030476D01*
X0011757Y0030592D01*
X0011867Y0030705D01*
X0011979Y0030816D01*
X0012095Y0030923D01*
X0012213Y0031028D01*
X0012333Y0031130D01*
X0012456Y0031228D01*
X0012582Y0031324D01*
X0012710Y0031416D01*
X0012840Y0031505D01*
X0012972Y0031591D01*
X0013107Y0031673D01*
X0013244Y0031752D01*
X0013382Y0031827D01*
X0013522Y0031899D01*
X0013665Y0031967D01*
X0013808Y0032032D01*
X0013954Y0032093D01*
X0014101Y0032150D01*
X0014249Y0032204D01*
X0014399Y0032254D01*
X0014549Y0032300D01*
X0014701Y0032342D01*
X0014854Y0032381D01*
X0015008Y0032415D01*
X0015163Y0032446D01*
X0015318Y0032472D01*
X0015474Y0032495D01*
X0015631Y0032514D01*
X0015788Y0032529D01*
X0015945Y0032540D01*
X0016103Y0032547D01*
X0016261Y0032550D01*
X0016418Y0032549D01*
X0016576Y0032544D01*
X0016733Y0032535D01*
X0016891Y0032522D01*
X0017047Y0032505D01*
X0017204Y0032484D01*
X0017359Y0032460D01*
X0017514Y0032431D01*
X0017669Y0032398D01*
X0017822Y0032362D01*
X0017975Y0032321D01*
X0018126Y0032277D01*
X0018276Y0032229D01*
X0018425Y0032178D01*
X0018573Y0032122D01*
X0018719Y0032063D01*
X0018864Y0032000D01*
X0019007Y0031933D01*
X0019148Y0031863D01*
X0019287Y0031790D01*
X0019425Y0031713D01*
X0019561Y0031632D01*
X0019694Y0031548D01*
X0019825Y0031461D01*
X0019954Y0031370D01*
X0020081Y0031276D01*
X0020206Y0031179D01*
X0020327Y0031079D01*
X0020447Y0030976D01*
X0020563Y0030870D01*
X0020677Y0030761D01*
X0020789Y0030649D01*
X0020897Y0030535D01*
X0021002Y0030417D01*
X0021105Y0030297D01*
X0021204Y0030175D01*
X0021300Y0030050D01*
X0021393Y0029922D01*
X0021483Y0029793D01*
X0021569Y0029661D01*
X0021653Y0029527D01*
X0021732Y0029391D01*
X0021809Y0029253D01*
X0021881Y0029113D01*
X0021950Y0028971D01*
X0022016Y0028828D01*
X0022078Y0028683D01*
X0022136Y0028536D01*
X0022191Y0028388D01*
X0022242Y0028239D01*
X0022289Y0028088D01*
X0022332Y0027937D01*
X0022371Y0027784D01*
X0022407Y0027630D01*
X0022438Y0027476D01*
X0022466Y0027321D01*
X0022490Y0027165D01*
X0022510Y0027008D01*
X0022526Y0026851D01*
X0022538Y0026694D01*
X0022546Y0026537D01*
X0022550Y0026379D01*
X0022550Y0026221D01*
X0022546Y0026063D01*
X0022538Y0025906D01*
X0022526Y0025749D01*
X0022510Y0025592D01*
X0022490Y0025435D01*
X0022466Y0025279D01*
X0022438Y0025124D01*
X0022407Y0024970D01*
X0022371Y0024816D01*
X0022332Y0024663D01*
X0022289Y0024512D01*
X0022242Y0024361D01*
X0022191Y0024212D01*
X0022136Y0024064D01*
X0022078Y0023917D01*
X0022016Y0023772D01*
X0021950Y0023629D01*
X0021881Y0023487D01*
X0021809Y0023347D01*
X0021732Y0023209D01*
X0021653Y0023073D01*
X0021569Y0022939D01*
X0021483Y0022807D01*
X0021393Y0022678D01*
X0021300Y0022550D01*
X0021204Y0022425D01*
X0021105Y0022303D01*
X0021002Y0022183D01*
X0020897Y0022065D01*
X0020789Y0021951D01*
X0020677Y0021839D01*
X0020563Y0021730D01*
X0020447Y0021624D01*
X0020327Y0021521D01*
X0020206Y0021421D01*
X0020081Y0021324D01*
X0019954Y0021230D01*
X0019825Y0021139D01*
X0019694Y0021052D01*
X0019561Y0020968D01*
X0019425Y0020887D01*
X0019287Y0020810D01*
X0019148Y0020737D01*
X0019007Y0020667D01*
X0018864Y0020600D01*
X0018719Y0020537D01*
X0018573Y0020478D01*
X0018425Y0020422D01*
X0018276Y0020371D01*
X0018126Y0020323D01*
X0017975Y0020279D01*
X0017822Y0020238D01*
X0017669Y0020202D01*
X0017514Y0020169D01*
X0017359Y0020140D01*
X0017204Y0020116D01*
X0017047Y0020095D01*
X0016891Y0020078D01*
X0016733Y0020065D01*
X0016576Y0020056D01*
X0016418Y0020051D01*
X0016261Y0020050D01*
X0016103Y0020053D01*
X0015945Y0020060D01*
X0015788Y0020071D01*
X0015631Y0020086D01*
X0015474Y0020105D01*
X0015318Y0020128D01*
X0015163Y0020154D01*
X0015008Y0020185D01*
X0014854Y0020219D01*
X0014701Y0020258D01*
X0014549Y0020300D01*
X0014399Y0020346D01*
X0014249Y0020396D01*
X0014101Y0020450D01*
X0013954Y0020507D01*
X0013808Y0020568D01*
X0013665Y0020633D01*
X0013522Y0020701D01*
X0013382Y0020773D01*
X0013244Y0020848D01*
X0013107Y0020927D01*
X0012972Y0021009D01*
X0012840Y0021095D01*
X0012710Y0021184D01*
X0012582Y0021276D01*
X0012456Y0021372D01*
X0012333Y0021470D01*
X0012213Y0021572D01*
X0012095Y0021677D01*
X0011979Y0021784D01*
X0011867Y0021895D01*
X0011757Y0022008D01*
X0011650Y0022124D01*
X0011546Y0022242D01*
X0011445Y0022364D01*
X0011348Y0022487D01*
X0011253Y0022614D01*
X0011162Y0022742D01*
X0011073Y0022873D01*
X0010989Y0023006D01*
X0010907Y0023141D01*
X0010829Y0023278D01*
X0010755Y0023417D01*
X0010684Y0023558D01*
X0010616Y0023700D01*
X0010553Y0023845D01*
X0010492Y0023990D01*
X0010436Y0024138D01*
X0010383Y0024286D01*
X0010334Y0024436D01*
X0010289Y0024587D01*
X0010248Y0024740D01*
X0010210Y0024893D01*
X0010177Y0025047D01*
X0010147Y0025202D01*
X0010121Y0025357D01*
X0010100Y0025514D01*
X0010082Y0025670D01*
X0010068Y0025827D01*
X0010058Y0025985D01*
X0010052Y0026142D01*
X0010050Y0026300D01*
X0010050Y0181300D02*
X0010052Y0181458D01*
X0010058Y0181615D01*
X0010068Y0181773D01*
X0010082Y0181930D01*
X0010100Y0182086D01*
X0010121Y0182243D01*
X0010147Y0182398D01*
X0010177Y0182553D01*
X0010210Y0182707D01*
X0010248Y0182860D01*
X0010289Y0183013D01*
X0010334Y0183164D01*
X0010383Y0183314D01*
X0010436Y0183462D01*
X0010492Y0183610D01*
X0010553Y0183755D01*
X0010616Y0183900D01*
X0010684Y0184042D01*
X0010755Y0184183D01*
X0010829Y0184322D01*
X0010907Y0184459D01*
X0010989Y0184594D01*
X0011073Y0184727D01*
X0011162Y0184858D01*
X0011253Y0184986D01*
X0011348Y0185113D01*
X0011445Y0185236D01*
X0011546Y0185358D01*
X0011650Y0185476D01*
X0011757Y0185592D01*
X0011867Y0185705D01*
X0011979Y0185816D01*
X0012095Y0185923D01*
X0012213Y0186028D01*
X0012333Y0186130D01*
X0012456Y0186228D01*
X0012582Y0186324D01*
X0012710Y0186416D01*
X0012840Y0186505D01*
X0012972Y0186591D01*
X0013107Y0186673D01*
X0013244Y0186752D01*
X0013382Y0186827D01*
X0013522Y0186899D01*
X0013665Y0186967D01*
X0013808Y0187032D01*
X0013954Y0187093D01*
X0014101Y0187150D01*
X0014249Y0187204D01*
X0014399Y0187254D01*
X0014549Y0187300D01*
X0014701Y0187342D01*
X0014854Y0187381D01*
X0015008Y0187415D01*
X0015163Y0187446D01*
X0015318Y0187472D01*
X0015474Y0187495D01*
X0015631Y0187514D01*
X0015788Y0187529D01*
X0015945Y0187540D01*
X0016103Y0187547D01*
X0016261Y0187550D01*
X0016418Y0187549D01*
X0016576Y0187544D01*
X0016733Y0187535D01*
X0016891Y0187522D01*
X0017047Y0187505D01*
X0017204Y0187484D01*
X0017359Y0187460D01*
X0017514Y0187431D01*
X0017669Y0187398D01*
X0017822Y0187362D01*
X0017975Y0187321D01*
X0018126Y0187277D01*
X0018276Y0187229D01*
X0018425Y0187178D01*
X0018573Y0187122D01*
X0018719Y0187063D01*
X0018864Y0187000D01*
X0019007Y0186933D01*
X0019148Y0186863D01*
X0019287Y0186790D01*
X0019425Y0186713D01*
X0019561Y0186632D01*
X0019694Y0186548D01*
X0019825Y0186461D01*
X0019954Y0186370D01*
X0020081Y0186276D01*
X0020206Y0186179D01*
X0020327Y0186079D01*
X0020447Y0185976D01*
X0020563Y0185870D01*
X0020677Y0185761D01*
X0020789Y0185649D01*
X0020897Y0185535D01*
X0021002Y0185417D01*
X0021105Y0185297D01*
X0021204Y0185175D01*
X0021300Y0185050D01*
X0021393Y0184922D01*
X0021483Y0184793D01*
X0021569Y0184661D01*
X0021653Y0184527D01*
X0021732Y0184391D01*
X0021809Y0184253D01*
X0021881Y0184113D01*
X0021950Y0183971D01*
X0022016Y0183828D01*
X0022078Y0183683D01*
X0022136Y0183536D01*
X0022191Y0183388D01*
X0022242Y0183239D01*
X0022289Y0183088D01*
X0022332Y0182937D01*
X0022371Y0182784D01*
X0022407Y0182630D01*
X0022438Y0182476D01*
X0022466Y0182321D01*
X0022490Y0182165D01*
X0022510Y0182008D01*
X0022526Y0181851D01*
X0022538Y0181694D01*
X0022546Y0181537D01*
X0022550Y0181379D01*
X0022550Y0181221D01*
X0022546Y0181063D01*
X0022538Y0180906D01*
X0022526Y0180749D01*
X0022510Y0180592D01*
X0022490Y0180435D01*
X0022466Y0180279D01*
X0022438Y0180124D01*
X0022407Y0179970D01*
X0022371Y0179816D01*
X0022332Y0179663D01*
X0022289Y0179512D01*
X0022242Y0179361D01*
X0022191Y0179212D01*
X0022136Y0179064D01*
X0022078Y0178917D01*
X0022016Y0178772D01*
X0021950Y0178629D01*
X0021881Y0178487D01*
X0021809Y0178347D01*
X0021732Y0178209D01*
X0021653Y0178073D01*
X0021569Y0177939D01*
X0021483Y0177807D01*
X0021393Y0177678D01*
X0021300Y0177550D01*
X0021204Y0177425D01*
X0021105Y0177303D01*
X0021002Y0177183D01*
X0020897Y0177065D01*
X0020789Y0176951D01*
X0020677Y0176839D01*
X0020563Y0176730D01*
X0020447Y0176624D01*
X0020327Y0176521D01*
X0020206Y0176421D01*
X0020081Y0176324D01*
X0019954Y0176230D01*
X0019825Y0176139D01*
X0019694Y0176052D01*
X0019561Y0175968D01*
X0019425Y0175887D01*
X0019287Y0175810D01*
X0019148Y0175737D01*
X0019007Y0175667D01*
X0018864Y0175600D01*
X0018719Y0175537D01*
X0018573Y0175478D01*
X0018425Y0175422D01*
X0018276Y0175371D01*
X0018126Y0175323D01*
X0017975Y0175279D01*
X0017822Y0175238D01*
X0017669Y0175202D01*
X0017514Y0175169D01*
X0017359Y0175140D01*
X0017204Y0175116D01*
X0017047Y0175095D01*
X0016891Y0175078D01*
X0016733Y0175065D01*
X0016576Y0175056D01*
X0016418Y0175051D01*
X0016261Y0175050D01*
X0016103Y0175053D01*
X0015945Y0175060D01*
X0015788Y0175071D01*
X0015631Y0175086D01*
X0015474Y0175105D01*
X0015318Y0175128D01*
X0015163Y0175154D01*
X0015008Y0175185D01*
X0014854Y0175219D01*
X0014701Y0175258D01*
X0014549Y0175300D01*
X0014399Y0175346D01*
X0014249Y0175396D01*
X0014101Y0175450D01*
X0013954Y0175507D01*
X0013808Y0175568D01*
X0013665Y0175633D01*
X0013522Y0175701D01*
X0013382Y0175773D01*
X0013244Y0175848D01*
X0013107Y0175927D01*
X0012972Y0176009D01*
X0012840Y0176095D01*
X0012710Y0176184D01*
X0012582Y0176276D01*
X0012456Y0176372D01*
X0012333Y0176470D01*
X0012213Y0176572D01*
X0012095Y0176677D01*
X0011979Y0176784D01*
X0011867Y0176895D01*
X0011757Y0177008D01*
X0011650Y0177124D01*
X0011546Y0177242D01*
X0011445Y0177364D01*
X0011348Y0177487D01*
X0011253Y0177614D01*
X0011162Y0177742D01*
X0011073Y0177873D01*
X0010989Y0178006D01*
X0010907Y0178141D01*
X0010829Y0178278D01*
X0010755Y0178417D01*
X0010684Y0178558D01*
X0010616Y0178700D01*
X0010553Y0178845D01*
X0010492Y0178990D01*
X0010436Y0179138D01*
X0010383Y0179286D01*
X0010334Y0179436D01*
X0010289Y0179587D01*
X0010248Y0179740D01*
X0010210Y0179893D01*
X0010177Y0180047D01*
X0010147Y0180202D01*
X0010121Y0180357D01*
X0010100Y0180514D01*
X0010082Y0180670D01*
X0010068Y0180827D01*
X0010058Y0180985D01*
X0010052Y0181142D01*
X0010050Y0181300D01*
X0610050Y0181300D02*
X0610052Y0181458D01*
X0610058Y0181615D01*
X0610068Y0181773D01*
X0610082Y0181930D01*
X0610100Y0182086D01*
X0610121Y0182243D01*
X0610147Y0182398D01*
X0610177Y0182553D01*
X0610210Y0182707D01*
X0610248Y0182860D01*
X0610289Y0183013D01*
X0610334Y0183164D01*
X0610383Y0183314D01*
X0610436Y0183462D01*
X0610492Y0183610D01*
X0610553Y0183755D01*
X0610616Y0183900D01*
X0610684Y0184042D01*
X0610755Y0184183D01*
X0610829Y0184322D01*
X0610907Y0184459D01*
X0610989Y0184594D01*
X0611073Y0184727D01*
X0611162Y0184858D01*
X0611253Y0184986D01*
X0611348Y0185113D01*
X0611445Y0185236D01*
X0611546Y0185358D01*
X0611650Y0185476D01*
X0611757Y0185592D01*
X0611867Y0185705D01*
X0611979Y0185816D01*
X0612095Y0185923D01*
X0612213Y0186028D01*
X0612333Y0186130D01*
X0612456Y0186228D01*
X0612582Y0186324D01*
X0612710Y0186416D01*
X0612840Y0186505D01*
X0612972Y0186591D01*
X0613107Y0186673D01*
X0613244Y0186752D01*
X0613382Y0186827D01*
X0613522Y0186899D01*
X0613665Y0186967D01*
X0613808Y0187032D01*
X0613954Y0187093D01*
X0614101Y0187150D01*
X0614249Y0187204D01*
X0614399Y0187254D01*
X0614549Y0187300D01*
X0614701Y0187342D01*
X0614854Y0187381D01*
X0615008Y0187415D01*
X0615163Y0187446D01*
X0615318Y0187472D01*
X0615474Y0187495D01*
X0615631Y0187514D01*
X0615788Y0187529D01*
X0615945Y0187540D01*
X0616103Y0187547D01*
X0616261Y0187550D01*
X0616418Y0187549D01*
X0616576Y0187544D01*
X0616733Y0187535D01*
X0616891Y0187522D01*
X0617047Y0187505D01*
X0617204Y0187484D01*
X0617359Y0187460D01*
X0617514Y0187431D01*
X0617669Y0187398D01*
X0617822Y0187362D01*
X0617975Y0187321D01*
X0618126Y0187277D01*
X0618276Y0187229D01*
X0618425Y0187178D01*
X0618573Y0187122D01*
X0618719Y0187063D01*
X0618864Y0187000D01*
X0619007Y0186933D01*
X0619148Y0186863D01*
X0619287Y0186790D01*
X0619425Y0186713D01*
X0619561Y0186632D01*
X0619694Y0186548D01*
X0619825Y0186461D01*
X0619954Y0186370D01*
X0620081Y0186276D01*
X0620206Y0186179D01*
X0620327Y0186079D01*
X0620447Y0185976D01*
X0620563Y0185870D01*
X0620677Y0185761D01*
X0620789Y0185649D01*
X0620897Y0185535D01*
X0621002Y0185417D01*
X0621105Y0185297D01*
X0621204Y0185175D01*
X0621300Y0185050D01*
X0621393Y0184922D01*
X0621483Y0184793D01*
X0621569Y0184661D01*
X0621653Y0184527D01*
X0621732Y0184391D01*
X0621809Y0184253D01*
X0621881Y0184113D01*
X0621950Y0183971D01*
X0622016Y0183828D01*
X0622078Y0183683D01*
X0622136Y0183536D01*
X0622191Y0183388D01*
X0622242Y0183239D01*
X0622289Y0183088D01*
X0622332Y0182937D01*
X0622371Y0182784D01*
X0622407Y0182630D01*
X0622438Y0182476D01*
X0622466Y0182321D01*
X0622490Y0182165D01*
X0622510Y0182008D01*
X0622526Y0181851D01*
X0622538Y0181694D01*
X0622546Y0181537D01*
X0622550Y0181379D01*
X0622550Y0181221D01*
X0622546Y0181063D01*
X0622538Y0180906D01*
X0622526Y0180749D01*
X0622510Y0180592D01*
X0622490Y0180435D01*
X0622466Y0180279D01*
X0622438Y0180124D01*
X0622407Y0179970D01*
X0622371Y0179816D01*
X0622332Y0179663D01*
X0622289Y0179512D01*
X0622242Y0179361D01*
X0622191Y0179212D01*
X0622136Y0179064D01*
X0622078Y0178917D01*
X0622016Y0178772D01*
X0621950Y0178629D01*
X0621881Y0178487D01*
X0621809Y0178347D01*
X0621732Y0178209D01*
X0621653Y0178073D01*
X0621569Y0177939D01*
X0621483Y0177807D01*
X0621393Y0177678D01*
X0621300Y0177550D01*
X0621204Y0177425D01*
X0621105Y0177303D01*
X0621002Y0177183D01*
X0620897Y0177065D01*
X0620789Y0176951D01*
X0620677Y0176839D01*
X0620563Y0176730D01*
X0620447Y0176624D01*
X0620327Y0176521D01*
X0620206Y0176421D01*
X0620081Y0176324D01*
X0619954Y0176230D01*
X0619825Y0176139D01*
X0619694Y0176052D01*
X0619561Y0175968D01*
X0619425Y0175887D01*
X0619287Y0175810D01*
X0619148Y0175737D01*
X0619007Y0175667D01*
X0618864Y0175600D01*
X0618719Y0175537D01*
X0618573Y0175478D01*
X0618425Y0175422D01*
X0618276Y0175371D01*
X0618126Y0175323D01*
X0617975Y0175279D01*
X0617822Y0175238D01*
X0617669Y0175202D01*
X0617514Y0175169D01*
X0617359Y0175140D01*
X0617204Y0175116D01*
X0617047Y0175095D01*
X0616891Y0175078D01*
X0616733Y0175065D01*
X0616576Y0175056D01*
X0616418Y0175051D01*
X0616261Y0175050D01*
X0616103Y0175053D01*
X0615945Y0175060D01*
X0615788Y0175071D01*
X0615631Y0175086D01*
X0615474Y0175105D01*
X0615318Y0175128D01*
X0615163Y0175154D01*
X0615008Y0175185D01*
X0614854Y0175219D01*
X0614701Y0175258D01*
X0614549Y0175300D01*
X0614399Y0175346D01*
X0614249Y0175396D01*
X0614101Y0175450D01*
X0613954Y0175507D01*
X0613808Y0175568D01*
X0613665Y0175633D01*
X0613522Y0175701D01*
X0613382Y0175773D01*
X0613244Y0175848D01*
X0613107Y0175927D01*
X0612972Y0176009D01*
X0612840Y0176095D01*
X0612710Y0176184D01*
X0612582Y0176276D01*
X0612456Y0176372D01*
X0612333Y0176470D01*
X0612213Y0176572D01*
X0612095Y0176677D01*
X0611979Y0176784D01*
X0611867Y0176895D01*
X0611757Y0177008D01*
X0611650Y0177124D01*
X0611546Y0177242D01*
X0611445Y0177364D01*
X0611348Y0177487D01*
X0611253Y0177614D01*
X0611162Y0177742D01*
X0611073Y0177873D01*
X0610989Y0178006D01*
X0610907Y0178141D01*
X0610829Y0178278D01*
X0610755Y0178417D01*
X0610684Y0178558D01*
X0610616Y0178700D01*
X0610553Y0178845D01*
X0610492Y0178990D01*
X0610436Y0179138D01*
X0610383Y0179286D01*
X0610334Y0179436D01*
X0610289Y0179587D01*
X0610248Y0179740D01*
X0610210Y0179893D01*
X0610177Y0180047D01*
X0610147Y0180202D01*
X0610121Y0180357D01*
X0610100Y0180514D01*
X0610082Y0180670D01*
X0610068Y0180827D01*
X0610058Y0180985D01*
X0610052Y0181142D01*
X0610050Y0181300D01*
X0610050Y0026300D02*
X0610052Y0026458D01*
X0610058Y0026615D01*
X0610068Y0026773D01*
X0610082Y0026930D01*
X0610100Y0027086D01*
X0610121Y0027243D01*
X0610147Y0027398D01*
X0610177Y0027553D01*
X0610210Y0027707D01*
X0610248Y0027860D01*
X0610289Y0028013D01*
X0610334Y0028164D01*
X0610383Y0028314D01*
X0610436Y0028462D01*
X0610492Y0028610D01*
X0610553Y0028755D01*
X0610616Y0028900D01*
X0610684Y0029042D01*
X0610755Y0029183D01*
X0610829Y0029322D01*
X0610907Y0029459D01*
X0610989Y0029594D01*
X0611073Y0029727D01*
X0611162Y0029858D01*
X0611253Y0029986D01*
X0611348Y0030113D01*
X0611445Y0030236D01*
X0611546Y0030358D01*
X0611650Y0030476D01*
X0611757Y0030592D01*
X0611867Y0030705D01*
X0611979Y0030816D01*
X0612095Y0030923D01*
X0612213Y0031028D01*
X0612333Y0031130D01*
X0612456Y0031228D01*
X0612582Y0031324D01*
X0612710Y0031416D01*
X0612840Y0031505D01*
X0612972Y0031591D01*
X0613107Y0031673D01*
X0613244Y0031752D01*
X0613382Y0031827D01*
X0613522Y0031899D01*
X0613665Y0031967D01*
X0613808Y0032032D01*
X0613954Y0032093D01*
X0614101Y0032150D01*
X0614249Y0032204D01*
X0614399Y0032254D01*
X0614549Y0032300D01*
X0614701Y0032342D01*
X0614854Y0032381D01*
X0615008Y0032415D01*
X0615163Y0032446D01*
X0615318Y0032472D01*
X0615474Y0032495D01*
X0615631Y0032514D01*
X0615788Y0032529D01*
X0615945Y0032540D01*
X0616103Y0032547D01*
X0616261Y0032550D01*
X0616418Y0032549D01*
X0616576Y0032544D01*
X0616733Y0032535D01*
X0616891Y0032522D01*
X0617047Y0032505D01*
X0617204Y0032484D01*
X0617359Y0032460D01*
X0617514Y0032431D01*
X0617669Y0032398D01*
X0617822Y0032362D01*
X0617975Y0032321D01*
X0618126Y0032277D01*
X0618276Y0032229D01*
X0618425Y0032178D01*
X0618573Y0032122D01*
X0618719Y0032063D01*
X0618864Y0032000D01*
X0619007Y0031933D01*
X0619148Y0031863D01*
X0619287Y0031790D01*
X0619425Y0031713D01*
X0619561Y0031632D01*
X0619694Y0031548D01*
X0619825Y0031461D01*
X0619954Y0031370D01*
X0620081Y0031276D01*
X0620206Y0031179D01*
X0620327Y0031079D01*
X0620447Y0030976D01*
X0620563Y0030870D01*
X0620677Y0030761D01*
X0620789Y0030649D01*
X0620897Y0030535D01*
X0621002Y0030417D01*
X0621105Y0030297D01*
X0621204Y0030175D01*
X0621300Y0030050D01*
X0621393Y0029922D01*
X0621483Y0029793D01*
X0621569Y0029661D01*
X0621653Y0029527D01*
X0621732Y0029391D01*
X0621809Y0029253D01*
X0621881Y0029113D01*
X0621950Y0028971D01*
X0622016Y0028828D01*
X0622078Y0028683D01*
X0622136Y0028536D01*
X0622191Y0028388D01*
X0622242Y0028239D01*
X0622289Y0028088D01*
X0622332Y0027937D01*
X0622371Y0027784D01*
X0622407Y0027630D01*
X0622438Y0027476D01*
X0622466Y0027321D01*
X0622490Y0027165D01*
X0622510Y0027008D01*
X0622526Y0026851D01*
X0622538Y0026694D01*
X0622546Y0026537D01*
X0622550Y0026379D01*
X0622550Y0026221D01*
X0622546Y0026063D01*
X0622538Y0025906D01*
X0622526Y0025749D01*
X0622510Y0025592D01*
X0622490Y0025435D01*
X0622466Y0025279D01*
X0622438Y0025124D01*
X0622407Y0024970D01*
X0622371Y0024816D01*
X0622332Y0024663D01*
X0622289Y0024512D01*
X0622242Y0024361D01*
X0622191Y0024212D01*
X0622136Y0024064D01*
X0622078Y0023917D01*
X0622016Y0023772D01*
X0621950Y0023629D01*
X0621881Y0023487D01*
X0621809Y0023347D01*
X0621732Y0023209D01*
X0621653Y0023073D01*
X0621569Y0022939D01*
X0621483Y0022807D01*
X0621393Y0022678D01*
X0621300Y0022550D01*
X0621204Y0022425D01*
X0621105Y0022303D01*
X0621002Y0022183D01*
X0620897Y0022065D01*
X0620789Y0021951D01*
X0620677Y0021839D01*
X0620563Y0021730D01*
X0620447Y0021624D01*
X0620327Y0021521D01*
X0620206Y0021421D01*
X0620081Y0021324D01*
X0619954Y0021230D01*
X0619825Y0021139D01*
X0619694Y0021052D01*
X0619561Y0020968D01*
X0619425Y0020887D01*
X0619287Y0020810D01*
X0619148Y0020737D01*
X0619007Y0020667D01*
X0618864Y0020600D01*
X0618719Y0020537D01*
X0618573Y0020478D01*
X0618425Y0020422D01*
X0618276Y0020371D01*
X0618126Y0020323D01*
X0617975Y0020279D01*
X0617822Y0020238D01*
X0617669Y0020202D01*
X0617514Y0020169D01*
X0617359Y0020140D01*
X0617204Y0020116D01*
X0617047Y0020095D01*
X0616891Y0020078D01*
X0616733Y0020065D01*
X0616576Y0020056D01*
X0616418Y0020051D01*
X0616261Y0020050D01*
X0616103Y0020053D01*
X0615945Y0020060D01*
X0615788Y0020071D01*
X0615631Y0020086D01*
X0615474Y0020105D01*
X0615318Y0020128D01*
X0615163Y0020154D01*
X0615008Y0020185D01*
X0614854Y0020219D01*
X0614701Y0020258D01*
X0614549Y0020300D01*
X0614399Y0020346D01*
X0614249Y0020396D01*
X0614101Y0020450D01*
X0613954Y0020507D01*
X0613808Y0020568D01*
X0613665Y0020633D01*
X0613522Y0020701D01*
X0613382Y0020773D01*
X0613244Y0020848D01*
X0613107Y0020927D01*
X0612972Y0021009D01*
X0612840Y0021095D01*
X0612710Y0021184D01*
X0612582Y0021276D01*
X0612456Y0021372D01*
X0612333Y0021470D01*
X0612213Y0021572D01*
X0612095Y0021677D01*
X0611979Y0021784D01*
X0611867Y0021895D01*
X0611757Y0022008D01*
X0611650Y0022124D01*
X0611546Y0022242D01*
X0611445Y0022364D01*
X0611348Y0022487D01*
X0611253Y0022614D01*
X0611162Y0022742D01*
X0611073Y0022873D01*
X0610989Y0023006D01*
X0610907Y0023141D01*
X0610829Y0023278D01*
X0610755Y0023417D01*
X0610684Y0023558D01*
X0610616Y0023700D01*
X0610553Y0023845D01*
X0610492Y0023990D01*
X0610436Y0024138D01*
X0610383Y0024286D01*
X0610334Y0024436D01*
X0610289Y0024587D01*
X0610248Y0024740D01*
X0610210Y0024893D01*
X0610177Y0025047D01*
X0610147Y0025202D01*
X0610121Y0025357D01*
X0610100Y0025514D01*
X0610082Y0025670D01*
X0610068Y0025827D01*
X0610058Y0025985D01*
X0610052Y0026142D01*
X0610050Y0026300D01*
M02*
