G75*
%MOIN*%
%OFA0B0*%
%FSLAX25Y25*%
%IPPOS*%
%LPD*%
%AMOC8*
5,1,8,0,0,1.08239X$1,22.5*
%
%ADD10C,0.00000*%
D10*
X0011300Y0006300D02*
X0396300Y0006300D01*
X0396300Y0554300D01*
X0011300Y0554300D01*
X0011300Y0006300D01*
X0015050Y0016300D02*
X0015052Y0016458D01*
X0015058Y0016615D01*
X0015068Y0016773D01*
X0015082Y0016930D01*
X0015100Y0017086D01*
X0015121Y0017243D01*
X0015147Y0017398D01*
X0015177Y0017553D01*
X0015210Y0017707D01*
X0015248Y0017860D01*
X0015289Y0018013D01*
X0015334Y0018164D01*
X0015383Y0018314D01*
X0015436Y0018462D01*
X0015492Y0018610D01*
X0015553Y0018755D01*
X0015616Y0018900D01*
X0015684Y0019042D01*
X0015755Y0019183D01*
X0015829Y0019322D01*
X0015907Y0019459D01*
X0015989Y0019594D01*
X0016073Y0019727D01*
X0016162Y0019858D01*
X0016253Y0019986D01*
X0016348Y0020113D01*
X0016445Y0020236D01*
X0016546Y0020358D01*
X0016650Y0020476D01*
X0016757Y0020592D01*
X0016867Y0020705D01*
X0016979Y0020816D01*
X0017095Y0020923D01*
X0017213Y0021028D01*
X0017333Y0021130D01*
X0017456Y0021228D01*
X0017582Y0021324D01*
X0017710Y0021416D01*
X0017840Y0021505D01*
X0017972Y0021591D01*
X0018107Y0021673D01*
X0018244Y0021752D01*
X0018382Y0021827D01*
X0018522Y0021899D01*
X0018665Y0021967D01*
X0018808Y0022032D01*
X0018954Y0022093D01*
X0019101Y0022150D01*
X0019249Y0022204D01*
X0019399Y0022254D01*
X0019549Y0022300D01*
X0019701Y0022342D01*
X0019854Y0022381D01*
X0020008Y0022415D01*
X0020163Y0022446D01*
X0020318Y0022472D01*
X0020474Y0022495D01*
X0020631Y0022514D01*
X0020788Y0022529D01*
X0020945Y0022540D01*
X0021103Y0022547D01*
X0021261Y0022550D01*
X0021418Y0022549D01*
X0021576Y0022544D01*
X0021733Y0022535D01*
X0021891Y0022522D01*
X0022047Y0022505D01*
X0022204Y0022484D01*
X0022359Y0022460D01*
X0022514Y0022431D01*
X0022669Y0022398D01*
X0022822Y0022362D01*
X0022975Y0022321D01*
X0023126Y0022277D01*
X0023276Y0022229D01*
X0023425Y0022178D01*
X0023573Y0022122D01*
X0023719Y0022063D01*
X0023864Y0022000D01*
X0024007Y0021933D01*
X0024148Y0021863D01*
X0024287Y0021790D01*
X0024425Y0021713D01*
X0024561Y0021632D01*
X0024694Y0021548D01*
X0024825Y0021461D01*
X0024954Y0021370D01*
X0025081Y0021276D01*
X0025206Y0021179D01*
X0025327Y0021079D01*
X0025447Y0020976D01*
X0025563Y0020870D01*
X0025677Y0020761D01*
X0025789Y0020649D01*
X0025897Y0020535D01*
X0026002Y0020417D01*
X0026105Y0020297D01*
X0026204Y0020175D01*
X0026300Y0020050D01*
X0026393Y0019922D01*
X0026483Y0019793D01*
X0026569Y0019661D01*
X0026653Y0019527D01*
X0026732Y0019391D01*
X0026809Y0019253D01*
X0026881Y0019113D01*
X0026950Y0018971D01*
X0027016Y0018828D01*
X0027078Y0018683D01*
X0027136Y0018536D01*
X0027191Y0018388D01*
X0027242Y0018239D01*
X0027289Y0018088D01*
X0027332Y0017937D01*
X0027371Y0017784D01*
X0027407Y0017630D01*
X0027438Y0017476D01*
X0027466Y0017321D01*
X0027490Y0017165D01*
X0027510Y0017008D01*
X0027526Y0016851D01*
X0027538Y0016694D01*
X0027546Y0016537D01*
X0027550Y0016379D01*
X0027550Y0016221D01*
X0027546Y0016063D01*
X0027538Y0015906D01*
X0027526Y0015749D01*
X0027510Y0015592D01*
X0027490Y0015435D01*
X0027466Y0015279D01*
X0027438Y0015124D01*
X0027407Y0014970D01*
X0027371Y0014816D01*
X0027332Y0014663D01*
X0027289Y0014512D01*
X0027242Y0014361D01*
X0027191Y0014212D01*
X0027136Y0014064D01*
X0027078Y0013917D01*
X0027016Y0013772D01*
X0026950Y0013629D01*
X0026881Y0013487D01*
X0026809Y0013347D01*
X0026732Y0013209D01*
X0026653Y0013073D01*
X0026569Y0012939D01*
X0026483Y0012807D01*
X0026393Y0012678D01*
X0026300Y0012550D01*
X0026204Y0012425D01*
X0026105Y0012303D01*
X0026002Y0012183D01*
X0025897Y0012065D01*
X0025789Y0011951D01*
X0025677Y0011839D01*
X0025563Y0011730D01*
X0025447Y0011624D01*
X0025327Y0011521D01*
X0025206Y0011421D01*
X0025081Y0011324D01*
X0024954Y0011230D01*
X0024825Y0011139D01*
X0024694Y0011052D01*
X0024561Y0010968D01*
X0024425Y0010887D01*
X0024287Y0010810D01*
X0024148Y0010737D01*
X0024007Y0010667D01*
X0023864Y0010600D01*
X0023719Y0010537D01*
X0023573Y0010478D01*
X0023425Y0010422D01*
X0023276Y0010371D01*
X0023126Y0010323D01*
X0022975Y0010279D01*
X0022822Y0010238D01*
X0022669Y0010202D01*
X0022514Y0010169D01*
X0022359Y0010140D01*
X0022204Y0010116D01*
X0022047Y0010095D01*
X0021891Y0010078D01*
X0021733Y0010065D01*
X0021576Y0010056D01*
X0021418Y0010051D01*
X0021261Y0010050D01*
X0021103Y0010053D01*
X0020945Y0010060D01*
X0020788Y0010071D01*
X0020631Y0010086D01*
X0020474Y0010105D01*
X0020318Y0010128D01*
X0020163Y0010154D01*
X0020008Y0010185D01*
X0019854Y0010219D01*
X0019701Y0010258D01*
X0019549Y0010300D01*
X0019399Y0010346D01*
X0019249Y0010396D01*
X0019101Y0010450D01*
X0018954Y0010507D01*
X0018808Y0010568D01*
X0018665Y0010633D01*
X0018522Y0010701D01*
X0018382Y0010773D01*
X0018244Y0010848D01*
X0018107Y0010927D01*
X0017972Y0011009D01*
X0017840Y0011095D01*
X0017710Y0011184D01*
X0017582Y0011276D01*
X0017456Y0011372D01*
X0017333Y0011470D01*
X0017213Y0011572D01*
X0017095Y0011677D01*
X0016979Y0011784D01*
X0016867Y0011895D01*
X0016757Y0012008D01*
X0016650Y0012124D01*
X0016546Y0012242D01*
X0016445Y0012364D01*
X0016348Y0012487D01*
X0016253Y0012614D01*
X0016162Y0012742D01*
X0016073Y0012873D01*
X0015989Y0013006D01*
X0015907Y0013141D01*
X0015829Y0013278D01*
X0015755Y0013417D01*
X0015684Y0013558D01*
X0015616Y0013700D01*
X0015553Y0013845D01*
X0015492Y0013990D01*
X0015436Y0014138D01*
X0015383Y0014286D01*
X0015334Y0014436D01*
X0015289Y0014587D01*
X0015248Y0014740D01*
X0015210Y0014893D01*
X0015177Y0015047D01*
X0015147Y0015202D01*
X0015121Y0015357D01*
X0015100Y0015514D01*
X0015082Y0015670D01*
X0015068Y0015827D01*
X0015058Y0015985D01*
X0015052Y0016142D01*
X0015050Y0016300D01*
X0015050Y0251300D02*
X0015052Y0251458D01*
X0015058Y0251615D01*
X0015068Y0251773D01*
X0015082Y0251930D01*
X0015100Y0252086D01*
X0015121Y0252243D01*
X0015147Y0252398D01*
X0015177Y0252553D01*
X0015210Y0252707D01*
X0015248Y0252860D01*
X0015289Y0253013D01*
X0015334Y0253164D01*
X0015383Y0253314D01*
X0015436Y0253462D01*
X0015492Y0253610D01*
X0015553Y0253755D01*
X0015616Y0253900D01*
X0015684Y0254042D01*
X0015755Y0254183D01*
X0015829Y0254322D01*
X0015907Y0254459D01*
X0015989Y0254594D01*
X0016073Y0254727D01*
X0016162Y0254858D01*
X0016253Y0254986D01*
X0016348Y0255113D01*
X0016445Y0255236D01*
X0016546Y0255358D01*
X0016650Y0255476D01*
X0016757Y0255592D01*
X0016867Y0255705D01*
X0016979Y0255816D01*
X0017095Y0255923D01*
X0017213Y0256028D01*
X0017333Y0256130D01*
X0017456Y0256228D01*
X0017582Y0256324D01*
X0017710Y0256416D01*
X0017840Y0256505D01*
X0017972Y0256591D01*
X0018107Y0256673D01*
X0018244Y0256752D01*
X0018382Y0256827D01*
X0018522Y0256899D01*
X0018665Y0256967D01*
X0018808Y0257032D01*
X0018954Y0257093D01*
X0019101Y0257150D01*
X0019249Y0257204D01*
X0019399Y0257254D01*
X0019549Y0257300D01*
X0019701Y0257342D01*
X0019854Y0257381D01*
X0020008Y0257415D01*
X0020163Y0257446D01*
X0020318Y0257472D01*
X0020474Y0257495D01*
X0020631Y0257514D01*
X0020788Y0257529D01*
X0020945Y0257540D01*
X0021103Y0257547D01*
X0021261Y0257550D01*
X0021418Y0257549D01*
X0021576Y0257544D01*
X0021733Y0257535D01*
X0021891Y0257522D01*
X0022047Y0257505D01*
X0022204Y0257484D01*
X0022359Y0257460D01*
X0022514Y0257431D01*
X0022669Y0257398D01*
X0022822Y0257362D01*
X0022975Y0257321D01*
X0023126Y0257277D01*
X0023276Y0257229D01*
X0023425Y0257178D01*
X0023573Y0257122D01*
X0023719Y0257063D01*
X0023864Y0257000D01*
X0024007Y0256933D01*
X0024148Y0256863D01*
X0024287Y0256790D01*
X0024425Y0256713D01*
X0024561Y0256632D01*
X0024694Y0256548D01*
X0024825Y0256461D01*
X0024954Y0256370D01*
X0025081Y0256276D01*
X0025206Y0256179D01*
X0025327Y0256079D01*
X0025447Y0255976D01*
X0025563Y0255870D01*
X0025677Y0255761D01*
X0025789Y0255649D01*
X0025897Y0255535D01*
X0026002Y0255417D01*
X0026105Y0255297D01*
X0026204Y0255175D01*
X0026300Y0255050D01*
X0026393Y0254922D01*
X0026483Y0254793D01*
X0026569Y0254661D01*
X0026653Y0254527D01*
X0026732Y0254391D01*
X0026809Y0254253D01*
X0026881Y0254113D01*
X0026950Y0253971D01*
X0027016Y0253828D01*
X0027078Y0253683D01*
X0027136Y0253536D01*
X0027191Y0253388D01*
X0027242Y0253239D01*
X0027289Y0253088D01*
X0027332Y0252937D01*
X0027371Y0252784D01*
X0027407Y0252630D01*
X0027438Y0252476D01*
X0027466Y0252321D01*
X0027490Y0252165D01*
X0027510Y0252008D01*
X0027526Y0251851D01*
X0027538Y0251694D01*
X0027546Y0251537D01*
X0027550Y0251379D01*
X0027550Y0251221D01*
X0027546Y0251063D01*
X0027538Y0250906D01*
X0027526Y0250749D01*
X0027510Y0250592D01*
X0027490Y0250435D01*
X0027466Y0250279D01*
X0027438Y0250124D01*
X0027407Y0249970D01*
X0027371Y0249816D01*
X0027332Y0249663D01*
X0027289Y0249512D01*
X0027242Y0249361D01*
X0027191Y0249212D01*
X0027136Y0249064D01*
X0027078Y0248917D01*
X0027016Y0248772D01*
X0026950Y0248629D01*
X0026881Y0248487D01*
X0026809Y0248347D01*
X0026732Y0248209D01*
X0026653Y0248073D01*
X0026569Y0247939D01*
X0026483Y0247807D01*
X0026393Y0247678D01*
X0026300Y0247550D01*
X0026204Y0247425D01*
X0026105Y0247303D01*
X0026002Y0247183D01*
X0025897Y0247065D01*
X0025789Y0246951D01*
X0025677Y0246839D01*
X0025563Y0246730D01*
X0025447Y0246624D01*
X0025327Y0246521D01*
X0025206Y0246421D01*
X0025081Y0246324D01*
X0024954Y0246230D01*
X0024825Y0246139D01*
X0024694Y0246052D01*
X0024561Y0245968D01*
X0024425Y0245887D01*
X0024287Y0245810D01*
X0024148Y0245737D01*
X0024007Y0245667D01*
X0023864Y0245600D01*
X0023719Y0245537D01*
X0023573Y0245478D01*
X0023425Y0245422D01*
X0023276Y0245371D01*
X0023126Y0245323D01*
X0022975Y0245279D01*
X0022822Y0245238D01*
X0022669Y0245202D01*
X0022514Y0245169D01*
X0022359Y0245140D01*
X0022204Y0245116D01*
X0022047Y0245095D01*
X0021891Y0245078D01*
X0021733Y0245065D01*
X0021576Y0245056D01*
X0021418Y0245051D01*
X0021261Y0245050D01*
X0021103Y0245053D01*
X0020945Y0245060D01*
X0020788Y0245071D01*
X0020631Y0245086D01*
X0020474Y0245105D01*
X0020318Y0245128D01*
X0020163Y0245154D01*
X0020008Y0245185D01*
X0019854Y0245219D01*
X0019701Y0245258D01*
X0019549Y0245300D01*
X0019399Y0245346D01*
X0019249Y0245396D01*
X0019101Y0245450D01*
X0018954Y0245507D01*
X0018808Y0245568D01*
X0018665Y0245633D01*
X0018522Y0245701D01*
X0018382Y0245773D01*
X0018244Y0245848D01*
X0018107Y0245927D01*
X0017972Y0246009D01*
X0017840Y0246095D01*
X0017710Y0246184D01*
X0017582Y0246276D01*
X0017456Y0246372D01*
X0017333Y0246470D01*
X0017213Y0246572D01*
X0017095Y0246677D01*
X0016979Y0246784D01*
X0016867Y0246895D01*
X0016757Y0247008D01*
X0016650Y0247124D01*
X0016546Y0247242D01*
X0016445Y0247364D01*
X0016348Y0247487D01*
X0016253Y0247614D01*
X0016162Y0247742D01*
X0016073Y0247873D01*
X0015989Y0248006D01*
X0015907Y0248141D01*
X0015829Y0248278D01*
X0015755Y0248417D01*
X0015684Y0248558D01*
X0015616Y0248700D01*
X0015553Y0248845D01*
X0015492Y0248990D01*
X0015436Y0249138D01*
X0015383Y0249286D01*
X0015334Y0249436D01*
X0015289Y0249587D01*
X0015248Y0249740D01*
X0015210Y0249893D01*
X0015177Y0250047D01*
X0015147Y0250202D01*
X0015121Y0250357D01*
X0015100Y0250514D01*
X0015082Y0250670D01*
X0015068Y0250827D01*
X0015058Y0250985D01*
X0015052Y0251142D01*
X0015050Y0251300D01*
X0015050Y0351300D02*
X0015052Y0351458D01*
X0015058Y0351615D01*
X0015068Y0351773D01*
X0015082Y0351930D01*
X0015100Y0352086D01*
X0015121Y0352243D01*
X0015147Y0352398D01*
X0015177Y0352553D01*
X0015210Y0352707D01*
X0015248Y0352860D01*
X0015289Y0353013D01*
X0015334Y0353164D01*
X0015383Y0353314D01*
X0015436Y0353462D01*
X0015492Y0353610D01*
X0015553Y0353755D01*
X0015616Y0353900D01*
X0015684Y0354042D01*
X0015755Y0354183D01*
X0015829Y0354322D01*
X0015907Y0354459D01*
X0015989Y0354594D01*
X0016073Y0354727D01*
X0016162Y0354858D01*
X0016253Y0354986D01*
X0016348Y0355113D01*
X0016445Y0355236D01*
X0016546Y0355358D01*
X0016650Y0355476D01*
X0016757Y0355592D01*
X0016867Y0355705D01*
X0016979Y0355816D01*
X0017095Y0355923D01*
X0017213Y0356028D01*
X0017333Y0356130D01*
X0017456Y0356228D01*
X0017582Y0356324D01*
X0017710Y0356416D01*
X0017840Y0356505D01*
X0017972Y0356591D01*
X0018107Y0356673D01*
X0018244Y0356752D01*
X0018382Y0356827D01*
X0018522Y0356899D01*
X0018665Y0356967D01*
X0018808Y0357032D01*
X0018954Y0357093D01*
X0019101Y0357150D01*
X0019249Y0357204D01*
X0019399Y0357254D01*
X0019549Y0357300D01*
X0019701Y0357342D01*
X0019854Y0357381D01*
X0020008Y0357415D01*
X0020163Y0357446D01*
X0020318Y0357472D01*
X0020474Y0357495D01*
X0020631Y0357514D01*
X0020788Y0357529D01*
X0020945Y0357540D01*
X0021103Y0357547D01*
X0021261Y0357550D01*
X0021418Y0357549D01*
X0021576Y0357544D01*
X0021733Y0357535D01*
X0021891Y0357522D01*
X0022047Y0357505D01*
X0022204Y0357484D01*
X0022359Y0357460D01*
X0022514Y0357431D01*
X0022669Y0357398D01*
X0022822Y0357362D01*
X0022975Y0357321D01*
X0023126Y0357277D01*
X0023276Y0357229D01*
X0023425Y0357178D01*
X0023573Y0357122D01*
X0023719Y0357063D01*
X0023864Y0357000D01*
X0024007Y0356933D01*
X0024148Y0356863D01*
X0024287Y0356790D01*
X0024425Y0356713D01*
X0024561Y0356632D01*
X0024694Y0356548D01*
X0024825Y0356461D01*
X0024954Y0356370D01*
X0025081Y0356276D01*
X0025206Y0356179D01*
X0025327Y0356079D01*
X0025447Y0355976D01*
X0025563Y0355870D01*
X0025677Y0355761D01*
X0025789Y0355649D01*
X0025897Y0355535D01*
X0026002Y0355417D01*
X0026105Y0355297D01*
X0026204Y0355175D01*
X0026300Y0355050D01*
X0026393Y0354922D01*
X0026483Y0354793D01*
X0026569Y0354661D01*
X0026653Y0354527D01*
X0026732Y0354391D01*
X0026809Y0354253D01*
X0026881Y0354113D01*
X0026950Y0353971D01*
X0027016Y0353828D01*
X0027078Y0353683D01*
X0027136Y0353536D01*
X0027191Y0353388D01*
X0027242Y0353239D01*
X0027289Y0353088D01*
X0027332Y0352937D01*
X0027371Y0352784D01*
X0027407Y0352630D01*
X0027438Y0352476D01*
X0027466Y0352321D01*
X0027490Y0352165D01*
X0027510Y0352008D01*
X0027526Y0351851D01*
X0027538Y0351694D01*
X0027546Y0351537D01*
X0027550Y0351379D01*
X0027550Y0351221D01*
X0027546Y0351063D01*
X0027538Y0350906D01*
X0027526Y0350749D01*
X0027510Y0350592D01*
X0027490Y0350435D01*
X0027466Y0350279D01*
X0027438Y0350124D01*
X0027407Y0349970D01*
X0027371Y0349816D01*
X0027332Y0349663D01*
X0027289Y0349512D01*
X0027242Y0349361D01*
X0027191Y0349212D01*
X0027136Y0349064D01*
X0027078Y0348917D01*
X0027016Y0348772D01*
X0026950Y0348629D01*
X0026881Y0348487D01*
X0026809Y0348347D01*
X0026732Y0348209D01*
X0026653Y0348073D01*
X0026569Y0347939D01*
X0026483Y0347807D01*
X0026393Y0347678D01*
X0026300Y0347550D01*
X0026204Y0347425D01*
X0026105Y0347303D01*
X0026002Y0347183D01*
X0025897Y0347065D01*
X0025789Y0346951D01*
X0025677Y0346839D01*
X0025563Y0346730D01*
X0025447Y0346624D01*
X0025327Y0346521D01*
X0025206Y0346421D01*
X0025081Y0346324D01*
X0024954Y0346230D01*
X0024825Y0346139D01*
X0024694Y0346052D01*
X0024561Y0345968D01*
X0024425Y0345887D01*
X0024287Y0345810D01*
X0024148Y0345737D01*
X0024007Y0345667D01*
X0023864Y0345600D01*
X0023719Y0345537D01*
X0023573Y0345478D01*
X0023425Y0345422D01*
X0023276Y0345371D01*
X0023126Y0345323D01*
X0022975Y0345279D01*
X0022822Y0345238D01*
X0022669Y0345202D01*
X0022514Y0345169D01*
X0022359Y0345140D01*
X0022204Y0345116D01*
X0022047Y0345095D01*
X0021891Y0345078D01*
X0021733Y0345065D01*
X0021576Y0345056D01*
X0021418Y0345051D01*
X0021261Y0345050D01*
X0021103Y0345053D01*
X0020945Y0345060D01*
X0020788Y0345071D01*
X0020631Y0345086D01*
X0020474Y0345105D01*
X0020318Y0345128D01*
X0020163Y0345154D01*
X0020008Y0345185D01*
X0019854Y0345219D01*
X0019701Y0345258D01*
X0019549Y0345300D01*
X0019399Y0345346D01*
X0019249Y0345396D01*
X0019101Y0345450D01*
X0018954Y0345507D01*
X0018808Y0345568D01*
X0018665Y0345633D01*
X0018522Y0345701D01*
X0018382Y0345773D01*
X0018244Y0345848D01*
X0018107Y0345927D01*
X0017972Y0346009D01*
X0017840Y0346095D01*
X0017710Y0346184D01*
X0017582Y0346276D01*
X0017456Y0346372D01*
X0017333Y0346470D01*
X0017213Y0346572D01*
X0017095Y0346677D01*
X0016979Y0346784D01*
X0016867Y0346895D01*
X0016757Y0347008D01*
X0016650Y0347124D01*
X0016546Y0347242D01*
X0016445Y0347364D01*
X0016348Y0347487D01*
X0016253Y0347614D01*
X0016162Y0347742D01*
X0016073Y0347873D01*
X0015989Y0348006D01*
X0015907Y0348141D01*
X0015829Y0348278D01*
X0015755Y0348417D01*
X0015684Y0348558D01*
X0015616Y0348700D01*
X0015553Y0348845D01*
X0015492Y0348990D01*
X0015436Y0349138D01*
X0015383Y0349286D01*
X0015334Y0349436D01*
X0015289Y0349587D01*
X0015248Y0349740D01*
X0015210Y0349893D01*
X0015177Y0350047D01*
X0015147Y0350202D01*
X0015121Y0350357D01*
X0015100Y0350514D01*
X0015082Y0350670D01*
X0015068Y0350827D01*
X0015058Y0350985D01*
X0015052Y0351142D01*
X0015050Y0351300D01*
X0195050Y0016300D02*
X0195052Y0016458D01*
X0195058Y0016615D01*
X0195068Y0016773D01*
X0195082Y0016930D01*
X0195100Y0017086D01*
X0195121Y0017243D01*
X0195147Y0017398D01*
X0195177Y0017553D01*
X0195210Y0017707D01*
X0195248Y0017860D01*
X0195289Y0018013D01*
X0195334Y0018164D01*
X0195383Y0018314D01*
X0195436Y0018462D01*
X0195492Y0018610D01*
X0195553Y0018755D01*
X0195616Y0018900D01*
X0195684Y0019042D01*
X0195755Y0019183D01*
X0195829Y0019322D01*
X0195907Y0019459D01*
X0195989Y0019594D01*
X0196073Y0019727D01*
X0196162Y0019858D01*
X0196253Y0019986D01*
X0196348Y0020113D01*
X0196445Y0020236D01*
X0196546Y0020358D01*
X0196650Y0020476D01*
X0196757Y0020592D01*
X0196867Y0020705D01*
X0196979Y0020816D01*
X0197095Y0020923D01*
X0197213Y0021028D01*
X0197333Y0021130D01*
X0197456Y0021228D01*
X0197582Y0021324D01*
X0197710Y0021416D01*
X0197840Y0021505D01*
X0197972Y0021591D01*
X0198107Y0021673D01*
X0198244Y0021752D01*
X0198382Y0021827D01*
X0198522Y0021899D01*
X0198665Y0021967D01*
X0198808Y0022032D01*
X0198954Y0022093D01*
X0199101Y0022150D01*
X0199249Y0022204D01*
X0199399Y0022254D01*
X0199549Y0022300D01*
X0199701Y0022342D01*
X0199854Y0022381D01*
X0200008Y0022415D01*
X0200163Y0022446D01*
X0200318Y0022472D01*
X0200474Y0022495D01*
X0200631Y0022514D01*
X0200788Y0022529D01*
X0200945Y0022540D01*
X0201103Y0022547D01*
X0201261Y0022550D01*
X0201418Y0022549D01*
X0201576Y0022544D01*
X0201733Y0022535D01*
X0201891Y0022522D01*
X0202047Y0022505D01*
X0202204Y0022484D01*
X0202359Y0022460D01*
X0202514Y0022431D01*
X0202669Y0022398D01*
X0202822Y0022362D01*
X0202975Y0022321D01*
X0203126Y0022277D01*
X0203276Y0022229D01*
X0203425Y0022178D01*
X0203573Y0022122D01*
X0203719Y0022063D01*
X0203864Y0022000D01*
X0204007Y0021933D01*
X0204148Y0021863D01*
X0204287Y0021790D01*
X0204425Y0021713D01*
X0204561Y0021632D01*
X0204694Y0021548D01*
X0204825Y0021461D01*
X0204954Y0021370D01*
X0205081Y0021276D01*
X0205206Y0021179D01*
X0205327Y0021079D01*
X0205447Y0020976D01*
X0205563Y0020870D01*
X0205677Y0020761D01*
X0205789Y0020649D01*
X0205897Y0020535D01*
X0206002Y0020417D01*
X0206105Y0020297D01*
X0206204Y0020175D01*
X0206300Y0020050D01*
X0206393Y0019922D01*
X0206483Y0019793D01*
X0206569Y0019661D01*
X0206653Y0019527D01*
X0206732Y0019391D01*
X0206809Y0019253D01*
X0206881Y0019113D01*
X0206950Y0018971D01*
X0207016Y0018828D01*
X0207078Y0018683D01*
X0207136Y0018536D01*
X0207191Y0018388D01*
X0207242Y0018239D01*
X0207289Y0018088D01*
X0207332Y0017937D01*
X0207371Y0017784D01*
X0207407Y0017630D01*
X0207438Y0017476D01*
X0207466Y0017321D01*
X0207490Y0017165D01*
X0207510Y0017008D01*
X0207526Y0016851D01*
X0207538Y0016694D01*
X0207546Y0016537D01*
X0207550Y0016379D01*
X0207550Y0016221D01*
X0207546Y0016063D01*
X0207538Y0015906D01*
X0207526Y0015749D01*
X0207510Y0015592D01*
X0207490Y0015435D01*
X0207466Y0015279D01*
X0207438Y0015124D01*
X0207407Y0014970D01*
X0207371Y0014816D01*
X0207332Y0014663D01*
X0207289Y0014512D01*
X0207242Y0014361D01*
X0207191Y0014212D01*
X0207136Y0014064D01*
X0207078Y0013917D01*
X0207016Y0013772D01*
X0206950Y0013629D01*
X0206881Y0013487D01*
X0206809Y0013347D01*
X0206732Y0013209D01*
X0206653Y0013073D01*
X0206569Y0012939D01*
X0206483Y0012807D01*
X0206393Y0012678D01*
X0206300Y0012550D01*
X0206204Y0012425D01*
X0206105Y0012303D01*
X0206002Y0012183D01*
X0205897Y0012065D01*
X0205789Y0011951D01*
X0205677Y0011839D01*
X0205563Y0011730D01*
X0205447Y0011624D01*
X0205327Y0011521D01*
X0205206Y0011421D01*
X0205081Y0011324D01*
X0204954Y0011230D01*
X0204825Y0011139D01*
X0204694Y0011052D01*
X0204561Y0010968D01*
X0204425Y0010887D01*
X0204287Y0010810D01*
X0204148Y0010737D01*
X0204007Y0010667D01*
X0203864Y0010600D01*
X0203719Y0010537D01*
X0203573Y0010478D01*
X0203425Y0010422D01*
X0203276Y0010371D01*
X0203126Y0010323D01*
X0202975Y0010279D01*
X0202822Y0010238D01*
X0202669Y0010202D01*
X0202514Y0010169D01*
X0202359Y0010140D01*
X0202204Y0010116D01*
X0202047Y0010095D01*
X0201891Y0010078D01*
X0201733Y0010065D01*
X0201576Y0010056D01*
X0201418Y0010051D01*
X0201261Y0010050D01*
X0201103Y0010053D01*
X0200945Y0010060D01*
X0200788Y0010071D01*
X0200631Y0010086D01*
X0200474Y0010105D01*
X0200318Y0010128D01*
X0200163Y0010154D01*
X0200008Y0010185D01*
X0199854Y0010219D01*
X0199701Y0010258D01*
X0199549Y0010300D01*
X0199399Y0010346D01*
X0199249Y0010396D01*
X0199101Y0010450D01*
X0198954Y0010507D01*
X0198808Y0010568D01*
X0198665Y0010633D01*
X0198522Y0010701D01*
X0198382Y0010773D01*
X0198244Y0010848D01*
X0198107Y0010927D01*
X0197972Y0011009D01*
X0197840Y0011095D01*
X0197710Y0011184D01*
X0197582Y0011276D01*
X0197456Y0011372D01*
X0197333Y0011470D01*
X0197213Y0011572D01*
X0197095Y0011677D01*
X0196979Y0011784D01*
X0196867Y0011895D01*
X0196757Y0012008D01*
X0196650Y0012124D01*
X0196546Y0012242D01*
X0196445Y0012364D01*
X0196348Y0012487D01*
X0196253Y0012614D01*
X0196162Y0012742D01*
X0196073Y0012873D01*
X0195989Y0013006D01*
X0195907Y0013141D01*
X0195829Y0013278D01*
X0195755Y0013417D01*
X0195684Y0013558D01*
X0195616Y0013700D01*
X0195553Y0013845D01*
X0195492Y0013990D01*
X0195436Y0014138D01*
X0195383Y0014286D01*
X0195334Y0014436D01*
X0195289Y0014587D01*
X0195248Y0014740D01*
X0195210Y0014893D01*
X0195177Y0015047D01*
X0195147Y0015202D01*
X0195121Y0015357D01*
X0195100Y0015514D01*
X0195082Y0015670D01*
X0195068Y0015827D01*
X0195058Y0015985D01*
X0195052Y0016142D01*
X0195050Y0016300D01*
X0325050Y0016300D02*
X0325052Y0016458D01*
X0325058Y0016615D01*
X0325068Y0016773D01*
X0325082Y0016930D01*
X0325100Y0017086D01*
X0325121Y0017243D01*
X0325147Y0017398D01*
X0325177Y0017553D01*
X0325210Y0017707D01*
X0325248Y0017860D01*
X0325289Y0018013D01*
X0325334Y0018164D01*
X0325383Y0018314D01*
X0325436Y0018462D01*
X0325492Y0018610D01*
X0325553Y0018755D01*
X0325616Y0018900D01*
X0325684Y0019042D01*
X0325755Y0019183D01*
X0325829Y0019322D01*
X0325907Y0019459D01*
X0325989Y0019594D01*
X0326073Y0019727D01*
X0326162Y0019858D01*
X0326253Y0019986D01*
X0326348Y0020113D01*
X0326445Y0020236D01*
X0326546Y0020358D01*
X0326650Y0020476D01*
X0326757Y0020592D01*
X0326867Y0020705D01*
X0326979Y0020816D01*
X0327095Y0020923D01*
X0327213Y0021028D01*
X0327333Y0021130D01*
X0327456Y0021228D01*
X0327582Y0021324D01*
X0327710Y0021416D01*
X0327840Y0021505D01*
X0327972Y0021591D01*
X0328107Y0021673D01*
X0328244Y0021752D01*
X0328382Y0021827D01*
X0328522Y0021899D01*
X0328665Y0021967D01*
X0328808Y0022032D01*
X0328954Y0022093D01*
X0329101Y0022150D01*
X0329249Y0022204D01*
X0329399Y0022254D01*
X0329549Y0022300D01*
X0329701Y0022342D01*
X0329854Y0022381D01*
X0330008Y0022415D01*
X0330163Y0022446D01*
X0330318Y0022472D01*
X0330474Y0022495D01*
X0330631Y0022514D01*
X0330788Y0022529D01*
X0330945Y0022540D01*
X0331103Y0022547D01*
X0331261Y0022550D01*
X0331418Y0022549D01*
X0331576Y0022544D01*
X0331733Y0022535D01*
X0331891Y0022522D01*
X0332047Y0022505D01*
X0332204Y0022484D01*
X0332359Y0022460D01*
X0332514Y0022431D01*
X0332669Y0022398D01*
X0332822Y0022362D01*
X0332975Y0022321D01*
X0333126Y0022277D01*
X0333276Y0022229D01*
X0333425Y0022178D01*
X0333573Y0022122D01*
X0333719Y0022063D01*
X0333864Y0022000D01*
X0334007Y0021933D01*
X0334148Y0021863D01*
X0334287Y0021790D01*
X0334425Y0021713D01*
X0334561Y0021632D01*
X0334694Y0021548D01*
X0334825Y0021461D01*
X0334954Y0021370D01*
X0335081Y0021276D01*
X0335206Y0021179D01*
X0335327Y0021079D01*
X0335447Y0020976D01*
X0335563Y0020870D01*
X0335677Y0020761D01*
X0335789Y0020649D01*
X0335897Y0020535D01*
X0336002Y0020417D01*
X0336105Y0020297D01*
X0336204Y0020175D01*
X0336300Y0020050D01*
X0336393Y0019922D01*
X0336483Y0019793D01*
X0336569Y0019661D01*
X0336653Y0019527D01*
X0336732Y0019391D01*
X0336809Y0019253D01*
X0336881Y0019113D01*
X0336950Y0018971D01*
X0337016Y0018828D01*
X0337078Y0018683D01*
X0337136Y0018536D01*
X0337191Y0018388D01*
X0337242Y0018239D01*
X0337289Y0018088D01*
X0337332Y0017937D01*
X0337371Y0017784D01*
X0337407Y0017630D01*
X0337438Y0017476D01*
X0337466Y0017321D01*
X0337490Y0017165D01*
X0337510Y0017008D01*
X0337526Y0016851D01*
X0337538Y0016694D01*
X0337546Y0016537D01*
X0337550Y0016379D01*
X0337550Y0016221D01*
X0337546Y0016063D01*
X0337538Y0015906D01*
X0337526Y0015749D01*
X0337510Y0015592D01*
X0337490Y0015435D01*
X0337466Y0015279D01*
X0337438Y0015124D01*
X0337407Y0014970D01*
X0337371Y0014816D01*
X0337332Y0014663D01*
X0337289Y0014512D01*
X0337242Y0014361D01*
X0337191Y0014212D01*
X0337136Y0014064D01*
X0337078Y0013917D01*
X0337016Y0013772D01*
X0336950Y0013629D01*
X0336881Y0013487D01*
X0336809Y0013347D01*
X0336732Y0013209D01*
X0336653Y0013073D01*
X0336569Y0012939D01*
X0336483Y0012807D01*
X0336393Y0012678D01*
X0336300Y0012550D01*
X0336204Y0012425D01*
X0336105Y0012303D01*
X0336002Y0012183D01*
X0335897Y0012065D01*
X0335789Y0011951D01*
X0335677Y0011839D01*
X0335563Y0011730D01*
X0335447Y0011624D01*
X0335327Y0011521D01*
X0335206Y0011421D01*
X0335081Y0011324D01*
X0334954Y0011230D01*
X0334825Y0011139D01*
X0334694Y0011052D01*
X0334561Y0010968D01*
X0334425Y0010887D01*
X0334287Y0010810D01*
X0334148Y0010737D01*
X0334007Y0010667D01*
X0333864Y0010600D01*
X0333719Y0010537D01*
X0333573Y0010478D01*
X0333425Y0010422D01*
X0333276Y0010371D01*
X0333126Y0010323D01*
X0332975Y0010279D01*
X0332822Y0010238D01*
X0332669Y0010202D01*
X0332514Y0010169D01*
X0332359Y0010140D01*
X0332204Y0010116D01*
X0332047Y0010095D01*
X0331891Y0010078D01*
X0331733Y0010065D01*
X0331576Y0010056D01*
X0331418Y0010051D01*
X0331261Y0010050D01*
X0331103Y0010053D01*
X0330945Y0010060D01*
X0330788Y0010071D01*
X0330631Y0010086D01*
X0330474Y0010105D01*
X0330318Y0010128D01*
X0330163Y0010154D01*
X0330008Y0010185D01*
X0329854Y0010219D01*
X0329701Y0010258D01*
X0329549Y0010300D01*
X0329399Y0010346D01*
X0329249Y0010396D01*
X0329101Y0010450D01*
X0328954Y0010507D01*
X0328808Y0010568D01*
X0328665Y0010633D01*
X0328522Y0010701D01*
X0328382Y0010773D01*
X0328244Y0010848D01*
X0328107Y0010927D01*
X0327972Y0011009D01*
X0327840Y0011095D01*
X0327710Y0011184D01*
X0327582Y0011276D01*
X0327456Y0011372D01*
X0327333Y0011470D01*
X0327213Y0011572D01*
X0327095Y0011677D01*
X0326979Y0011784D01*
X0326867Y0011895D01*
X0326757Y0012008D01*
X0326650Y0012124D01*
X0326546Y0012242D01*
X0326445Y0012364D01*
X0326348Y0012487D01*
X0326253Y0012614D01*
X0326162Y0012742D01*
X0326073Y0012873D01*
X0325989Y0013006D01*
X0325907Y0013141D01*
X0325829Y0013278D01*
X0325755Y0013417D01*
X0325684Y0013558D01*
X0325616Y0013700D01*
X0325553Y0013845D01*
X0325492Y0013990D01*
X0325436Y0014138D01*
X0325383Y0014286D01*
X0325334Y0014436D01*
X0325289Y0014587D01*
X0325248Y0014740D01*
X0325210Y0014893D01*
X0325177Y0015047D01*
X0325147Y0015202D01*
X0325121Y0015357D01*
X0325100Y0015514D01*
X0325082Y0015670D01*
X0325068Y0015827D01*
X0325058Y0015985D01*
X0325052Y0016142D01*
X0325050Y0016300D01*
X0309800Y0540300D02*
X0309802Y0540461D01*
X0309808Y0540621D01*
X0309818Y0540782D01*
X0309832Y0540942D01*
X0309850Y0541102D01*
X0309871Y0541261D01*
X0309897Y0541420D01*
X0309927Y0541578D01*
X0309960Y0541735D01*
X0309998Y0541892D01*
X0310039Y0542047D01*
X0310084Y0542201D01*
X0310133Y0542354D01*
X0310186Y0542506D01*
X0310242Y0542657D01*
X0310303Y0542806D01*
X0310366Y0542954D01*
X0310434Y0543100D01*
X0310505Y0543244D01*
X0310579Y0543386D01*
X0310657Y0543527D01*
X0310739Y0543665D01*
X0310824Y0543802D01*
X0310912Y0543936D01*
X0311004Y0544068D01*
X0311099Y0544198D01*
X0311197Y0544326D01*
X0311298Y0544451D01*
X0311402Y0544573D01*
X0311509Y0544693D01*
X0311619Y0544810D01*
X0311732Y0544925D01*
X0311848Y0545036D01*
X0311967Y0545145D01*
X0312088Y0545250D01*
X0312212Y0545353D01*
X0312338Y0545453D01*
X0312466Y0545549D01*
X0312597Y0545642D01*
X0312731Y0545732D01*
X0312866Y0545819D01*
X0313004Y0545902D01*
X0313143Y0545982D01*
X0313285Y0546058D01*
X0313428Y0546131D01*
X0313573Y0546200D01*
X0313720Y0546266D01*
X0313868Y0546328D01*
X0314018Y0546386D01*
X0314169Y0546441D01*
X0314322Y0546492D01*
X0314476Y0546539D01*
X0314631Y0546582D01*
X0314787Y0546621D01*
X0314943Y0546657D01*
X0315101Y0546688D01*
X0315259Y0546716D01*
X0315418Y0546740D01*
X0315578Y0546760D01*
X0315738Y0546776D01*
X0315898Y0546788D01*
X0316059Y0546796D01*
X0316220Y0546800D01*
X0316380Y0546800D01*
X0316541Y0546796D01*
X0316702Y0546788D01*
X0316862Y0546776D01*
X0317022Y0546760D01*
X0317182Y0546740D01*
X0317341Y0546716D01*
X0317499Y0546688D01*
X0317657Y0546657D01*
X0317813Y0546621D01*
X0317969Y0546582D01*
X0318124Y0546539D01*
X0318278Y0546492D01*
X0318431Y0546441D01*
X0318582Y0546386D01*
X0318732Y0546328D01*
X0318880Y0546266D01*
X0319027Y0546200D01*
X0319172Y0546131D01*
X0319315Y0546058D01*
X0319457Y0545982D01*
X0319596Y0545902D01*
X0319734Y0545819D01*
X0319869Y0545732D01*
X0320003Y0545642D01*
X0320134Y0545549D01*
X0320262Y0545453D01*
X0320388Y0545353D01*
X0320512Y0545250D01*
X0320633Y0545145D01*
X0320752Y0545036D01*
X0320868Y0544925D01*
X0320981Y0544810D01*
X0321091Y0544693D01*
X0321198Y0544573D01*
X0321302Y0544451D01*
X0321403Y0544326D01*
X0321501Y0544198D01*
X0321596Y0544068D01*
X0321688Y0543936D01*
X0321776Y0543802D01*
X0321861Y0543665D01*
X0321943Y0543527D01*
X0322021Y0543386D01*
X0322095Y0543244D01*
X0322166Y0543100D01*
X0322234Y0542954D01*
X0322297Y0542806D01*
X0322358Y0542657D01*
X0322414Y0542506D01*
X0322467Y0542354D01*
X0322516Y0542201D01*
X0322561Y0542047D01*
X0322602Y0541892D01*
X0322640Y0541735D01*
X0322673Y0541578D01*
X0322703Y0541420D01*
X0322729Y0541261D01*
X0322750Y0541102D01*
X0322768Y0540942D01*
X0322782Y0540782D01*
X0322792Y0540621D01*
X0322798Y0540461D01*
X0322800Y0540300D01*
X0322798Y0540139D01*
X0322792Y0539979D01*
X0322782Y0539818D01*
X0322768Y0539658D01*
X0322750Y0539498D01*
X0322729Y0539339D01*
X0322703Y0539180D01*
X0322673Y0539022D01*
X0322640Y0538865D01*
X0322602Y0538708D01*
X0322561Y0538553D01*
X0322516Y0538399D01*
X0322467Y0538246D01*
X0322414Y0538094D01*
X0322358Y0537943D01*
X0322297Y0537794D01*
X0322234Y0537646D01*
X0322166Y0537500D01*
X0322095Y0537356D01*
X0322021Y0537214D01*
X0321943Y0537073D01*
X0321861Y0536935D01*
X0321776Y0536798D01*
X0321688Y0536664D01*
X0321596Y0536532D01*
X0321501Y0536402D01*
X0321403Y0536274D01*
X0321302Y0536149D01*
X0321198Y0536027D01*
X0321091Y0535907D01*
X0320981Y0535790D01*
X0320868Y0535675D01*
X0320752Y0535564D01*
X0320633Y0535455D01*
X0320512Y0535350D01*
X0320388Y0535247D01*
X0320262Y0535147D01*
X0320134Y0535051D01*
X0320003Y0534958D01*
X0319869Y0534868D01*
X0319734Y0534781D01*
X0319596Y0534698D01*
X0319457Y0534618D01*
X0319315Y0534542D01*
X0319172Y0534469D01*
X0319027Y0534400D01*
X0318880Y0534334D01*
X0318732Y0534272D01*
X0318582Y0534214D01*
X0318431Y0534159D01*
X0318278Y0534108D01*
X0318124Y0534061D01*
X0317969Y0534018D01*
X0317813Y0533979D01*
X0317657Y0533943D01*
X0317499Y0533912D01*
X0317341Y0533884D01*
X0317182Y0533860D01*
X0317022Y0533840D01*
X0316862Y0533824D01*
X0316702Y0533812D01*
X0316541Y0533804D01*
X0316380Y0533800D01*
X0316220Y0533800D01*
X0316059Y0533804D01*
X0315898Y0533812D01*
X0315738Y0533824D01*
X0315578Y0533840D01*
X0315418Y0533860D01*
X0315259Y0533884D01*
X0315101Y0533912D01*
X0314943Y0533943D01*
X0314787Y0533979D01*
X0314631Y0534018D01*
X0314476Y0534061D01*
X0314322Y0534108D01*
X0314169Y0534159D01*
X0314018Y0534214D01*
X0313868Y0534272D01*
X0313720Y0534334D01*
X0313573Y0534400D01*
X0313428Y0534469D01*
X0313285Y0534542D01*
X0313143Y0534618D01*
X0313004Y0534698D01*
X0312866Y0534781D01*
X0312731Y0534868D01*
X0312597Y0534958D01*
X0312466Y0535051D01*
X0312338Y0535147D01*
X0312212Y0535247D01*
X0312088Y0535350D01*
X0311967Y0535455D01*
X0311848Y0535564D01*
X0311732Y0535675D01*
X0311619Y0535790D01*
X0311509Y0535907D01*
X0311402Y0536027D01*
X0311298Y0536149D01*
X0311197Y0536274D01*
X0311099Y0536402D01*
X0311004Y0536532D01*
X0310912Y0536664D01*
X0310824Y0536798D01*
X0310739Y0536935D01*
X0310657Y0537073D01*
X0310579Y0537214D01*
X0310505Y0537356D01*
X0310434Y0537500D01*
X0310366Y0537646D01*
X0310303Y0537794D01*
X0310242Y0537943D01*
X0310186Y0538094D01*
X0310133Y0538246D01*
X0310084Y0538399D01*
X0310039Y0538553D01*
X0309998Y0538708D01*
X0309960Y0538865D01*
X0309927Y0539022D01*
X0309897Y0539180D01*
X0309871Y0539339D01*
X0309850Y0539498D01*
X0309832Y0539658D01*
X0309818Y0539818D01*
X0309808Y0539979D01*
X0309802Y0540139D01*
X0309800Y0540300D01*
M02*
