G75*
%MOIN*%
%OFA0B0*%
%FSLAX25Y25*%
%IPPOS*%
%LPD*%
%AMOC8*
5,1,8,0,0,1.08239X$1,22.5*
%
%ADD10C,0.13300*%
%ADD11C,0.06800*%
%ADD12R,0.05400X0.07100*%
%ADD13R,0.00600X0.07200*%
%ADD14C,0.07400*%
%ADD15C,0.13800*%
%ADD16OC8,0.06000*%
%ADD17OC8,0.06050*%
%ADD18OC8,0.06400*%
%ADD19C,0.06000*%
%ADD20R,0.07800X0.07800*%
%ADD21C,0.07800*%
%ADD22C,0.15627*%
%ADD23C,0.06400*%
%ADD24C,0.18300*%
%ADD25C,0.15800*%
%ADD26OC8,0.07100*%
%ADD27C,0.07100*%
%ADD28OC8,0.06800*%
D10*
X0021300Y0016300D03*
X0021300Y0251300D03*
X0021300Y0351300D03*
X0201300Y0016300D03*
X0331300Y0016300D03*
D11*
X0373300Y0033800D02*
X0379300Y0033800D01*
X0379300Y0043800D02*
X0373300Y0043800D01*
X0373300Y0053800D02*
X0379300Y0053800D01*
X0379300Y0063800D02*
X0373300Y0063800D01*
X0373300Y0073800D02*
X0379300Y0073800D01*
X0379300Y0083800D02*
X0373300Y0083800D01*
X0373300Y0093800D02*
X0379300Y0093800D01*
X0379300Y0103800D02*
X0373300Y0103800D01*
X0373300Y0113800D02*
X0379300Y0113800D01*
X0379300Y0123800D02*
X0373300Y0123800D01*
X0373300Y0133800D02*
X0379300Y0133800D01*
X0379300Y0143800D02*
X0373300Y0143800D01*
X0373300Y0153800D02*
X0379300Y0153800D01*
X0379300Y0163800D02*
X0373300Y0163800D01*
X0373300Y0173800D02*
X0379300Y0173800D01*
X0379300Y0183800D02*
X0373300Y0183800D01*
X0373300Y0193800D02*
X0379300Y0193800D01*
X0379300Y0203800D02*
X0373300Y0203800D01*
X0373300Y0213800D02*
X0379300Y0213800D01*
X0379300Y0223800D02*
X0373300Y0223800D01*
X0373300Y0233800D02*
X0379300Y0233800D01*
X0379300Y0243800D02*
X0373300Y0243800D01*
X0373300Y0253800D02*
X0379300Y0253800D01*
X0379300Y0263800D02*
X0373300Y0263800D01*
X0373300Y0273800D02*
X0379300Y0273800D01*
X0379300Y0293800D02*
X0373300Y0293800D01*
X0373300Y0303800D02*
X0379300Y0303800D01*
X0379300Y0313800D02*
X0373300Y0313800D01*
X0373300Y0323800D02*
X0379300Y0323800D01*
X0379300Y0333800D02*
X0373300Y0333800D01*
X0373300Y0343800D02*
X0379300Y0343800D01*
X0379300Y0353800D02*
X0373300Y0353800D01*
X0373300Y0363800D02*
X0379300Y0363800D01*
X0379300Y0373800D02*
X0373300Y0373800D01*
X0373300Y0383800D02*
X0379300Y0383800D01*
X0379300Y0393800D02*
X0373300Y0393800D01*
X0373300Y0403800D02*
X0379300Y0403800D01*
X0379300Y0413800D02*
X0373300Y0413800D01*
X0373300Y0423800D02*
X0379300Y0423800D01*
X0379300Y0433800D02*
X0373300Y0433800D01*
X0373300Y0443800D02*
X0379300Y0443800D01*
X0379300Y0453800D02*
X0373300Y0453800D01*
X0373300Y0463800D02*
X0379300Y0463800D01*
X0379300Y0473800D02*
X0373300Y0473800D01*
X0373300Y0483800D02*
X0379300Y0483800D01*
X0379300Y0493800D02*
X0373300Y0493800D01*
X0373300Y0503800D02*
X0379300Y0503800D01*
X0379300Y0513800D02*
X0373300Y0513800D01*
X0373300Y0523800D02*
X0379300Y0523800D01*
X0379300Y0533800D02*
X0373300Y0533800D01*
X0166300Y0209300D02*
X0166300Y0203300D01*
X0156300Y0203300D02*
X0156300Y0209300D01*
X0146300Y0209300D02*
X0146300Y0203300D01*
X0136300Y0203300D02*
X0136300Y0209300D01*
X0126300Y0209300D02*
X0126300Y0203300D01*
X0116300Y0203300D02*
X0116300Y0209300D01*
X0106300Y0209300D02*
X0106300Y0203300D01*
X0096300Y0203300D02*
X0096300Y0209300D01*
X0086300Y0209300D02*
X0086300Y0203300D01*
X0076300Y0203300D02*
X0076300Y0209300D01*
X0066300Y0209300D02*
X0066300Y0203300D01*
X0056300Y0203300D02*
X0056300Y0209300D01*
X0046300Y0209300D02*
X0046300Y0203300D01*
X0036300Y0203300D02*
X0036300Y0209300D01*
X0026300Y0209300D02*
X0026300Y0203300D01*
X0026300Y0184300D02*
X0026300Y0178300D01*
X0036300Y0178300D02*
X0036300Y0184300D01*
X0046300Y0184300D02*
X0046300Y0178300D01*
X0056300Y0178300D02*
X0056300Y0184300D01*
X0066300Y0184300D02*
X0066300Y0178300D01*
X0076300Y0178300D02*
X0076300Y0184300D01*
X0086300Y0184300D02*
X0086300Y0178300D01*
X0096300Y0178300D02*
X0096300Y0184300D01*
X0106300Y0184300D02*
X0106300Y0178300D01*
X0116300Y0178300D02*
X0116300Y0184300D01*
X0126300Y0184300D02*
X0126300Y0178300D01*
X0136300Y0178300D02*
X0136300Y0184300D01*
X0146300Y0184300D02*
X0146300Y0178300D01*
X0156300Y0178300D02*
X0156300Y0184300D01*
X0166300Y0184300D02*
X0166300Y0178300D01*
D12*
X0338300Y0211300D03*
X0344300Y0211300D03*
X0344300Y0276300D03*
X0338300Y0276300D03*
D13*
X0341300Y0276300D03*
X0341300Y0211300D03*
D14*
X0326300Y0478000D02*
X0326300Y0484600D01*
X0316300Y0484600D02*
X0316300Y0478000D01*
X0306300Y0478000D02*
X0306300Y0484600D01*
D15*
X0316300Y0540300D03*
D16*
X0316300Y0461300D03*
X0301300Y0461300D03*
X0281300Y0461300D03*
X0336300Y0461300D03*
X0266300Y0291300D03*
X0256300Y0291300D03*
X0191300Y0271300D03*
X0181300Y0271300D03*
X0146300Y0316300D03*
X0146300Y0326300D03*
X0201300Y0166300D03*
X0211300Y0166300D03*
X0261300Y0106300D03*
X0271300Y0106300D03*
X0211300Y0066300D03*
X0201300Y0066300D03*
X0186300Y0066300D03*
X0176300Y0066300D03*
X0161300Y0066300D03*
X0151300Y0066300D03*
X0131300Y0096300D03*
X0131300Y0106300D03*
X0146300Y0121300D03*
X0156300Y0121300D03*
D17*
X0361300Y0123800D03*
X0361300Y0133800D03*
X0361300Y0143800D03*
X0361300Y0153800D03*
X0361300Y0163800D03*
X0361300Y0173800D03*
X0361300Y0183800D03*
X0361300Y0193800D03*
X0361300Y0203800D03*
X0361300Y0213800D03*
X0361300Y0223800D03*
X0361300Y0233800D03*
X0361300Y0243800D03*
X0361300Y0253800D03*
X0361300Y0263800D03*
X0361300Y0273800D03*
X0361300Y0293800D03*
X0361300Y0303800D03*
X0361300Y0313800D03*
X0361300Y0323800D03*
X0361300Y0333800D03*
X0361300Y0343800D03*
X0361300Y0353800D03*
X0361300Y0363800D03*
X0361300Y0373800D03*
X0361300Y0383800D03*
X0361300Y0393800D03*
X0361300Y0403800D03*
X0361300Y0413800D03*
X0361300Y0423800D03*
X0361300Y0433800D03*
X0361300Y0443800D03*
X0361300Y0453800D03*
X0361300Y0463800D03*
X0361300Y0473800D03*
X0361300Y0483800D03*
X0361300Y0493800D03*
X0361300Y0503800D03*
X0361300Y0513800D03*
X0361300Y0523800D03*
X0361300Y0533800D03*
X0391300Y0533800D03*
X0391300Y0523800D03*
X0391300Y0513800D03*
X0391300Y0503800D03*
X0391300Y0493800D03*
X0391300Y0483800D03*
X0391300Y0473800D03*
X0391300Y0463800D03*
X0391300Y0453800D03*
X0391300Y0443800D03*
X0391300Y0433800D03*
X0391300Y0423800D03*
X0391300Y0413800D03*
X0391300Y0403800D03*
X0391300Y0393800D03*
X0391300Y0383800D03*
X0391300Y0373800D03*
X0391300Y0363800D03*
X0391300Y0353800D03*
X0391300Y0343800D03*
X0391300Y0333800D03*
X0391300Y0323800D03*
X0391300Y0313800D03*
X0391300Y0303800D03*
X0391300Y0293800D03*
X0391300Y0273800D03*
X0391300Y0263800D03*
X0391300Y0253800D03*
X0391300Y0243800D03*
X0391300Y0233800D03*
X0391300Y0223800D03*
X0391300Y0213800D03*
X0391300Y0203800D03*
X0391300Y0193800D03*
X0391300Y0183800D03*
X0391300Y0173800D03*
X0391300Y0163800D03*
X0391300Y0153800D03*
X0391300Y0143800D03*
X0391300Y0133800D03*
X0391300Y0123800D03*
X0391300Y0113800D03*
X0391300Y0103800D03*
X0391300Y0093800D03*
X0391300Y0083800D03*
X0391300Y0073800D03*
X0391300Y0063800D03*
X0391300Y0053800D03*
X0391300Y0043800D03*
X0391300Y0033800D03*
X0361300Y0033800D03*
X0361300Y0043800D03*
X0361300Y0053800D03*
X0361300Y0063800D03*
X0361300Y0073800D03*
X0361300Y0083800D03*
X0361300Y0093800D03*
X0361300Y0103800D03*
X0361300Y0113800D03*
D18*
X0336300Y0111300D03*
X0336300Y0101300D03*
X0336300Y0091300D03*
X0336300Y0081300D03*
X0336300Y0071300D03*
X0336300Y0061300D03*
X0326300Y0061300D03*
X0326300Y0071300D03*
X0326300Y0081300D03*
X0326300Y0091300D03*
X0326300Y0101300D03*
X0326300Y0111300D03*
X0326300Y0121300D03*
X0336300Y0121300D03*
X0086300Y0111300D03*
X0086300Y0101300D03*
X0076300Y0101300D03*
X0076300Y0111300D03*
X0061300Y0111300D03*
X0061300Y0101300D03*
X0051300Y0101300D03*
X0051300Y0111300D03*
X0036300Y0111300D03*
X0036300Y0101300D03*
X0026300Y0101300D03*
X0026300Y0111300D03*
D19*
X0103700Y0236300D02*
X0108900Y0236300D01*
X0108900Y0246300D02*
X0103700Y0246300D01*
X0103700Y0256300D02*
X0108900Y0256300D01*
X0108900Y0266300D02*
X0103700Y0266300D01*
X0103700Y0276300D02*
X0108900Y0276300D01*
X0108900Y0286300D02*
X0103700Y0286300D01*
X0103700Y0296300D02*
X0108900Y0296300D01*
X0108900Y0306300D02*
X0103700Y0306300D01*
X0103700Y0316300D02*
X0108900Y0316300D01*
X0108900Y0326300D02*
X0103700Y0326300D01*
X0103700Y0336300D02*
X0108900Y0336300D01*
X0108900Y0346300D02*
X0103700Y0346300D01*
X0103700Y0356300D02*
X0108900Y0356300D01*
X0108900Y0366300D02*
X0103700Y0366300D01*
X0133700Y0366300D02*
X0138900Y0366300D01*
X0138900Y0356300D02*
X0133700Y0356300D01*
X0133700Y0346300D02*
X0138900Y0346300D01*
X0138900Y0336300D02*
X0133700Y0336300D01*
X0133700Y0326300D02*
X0138900Y0326300D01*
X0138900Y0316300D02*
X0133700Y0316300D01*
X0133700Y0306300D02*
X0138900Y0306300D01*
X0138900Y0296300D02*
X0133700Y0296300D01*
X0133700Y0286300D02*
X0138900Y0286300D01*
X0138900Y0276300D02*
X0133700Y0276300D01*
X0133700Y0266300D02*
X0138900Y0266300D01*
X0138900Y0256300D02*
X0133700Y0256300D01*
X0133700Y0246300D02*
X0138900Y0246300D01*
X0138900Y0236300D02*
X0133700Y0236300D01*
X0178700Y0286300D02*
X0183900Y0286300D01*
X0183900Y0296300D02*
X0178700Y0296300D01*
X0178700Y0306300D02*
X0183900Y0306300D01*
X0183900Y0316300D02*
X0178700Y0316300D01*
X0178700Y0326300D02*
X0183900Y0326300D01*
X0183900Y0336300D02*
X0178700Y0336300D01*
X0178700Y0346300D02*
X0183900Y0346300D01*
X0183900Y0356300D02*
X0178700Y0356300D01*
X0178700Y0366300D02*
X0183900Y0366300D01*
X0183900Y0376300D02*
X0178700Y0376300D01*
X0208700Y0376300D02*
X0213900Y0376300D01*
X0213900Y0366300D02*
X0208700Y0366300D01*
X0208700Y0356300D02*
X0213900Y0356300D01*
X0213900Y0346300D02*
X0208700Y0346300D01*
X0208700Y0336300D02*
X0213900Y0336300D01*
X0213900Y0326300D02*
X0208700Y0326300D01*
X0208700Y0316300D02*
X0213900Y0316300D01*
X0213900Y0306300D02*
X0208700Y0306300D01*
X0208700Y0296300D02*
X0213900Y0296300D01*
X0213900Y0286300D02*
X0208700Y0286300D01*
X0228700Y0286300D02*
X0233900Y0286300D01*
X0233900Y0296300D02*
X0228700Y0296300D01*
X0228700Y0306300D02*
X0233900Y0306300D01*
X0233900Y0316300D02*
X0228700Y0316300D01*
X0228700Y0326300D02*
X0233900Y0326300D01*
X0233900Y0336300D02*
X0228700Y0336300D01*
X0228700Y0346300D02*
X0233900Y0346300D01*
X0253700Y0346300D02*
X0258900Y0346300D01*
X0258900Y0336300D02*
X0253700Y0336300D01*
X0253700Y0326300D02*
X0258900Y0326300D01*
X0258900Y0316300D02*
X0253700Y0316300D01*
X0253700Y0306300D02*
X0258900Y0306300D01*
X0283700Y0306300D02*
X0288900Y0306300D01*
X0288900Y0316300D02*
X0283700Y0316300D01*
X0283700Y0326300D02*
X0288900Y0326300D01*
X0288900Y0336300D02*
X0283700Y0336300D01*
X0283700Y0346300D02*
X0288900Y0346300D01*
X0288900Y0356300D02*
X0283700Y0356300D01*
X0283700Y0366300D02*
X0288900Y0366300D01*
X0288900Y0376300D02*
X0283700Y0376300D01*
X0283700Y0386300D02*
X0288900Y0386300D01*
X0288900Y0396300D02*
X0283700Y0396300D01*
X0258900Y0396300D02*
X0253700Y0396300D01*
X0253700Y0386300D02*
X0258900Y0386300D01*
X0258900Y0376300D02*
X0253700Y0376300D01*
X0253700Y0366300D02*
X0258900Y0366300D01*
X0258900Y0356300D02*
X0253700Y0356300D01*
X0223900Y0256300D02*
X0218700Y0256300D01*
X0218700Y0246300D02*
X0223900Y0246300D01*
X0223900Y0236300D02*
X0218700Y0236300D01*
X0218700Y0226300D02*
X0223900Y0226300D01*
X0223900Y0216300D02*
X0218700Y0216300D01*
X0218700Y0206300D02*
X0223900Y0206300D01*
X0223900Y0196300D02*
X0218700Y0196300D01*
X0258700Y0191300D02*
X0263900Y0191300D01*
X0263900Y0201300D02*
X0258700Y0201300D01*
X0258700Y0211300D02*
X0263900Y0211300D01*
X0263900Y0181300D02*
X0258700Y0181300D01*
X0258700Y0171300D02*
X0263900Y0171300D01*
X0263900Y0161300D02*
X0258700Y0161300D01*
X0258700Y0151300D02*
X0263900Y0151300D01*
X0263900Y0141300D02*
X0258700Y0141300D01*
X0258700Y0131300D02*
X0263900Y0131300D01*
X0263900Y0121300D02*
X0258700Y0121300D01*
X0288700Y0121300D02*
X0293900Y0121300D01*
X0293900Y0131300D02*
X0288700Y0131300D01*
X0288700Y0141300D02*
X0293900Y0141300D01*
X0293900Y0151300D02*
X0288700Y0151300D01*
X0288700Y0161300D02*
X0293900Y0161300D01*
X0293900Y0171300D02*
X0288700Y0171300D01*
X0288700Y0181300D02*
X0293900Y0181300D01*
X0293900Y0191300D02*
X0288700Y0191300D01*
X0288700Y0201300D02*
X0293900Y0201300D01*
X0293900Y0211300D02*
X0288700Y0211300D01*
X0216300Y0113900D02*
X0216300Y0108700D01*
X0206300Y0108700D02*
X0206300Y0113900D01*
X0196300Y0113900D02*
X0196300Y0108700D01*
X0186300Y0108700D02*
X0186300Y0113900D01*
X0176300Y0113900D02*
X0176300Y0108700D01*
X0166300Y0108700D02*
X0166300Y0113900D01*
X0156300Y0113900D02*
X0156300Y0108700D01*
X0146300Y0108700D02*
X0146300Y0113900D01*
X0146300Y0083900D02*
X0146300Y0078700D01*
X0156300Y0078700D02*
X0156300Y0083900D01*
X0166300Y0083900D02*
X0166300Y0078700D01*
X0176300Y0078700D02*
X0176300Y0083900D01*
X0186300Y0083900D02*
X0186300Y0078700D01*
X0196300Y0078700D02*
X0196300Y0083900D01*
X0206300Y0083900D02*
X0206300Y0078700D01*
X0216300Y0078700D02*
X0216300Y0083900D01*
D20*
X0236300Y0526576D03*
D21*
X0236300Y0536576D03*
X0226300Y0536576D03*
X0226300Y0526576D03*
X0216300Y0526576D03*
X0216300Y0536576D03*
X0206300Y0536576D03*
X0206300Y0526576D03*
X0196300Y0526576D03*
X0196300Y0536576D03*
X0186300Y0536576D03*
X0186300Y0526576D03*
X0176300Y0526576D03*
X0176300Y0536576D03*
X0166300Y0536576D03*
X0166300Y0526576D03*
X0156300Y0526576D03*
X0156300Y0536576D03*
X0146300Y0536576D03*
X0146300Y0526576D03*
X0136300Y0526576D03*
X0136300Y0536576D03*
X0126300Y0536576D03*
X0126300Y0526576D03*
X0116300Y0526576D03*
X0116300Y0536576D03*
X0106300Y0536576D03*
X0106300Y0526576D03*
X0096300Y0526576D03*
X0096300Y0536576D03*
X0086300Y0536576D03*
X0086300Y0526576D03*
X0076300Y0526576D03*
X0076300Y0536576D03*
X0066300Y0536576D03*
X0066300Y0526576D03*
X0056300Y0526576D03*
X0056300Y0536576D03*
X0046300Y0536576D03*
X0046300Y0526576D03*
D22*
X0027127Y0531576D03*
X0027127Y0441024D03*
X0255473Y0441024D03*
X0255473Y0531576D03*
D23*
X0146300Y0399100D02*
X0146300Y0393500D01*
X0136300Y0393500D02*
X0136300Y0399100D01*
X0126300Y0399100D02*
X0126300Y0393500D01*
X0031300Y0408500D02*
X0031300Y0414100D01*
X0021300Y0414100D02*
X0021300Y0408500D01*
X0196300Y0134100D02*
X0196300Y0128500D01*
X0206300Y0128500D02*
X0206300Y0134100D01*
X0216300Y0134100D02*
X0216300Y0128500D01*
X0104100Y0111300D02*
X0098500Y0111300D01*
X0098500Y0101300D02*
X0104100Y0101300D01*
X0316300Y0328500D02*
X0316300Y0334100D01*
X0326300Y0334100D02*
X0326300Y0328500D01*
D24*
X0063505Y0381300D03*
D25*
X0051300Y0362402D03*
X0039489Y0381300D03*
D26*
X0091300Y0391300D03*
D27*
X0101300Y0391300D03*
D28*
X0211300Y0256300D03*
X0211300Y0246300D03*
X0211300Y0236300D03*
X0211300Y0226300D03*
X0221300Y0336300D03*
X0221300Y0346300D03*
X0241300Y0346300D03*
X0241300Y0336300D03*
X0231300Y0111300D03*
M02*
