%
M48
M72
T01C0.02400
T02C0.03200
T03C0.03250
T04C0.03600
T05C0.03937
T06C0.04000
T07C0.04400
T08C0.10500
T09C0.10827
T10C0.12500
T11C0.13000
%
T01
X41300Y161300
X61300Y198800
X103800Y223800
X103800Y228800
X121300Y188800
X131300Y173800
X168800Y218800
X178800Y223800
X181300Y183800
X248800Y246300
X253800Y268800
X238800Y271300
X218800Y301300
X201300Y321300
X191300Y286300
X163800Y326300
X166300Y353800
X146300Y351300
X133800Y381300
X126300Y406300
X101300Y411300
X98800Y401300
X91300Y406300
X81300Y431300
X76300Y431300
X71300Y431300
X66300Y431300
X31300Y373800
X83800Y318800
X98800Y311300
X123800Y326300
X128800Y321300
X116300Y351300
X53800Y271300
X168800Y456300
X158800Y476300
X136300Y478800
X116300Y493800
X181300Y461300
X201300Y471300
X201300Y501300
X231300Y513800
X238800Y506300
X231300Y471300
X243800Y423800
X271300Y391300
X226300Y381300
X226300Y376300
X246300Y326300
X278800Y256300
X306300Y263800
X326300Y251300
X336300Y268800
X331300Y278800
X346300Y231300
X353800Y218800
X383800Y238800
X298800Y206300
X298800Y186300
X298800Y176300
X343800Y376300
X336300Y423800
X291300Y473800
X271300Y466300
X266300Y466300
X286300Y513800
X276300Y528800
T02
X281300Y461300
X301300Y461300
X316300Y461300
X336300Y461300
X286300Y396300
X286300Y386300
X286300Y376300
X286300Y366300
X286300Y356300
X286300Y346300
X286300Y336300
X286300Y326300
X286300Y316300
X286300Y306300
X266300Y291300
X256300Y291300
X256300Y306300
X256300Y316300
X256300Y326300
X256300Y336300
X256300Y346300
X256300Y356300
X256300Y366300
X256300Y376300
X256300Y386300
X256300Y396300
X231300Y346300
X231300Y336300
X231300Y326300
X231300Y316300
X231300Y306300
X231300Y296300
X231300Y286300
X211300Y286300
X211300Y296300
X211300Y306300
X211300Y316300
X211300Y326300
X211300Y336300
X211300Y346300
X211300Y356300
X211300Y366300
X211300Y376300
X181300Y376300
X181300Y366300
X181300Y356300
X181300Y346300
X181300Y336300
X181300Y326300
X181300Y316300
X181300Y306300
X181300Y296300
X181300Y286300
X181300Y271300
X191300Y271300
X221300Y256300
X221300Y246300
X221300Y236300
X221300Y226300
X221300Y216300
X221300Y206300
X221300Y196300
X211300Y166300
X201300Y166300
X196300Y111300
X186300Y111300
X176300Y111300
X166300Y111300
X156300Y111300
X156300Y121300
X146300Y121300
X146300Y111300
X131300Y106300
X131300Y96300
X146300Y81300
X156300Y81300
X166300Y81300
X176300Y81300
X186300Y81300
X196300Y81300
X206300Y81300
X216300Y81300
X211300Y66300
X201300Y66300
X186300Y66300
X176300Y66300
X161300Y66300
X151300Y66300
X206300Y111300
X216300Y111300
X261300Y106300
X271300Y106300
X261300Y121300
X261300Y131300
X261300Y141300
X261300Y151300
X261300Y161300
X261300Y171300
X261300Y181300
X261300Y191300
X261300Y201300
X261300Y211300
X291300Y211300
X291300Y201300
X291300Y191300
X291300Y181300
X291300Y171300
X291300Y161300
X291300Y151300
X291300Y141300
X291300Y131300
X291300Y121300
X146300Y316300
X146300Y326300
X136300Y326300
X136300Y316300
X136300Y306300
X136300Y296300
X136300Y286300
X136300Y276300
X136300Y266300
X136300Y256300
X136300Y246300
X136300Y236300
X106300Y236300
X106300Y246300
X106300Y256300
X106300Y266300
X106300Y276300
X106300Y286300
X106300Y296300
X106300Y306300
X106300Y316300
X106300Y326300
X106300Y336300
X106300Y346300
X106300Y356300
X106300Y366300
X101300Y391300
X91300Y391300
X136300Y366300
X136300Y356300
X136300Y346300
X136300Y336300
T03
X361300Y333800
X361300Y323800
X361300Y313800
X361300Y303800
X361300Y293800
X361300Y273800
X361300Y263800
X361300Y253800
X361300Y243800
X361300Y233800
X361300Y223800
X361300Y213800
X361300Y203800
X361300Y193800
X361300Y183800
X361300Y173800
X361300Y163800
X361300Y153800
X361300Y143800
X361300Y133800
X361300Y123800
X361300Y113800
X361300Y103800
X361300Y93800
X361300Y83800
X361300Y73800
X361300Y63800
X361300Y53800
X361300Y43800
X361300Y33800
X391300Y33800
X391300Y43800
X391300Y53800
X391300Y63800
X391300Y73800
X391300Y83800
X391300Y93800
X391300Y103800
X391300Y113800
X391300Y123800
X391300Y133800
X391300Y143800
X391300Y153800
X391300Y163800
X391300Y173800
X391300Y183800
X391300Y193800
X391300Y203800
X391300Y213800
X391300Y223800
X391300Y233800
X391300Y243800
X391300Y253800
X391300Y263800
X391300Y273800
X391300Y293800
X391300Y303800
X391300Y313800
X391300Y323800
X391300Y333800
X391300Y343800
X391300Y353800
X391300Y363800
X391300Y373800
X391300Y383800
X391300Y393800
X391300Y403800
X391300Y413800
X391300Y423800
X391300Y433800
X391300Y443800
X391300Y453800
X391300Y463800
X391300Y473800
X391300Y483800
X391300Y493800
X391300Y503800
X391300Y513800
X391300Y523800
X391300Y533800
X361300Y533800
X361300Y523800
X361300Y513800
X361300Y503800
X361300Y493800
X361300Y483800
X361300Y473800
X361300Y463800
X361300Y453800
X361300Y443800
X361300Y433800
X361300Y423800
X361300Y413800
X361300Y403800
X361300Y393800
X361300Y383800
X361300Y373800
X361300Y363800
X361300Y353800
X361300Y343800
T04
X326300Y331300
X316300Y331300
X216300Y131300
X206300Y131300
X196300Y131300
X101300Y111300
X101300Y101300
X86300Y101300
X86300Y111300
X76300Y111300
X76300Y101300
X61300Y101300
X61300Y111300
X51300Y111300
X51300Y101300
X36300Y101300
X36300Y111300
X26300Y111300
X26300Y101300
X126300Y396300
X136300Y396300
X146300Y396300
X31300Y411300
X21300Y411300
X326300Y121300
X326300Y111300
X326300Y101300
X326300Y91300
X326300Y81300
X326300Y71300
X326300Y61300
X336300Y61300
X336300Y71300
X336300Y81300
X336300Y91300
X336300Y101300
X336300Y111300
X336300Y121300
T05
X236300Y526576
X236300Y536576
X226300Y536576
X226300Y526576
X216300Y526576
X216300Y536576
X206300Y536576
X206300Y526576
X196300Y526576
X196300Y536576
X186300Y536576
X186300Y526576
X176300Y526576
X176300Y536576
X166300Y536576
X166300Y526576
X156300Y526576
X156300Y536576
X146300Y536576
X146300Y526576
X136300Y526576
X136300Y536576
X126300Y536576
X126300Y526576
X116300Y526576
X116300Y536576
X106300Y536576
X106300Y526576
X96300Y526576
X96300Y536576
X86300Y536576
X86300Y526576
X76300Y526576
X76300Y536576
X66300Y536576
X66300Y526576
X56300Y526576
X56300Y536576
X46300Y536576
X46300Y526576
T06
X221300Y346300
X221300Y336300
X241300Y336300
X241300Y346300
X211300Y256300
X211300Y246300
X211300Y236300
X211300Y226300
X166300Y206300
X156300Y206300
X146300Y206300
X136300Y206300
X126300Y206300
X116300Y206300
X106300Y206300
X96300Y206300
X86300Y206300
X76300Y206300
X66300Y206300
X56300Y206300
X46300Y206300
X36300Y206300
X26300Y206300
X26300Y181300
X36300Y181300
X46300Y181300
X56300Y181300
X66300Y181300
X76300Y181300
X86300Y181300
X96300Y181300
X106300Y181300
X116300Y181300
X126300Y181300
X136300Y181300
X146300Y181300
X156300Y181300
X166300Y181300
X231300Y111300
X376300Y113800
X376300Y103800
X376300Y93800
X376300Y83800
X376300Y73800
X376300Y63800
X376300Y53800
X376300Y43800
X376300Y33800
X376300Y123800
X376300Y133800
X376300Y143800
X376300Y153800
X376300Y163800
X376300Y173800
X376300Y183800
X376300Y193800
X376300Y203800
X376300Y213800
X376300Y223800
X376300Y233800
X376300Y243800
X376300Y253800
X376300Y263800
X376300Y273800
X376300Y293800
X376300Y303800
X376300Y313800
X376300Y323800
X376300Y333800
X376300Y343800
X376300Y353800
X376300Y363800
X376300Y373800
X376300Y383800
X376300Y393800
X376300Y403800
X376300Y413800
X376300Y423800
X376300Y433800
X376300Y443800
X376300Y453800
X376300Y463800
X376300Y473800
X376300Y483800
X376300Y493800
X376300Y503800
X376300Y513800
X376300Y523800
X376300Y533800
T07
X326300Y481300
X316300Y481300
X306300Y481300
T08
X51300Y362402
X39489Y381300
T09
X27127Y441024
X27127Y531576
X255473Y531576
X255473Y441024
T10
X21300Y16300
X21300Y251300
X21300Y351300
X63505Y381300
X201300Y16300
X331300Y16300
T11
X316300Y540300
M30
