M48
;GenerationSoftware,Autodesk,EAGLE,9.6.1*%
;CreationDate,2023-10-20T05:52:07Z*%
FMAT,2
ICI,OFF
METRIC,TZ,000.000
T12C0.610
T11C0.813
T10C0.826
T9C0.914
T8C1.016
T7C1.118
T6C1.270
T5C1.397
T4C2.667
T3C3.175
T2C3.302
T1C4.064
%
G90
M71
T1
X-144780Y101600
X-144780Y25400
X-144780Y127000
X-144780Y76200
X-144780Y50800
T2
X101854Y10160
X127000Y147066
T3
X111760Y137870
T4
X106960Y140970
X111760Y143970
T5
X-21895Y143535
X-28905Y143535
T6
X81280Y146050
X86360Y146050
X88900Y146050
X91440Y146050
X93980Y146050
X93980Y130810
X91440Y130810
X78740Y146050
X55880Y130810
X76200Y130810
X73660Y130810
X71120Y130810
X83820Y146050
X55880Y146050
X68580Y130810
X66040Y130810
X63500Y130810
X60960Y130810
X58420Y130810
X88900Y130810
X86360Y130810
X83820Y130810
X81280Y130810
X58420Y146050
X60960Y146050
X63500Y146050
X66040Y146050
X68580Y146050
X71120Y146050
X73660Y146050
X78740Y130810
X76200Y146050
T7
X116840Y12700
X116840Y10160
X124460Y132080
X-88900Y115570
X-101600Y115570
X68580Y7620
X127000Y132080
X129540Y132080
X116840Y7620
X55880Y7620
T8
X-109220Y30480
X-111760Y30480
X-104140Y33020
X-106680Y33020
X-109220Y33020
X-111760Y33020
X-104140Y35560
X-106680Y35560
X-109220Y35560
X-111760Y35560
X-104140Y38100
X-106680Y38100
X-109220Y38100
X-111760Y38100
X-119380Y30480
X-121920Y30480
X-124460Y30480
X-127000Y30480
X-119380Y33020
X-121920Y33020
X-124460Y33020
X-127000Y33020
X-119380Y35560
X-121920Y35560
X-124460Y35560
X-127000Y35560
X-119380Y38100
X-121920Y38100
X-124460Y38100
X-127000Y38100
X-104140Y40640
X-106680Y40640
X-109220Y40640
X-111760Y40640
X-104140Y43180
X-106680Y43180
X-109220Y43180
X-111760Y43180
X-104140Y45720
X-106680Y45720
X-109220Y45720
X-111760Y45720
X-104140Y48260
X-106680Y48260
X-109220Y48260
X-111760Y48260
X-104140Y50800
X-106680Y50800
X-109220Y50800
X-111760Y50800
X-104140Y53340
X-106680Y53340
X-109220Y53340
X-111760Y53340
X-104140Y55880
X-106680Y55880
X-109220Y55880
X-111760Y55880
X-119380Y40640
X-124460Y40640
X-127000Y40640
X-119380Y43180
X-121920Y43180
X-124460Y43180
X-127000Y43180
X-119380Y45720
X-121920Y45720
X-124460Y45720
X-127000Y45720
X-119380Y48260
X-121920Y48260
X-124460Y48260
X-127000Y48260
X-124460Y73660
X-121920Y50800
X-124460Y50800
X-127000Y50800
X-119380Y53340
X-121920Y53340
X-124460Y53340
X-127000Y53340
X-119380Y55880
X-121920Y55880
X-124460Y55880
X-127000Y55880
X-129540Y63500
X-129540Y60960
X-129540Y58420
X-129540Y55880
X-129540Y73660
X-129540Y71120
X-129540Y68580
X-129540Y66040
X-101600Y63500
X-101600Y60960
X-101600Y58420
X-101600Y55880
X-101600Y73660
X-101600Y71120
X-101600Y68580
X-101600Y66040
X-119380Y58420
X-121920Y58420
X-124460Y58420
X-127000Y58420
X-111760Y73660
X-109220Y73660
X-106680Y73660
X-104140Y73660
X15240Y25400
X15240Y110490
X12700Y110490
X-127000Y63500
X-124460Y63500
X-121920Y63500
X-119380Y63500
X-127000Y60960
X-124460Y60960
X-121920Y60960
X-119380Y60960
X-104140Y60960
X-106680Y60960
X-109220Y60960
X-111760Y60960
X-104140Y58420
X-106680Y58420
X-109220Y58420
X-111760Y58420
X-104140Y71120
X-106680Y71120
X-109220Y71120
X-111760Y71120
X-104140Y66040
X-106680Y66040
X-109220Y66040
X-111760Y66040
X-104140Y68580
X-106680Y68580
X-109220Y68580
X-111760Y68580
X-104140Y63500
X-106680Y63500
X-109220Y63500
X-111760Y63500
X-119380Y73660
X-121920Y73660
X-127000Y73660
X-119380Y68580
X-121920Y68580
X-124460Y68580
X-127000Y68580
X-119380Y71120
X-121920Y71120
X-124460Y71120
X-127000Y71120
X-119380Y66040
X-121920Y66040
X-124460Y66040
X-127000Y66040
X52070Y72390
X49530Y57150
X52070Y90170
X49530Y74930
X36830Y90170
X49530Y53340
X46990Y53340
X44450Y53340
X41910Y53340
X49530Y35560
X67310Y119380
X-121920Y40640
X-118110Y147320
X-120650Y147320
X-123190Y147320
X-125730Y147320
X-128270Y147320
X-118110Y144780
X-120650Y144780
X-123190Y144780
X-125730Y144780
X-128270Y144780
X-92710Y124460
X-95250Y124460
X-97790Y124460
X-100330Y124460
X-102870Y124460
X-105410Y124460
X-107950Y124460
X-110490Y124460
X-113030Y124460
X-115570Y124460
X-118110Y124460
X-120650Y124460
X-123190Y124460
X-125730Y124460
X-128270Y124460
X-92710Y133350
X-95250Y133350
X-97790Y133350
X-100330Y133350
X-102870Y133350
X-105410Y133350
X-107950Y133350
X-110490Y133350
X-113030Y133350
X-115570Y133350
X-118110Y133350
X-120650Y133350
X-123190Y133350
X-125730Y133350
X-128270Y133350
X148590Y13970
X148590Y16510
X148590Y19050
X148590Y21590
X148590Y24130
X148590Y26670
X148590Y29210
X148590Y31750
X148590Y34290
X148590Y36830
X148590Y39370
X148590Y41910
X148590Y44450
X148590Y46990
X148590Y49530
X148590Y52070
X148590Y54610
X148590Y57150
X148590Y59690
X148590Y62230
X148590Y64770
X148590Y67310
X148590Y69850
X148590Y72390
X148590Y74930
X148590Y80010
X148590Y82550
X148590Y85090
X148590Y87630
X148590Y90170
X148590Y92710
X148590Y95250
X148590Y97790
X148590Y100330
X148590Y102870
X148590Y105410
X148590Y107950
X148590Y110490
X148590Y113030
X148590Y115570
X148590Y118110
X148590Y120650
X148590Y123190
X148590Y125730
X148590Y128270
X148590Y130810
X148590Y133350
X148590Y135890
X148590Y138430
X148590Y140970
X-96520Y110490
X-25400Y68580
X-27940Y110490
X-96520Y78740
X-93980Y110490
X-25400Y110490
X63500Y110490
X119380Y128270
X-25400Y66040
X-25400Y31750
X-25400Y137160
X-22860Y137160
X64770Y121920
X67310Y121920
X69850Y121920
X72390Y121920
X74930Y121920
X-23152Y146025
X-27648Y146025
X66040Y16510
X-22860Y110490
X99060Y46990
X96520Y46990
X93980Y46990
X91440Y46990
X88900Y46990
X119380Y110490
X66040Y110490
X-101600Y22860
X-119380Y50800
X-104140Y30480
X-27940Y137160
X-106680Y30480
X-127000Y27940
X-124460Y27940
X-121920Y27940
X-119380Y27940
X-127000Y25400
X-124460Y25400
X-121920Y25400
X-119380Y25400
X-111760Y27940
X-109220Y27940
X-106680Y27940
X-104140Y27940
X-111760Y25400
X-109220Y25400
X-106680Y25400
X-104140Y25400
X-101600Y45720
X-101600Y48260
X-101600Y50800
X-101600Y53340
X-101600Y35560
X-101600Y38100
X-101600Y40640
X-101600Y43180
X-129540Y45720
X-129540Y48260
X-129540Y50800
X-129540Y53340
X-129540Y35560
X-129540Y38100
X-129540Y40640
X-129540Y43180
X-101600Y25400
X-101600Y27940
X-101600Y30480
X-101600Y33020
X-129540Y25400
X-129540Y27940
X-129540Y30480
X-129540Y33020
X-101600Y15240
X-101600Y17780
X-101600Y20320
X-129540Y12700
X-129540Y15240
X-129540Y17780
X-129540Y20320
X-129540Y22860
X-127000Y22860
X-124460Y22860
X-121920Y22860
X-119380Y22860
X-127000Y20320
X-124460Y20320
X-121920Y20320
X-119380Y20320
X-127000Y17780
X-124460Y17780
X-121920Y17780
X-119380Y17780
X-127000Y15240
X-124460Y15240
X-121920Y15240
X-119380Y15240
X-127000Y12700
X-124460Y12700
X-121920Y12700
X-119380Y12700
X-127000Y10160
X-124460Y10160
X-121920Y10160
X-119380Y10160
X-127000Y7620
X-124460Y7620
X-121920Y7620
X-119380Y7620
X-127000Y5080
X-124460Y5080
X-121920Y5080
X-119380Y5080
X-111760Y22860
X-109220Y22860
X-106680Y22860
X-104140Y22860
X-111760Y20320
X-109220Y20320
X-106680Y20320
X-104140Y20320
X-111760Y17780
X-109220Y17780
X-106680Y17780
X-104140Y17780
X-111760Y15240
X-109220Y15240
X-106680Y15240
X-104140Y15240
X-111760Y12700
X-109220Y12700
X-106680Y12700
X-104140Y12700
X-111760Y10160
X-109220Y10160
X-106680Y10160
X-104140Y10160
X-111760Y7620
X-109220Y7620
X-106680Y7620
X-104140Y7620
X-111760Y5080
X-109220Y5080
X-106680Y5080
X-104140Y5080
X-101600Y5080
X-101600Y7620
X-101600Y10160
X-101600Y12700
X-129540Y5080
X-129540Y7620
X-129540Y10160
T9
X118110Y68580
X-62230Y43180
X-62230Y45720
X-62230Y48260
X118110Y83820
X-128270Y111760
X58420Y43180
X58420Y45720
X58420Y48260
X58420Y33020
X58420Y35560
X58420Y38100
X138430Y19050
X135890Y19050
X72390Y34290
X72390Y36830
X72390Y39370
X-113030Y114300
X118110Y71120
X48260Y121920
X45720Y121920
X-125730Y111760
X-128270Y114300
X-125730Y114300
X-121920Y111760
X-119380Y111760
X-121920Y114300
X-119380Y114300
X118110Y73660
X118110Y78740
X118110Y81280
X-115570Y111760
X-113030Y111760
X-115570Y114300
X69850Y12700
X-107950Y111760
X-107950Y114300
X-62230Y53340
X-62230Y55880
X-62230Y58420
X67310Y12700
T10
X144780Y113030
X144780Y115570
X144780Y118110
X144780Y120650
X144780Y123190
X144780Y125730
X144780Y128270
X144780Y130810
X144780Y133350
X144780Y135890
X144780Y138430
X144780Y140970
X144780Y107950
X152400Y46990
X152400Y13970
X152400Y16510
X152400Y19050
X152400Y21590
X152400Y24130
X152400Y26670
X152400Y29210
X152400Y31750
X152400Y34290
X152400Y36830
X152400Y39370
X152400Y41910
X152400Y44450
X152400Y49530
X152400Y52070
X152400Y54610
X152400Y57150
X152400Y59690
X152400Y62230
X152400Y64770
X152400Y67310
X152400Y69850
X152400Y72390
X152400Y74930
X152400Y80010
X152400Y82550
X152400Y85090
X152400Y87630
X152400Y90170
X152400Y92710
X152400Y95250
X152400Y97790
X152400Y100330
X152400Y102870
X152400Y105410
X152400Y107950
X152400Y110490
X152400Y113030
X152400Y115570
X152400Y118110
X152400Y120650
X152400Y123190
X152400Y125730
X152400Y128270
X152400Y130810
X152400Y133350
X152400Y135890
X152400Y138430
X152400Y140970
X144780Y13970
X144780Y16510
X144780Y19050
X144780Y21590
X144780Y24130
X144780Y26670
X144780Y29210
X144780Y31750
X144780Y34290
X144780Y36830
X144780Y39370
X144780Y41910
X144780Y44450
X144780Y46990
X144780Y49530
X144780Y52070
X144780Y54610
X144780Y57150
X144780Y59690
X144780Y62230
X144780Y64770
X144780Y67310
X144780Y69850
X144780Y72390
X144780Y110490
X144780Y80010
X144780Y82550
X144780Y85090
X144780Y87630
X144780Y90170
X144780Y92710
X144780Y95250
X144780Y97790
X144780Y100330
X144780Y102870
X144780Y105410
X144780Y74930
T11
X24130Y60960
X26670Y60960
X29210Y60960
X31750Y60960
X34290Y60960
X36830Y60960
X39370Y60960
X41910Y60960
X44450Y60960
X46990Y60960
X49530Y60960
X52070Y60960
X52070Y68580
X49530Y68580
X46990Y68580
X44450Y68580
X41910Y68580
X39370Y68580
X36830Y68580
X34290Y68580
X31750Y68580
X29210Y68580
X26670Y68580
X24130Y68580
X-49530Y60960
X-46990Y60960
X-34290Y60960
X-34290Y68580
X-44450Y60960
X-41910Y60960
X-36830Y60960
X-39370Y60960
X-36830Y68580
X-39370Y68580
X-41910Y68580
X-44450Y68580
X-46990Y68580
X-49530Y68580
X-77470Y62230
X-69850Y62230
X-69850Y69850
X-77470Y69850
X24130Y78740
X26670Y78740
X29210Y78740
X31750Y78740
X34290Y78740
X36830Y78740
X39370Y78740
X41910Y78740
X44450Y78740
X46990Y78740
X49530Y78740
X52070Y78740
X52070Y86360
X49530Y86360
X46990Y86360
X44450Y86360
X41910Y86360
X39370Y86360
X36830Y86360
X34290Y86360
X31750Y86360
X29210Y86360
X26670Y86360
X24130Y86360
X-29210Y124460
X-24130Y124460
X-26670Y124460
X-24130Y132080
X-31750Y132080
X-15240Y60960
X-12700Y60960
X0Y60960
X2540Y60960
X-10160Y60960
X-7620Y60960
X-2540Y60960
X-5080Y60960
X5080Y60960
X7620Y60960
X7620Y68580
X5080Y68580
X2540Y68580
X0Y68580
X-2540Y68580
X-5080Y68580
X-7620Y68580
X-10160Y68580
X-12700Y68580
X-15240Y68580
X-15240Y57150
X-12700Y57150
X-10160Y57150
X-7620Y57150
X-5080Y57150
X-2540Y57150
X0Y57150
X2540Y57150
X5080Y57150
X-15240Y78740
X-12700Y78740
X0Y78740
X2540Y78740
X-10160Y78740
X-7620Y78740
X-2540Y78740
X-5080Y78740
X5080Y78740
X7620Y78740
X7620Y86360
X5080Y86360
X2540Y86360
X0Y86360
X-2540Y86360
X-5080Y86360
X-7620Y86360
X-10160Y86360
X-12700Y86360
X-15240Y86360
X-15240Y95250
X-12700Y95250
X0Y95250
X2540Y95250
X-10160Y95250
X-7620Y95250
X-2540Y95250
X-5080Y95250
X5080Y95250
X7620Y95250
X7620Y102870
X5080Y102870
X2540Y102870
X0Y102870
X-2540Y102870
X-5080Y102870
X-7620Y102870
X-10160Y102870
X-12700Y102870
X-15240Y102870
X-15240Y41910
X-12700Y41910
X-10160Y41910
X-7620Y41910
X-5080Y41910
X-2540Y41910
X0Y41910
X2540Y41910
X5080Y41910
X5080Y49530
X2540Y49530
X0Y49530
X-2540Y49530
X-5080Y49530
X-7620Y49530
X-10160Y49530
X-12700Y49530
X-15240Y49530
X24130Y24130
X26670Y24130
X29210Y24130
X31750Y24130
X34290Y24130
X36830Y24130
X39370Y24130
X41910Y24130
X44450Y24130
X46990Y24130
X49530Y24130
X52070Y24130
X52070Y31750
X49530Y31750
X46990Y31750
X44450Y31750
X41910Y31750
X39370Y31750
X36830Y31750
X34290Y31750
X31750Y31750
X29210Y31750
X26670Y31750
X24130Y31750
X-86360Y80010
X-83820Y80010
X-71120Y80010
X-68580Y80010
X-81280Y80010
X-78740Y80010
X-73660Y80010
X-76200Y80010
X-68580Y87630
X-71120Y87630
X-73660Y87630
X-76200Y87630
X-78740Y87630
X-81280Y87630
X-83820Y87630
X-86360Y87630
X-125730Y93980
X-123190Y93980
X-110490Y93980
X-107950Y93980
X-120650Y93980
X-118110Y93980
X-113030Y93980
X-115570Y93980
X-107950Y101600
X-110490Y101600
X-113030Y101600
X-115570Y101600
X-118110Y101600
X-120650Y101600
X-123190Y101600
X-125730Y101600
X-124460Y91440
X-121920Y91440
X-118110Y91440
X-115570Y91440
X-129540Y96520
X-129540Y99060
X-109220Y91440
X-111760Y91440
X-125730Y104140
X-123190Y104140
X-55880Y146050
X-53340Y146050
X-63500Y146050
X-60960Y146050
X-71120Y146050
X-68580Y146050
X-78740Y146050
X-76200Y146050
X-86360Y146050
X-83820Y146050
X-93980Y146050
X-91440Y146050
X-101600Y146050
X-99060Y146050
X-109220Y146050
X-106680Y146050
X-62230Y138430
X-64770Y138430
X-67310Y138430
X-69850Y138430
X-72390Y138430
X-74930Y138430
X-77470Y138430
X-80010Y138430
X-82550Y138430
X127000Y57150
X127000Y54610
X127000Y41910
X127000Y39370
X127000Y52070
X127000Y49530
X127000Y44450
X127000Y46990
X127000Y36830
X127000Y34290
X134620Y34290
X134620Y36830
X134620Y39370
X134620Y41910
X134620Y44450
X134620Y46990
X134620Y49530
X134620Y52070
X134620Y54610
X134620Y57150
X113030Y57150
X113030Y54610
X113030Y41910
X113030Y39370
X113030Y52070
X113030Y49530
X113030Y44450
X113030Y46990
X113030Y36830
X113030Y34290
X120650Y34290
X120650Y36830
X120650Y39370
X120650Y41910
X120650Y44450
X120650Y46990
X120650Y49530
X120650Y52070
X120650Y54610
X120650Y57150
X-49530Y41910
X-46990Y41910
X-34290Y41910
X-34290Y49530
X-44450Y41910
X-41910Y41910
X-36830Y41910
X-39370Y41910
X-36830Y49530
X-39370Y49530
X-41910Y49530
X-44450Y49530
X-46990Y49530
X-49530Y49530
X88900Y96520
X91440Y96520
X104140Y96520
X106680Y96520
X93980Y96520
X96520Y96520
X101600Y96520
X99060Y96520
X106680Y104140
X104140Y104140
X101600Y104140
X99060Y104140
X96520Y104140
X93980Y104140
X91440Y104140
X88900Y104140
X62230Y96520
X64770Y96520
X77470Y96520
X80010Y96520
X67310Y96520
X69850Y96520
X74930Y96520
X72390Y96520
X80010Y104140
X77470Y104140
X74930Y104140
X72390Y104140
X69850Y104140
X67310Y104140
X64770Y104140
X62230Y104140
X138430Y110490
X138430Y113030
X138430Y115570
X138430Y118110
X138430Y120650
X138430Y123190
X138430Y125730
X138430Y128270
X138430Y130810
X120650Y7620
X120650Y12700
X124460Y7620
X124460Y12700
X129540Y6350
X129540Y11430
X135890Y10160
X135890Y7620
X-44450Y36830
X-41910Y36830
X-39370Y36830
X-36830Y36830
X-34290Y36830
X-80010Y121920
X-77470Y121920
X-64770Y121920
X-62230Y121920
X-74930Y121920
X-72390Y121920
X-67310Y121920
X-69850Y121920
X-59690Y121920
X-57150Y121920
X-57150Y129540
X-59690Y129540
X-62230Y129540
X-64770Y129540
X-67310Y129540
X-69850Y129540
X-72390Y129540
X-74930Y129540
X-77470Y129540
X-80010Y129540
X-93980Y62230
X-86360Y62230
X-86360Y69850
X-93980Y69850
X-90170Y41910
X-87630Y41910
X-74930Y41910
X-72390Y41910
X-85090Y41910
X-82550Y41910
X-77470Y41910
X-80010Y41910
X-72390Y49530
X-74930Y49530
X-77470Y49530
X-80010Y49530
X-82550Y49530
X-85090Y49530
X-87630Y49530
X-90170Y49530
X-44450Y138430
X-41910Y138430
X-41910Y146050
X-44450Y146050
X-39370Y138430
X-36830Y138430
X-39370Y146050
X-36830Y146050
X-46990Y133350
X-44450Y133350
X-41910Y133350
X-39370Y133350
X-36830Y133350
X8890Y49530
X8890Y46990
X-92710Y49530
X-92710Y46990
X-52070Y49530
X-52070Y46990
X-17780Y68580
X-17780Y66040
X-52070Y68580
X-52070Y66040
X-17780Y102870
X-17780Y100330
X-17780Y86360
X-17780Y83820
X-17780Y44450
X-17780Y41910
X21590Y68580
X21590Y66040
X59690Y68580
X59690Y66040
X21590Y86360
X21590Y83820
X21590Y31750
X21590Y29210
X59690Y104140
X59690Y101600
X21590Y49530
X21590Y46990
X-92710Y74930
X-90170Y74930
X-77470Y74930
X-74930Y74930
X-27940Y118110
X-25400Y118110
X-17780Y146050
X-17780Y143510
X110490Y128270
X113030Y128270
X115570Y120650
X107950Y120650
X24130Y41910
X26670Y41910
X29210Y41910
X31750Y41910
X34290Y41910
X36830Y41910
X39370Y41910
X41910Y41910
X44450Y41910
X46990Y41910
X49530Y41910
X52070Y41910
X52070Y49530
X49530Y49530
X46990Y49530
X44450Y49530
X41910Y49530
X39370Y49530
X36830Y49530
X34290Y49530
X31750Y49530
X29210Y49530
X26670Y49530
X24130Y49530
X86360Y104140
X86360Y101600
X55880Y116840
X48260Y116840
X76200Y8890
X78740Y8890
X86360Y8890
X88900Y8890
X91440Y8890
X74930Y12700
X80010Y12700
X91440Y12700
X86360Y12700
X29210Y146050
X31750Y146050
X34290Y138430
X26670Y138430
X-99060Y52070
X-99060Y49530
X24130Y96520
X26670Y96520
X39370Y96520
X41910Y96520
X29210Y96520
X31750Y96520
X36830Y96520
X34290Y96520
X41910Y104140
X39370Y104140
X36830Y104140
X34290Y104140
X31750Y104140
X29210Y104140
X26670Y104140
X24130Y104140
X88900Y78740
X91440Y78740
X104140Y78740
X106680Y78740
X93980Y78740
X96520Y78740
X101600Y78740
X99060Y78740
X106680Y86360
X104140Y86360
X101600Y86360
X99060Y86360
X96520Y86360
X93980Y86360
X91440Y86360
X88900Y86360
X62230Y78740
X64770Y78740
X77470Y78740
X80010Y78740
X67310Y78740
X69850Y78740
X74930Y78740
X72390Y78740
X80010Y86360
X77470Y86360
X74930Y86360
X72390Y86360
X69850Y86360
X67310Y86360
X64770Y86360
X62230Y86360
X21590Y104140
X21590Y101600
X59690Y86360
X59690Y83820
X86360Y86360
X86360Y83820
X88900Y60960
X91440Y60960
X104140Y60960
X106680Y60960
X93980Y60960
X96520Y60960
X101600Y60960
X99060Y60960
X106680Y68580
X104140Y68580
X101600Y68580
X99060Y68580
X96520Y68580
X93980Y68580
X91440Y68580
X88900Y68580
X27940Y121920
X30480Y121920
X33020Y121920
X35560Y121920
X38100Y121920
X40640Y121920
X66040Y50800
X66040Y43180
X86360Y68580
X86360Y66040
X127000Y115570
X127000Y113030
X127000Y100330
X127000Y97790
X127000Y110490
X127000Y107950
X127000Y102870
X127000Y105410
X127000Y95250
X127000Y92710
X134620Y92710
X134620Y95250
X134620Y97790
X134620Y100330
X134620Y102870
X134620Y105410
X134620Y107950
X134620Y110490
X134620Y113030
X134620Y115570
X127000Y86360
X127000Y83820
X127000Y71120
X127000Y68580
X127000Y81280
X127000Y78740
X127000Y73660
X127000Y76200
X127000Y66040
X127000Y63500
X134620Y63500
X134620Y66040
X134620Y68580
X134620Y71120
X134620Y73660
X134620Y76200
X134620Y78740
X134620Y81280
X134620Y83820
X134620Y86360
X142240Y148590
X142240Y146050
X135890Y143510
X135890Y148590
X130810Y124460
X125730Y124460
X130810Y128270
X125730Y128270
X134620Y118110
X132080Y118110
X43180Y146050
X43180Y143510
X134620Y88900
X132080Y88900
X120650Y59690
X118110Y59690
X88900Y34290
X88900Y41910
X-88900Y87630
X-88900Y85090
X134620Y59690
X132080Y59690
X-82550Y129540
X-82550Y127000
X46990Y20320
X44450Y20320
X41910Y20320
X39370Y20320
X36830Y20320
X34290Y20320
X31750Y20320
X29210Y20320
X26670Y20320
X-15240Y130810
X-12700Y130810
X0Y130810
X2540Y130810
X-10160Y130810
X-7620Y130810
X-2540Y130810
X-5080Y130810
X5080Y130810
X7620Y130810
X10160Y130810
X12700Y130810
X15240Y130810
X17780Y130810
X20320Y130810
X22860Y130810
X22860Y146050
X20320Y146050
X17780Y146050
X15240Y146050
X12700Y146050
X10160Y146050
X7620Y146050
X5080Y146050
X2540Y146050
X0Y146050
X-2540Y146050
X-5080Y146050
X-7620Y146050
X-10160Y146050
X-12700Y146050
X-15240Y146050
X138430Y54610
X138430Y52070
X138430Y49530
X138430Y46990
X138430Y44450
X138430Y41910
X138430Y39370
X138430Y36830
X138430Y34290
X58420Y17780
X58420Y12700
X-74930Y34290
X-80010Y34290
X-101600Y100330
X-101600Y95250
X62230Y60960
X64770Y60960
X77470Y60960
X80010Y60960
X67310Y60960
X69850Y60960
X74930Y60960
X72390Y60960
X80010Y68580
X77470Y68580
X74930Y68580
X72390Y68580
X69850Y68580
X67310Y68580
X64770Y68580
X62230Y68580
T12
X10795Y73025
X25400Y87947
X56197Y23177
X-30797Y49530
X-78105Y114300
X24447Y37783
X25400Y94932
X37148Y27305
X42228Y46355
X33020Y37148
X46672Y39053
X42863Y16192
X117792Y25082
X35560Y76200
X2223Y73025
X23812Y142558
X6667Y139700
X3810Y70485
X115887Y32702
X13652Y68263
X15557Y33973
X25400Y140653
X20003Y106997
X71120Y30162
X81598Y40640
X88900Y127317
X14605Y80010
X20638Y27940
X18733Y107632
X-3175Y81915
X6350Y81598
X97472Y129540
X110172Y38100
X49212Y126682
X54610Y138430
X13017Y106997
X120967Y126047
X45720Y59372
X42863Y80645
X53022Y55562
X49212Y65723
X5398Y73025
X64452Y38100
X7302Y150813
X69850Y149860
X30797Y108585
X1270Y109220
X33020Y88900
X34608Y73025
X39688Y73025
X6667Y99377
X33338Y73025
X65723Y46990
X44767Y46355
X3492Y91440
X95250Y80328
X68580Y80645
X-13970Y91440
X51117Y74930
X55562Y44450
X-2223Y83503
X29527Y81598
X68580Y94615
X84773Y143193
X95250Y98425
X137160Y77788
X51752Y132715
X53022Y93980
X-6350Y97790
X70168Y57467
X114935Y53657
X68898Y126682
X67628Y125412
X-71120Y119380
X67628Y58102
X123190Y54292
X1270Y98425
X52705Y98107
X53022Y135573
X66675Y56515
X115887Y50800
X72073Y119062
X70168Y117157
X-3492Y133985
X-60642Y132398
X-635Y127635
X-952Y105092
X4763Y99377
X65405Y72708
X113982Y70803
X92710Y112395
X84773Y129222
X129540Y75883
X85408Y109855
X80328Y111442
X91757Y55562
X118427Y47942
X-2857Y108585
X7302Y118427
X-2857Y114300
X82868Y114617
X91757Y29845
X128905Y29527
X-4763Y126365
X9843Y119380
X-4128Y114300
X83820Y115570
X99377Y27622
X124142Y27622
X-9208Y120332
X12065Y121602
X-71120Y118110
X80010Y99695
X9525Y90170
X19685Y90170
X23495Y90170
X41910Y100330
X17780Y45085
X86360Y81915
X81915Y66040
X59055Y60960
X82550Y94932
X86360Y79375
X86360Y97155
X127635Y59690
X109220Y96520
X52705Y83503
X-26987Y75883
X-26670Y42228
X23812Y55245
X-29527Y42228
X-39053Y45402
X55880Y120967
X28257Y112712
X-12382Y112395
X53975Y119062
X55880Y75883
X77153Y75565
X60960Y124460
X71755Y124777
X53657Y126682
X63182Y126047
X-19050Y47307
X-25400Y37783
X11747Y93345
X74930Y51435
X47307Y134620
X69850Y134620
X73343Y76835
X97790Y45085
X39688Y52387
X93027Y20003
X32067Y15557
X110172Y31432
X77470Y13652
X30797Y15557
X92075Y31432
X61277Y26670
X57150Y19685
X61277Y18098
X99060Y21907
X40005Y149225
X117475Y107315
X82233Y107315
X38100Y73978
X-36830Y75248
X45402Y89852
X14287Y138748
X77153Y139383
X43180Y36830
X114935Y35878
X20003Y56832
X43180Y54292
X17780Y94297
X-11747Y88900
X48260Y62547
X48260Y58102
X20638Y134938
X74295Y133985
X1587Y140653
X15240Y143193
X115887Y45720
X45720Y54292
X20638Y141605
X87630Y141605
X9525Y97472
X-1587Y80963
X42863Y28257
X123190Y26035
X15557Y65723
X39688Y66358
X18098Y7620
X118110Y94297
X81915Y108902
X78740Y93345
X119380Y94297
X104457Y100647
X107950Y98107
X105727Y94615
X44132Y64452
X25400Y64452
X24130Y39688
X-86678Y98107
X50800Y89217
X116522Y87313
X27940Y44450
X33020Y46672
X26352Y46355
X11430Y60007
X40323Y55562
X20003Y55562
X20003Y43815
X-23812Y40640
X95250Y39688
X58102Y72708
X55562Y82233
X28892Y52705
X53975Y74613
X30162Y138113
X43498Y120332
X47307Y71438
X26987Y73978
X-7302Y124460
X119697Y90487
X48260Y64770
X75883Y83503
X61912Y126047
X43498Y125412
X72708Y72073
X58102Y88265
X55562Y103187
X72073Y108902
X25717Y89852
X-45085Y104775
X32067Y92075
X117157Y99377
X40323Y58102
X37148Y58102
X28257Y70485
X49212Y73343
X-8890Y74930
X-1270Y59372
X28257Y114935
X-30162Y110807
X-38418Y56197
X23177Y45720
X30162Y136843
X76518Y90487
X105727Y89852
X97790Y109537
X-9525Y122237
X10478Y58102
X-3492Y76518
X97472Y145415
X111442Y72073
X57467Y51435
X33020Y47942
X28892Y53975
X3175Y53657
X26352Y51752
X-7302Y52387
X46672Y58102
X-6350Y37783
M30