G04 EAGLE Gerber RS-274X export*
G75*
%MOMM*%
%FSLAX34Y34*%
%LPD*%
%INBoard Outline*%
%IPPOS*%
%AMOC8*
5,1,8,0,0,1.08239X$1,22.5*%
G01*
%ADD10C,0.000000*%
%ADD11C,0.254000*%


D10*
X-1511300Y0D02*
X1536700Y0D01*
X1536700Y1524000D01*
X-1511300Y1524000D01*
X-1511300Y0D01*
X1253490Y1470660D02*
X1253495Y1471065D01*
X1253510Y1471470D01*
X1253535Y1471875D01*
X1253570Y1472278D01*
X1253614Y1472681D01*
X1253669Y1473083D01*
X1253733Y1473483D01*
X1253807Y1473881D01*
X1253891Y1474277D01*
X1253985Y1474672D01*
X1254088Y1475063D01*
X1254201Y1475453D01*
X1254323Y1475839D01*
X1254455Y1476222D01*
X1254596Y1476602D01*
X1254747Y1476978D01*
X1254906Y1477351D01*
X1255075Y1477719D01*
X1255253Y1478083D01*
X1255439Y1478443D01*
X1255635Y1478798D01*
X1255839Y1479148D01*
X1256051Y1479493D01*
X1256272Y1479832D01*
X1256502Y1480167D01*
X1256739Y1480495D01*
X1256984Y1480817D01*
X1257238Y1481134D01*
X1257498Y1481444D01*
X1257767Y1481747D01*
X1258043Y1482044D01*
X1258326Y1482334D01*
X1258616Y1482617D01*
X1258913Y1482893D01*
X1259216Y1483162D01*
X1259526Y1483422D01*
X1259843Y1483676D01*
X1260165Y1483921D01*
X1260493Y1484158D01*
X1260828Y1484388D01*
X1261167Y1484609D01*
X1261512Y1484821D01*
X1261862Y1485025D01*
X1262217Y1485221D01*
X1262577Y1485407D01*
X1262941Y1485585D01*
X1263309Y1485754D01*
X1263682Y1485913D01*
X1264058Y1486064D01*
X1264438Y1486205D01*
X1264821Y1486337D01*
X1265207Y1486459D01*
X1265597Y1486572D01*
X1265988Y1486675D01*
X1266383Y1486769D01*
X1266779Y1486853D01*
X1267177Y1486927D01*
X1267577Y1486991D01*
X1267979Y1487046D01*
X1268382Y1487090D01*
X1268785Y1487125D01*
X1269190Y1487150D01*
X1269595Y1487165D01*
X1270000Y1487170D01*
X1270405Y1487165D01*
X1270810Y1487150D01*
X1271215Y1487125D01*
X1271618Y1487090D01*
X1272021Y1487046D01*
X1272423Y1486991D01*
X1272823Y1486927D01*
X1273221Y1486853D01*
X1273617Y1486769D01*
X1274012Y1486675D01*
X1274403Y1486572D01*
X1274793Y1486459D01*
X1275179Y1486337D01*
X1275562Y1486205D01*
X1275942Y1486064D01*
X1276318Y1485913D01*
X1276691Y1485754D01*
X1277059Y1485585D01*
X1277423Y1485407D01*
X1277783Y1485221D01*
X1278138Y1485025D01*
X1278488Y1484821D01*
X1278833Y1484609D01*
X1279172Y1484388D01*
X1279507Y1484158D01*
X1279835Y1483921D01*
X1280157Y1483676D01*
X1280474Y1483422D01*
X1280784Y1483162D01*
X1281087Y1482893D01*
X1281384Y1482617D01*
X1281674Y1482334D01*
X1281957Y1482044D01*
X1282233Y1481747D01*
X1282502Y1481444D01*
X1282762Y1481134D01*
X1283016Y1480817D01*
X1283261Y1480495D01*
X1283498Y1480167D01*
X1283728Y1479832D01*
X1283949Y1479493D01*
X1284161Y1479148D01*
X1284365Y1478798D01*
X1284561Y1478443D01*
X1284747Y1478083D01*
X1284925Y1477719D01*
X1285094Y1477351D01*
X1285253Y1476978D01*
X1285404Y1476602D01*
X1285545Y1476222D01*
X1285677Y1475839D01*
X1285799Y1475453D01*
X1285912Y1475063D01*
X1286015Y1474672D01*
X1286109Y1474277D01*
X1286193Y1473881D01*
X1286267Y1473483D01*
X1286331Y1473083D01*
X1286386Y1472681D01*
X1286430Y1472278D01*
X1286465Y1471875D01*
X1286490Y1471470D01*
X1286505Y1471065D01*
X1286510Y1470660D01*
X1286505Y1470255D01*
X1286490Y1469850D01*
X1286465Y1469445D01*
X1286430Y1469042D01*
X1286386Y1468639D01*
X1286331Y1468237D01*
X1286267Y1467837D01*
X1286193Y1467439D01*
X1286109Y1467043D01*
X1286015Y1466648D01*
X1285912Y1466257D01*
X1285799Y1465867D01*
X1285677Y1465481D01*
X1285545Y1465098D01*
X1285404Y1464718D01*
X1285253Y1464342D01*
X1285094Y1463969D01*
X1284925Y1463601D01*
X1284747Y1463237D01*
X1284561Y1462877D01*
X1284365Y1462522D01*
X1284161Y1462172D01*
X1283949Y1461827D01*
X1283728Y1461488D01*
X1283498Y1461153D01*
X1283261Y1460825D01*
X1283016Y1460503D01*
X1282762Y1460186D01*
X1282502Y1459876D01*
X1282233Y1459573D01*
X1281957Y1459276D01*
X1281674Y1458986D01*
X1281384Y1458703D01*
X1281087Y1458427D01*
X1280784Y1458158D01*
X1280474Y1457898D01*
X1280157Y1457644D01*
X1279835Y1457399D01*
X1279507Y1457162D01*
X1279172Y1456932D01*
X1278833Y1456711D01*
X1278488Y1456499D01*
X1278138Y1456295D01*
X1277783Y1456099D01*
X1277423Y1455913D01*
X1277059Y1455735D01*
X1276691Y1455566D01*
X1276318Y1455407D01*
X1275942Y1455256D01*
X1275562Y1455115D01*
X1275179Y1454983D01*
X1274793Y1454861D01*
X1274403Y1454748D01*
X1274012Y1454645D01*
X1273617Y1454551D01*
X1273221Y1454467D01*
X1272823Y1454393D01*
X1272423Y1454329D01*
X1272021Y1454274D01*
X1271618Y1454230D01*
X1271215Y1454195D01*
X1270810Y1454170D01*
X1270405Y1454155D01*
X1270000Y1454150D01*
X1269595Y1454155D01*
X1269190Y1454170D01*
X1268785Y1454195D01*
X1268382Y1454230D01*
X1267979Y1454274D01*
X1267577Y1454329D01*
X1267177Y1454393D01*
X1266779Y1454467D01*
X1266383Y1454551D01*
X1265988Y1454645D01*
X1265597Y1454748D01*
X1265207Y1454861D01*
X1264821Y1454983D01*
X1264438Y1455115D01*
X1264058Y1455256D01*
X1263682Y1455407D01*
X1263309Y1455566D01*
X1262941Y1455735D01*
X1262577Y1455913D01*
X1262217Y1456099D01*
X1261862Y1456295D01*
X1261512Y1456499D01*
X1261167Y1456711D01*
X1260828Y1456932D01*
X1260493Y1457162D01*
X1260165Y1457399D01*
X1259843Y1457644D01*
X1259526Y1457898D01*
X1259216Y1458158D01*
X1258913Y1458427D01*
X1258616Y1458703D01*
X1258326Y1458986D01*
X1258043Y1459276D01*
X1257767Y1459573D01*
X1257498Y1459876D01*
X1257238Y1460186D01*
X1256984Y1460503D01*
X1256739Y1460825D01*
X1256502Y1461153D01*
X1256272Y1461488D01*
X1256051Y1461827D01*
X1255839Y1462172D01*
X1255635Y1462522D01*
X1255439Y1462877D01*
X1255253Y1463237D01*
X1255075Y1463601D01*
X1254906Y1463969D01*
X1254747Y1464342D01*
X1254596Y1464718D01*
X1254455Y1465098D01*
X1254323Y1465481D01*
X1254201Y1465867D01*
X1254088Y1466257D01*
X1253985Y1466648D01*
X1253891Y1467043D01*
X1253807Y1467439D01*
X1253733Y1467837D01*
X1253669Y1468237D01*
X1253614Y1468639D01*
X1253570Y1469042D01*
X1253535Y1469445D01*
X1253510Y1469850D01*
X1253495Y1470255D01*
X1253490Y1470660D01*
X1002030Y101600D02*
X1002035Y102005D01*
X1002050Y102410D01*
X1002075Y102815D01*
X1002110Y103218D01*
X1002154Y103621D01*
X1002209Y104023D01*
X1002273Y104423D01*
X1002347Y104821D01*
X1002431Y105217D01*
X1002525Y105612D01*
X1002628Y106003D01*
X1002741Y106393D01*
X1002863Y106779D01*
X1002995Y107162D01*
X1003136Y107542D01*
X1003287Y107918D01*
X1003446Y108291D01*
X1003615Y108659D01*
X1003793Y109023D01*
X1003979Y109383D01*
X1004175Y109738D01*
X1004379Y110088D01*
X1004591Y110433D01*
X1004812Y110772D01*
X1005042Y111107D01*
X1005279Y111435D01*
X1005524Y111757D01*
X1005778Y112074D01*
X1006038Y112384D01*
X1006307Y112687D01*
X1006583Y112984D01*
X1006866Y113274D01*
X1007156Y113557D01*
X1007453Y113833D01*
X1007756Y114102D01*
X1008066Y114362D01*
X1008383Y114616D01*
X1008705Y114861D01*
X1009033Y115098D01*
X1009368Y115328D01*
X1009707Y115549D01*
X1010052Y115761D01*
X1010402Y115965D01*
X1010757Y116161D01*
X1011117Y116347D01*
X1011481Y116525D01*
X1011849Y116694D01*
X1012222Y116853D01*
X1012598Y117004D01*
X1012978Y117145D01*
X1013361Y117277D01*
X1013747Y117399D01*
X1014137Y117512D01*
X1014528Y117615D01*
X1014923Y117709D01*
X1015319Y117793D01*
X1015717Y117867D01*
X1016117Y117931D01*
X1016519Y117986D01*
X1016922Y118030D01*
X1017325Y118065D01*
X1017730Y118090D01*
X1018135Y118105D01*
X1018540Y118110D01*
X1018945Y118105D01*
X1019350Y118090D01*
X1019755Y118065D01*
X1020158Y118030D01*
X1020561Y117986D01*
X1020963Y117931D01*
X1021363Y117867D01*
X1021761Y117793D01*
X1022157Y117709D01*
X1022552Y117615D01*
X1022943Y117512D01*
X1023333Y117399D01*
X1023719Y117277D01*
X1024102Y117145D01*
X1024482Y117004D01*
X1024858Y116853D01*
X1025231Y116694D01*
X1025599Y116525D01*
X1025963Y116347D01*
X1026323Y116161D01*
X1026678Y115965D01*
X1027028Y115761D01*
X1027373Y115549D01*
X1027712Y115328D01*
X1028047Y115098D01*
X1028375Y114861D01*
X1028697Y114616D01*
X1029014Y114362D01*
X1029324Y114102D01*
X1029627Y113833D01*
X1029924Y113557D01*
X1030214Y113274D01*
X1030497Y112984D01*
X1030773Y112687D01*
X1031042Y112384D01*
X1031302Y112074D01*
X1031556Y111757D01*
X1031801Y111435D01*
X1032038Y111107D01*
X1032268Y110772D01*
X1032489Y110433D01*
X1032701Y110088D01*
X1032905Y109738D01*
X1033101Y109383D01*
X1033287Y109023D01*
X1033465Y108659D01*
X1033634Y108291D01*
X1033793Y107918D01*
X1033944Y107542D01*
X1034085Y107162D01*
X1034217Y106779D01*
X1034339Y106393D01*
X1034452Y106003D01*
X1034555Y105612D01*
X1034649Y105217D01*
X1034733Y104821D01*
X1034807Y104423D01*
X1034871Y104023D01*
X1034926Y103621D01*
X1034970Y103218D01*
X1035005Y102815D01*
X1035030Y102410D01*
X1035045Y102005D01*
X1035050Y101600D01*
X1035045Y101195D01*
X1035030Y100790D01*
X1035005Y100385D01*
X1034970Y99982D01*
X1034926Y99579D01*
X1034871Y99177D01*
X1034807Y98777D01*
X1034733Y98379D01*
X1034649Y97983D01*
X1034555Y97588D01*
X1034452Y97197D01*
X1034339Y96807D01*
X1034217Y96421D01*
X1034085Y96038D01*
X1033944Y95658D01*
X1033793Y95282D01*
X1033634Y94909D01*
X1033465Y94541D01*
X1033287Y94177D01*
X1033101Y93817D01*
X1032905Y93462D01*
X1032701Y93112D01*
X1032489Y92767D01*
X1032268Y92428D01*
X1032038Y92093D01*
X1031801Y91765D01*
X1031556Y91443D01*
X1031302Y91126D01*
X1031042Y90816D01*
X1030773Y90513D01*
X1030497Y90216D01*
X1030214Y89926D01*
X1029924Y89643D01*
X1029627Y89367D01*
X1029324Y89098D01*
X1029014Y88838D01*
X1028697Y88584D01*
X1028375Y88339D01*
X1028047Y88102D01*
X1027712Y87872D01*
X1027373Y87651D01*
X1027028Y87439D01*
X1026678Y87235D01*
X1026323Y87039D01*
X1025963Y86853D01*
X1025599Y86675D01*
X1025231Y86506D01*
X1024858Y86347D01*
X1024482Y86196D01*
X1024102Y86055D01*
X1023719Y85923D01*
X1023333Y85801D01*
X1022943Y85688D01*
X1022552Y85585D01*
X1022157Y85491D01*
X1021761Y85407D01*
X1021363Y85333D01*
X1020963Y85269D01*
X1020561Y85214D01*
X1020158Y85170D01*
X1019755Y85135D01*
X1019350Y85110D01*
X1018945Y85095D01*
X1018540Y85090D01*
X1018135Y85095D01*
X1017730Y85110D01*
X1017325Y85135D01*
X1016922Y85170D01*
X1016519Y85214D01*
X1016117Y85269D01*
X1015717Y85333D01*
X1015319Y85407D01*
X1014923Y85491D01*
X1014528Y85585D01*
X1014137Y85688D01*
X1013747Y85801D01*
X1013361Y85923D01*
X1012978Y86055D01*
X1012598Y86196D01*
X1012222Y86347D01*
X1011849Y86506D01*
X1011481Y86675D01*
X1011117Y86853D01*
X1010757Y87039D01*
X1010402Y87235D01*
X1010052Y87439D01*
X1009707Y87651D01*
X1009368Y87872D01*
X1009033Y88102D01*
X1008705Y88339D01*
X1008383Y88584D01*
X1008066Y88838D01*
X1007756Y89098D01*
X1007453Y89367D01*
X1007156Y89643D01*
X1006866Y89926D01*
X1006583Y90216D01*
X1006307Y90513D01*
X1006038Y90816D01*
X1005778Y91126D01*
X1005524Y91443D01*
X1005279Y91765D01*
X1005042Y92093D01*
X1004812Y92428D01*
X1004591Y92767D01*
X1004379Y93112D01*
X1004175Y93462D01*
X1003979Y93817D01*
X1003793Y94177D01*
X1003615Y94541D01*
X1003446Y94909D01*
X1003287Y95282D01*
X1003136Y95658D01*
X1002995Y96038D01*
X1002863Y96421D01*
X1002741Y96807D01*
X1002628Y97197D01*
X1002525Y97588D01*
X1002431Y97983D01*
X1002347Y98379D01*
X1002273Y98777D01*
X1002209Y99177D01*
X1002154Y99579D01*
X1002110Y99982D01*
X1002075Y100385D01*
X1002050Y100790D01*
X1002035Y101195D01*
X1002030Y101600D01*
D11*
X-1511300Y0D02*
X1536700Y0D01*
X1536700Y1524000D01*
X-1511300Y1524000D01*
X-1511300Y0D01*
X1286510Y1470120D02*
X1286439Y1469041D01*
X1286298Y1467969D01*
X1286087Y1466909D01*
X1285808Y1465865D01*
X1285460Y1464841D01*
X1285046Y1463843D01*
X1284568Y1462873D01*
X1284028Y1461937D01*
X1283427Y1461038D01*
X1282769Y1460181D01*
X1282057Y1459368D01*
X1281292Y1458604D01*
X1280479Y1457891D01*
X1279622Y1457233D01*
X1278723Y1456632D01*
X1277787Y1456092D01*
X1276817Y1455614D01*
X1275819Y1455200D01*
X1274795Y1454852D01*
X1273751Y1454573D01*
X1272691Y1454362D01*
X1271619Y1454221D01*
X1270540Y1454150D01*
X1269460Y1454150D01*
X1268381Y1454221D01*
X1267309Y1454362D01*
X1266249Y1454573D01*
X1265205Y1454852D01*
X1264181Y1455200D01*
X1263183Y1455614D01*
X1262213Y1456092D01*
X1261277Y1456632D01*
X1260378Y1457233D01*
X1259521Y1457891D01*
X1258708Y1458604D01*
X1257944Y1459368D01*
X1257231Y1460181D01*
X1256573Y1461038D01*
X1255972Y1461937D01*
X1255432Y1462873D01*
X1254954Y1463843D01*
X1254540Y1464841D01*
X1254192Y1465865D01*
X1253913Y1466909D01*
X1253702Y1467969D01*
X1253561Y1469041D01*
X1253490Y1470120D01*
X1253490Y1471200D01*
X1253561Y1472279D01*
X1253702Y1473351D01*
X1253913Y1474411D01*
X1254192Y1475455D01*
X1254540Y1476479D01*
X1254954Y1477477D01*
X1255432Y1478447D01*
X1255972Y1479383D01*
X1256573Y1480282D01*
X1257231Y1481139D01*
X1257944Y1481952D01*
X1258708Y1482717D01*
X1259521Y1483429D01*
X1260378Y1484087D01*
X1261277Y1484688D01*
X1262213Y1485228D01*
X1263183Y1485706D01*
X1264181Y1486120D01*
X1265205Y1486468D01*
X1266249Y1486747D01*
X1267309Y1486958D01*
X1268381Y1487099D01*
X1269460Y1487170D01*
X1270540Y1487170D01*
X1271619Y1487099D01*
X1272691Y1486958D01*
X1273751Y1486747D01*
X1274795Y1486468D01*
X1275819Y1486120D01*
X1276817Y1485706D01*
X1277787Y1485228D01*
X1278723Y1484688D01*
X1279622Y1484087D01*
X1280479Y1483429D01*
X1281292Y1482717D01*
X1282057Y1481952D01*
X1282769Y1481139D01*
X1283427Y1480282D01*
X1284028Y1479383D01*
X1284568Y1478447D01*
X1285046Y1477477D01*
X1285460Y1476479D01*
X1285808Y1475455D01*
X1286087Y1474411D01*
X1286298Y1473351D01*
X1286439Y1472279D01*
X1286510Y1471200D01*
X1286510Y1470120D01*
X1019080Y118110D02*
X1020159Y118039D01*
X1021231Y117898D01*
X1022291Y117687D01*
X1023335Y117408D01*
X1024359Y117060D01*
X1025357Y116646D01*
X1026327Y116168D01*
X1027263Y115628D01*
X1028162Y115027D01*
X1029019Y114369D01*
X1029832Y113657D01*
X1030597Y112892D01*
X1031309Y112079D01*
X1031967Y111222D01*
X1032568Y110323D01*
X1033108Y109387D01*
X1033586Y108417D01*
X1034000Y107419D01*
X1034348Y106395D01*
X1034627Y105351D01*
X1034838Y104291D01*
X1034979Y103219D01*
X1035050Y102140D01*
X1035050Y101060D01*
X1034979Y99981D01*
X1034838Y98909D01*
X1034627Y97849D01*
X1034348Y96805D01*
X1034000Y95781D01*
X1033586Y94783D01*
X1033108Y93813D01*
X1032568Y92877D01*
X1031967Y91978D01*
X1031309Y91121D01*
X1030597Y90308D01*
X1029832Y89544D01*
X1029019Y88831D01*
X1028162Y88173D01*
X1027263Y87572D01*
X1026327Y87032D01*
X1025357Y86554D01*
X1024359Y86140D01*
X1023335Y85792D01*
X1022291Y85513D01*
X1021231Y85302D01*
X1020159Y85161D01*
X1019080Y85090D01*
X1018000Y85090D01*
X1016921Y85161D01*
X1015849Y85302D01*
X1014789Y85513D01*
X1013745Y85792D01*
X1012721Y86140D01*
X1011723Y86554D01*
X1010753Y87032D01*
X1009817Y87572D01*
X1008918Y88173D01*
X1008061Y88831D01*
X1007248Y89544D01*
X1006484Y90308D01*
X1005771Y91121D01*
X1005113Y91978D01*
X1004512Y92877D01*
X1003972Y93813D01*
X1003494Y94783D01*
X1003080Y95781D01*
X1002732Y96805D01*
X1002453Y97849D01*
X1002242Y98909D01*
X1002101Y99981D01*
X1002030Y101060D01*
X1002030Y102140D01*
X1002101Y103219D01*
X1002242Y104291D01*
X1002453Y105351D01*
X1002732Y106395D01*
X1003080Y107419D01*
X1003494Y108417D01*
X1003972Y109387D01*
X1004512Y110323D01*
X1005113Y111222D01*
X1005771Y112079D01*
X1006484Y112892D01*
X1007248Y113657D01*
X1008061Y114369D01*
X1008918Y115027D01*
X1009817Y115628D01*
X1010753Y116168D01*
X1011723Y116646D01*
X1012721Y117060D01*
X1013745Y117408D01*
X1014789Y117687D01*
X1015849Y117898D01*
X1016921Y118039D01*
X1018000Y118110D01*
X1019080Y118110D01*
M02*
